  0
SECTION
  2
HEADER
  9
$ACADVER
  1
AC1009
  9
$FILLMODE
 70
 0
  9
$SPLFRAME
 70
 1
  9
$EXTMIN
 10
0
 20
0
 30
0.0
  9
$EXTMAX
 10
1058.33
 20
1058.33
 30
0.0
  0
ENDSEC
  0
SECTION
  2
TABLES
  0
TABLE
  2
LAYER
 70
1
  0
LAYER
  2
0
 70
     0
 62
     7
  6
CONTINUOUS
  0
ENDTAB
  0
ENDSEC
  0
SECTION
  2
ENTITIES
  0
LINE
  8
0
 62
     0
 10
0.0950846
 20
96.5659
 30
0.0
 11
305.846
 21
96.5659
 31
0.0
  0
LINE
  8
0
 62
     0
 10
305.846
 20
96.5659
 30
0.0
 11
305.846
 21
0.365181
 31
0.0
  0
LINE
  8
0
 62
     0
 10
305.846
 20
0.365181
 30
0.0
 11
0.0950846
 21
0.365181
 31
0.0
  0
LINE
  8
0
 62
     0
 10
0.0950846
 20
0.365181
 30
0.0
 11
0.0950846
 21
96.5659
 31
0.0
  0
LINE
  8
0
 62
     0
 10
110.25
 20
26.8911
 30
0.0
 11
110.25
 21
25.8919
 31
0.0
  0
LINE
  8
0
 62
     0
 10
110.25
 20
25.8919
 30
0.0
 11
109.451
 21
25.8919
 31
0.0
  0
LINE
  8
0
 62
     0
 10
109.451
 20
25.8919
 30
0.0
 11
109.451
 21
22.7928
 31
0.0
  0
LINE
  8
0
 62
     0
 10
109.451
 20
22.7928
 30
0.0
 11
110.25
 21
22.7928
 31
0.0
  0
LINE
  8
0
 62
     0
 10
110.25
 20
22.7928
 30
0.0
 11
110.25
 21
22.1919
 31
0.0
  0
LINE
  8
0
 62
     0
 10
110.25
 20
22.1919
 30
0.0
 11
108.726
 21
22.1919
 31
0.0
  0
LINE
  8
0
 62
     0
 10
108.726
 20
22.1919
 30
0.0
 11
108.726
 21
25.422
 31
0.0
  0
LINE
  8
0
 62
     0
 10
108.726
 20
25.422
 30
0.0
 11
101.975
 21
25.422
 31
0.0
  0
LINE
  8
0
 62
     0
 10
101.975
 20
25.422
 30
0.0
 11
101.975
 21
22.1919
 31
0.0
  0
LINE
  8
0
 62
     0
 10
101.975
 20
22.1919
 30
0.0
 11
101.151
 21
22.1919
 31
0.0
  0
LINE
  8
0
 62
     0
 10
101.151
 20
22.1919
 30
0.0
 11
101.151
 21
19.3918
 31
0.0
  0
LINE
  8
0
 62
     0
 10
101.151
 20
19.3918
 30
0.0
 11
101.975
 21
19.3918
 31
0.0
  0
LINE
  8
0
 62
     0
 10
101.975
 20
19.3918
 30
0.0
 11
101.975
 21
13.1217
 31
0.0
  0
LINE
  8
0
 62
     0
 10
101.975
 20
13.1217
 30
0.0
 11
103.7
 21
13.1217
 31
0.0
  0
LINE
  8
0
 62
     0
 10
103.7
 20
13.1217
 30
0.0
 11
103.7
 21
11.9214
 31
0.0
  0
LINE
  8
0
 62
     0
 10
103.7
 20
11.9214
 30
0.0
 11
107.001
 21
11.9214
 31
0.0
  0
LINE
  8
0
 62
     0
 10
107.001
 20
11.9214
 30
0.0
 11
107.001
 21
13.1217
 31
0.0
  0
LINE
  8
0
 62
     0
 10
107.001
 20
13.1217
 30
0.0
 11
108.726
 21
13.1217
 31
0.0
  0
LINE
  8
0
 62
     0
 10
108.726
 20
13.1217
 30
0.0
 11
108.726
 21
17.592
 31
0.0
  0
LINE
  8
0
 62
     0
 10
108.726
 20
17.592
 30
0.0
 11
110.25
 21
17.592
 31
0.0
  0
LINE
  8
0
 62
     0
 10
110.25
 20
17.592
 30
0.0
 11
110.25
 21
16.9912
 31
0.0
  0
LINE
  8
0
 62
     0
 10
110.25
 20
16.9912
 30
0.0
 11
109.451
 21
16.9912
 31
0.0
  0
LINE
  8
0
 62
     0
 10
109.451
 20
16.9912
 30
0.0
 11
109.451
 21
13.892
 31
0.0
  0
LINE
  8
0
 62
     0
 10
109.451
 20
13.892
 30
0.0
 11
110.25
 21
13.892
 31
0.0
  0
LINE
  8
0
 62
     0
 10
110.25
 20
13.892
 30
0.0
 11
110.25
 21
12.8916
 31
0.0
  0
LINE
  8
0
 62
     0
 10
110.25
 20
12.8916
 30
0.0
 11
124.251
 21
12.8916
 31
0.0
  0
LINE
  8
0
 62
     0
 10
124.251
 20
12.8916
 30
0.0
 11
124.251
 21
13.892
 31
0.0
  0
LINE
  8
0
 62
     0
 10
124.251
 20
13.892
 30
0.0
 11
125.05
 21
13.892
 31
0.0
  0
LINE
  8
0
 62
     0
 10
125.05
 20
13.892
 30
0.0
 11
125.05
 21
16.9912
 31
0.0
  0
LINE
  8
0
 62
     0
 10
125.05
 20
16.9912
 30
0.0
 11
124.251
 21
16.9912
 31
0.0
  0
LINE
  8
0
 62
     0
 10
124.251
 20
16.9912
 30
0.0
 11
124.251
 21
17.592
 31
0.0
  0
LINE
  8
0
 62
     0
 10
124.251
 20
17.592
 30
0.0
 11
125.775
 21
17.592
 31
0.0
  0
LINE
  8
0
 62
     0
 10
125.775
 20
17.592
 30
0.0
 11
125.775
 21
13.1217
 31
0.0
  0
LINE
  8
0
 62
     0
 10
125.775
 20
13.1217
 30
0.0
 11
127.5
 21
13.1217
 31
0.0
  0
LINE
  8
0
 62
     0
 10
127.5
 20
13.1217
 30
0.0
 11
127.5
 21
11.9214
 31
0.0
  0
LINE
  8
0
 62
     0
 10
127.5
 20
11.9214
 30
0.0
 11
130.8
 21
11.9214
 31
0.0
  0
LINE
  8
0
 62
     0
 10
130.8
 20
11.9214
 30
0.0
 11
130.8
 21
13.1217
 31
0.0
  0
LINE
  8
0
 62
     0
 10
130.8
 20
13.1217
 30
0.0
 11
132.526
 21
13.1217
 31
0.0
  0
LINE
  8
0
 62
     0
 10
132.526
 20
13.1217
 30
0.0
 11
132.526
 21
19.3918
 31
0.0
  0
LINE
  8
0
 62
     0
 10
132.526
 20
19.3918
 30
0.0
 11
133.35
 21
19.3918
 31
0.0
  0
LINE
  8
0
 62
     0
 10
133.35
 20
19.3918
 30
0.0
 11
133.35
 21
22.1919
 31
0.0
  0
LINE
  8
0
 62
     0
 10
133.35
 20
22.1919
 30
0.0
 11
132.526
 21
22.1919
 31
0.0
  0
LINE
  8
0
 62
     0
 10
132.526
 20
22.1919
 30
0.0
 11
132.526
 21
25.422
 31
0.0
  0
LINE
  8
0
 62
     0
 10
132.526
 20
25.422
 30
0.0
 11
125.775
 21
25.422
 31
0.0
  0
LINE
  8
0
 62
     0
 10
125.775
 20
25.422
 30
0.0
 11
125.775
 21
22.1919
 31
0.0
  0
LINE
  8
0
 62
     0
 10
125.775
 20
22.1919
 30
0.0
 11
124.251
 21
22.1919
 31
0.0
  0
LINE
  8
0
 62
     0
 10
124.251
 20
22.1919
 30
0.0
 11
124.251
 21
22.7928
 31
0.0
  0
LINE
  8
0
 62
     0
 10
124.251
 20
22.7928
 30
0.0
 11
125.05
 21
22.7928
 31
0.0
  0
LINE
  8
0
 62
     0
 10
125.05
 20
22.7928
 30
0.0
 11
125.05
 21
25.8919
 31
0.0
  0
LINE
  8
0
 62
     0
 10
125.05
 20
25.8919
 30
0.0
 11
124.251
 21
25.8919
 31
0.0
  0
LINE
  8
0
 62
     0
 10
124.251
 20
25.8919
 30
0.0
 11
124.251
 21
26.8911
 31
0.0
  0
LINE
  8
0
 62
     0
 10
124.251
 20
26.8911
 30
0.0
 11
110.25
 21
26.8911
 31
0.0
  0
LINE
  8
0
 62
     0
 10
157.875
 20
26.8911
 30
0.0
 11
157.875
 21
25.8919
 31
0.0
  0
LINE
  8
0
 62
     0
 10
157.875
 20
25.8919
 30
0.0
 11
157.076
 21
25.8919
 31
0.0
  0
LINE
  8
0
 62
     0
 10
157.076
 20
25.8919
 30
0.0
 11
157.076
 21
22.7928
 31
0.0
  0
LINE
  8
0
 62
     0
 10
157.076
 20
22.7928
 30
0.0
 11
157.875
 21
22.7928
 31
0.0
  0
LINE
  8
0
 62
     0
 10
157.875
 20
22.7928
 30
0.0
 11
157.875
 21
22.1919
 31
0.0
  0
LINE
  8
0
 62
     0
 10
157.875
 20
22.1919
 30
0.0
 11
156.351
 21
22.1919
 31
0.0
  0
LINE
  8
0
 62
     0
 10
156.351
 20
22.1919
 30
0.0
 11
156.351
 21
25.422
 31
0.0
  0
LINE
  8
0
 62
     0
 10
156.351
 20
25.422
 30
0.0
 11
149.6
 21
25.422
 31
0.0
  0
LINE
  8
0
 62
     0
 10
149.6
 20
25.422
 30
0.0
 11
149.6
 21
22.1919
 31
0.0
  0
LINE
  8
0
 62
     0
 10
149.6
 20
22.1919
 30
0.0
 11
148.776
 21
22.1919
 31
0.0
  0
LINE
  8
0
 62
     0
 10
148.776
 20
22.1919
 30
0.0
 11
148.776
 21
19.3918
 31
0.0
  0
LINE
  8
0
 62
     0
 10
148.776
 20
19.3918
 30
0.0
 11
149.6
 21
19.3918
 31
0.0
  0
LINE
  8
0
 62
     0
 10
149.6
 20
19.3918
 30
0.0
 11
149.6
 21
13.1217
 31
0.0
  0
LINE
  8
0
 62
     0
 10
149.6
 20
13.1217
 30
0.0
 11
151.325
 21
13.1217
 31
0.0
  0
LINE
  8
0
 62
     0
 10
151.325
 20
13.1217
 30
0.0
 11
151.325
 21
11.9214
 31
0.0
  0
LINE
  8
0
 62
     0
 10
151.325
 20
11.9214
 30
0.0
 11
154.626
 21
11.9214
 31
0.0
  0
LINE
  8
0
 62
     0
 10
154.626
 20
11.9214
 30
0.0
 11
154.626
 21
13.1217
 31
0.0
  0
LINE
  8
0
 62
     0
 10
154.626
 20
13.1217
 30
0.0
 11
156.351
 21
13.1217
 31
0.0
  0
LINE
  8
0
 62
     0
 10
156.351
 20
13.1217
 30
0.0
 11
156.351
 21
17.592
 31
0.0
  0
LINE
  8
0
 62
     0
 10
156.351
 20
17.592
 30
0.0
 11
157.875
 21
17.592
 31
0.0
  0
LINE
  8
0
 62
     0
 10
157.875
 20
17.592
 30
0.0
 11
157.875
 21
16.9912
 31
0.0
  0
LINE
  8
0
 62
     0
 10
157.875
 20
16.9912
 30
0.0
 11
157.076
 21
16.9912
 31
0.0
  0
LINE
  8
0
 62
     0
 10
157.076
 20
16.9912
 30
0.0
 11
157.076
 21
13.892
 31
0.0
  0
LINE
  8
0
 62
     0
 10
157.076
 20
13.892
 30
0.0
 11
157.875
 21
13.892
 31
0.0
  0
LINE
  8
0
 62
     0
 10
157.875
 20
13.892
 30
0.0
 11
157.875
 21
12.8916
 31
0.0
  0
LINE
  8
0
 62
     0
 10
157.875
 20
12.8916
 30
0.0
 11
171.876
 21
12.8916
 31
0.0
  0
LINE
  8
0
 62
     0
 10
171.876
 20
12.8916
 30
0.0
 11
171.876
 21
13.892
 31
0.0
  0
LINE
  8
0
 62
     0
 10
171.876
 20
13.892
 30
0.0
 11
172.675
 21
13.892
 31
0.0
  0
LINE
  8
0
 62
     0
 10
172.675
 20
13.892
 30
0.0
 11
172.675
 21
16.9912
 31
0.0
  0
LINE
  8
0
 62
     0
 10
172.675
 20
16.9912
 30
0.0
 11
171.876
 21
16.9912
 31
0.0
  0
LINE
  8
0
 62
     0
 10
171.876
 20
16.9912
 30
0.0
 11
171.876
 21
17.592
 31
0.0
  0
LINE
  8
0
 62
     0
 10
171.876
 20
17.592
 30
0.0
 11
173.4
 21
17.592
 31
0.0
  0
LINE
  8
0
 62
     0
 10
173.4
 20
17.592
 30
0.0
 11
173.4
 21
13.1217
 31
0.0
  0
LINE
  8
0
 62
     0
 10
173.4
 20
13.1217
 30
0.0
 11
175.125
 21
13.1217
 31
0.0
  0
LINE
  8
0
 62
     0
 10
175.125
 20
13.1217
 30
0.0
 11
175.125
 21
11.9214
 31
0.0
  0
LINE
  8
0
 62
     0
 10
175.125
 20
11.9214
 30
0.0
 11
178.425
 21
11.9214
 31
0.0
  0
LINE
  8
0
 62
     0
 10
178.425
 20
11.9214
 30
0.0
 11
178.425
 21
13.1217
 31
0.0
  0
LINE
  8
0
 62
     0
 10
178.425
 20
13.1217
 30
0.0
 11
180.151
 21
13.1217
 31
0.0
  0
LINE
  8
0
 62
     0
 10
180.151
 20
13.1217
 30
0.0
 11
180.151
 21
19.3918
 31
0.0
  0
LINE
  8
0
 62
     0
 10
180.151
 20
19.3918
 30
0.0
 11
180.975
 21
19.3918
 31
0.0
  0
LINE
  8
0
 62
     0
 10
180.975
 20
19.3918
 30
0.0
 11
180.975
 21
22.1919
 31
0.0
  0
LINE
  8
0
 62
     0
 10
180.975
 20
22.1919
 30
0.0
 11
180.151
 21
22.1919
 31
0.0
  0
LINE
  8
0
 62
     0
 10
180.151
 20
22.1919
 30
0.0
 11
180.151
 21
25.422
 31
0.0
  0
LINE
  8
0
 62
     0
 10
180.151
 20
25.422
 30
0.0
 11
173.4
 21
25.422
 31
0.0
  0
LINE
  8
0
 62
     0
 10
173.4
 20
25.422
 30
0.0
 11
173.4
 21
22.1919
 31
0.0
  0
LINE
  8
0
 62
     0
 10
173.4
 20
22.1919
 30
0.0
 11
171.876
 21
22.1919
 31
0.0
  0
LINE
  8
0
 62
     0
 10
171.876
 20
22.1919
 30
0.0
 11
171.876
 21
22.7928
 31
0.0
  0
LINE
  8
0
 62
     0
 10
171.876
 20
22.7928
 30
0.0
 11
172.675
 21
22.7928
 31
0.0
  0
LINE
  8
0
 62
     0
 10
172.675
 20
22.7928
 30
0.0
 11
172.675
 21
25.8919
 31
0.0
  0
LINE
  8
0
 62
     0
 10
172.675
 20
25.8919
 30
0.0
 11
171.876
 21
25.8919
 31
0.0
  0
LINE
  8
0
 62
     0
 10
171.876
 20
25.8919
 30
0.0
 11
171.876
 21
26.8911
 31
0.0
  0
LINE
  8
0
 62
     0
 10
171.876
 20
26.8911
 30
0.0
 11
157.875
 21
26.8911
 31
0.0
  0
LINE
  8
0
 62
     0
 10
53.1001
 20
26.8911
 30
0.0
 11
53.1001
 21
25.8919
 31
0.0
  0
LINE
  8
0
 62
     0
 10
53.1001
 20
25.8919
 30
0.0
 11
52.3007
 21
25.8919
 31
0.0
  0
LINE
  8
0
 62
     0
 10
52.3007
 20
25.8919
 30
0.0
 11
52.3007
 21
22.7928
 31
0.0
  0
LINE
  8
0
 62
     0
 10
52.3007
 20
22.7928
 30
0.0
 11
53.1001
 21
22.7928
 31
0.0
  0
LINE
  8
0
 62
     0
 10
53.1001
 20
22.7928
 30
0.0
 11
53.1001
 21
16.9912
 31
0.0
  0
LINE
  8
0
 62
     0
 10
53.1001
 20
16.9912
 30
0.0
 11
52.3007
 21
16.9912
 31
0.0
  0
LINE
  8
0
 62
     0
 10
52.3007
 20
16.9912
 30
0.0
 11
52.3007
 21
13.892
 31
0.0
  0
LINE
  8
0
 62
     0
 10
52.3007
 20
13.892
 30
0.0
 11
53.1001
 21
13.892
 31
0.0
  0
LINE
  8
0
 62
     0
 10
53.1001
 20
13.892
 30
0.0
 11
53.1001
 21
12.8916
 31
0.0
  0
LINE
  8
0
 62
     0
 10
53.1001
 20
12.8916
 30
0.0
 11
67.1008
 21
12.8916
 31
0.0
  0
LINE
  8
0
 62
     0
 10
67.1008
 20
12.8916
 30
0.0
 11
67.1008
 21
13.892
 31
0.0
  0
LINE
  8
0
 62
     0
 10
67.1008
 20
13.892
 30
0.0
 11
67.9002
 21
13.892
 31
0.0
  0
LINE
  8
0
 62
     0
 10
67.9002
 20
13.892
 30
0.0
 11
67.9002
 21
16.9912
 31
0.0
  0
LINE
  8
0
 62
     0
 10
67.9002
 20
16.9912
 30
0.0
 11
67.1008
 21
16.9912
 31
0.0
  0
LINE
  8
0
 62
     0
 10
67.1008
 20
16.9912
 30
0.0
 11
67.1008
 21
22.7928
 31
0.0
  0
LINE
  8
0
 62
     0
 10
67.1008
 20
22.7928
 30
0.0
 11
67.9002
 21
22.7928
 31
0.0
  0
LINE
  8
0
 62
     0
 10
67.9002
 20
22.7928
 30
0.0
 11
67.9002
 21
25.8919
 31
0.0
  0
LINE
  8
0
 62
     0
 10
67.9002
 20
25.8919
 30
0.0
 11
67.1008
 21
25.8919
 31
0.0
  0
LINE
  8
0
 62
     0
 10
67.1008
 20
25.8919
 30
0.0
 11
67.1008
 21
26.8911
 31
0.0
  0
LINE
  8
0
 62
     0
 10
67.1008
 20
26.8911
 30
0.0
 11
53.1001
 21
26.8911
 31
0.0
  0
LINE
  8
0
 62
     0
 10
76.9126
 20
26.8911
 30
0.0
 11
76.9126
 21
25.8919
 31
0.0
  0
LINE
  8
0
 62
     0
 10
76.9126
 20
25.8919
 30
0.0
 11
76.1118
 21
25.8919
 31
0.0
  0
LINE
  8
0
 62
     0
 10
76.1118
 20
25.8919
 30
0.0
 11
76.1118
 21
22.7928
 31
0.0
  0
LINE
  8
0
 62
     0
 10
76.1118
 20
22.7928
 30
0.0
 11
76.9126
 21
22.7928
 31
0.0
  0
LINE
  8
0
 62
     0
 10
76.9126
 20
22.7928
 30
0.0
 11
76.9126
 21
16.9912
 31
0.0
  0
LINE
  8
0
 62
     0
 10
76.9126
 20
16.9912
 30
0.0
 11
76.1118
 21
16.9912
 31
0.0
  0
LINE
  8
0
 62
     0
 10
76.1118
 20
16.9912
 30
0.0
 11
76.1118
 21
13.892
 31
0.0
  0
LINE
  8
0
 62
     0
 10
76.1118
 20
13.892
 30
0.0
 11
76.9126
 21
13.892
 31
0.0
  0
LINE
  8
0
 62
     0
 10
76.9126
 20
13.892
 30
0.0
 11
76.9126
 21
12.8916
 31
0.0
  0
LINE
  8
0
 62
     0
 10
76.9126
 20
12.8916
 30
0.0
 11
90.9119
 21
12.8916
 31
0.0
  0
LINE
  8
0
 62
     0
 10
90.9119
 20
12.8916
 30
0.0
 11
90.9119
 21
13.892
 31
0.0
  0
LINE
  8
0
 62
     0
 10
90.9119
 20
13.892
 30
0.0
 11
91.7127
 21
13.892
 31
0.0
  0
LINE
  8
0
 62
     0
 10
91.7127
 20
13.892
 30
0.0
 11
91.7127
 21
16.9912
 31
0.0
  0
LINE
  8
0
 62
     0
 10
91.7127
 20
16.9912
 30
0.0
 11
90.9119
 21
16.9912
 31
0.0
  0
LINE
  8
0
 62
     0
 10
90.9119
 20
16.9912
 30
0.0
 11
90.9119
 21
22.7928
 31
0.0
  0
LINE
  8
0
 62
     0
 10
90.9119
 20
22.7928
 30
0.0
 11
91.7127
 21
22.7928
 31
0.0
  0
LINE
  8
0
 62
     0
 10
91.7127
 20
22.7928
 30
0.0
 11
91.7127
 21
25.8919
 31
0.0
  0
LINE
  8
0
 62
     0
 10
91.7127
 20
25.8919
 30
0.0
 11
90.9119
 21
25.8919
 31
0.0
  0
LINE
  8
0
 62
     0
 10
90.9119
 20
25.8919
 30
0.0
 11
90.9119
 21
26.8911
 31
0.0
  0
LINE
  8
0
 62
     0
 10
90.9119
 20
26.8911
 30
0.0
 11
76.9126
 21
26.8911
 31
0.0
  0
LINE
  8
0
 62
     0
 10
195.975
 20
26.8911
 30
0.0
 11
195.975
 21
25.8919
 31
0.0
  0
LINE
  8
0
 62
     0
 10
195.975
 20
25.8919
 30
0.0
 11
195.176
 21
25.8919
 31
0.0
  0
LINE
  8
0
 62
     0
 10
195.176
 20
25.8919
 30
0.0
 11
195.176
 21
22.7928
 31
0.0
  0
LINE
  8
0
 62
     0
 10
195.176
 20
22.7928
 30
0.0
 11
195.975
 21
22.7928
 31
0.0
  0
LINE
  8
0
 62
     0
 10
195.975
 20
22.7928
 30
0.0
 11
195.975
 21
16.9912
 31
0.0
  0
LINE
  8
0
 62
     0
 10
195.975
 20
16.9912
 30
0.0
 11
195.176
 21
16.9912
 31
0.0
  0
LINE
  8
0
 62
     0
 10
195.176
 20
16.9912
 30
0.0
 11
195.176
 21
13.892
 31
0.0
  0
LINE
  8
0
 62
     0
 10
195.176
 20
13.892
 30
0.0
 11
195.975
 21
13.892
 31
0.0
  0
LINE
  8
0
 62
     0
 10
195.975
 20
13.892
 30
0.0
 11
195.975
 21
12.8916
 31
0.0
  0
LINE
  8
0
 62
     0
 10
195.975
 20
12.8916
 30
0.0
 11
209.976
 21
12.8916
 31
0.0
  0
LINE
  8
0
 62
     0
 10
209.976
 20
12.8916
 30
0.0
 11
209.976
 21
13.892
 31
0.0
  0
LINE
  8
0
 62
     0
 10
209.976
 20
13.892
 30
0.0
 11
210.775
 21
13.892
 31
0.0
  0
LINE
  8
0
 62
     0
 10
210.775
 20
13.892
 30
0.0
 11
210.775
 21
16.9912
 31
0.0
  0
LINE
  8
0
 62
     0
 10
210.775
 20
16.9912
 30
0.0
 11
209.976
 21
16.9912
 31
0.0
  0
LINE
  8
0
 62
     0
 10
209.976
 20
16.9912
 30
0.0
 11
209.976
 21
22.7928
 31
0.0
  0
LINE
  8
0
 62
     0
 10
209.976
 20
22.7928
 30
0.0
 11
210.775
 21
22.7928
 31
0.0
  0
LINE
  8
0
 62
     0
 10
210.775
 20
22.7928
 30
0.0
 11
210.775
 21
25.8919
 31
0.0
  0
LINE
  8
0
 62
     0
 10
210.775
 20
25.8919
 30
0.0
 11
209.976
 21
25.8919
 31
0.0
  0
LINE
  8
0
 62
     0
 10
209.976
 20
25.8919
 30
0.0
 11
209.976
 21
26.8911
 31
0.0
  0
LINE
  8
0
 62
     0
 10
209.976
 20
26.8911
 30
0.0
 11
195.975
 21
26.8911
 31
0.0
  0
LINE
  8
0
 62
     0
 10
219.788
 20
26.8911
 30
0.0
 11
219.788
 21
25.8919
 31
0.0
  0
LINE
  8
0
 62
     0
 10
219.788
 20
25.8919
 30
0.0
 11
218.987
 21
25.8919
 31
0.0
  0
LINE
  8
0
 62
     0
 10
218.987
 20
25.8919
 30
0.0
 11
218.987
 21
22.7928
 31
0.0
  0
LINE
  8
0
 62
     0
 10
218.987
 20
22.7928
 30
0.0
 11
219.788
 21
22.7928
 31
0.0
  0
LINE
  8
0
 62
     0
 10
219.788
 20
22.7928
 30
0.0
 11
219.788
 21
16.9912
 31
0.0
  0
LINE
  8
0
 62
     0
 10
219.788
 20
16.9912
 30
0.0
 11
218.987
 21
16.9912
 31
0.0
  0
LINE
  8
0
 62
     0
 10
218.987
 20
16.9912
 30
0.0
 11
218.987
 21
13.892
 31
0.0
  0
LINE
  8
0
 62
     0
 10
218.987
 20
13.892
 30
0.0
 11
219.788
 21
13.892
 31
0.0
  0
LINE
  8
0
 62
     0
 10
219.788
 20
13.892
 30
0.0
 11
219.788
 21
12.8916
 31
0.0
  0
LINE
  8
0
 62
     0
 10
219.788
 20
12.8916
 30
0.0
 11
233.787
 21
12.8916
 31
0.0
  0
LINE
  8
0
 62
     0
 10
233.787
 20
12.8916
 30
0.0
 11
233.787
 21
13.892
 31
0.0
  0
LINE
  8
0
 62
     0
 10
233.787
 20
13.892
 30
0.0
 11
234.588
 21
13.892
 31
0.0
  0
LINE
  8
0
 62
     0
 10
234.588
 20
13.892
 30
0.0
 11
234.588
 21
16.9912
 31
0.0
  0
LINE
  8
0
 62
     0
 10
234.588
 20
16.9912
 30
0.0
 11
233.787
 21
16.9912
 31
0.0
  0
LINE
  8
0
 62
     0
 10
233.787
 20
16.9912
 30
0.0
 11
233.787
 21
22.7928
 31
0.0
  0
LINE
  8
0
 62
     0
 10
233.787
 20
22.7928
 30
0.0
 11
234.588
 21
22.7928
 31
0.0
  0
LINE
  8
0
 62
     0
 10
234.588
 20
22.7928
 30
0.0
 11
234.588
 21
25.8919
 31
0.0
  0
LINE
  8
0
 62
     0
 10
234.588
 20
25.8919
 30
0.0
 11
233.787
 21
25.8919
 31
0.0
  0
LINE
  8
0
 62
     0
 10
233.787
 20
25.8919
 30
0.0
 11
233.787
 21
26.8911
 31
0.0
  0
LINE
  8
0
 62
     0
 10
233.787
 20
26.8911
 30
0.0
 11
219.788
 21
26.8911
 31
0.0
  0
LINE
  8
0
 62
     0
 10
243.6
 20
26.8911
 30
0.0
 11
243.6
 21
25.8919
 31
0.0
  0
LINE
  8
0
 62
     0
 10
243.6
 20
25.8919
 30
0.0
 11
242.801
 21
25.8919
 31
0.0
  0
LINE
  8
0
 62
     0
 10
242.801
 20
25.8919
 30
0.0
 11
242.801
 21
22.7928
 31
0.0
  0
LINE
  8
0
 62
     0
 10
242.801
 20
22.7928
 30
0.0
 11
243.6
 21
22.7928
 31
0.0
  0
LINE
  8
0
 62
     0
 10
243.6
 20
22.7928
 30
0.0
 11
243.6
 21
16.9912
 31
0.0
  0
LINE
  8
0
 62
     0
 10
243.6
 20
16.9912
 30
0.0
 11
242.801
 21
16.9912
 31
0.0
  0
LINE
  8
0
 62
     0
 10
242.801
 20
16.9912
 30
0.0
 11
242.801
 21
13.892
 31
0.0
  0
LINE
  8
0
 62
     0
 10
242.801
 20
13.892
 30
0.0
 11
243.6
 21
13.892
 31
0.0
  0
LINE
  8
0
 62
     0
 10
243.6
 20
13.892
 30
0.0
 11
243.6
 21
12.8916
 31
0.0
  0
LINE
  8
0
 62
     0
 10
243.6
 20
12.8916
 30
0.0
 11
257.601
 21
12.8916
 31
0.0
  0
LINE
  8
0
 62
     0
 10
257.601
 20
12.8916
 30
0.0
 11
257.601
 21
13.892
 31
0.0
  0
LINE
  8
0
 62
     0
 10
257.601
 20
13.892
 30
0.0
 11
258.4
 21
13.892
 31
0.0
  0
LINE
  8
0
 62
     0
 10
258.4
 20
13.892
 30
0.0
 11
258.4
 21
16.9912
 31
0.0
  0
LINE
  8
0
 62
     0
 10
258.4
 20
16.9912
 30
0.0
 11
257.601
 21
16.9912
 31
0.0
  0
LINE
  8
0
 62
     0
 10
257.601
 20
16.9912
 30
0.0
 11
257.601
 21
22.7928
 31
0.0
  0
LINE
  8
0
 62
     0
 10
257.601
 20
22.7928
 30
0.0
 11
258.4
 21
22.7928
 31
0.0
  0
LINE
  8
0
 62
     0
 10
258.4
 20
22.7928
 30
0.0
 11
258.4
 21
25.8919
 31
0.0
  0
LINE
  8
0
 62
     0
 10
258.4
 20
25.8919
 30
0.0
 11
257.601
 21
25.8919
 31
0.0
  0
LINE
  8
0
 62
     0
 10
257.601
 20
25.8919
 30
0.0
 11
257.601
 21
26.8911
 31
0.0
  0
LINE
  8
0
 62
     0
 10
257.601
 20
26.8911
 30
0.0
 11
243.6
 21
26.8911
 31
0.0
  0
LINE
  8
0
 62
     0
 10
24.5249
 20
45.9412
 30
0.0
 11
24.5249
 21
44.9421
 31
0.0
  0
LINE
  8
0
 62
     0
 10
24.5249
 20
44.9421
 30
0.0
 11
23.7257
 21
44.9421
 31
0.0
  0
LINE
  8
0
 62
     0
 10
23.7257
 20
44.9421
 30
0.0
 11
23.7257
 21
41.8412
 31
0.0
  0
LINE
  8
0
 62
     0
 10
23.7257
 20
41.8412
 30
0.0
 11
24.5249
 21
41.8412
 31
0.0
  0
LINE
  8
0
 62
     0
 10
24.5249
 20
41.8412
 30
0.0
 11
24.5249
 21
41.2418
 31
0.0
  0
LINE
  8
0
 62
     0
 10
24.5249
 20
41.2418
 30
0.0
 11
23.0008
 21
41.2418
 31
0.0
  0
LINE
  8
0
 62
     0
 10
23.0008
 20
41.2418
 30
0.0
 11
23.0008
 21
44.4722
 31
0.0
  0
LINE
  8
0
 62
     0
 10
23.0008
 20
44.4722
 30
0.0
 11
16.2498
 21
44.4722
 31
0.0
  0
LINE
  8
0
 62
     0
 10
16.2498
 20
44.4722
 30
0.0
 11
16.2498
 21
41.2418
 31
0.0
  0
LINE
  8
0
 62
     0
 10
16.2498
 20
41.2418
 30
0.0
 11
15.4258
 21
41.2418
 31
0.0
  0
LINE
  8
0
 62
     0
 10
15.4258
 20
41.2418
 30
0.0
 11
15.4258
 21
38.4418
 31
0.0
  0
LINE
  8
0
 62
     0
 10
15.4258
 20
38.4418
 30
0.0
 11
16.2498
 21
38.4418
 31
0.0
  0
LINE
  8
0
 62
     0
 10
16.2498
 20
38.4418
 30
0.0
 11
16.2498
 21
32.1717
 31
0.0
  0
LINE
  8
0
 62
     0
 10
16.2498
 20
32.1717
 30
0.0
 11
17.9751
 21
32.1717
 31
0.0
  0
LINE
  8
0
 62
     0
 10
17.9751
 20
32.1717
 30
0.0
 11
17.9751
 21
30.9714
 31
0.0
  0
LINE
  8
0
 62
     0
 10
17.9751
 20
30.9714
 30
0.0
 11
21.2755
 21
30.9714
 31
0.0
  0
LINE
  8
0
 62
     0
 10
21.2755
 20
30.9714
 30
0.0
 11
21.2755
 21
32.1717
 31
0.0
  0
LINE
  8
0
 62
     0
 10
21.2755
 20
32.1717
 30
0.0
 11
23.0008
 21
32.1717
 31
0.0
  0
LINE
  8
0
 62
     0
 10
23.0008
 20
32.1717
 30
0.0
 11
23.0008
 21
36.642
 31
0.0
  0
LINE
  8
0
 62
     0
 10
23.0008
 20
36.642
 30
0.0
 11
24.5249
 21
36.642
 31
0.0
  0
LINE
  8
0
 62
     0
 10
24.5249
 20
36.642
 30
0.0
 11
24.5249
 21
36.0412
 31
0.0
  0
LINE
  8
0
 62
     0
 10
24.5249
 20
36.0412
 30
0.0
 11
23.7257
 21
36.0412
 31
0.0
  0
LINE
  8
0
 62
     0
 10
23.7257
 20
36.0412
 30
0.0
 11
23.7257
 21
32.942
 31
0.0
  0
LINE
  8
0
 62
     0
 10
23.7257
 20
32.942
 30
0.0
 11
24.5249
 21
32.942
 31
0.0
  0
LINE
  8
0
 62
     0
 10
24.5249
 20
32.942
 30
0.0
 11
24.5249
 21
31.9416
 31
0.0
  0
LINE
  8
0
 62
     0
 10
24.5249
 20
31.9416
 30
0.0
 11
38.5258
 21
31.9416
 31
0.0
  0
LINE
  8
0
 62
     0
 10
38.5258
 20
31.9416
 30
0.0
 11
38.5258
 21
32.942
 31
0.0
  0
LINE
  8
0
 62
     0
 10
38.5258
 20
32.942
 30
0.0
 11
39.3252
 21
32.942
 31
0.0
  0
LINE
  8
0
 62
     0
 10
39.3252
 20
32.942
 30
0.0
 11
39.3252
 21
36.0412
 31
0.0
  0
LINE
  8
0
 62
     0
 10
39.3252
 20
36.0412
 30
0.0
 11
38.5258
 21
36.0412
 31
0.0
  0
LINE
  8
0
 62
     0
 10
38.5258
 20
36.0412
 30
0.0
 11
38.5258
 21
36.642
 31
0.0
  0
LINE
  8
0
 62
     0
 10
38.5258
 20
36.642
 30
0.0
 11
40.0498
 21
36.642
 31
0.0
  0
LINE
  8
0
 62
     0
 10
40.0498
 20
36.642
 30
0.0
 11
40.0498
 21
32.1717
 31
0.0
  0
LINE
  8
0
 62
     0
 10
40.0498
 20
32.1717
 30
0.0
 11
41.7752
 21
32.1717
 31
0.0
  0
LINE
  8
0
 62
     0
 10
41.7752
 20
32.1717
 30
0.0
 11
41.7752
 21
30.9714
 31
0.0
  0
LINE
  8
0
 62
     0
 10
41.7752
 20
30.9714
 30
0.0
 11
45.0755
 21
30.9714
 31
0.0
  0
LINE
  8
0
 62
     0
 10
45.0755
 20
30.9714
 30
0.0
 11
45.0755
 21
32.1717
 31
0.0
  0
LINE
  8
0
 62
     0
 10
45.0755
 20
32.1717
 30
0.0
 11
46.8009
 21
32.1717
 31
0.0
  0
LINE
  8
0
 62
     0
 10
46.8009
 20
32.1717
 30
0.0
 11
46.8009
 21
38.4418
 31
0.0
  0
LINE
  8
0
 62
     0
 10
46.8009
 20
38.4418
 30
0.0
 11
47.625
 21
38.4418
 31
0.0
  0
LINE
  8
0
 62
     0
 10
47.625
 20
38.4418
 30
0.0
 11
47.625
 21
41.2418
 31
0.0
  0
LINE
  8
0
 62
     0
 10
47.625
 20
41.2418
 30
0.0
 11
46.8009
 21
41.2418
 31
0.0
  0
LINE
  8
0
 62
     0
 10
46.8009
 20
41.2418
 30
0.0
 11
46.8009
 21
44.4722
 31
0.0
  0
LINE
  8
0
 62
     0
 10
46.8009
 20
44.4722
 30
0.0
 11
40.0498
 21
44.4722
 31
0.0
  0
LINE
  8
0
 62
     0
 10
40.0498
 20
44.4722
 30
0.0
 11
40.0498
 21
41.2418
 31
0.0
  0
LINE
  8
0
 62
     0
 10
40.0498
 20
41.2418
 30
0.0
 11
38.5258
 21
41.2418
 31
0.0
  0
LINE
  8
0
 62
     0
 10
38.5258
 20
41.2418
 30
0.0
 11
38.5258
 21
41.8412
 31
0.0
  0
LINE
  8
0
 62
     0
 10
38.5258
 20
41.8412
 30
0.0
 11
39.3252
 21
41.8412
 31
0.0
  0
LINE
  8
0
 62
     0
 10
39.3252
 20
41.8412
 30
0.0
 11
39.3252
 21
44.9421
 31
0.0
  0
LINE
  8
0
 62
     0
 10
39.3252
 20
44.9421
 30
0.0
 11
38.5258
 21
44.9421
 31
0.0
  0
LINE
  8
0
 62
     0
 10
38.5258
 20
44.9421
 30
0.0
 11
38.5258
 21
45.9412
 31
0.0
  0
LINE
  8
0
 62
     0
 10
38.5258
 20
45.9412
 30
0.0
 11
24.5249
 21
45.9412
 31
0.0
  0
LINE
  8
0
 62
     0
 10
262.65
 20
45.9412
 30
0.0
 11
262.65
 21
44.9421
 31
0.0
  0
LINE
  8
0
 62
     0
 10
262.65
 20
44.9421
 30
0.0
 11
261.851
 21
44.9421
 31
0.0
  0
LINE
  8
0
 62
     0
 10
261.851
 20
44.9421
 30
0.0
 11
261.851
 21
41.8412
 31
0.0
  0
LINE
  8
0
 62
     0
 10
261.851
 20
41.8412
 30
0.0
 11
262.65
 21
41.8412
 31
0.0
  0
LINE
  8
0
 62
     0
 10
262.65
 20
41.8412
 30
0.0
 11
262.65
 21
41.2418
 31
0.0
  0
LINE
  8
0
 62
     0
 10
262.65
 20
41.2418
 30
0.0
 11
261.126
 21
41.2418
 31
0.0
  0
LINE
  8
0
 62
     0
 10
261.126
 20
41.2418
 30
0.0
 11
261.126
 21
44.4722
 31
0.0
  0
LINE
  8
0
 62
     0
 10
261.126
 20
44.4722
 30
0.0
 11
254.375
 21
44.4722
 31
0.0
  0
LINE
  8
0
 62
     0
 10
254.375
 20
44.4722
 30
0.0
 11
254.375
 21
41.2418
 31
0.0
  0
LINE
  8
0
 62
     0
 10
254.375
 20
41.2418
 30
0.0
 11
253.551
 21
41.2418
 31
0.0
  0
LINE
  8
0
 62
     0
 10
253.551
 20
41.2418
 30
0.0
 11
253.551
 21
38.4418
 31
0.0
  0
LINE
  8
0
 62
     0
 10
253.551
 20
38.4418
 30
0.0
 11
254.375
 21
38.4418
 31
0.0
  0
LINE
  8
0
 62
     0
 10
254.375
 20
38.4418
 30
0.0
 11
254.375
 21
32.1717
 31
0.0
  0
LINE
  8
0
 62
     0
 10
254.375
 20
32.1717
 30
0.0
 11
256.1
 21
32.1717
 31
0.0
  0
LINE
  8
0
 62
     0
 10
256.1
 20
32.1717
 30
0.0
 11
256.1
 21
30.9714
 31
0.0
  0
LINE
  8
0
 62
     0
 10
256.1
 20
30.9714
 30
0.0
 11
259.401
 21
30.9714
 31
0.0
  0
LINE
  8
0
 62
     0
 10
259.401
 20
30.9714
 30
0.0
 11
259.401
 21
32.1717
 31
0.0
  0
LINE
  8
0
 62
     0
 10
259.401
 20
32.1717
 30
0.0
 11
261.126
 21
32.1717
 31
0.0
  0
LINE
  8
0
 62
     0
 10
261.126
 20
32.1717
 30
0.0
 11
261.126
 21
36.642
 31
0.0
  0
LINE
  8
0
 62
     0
 10
261.126
 20
36.642
 30
0.0
 11
262.65
 21
36.642
 31
0.0
  0
LINE
  8
0
 62
     0
 10
262.65
 20
36.642
 30
0.0
 11
262.65
 21
36.0412
 31
0.0
  0
LINE
  8
0
 62
     0
 10
262.65
 20
36.0412
 30
0.0
 11
261.851
 21
36.0412
 31
0.0
  0
LINE
  8
0
 62
     0
 10
261.851
 20
36.0412
 30
0.0
 11
261.851
 21
32.942
 31
0.0
  0
LINE
  8
0
 62
     0
 10
261.851
 20
32.942
 30
0.0
 11
262.65
 21
32.942
 31
0.0
  0
LINE
  8
0
 62
     0
 10
262.65
 20
32.942
 30
0.0
 11
262.65
 21
31.9416
 31
0.0
  0
LINE
  8
0
 62
     0
 10
262.65
 20
31.9416
 30
0.0
 11
276.651
 21
31.9416
 31
0.0
  0
LINE
  8
0
 62
     0
 10
276.651
 20
31.9416
 30
0.0
 11
276.651
 21
32.942
 31
0.0
  0
LINE
  8
0
 62
     0
 10
276.651
 20
32.942
 30
0.0
 11
277.45
 21
32.942
 31
0.0
  0
LINE
  8
0
 62
     0
 10
277.45
 20
32.942
 30
0.0
 11
277.45
 21
36.0412
 31
0.0
  0
LINE
  8
0
 62
     0
 10
277.45
 20
36.0412
 30
0.0
 11
276.651
 21
36.0412
 31
0.0
  0
LINE
  8
0
 62
     0
 10
276.651
 20
36.0412
 30
0.0
 11
276.651
 21
36.642
 31
0.0
  0
LINE
  8
0
 62
     0
 10
276.651
 20
36.642
 30
0.0
 11
278.175
 21
36.642
 31
0.0
  0
LINE
  8
0
 62
     0
 10
278.175
 20
36.642
 30
0.0
 11
278.175
 21
32.1717
 31
0.0
  0
LINE
  8
0
 62
     0
 10
278.175
 20
32.1717
 30
0.0
 11
279.9
 21
32.1717
 31
0.0
  0
LINE
  8
0
 62
     0
 10
279.9
 20
32.1717
 30
0.0
 11
279.9
 21
30.9714
 31
0.0
  0
LINE
  8
0
 62
     0
 10
279.9
 20
30.9714
 30
0.0
 11
283.2
 21
30.9714
 31
0.0
  0
LINE
  8
0
 62
     0
 10
283.2
 20
30.9714
 30
0.0
 11
283.2
 21
32.1717
 31
0.0
  0
LINE
  8
0
 62
     0
 10
283.2
 20
32.1717
 30
0.0
 11
284.926
 21
32.1717
 31
0.0
  0
LINE
  8
0
 62
     0
 10
284.926
 20
32.1717
 30
0.0
 11
284.926
 21
38.4418
 31
0.0
  0
LINE
  8
0
 62
     0
 10
284.926
 20
38.4418
 30
0.0
 11
285.75
 21
38.4418
 31
0.0
  0
LINE
  8
0
 62
     0
 10
285.75
 20
38.4418
 30
0.0
 11
285.75
 21
41.2418
 31
0.0
  0
LINE
  8
0
 62
     0
 10
285.75
 20
41.2418
 30
0.0
 11
284.926
 21
41.2418
 31
0.0
  0
LINE
  8
0
 62
     0
 10
284.926
 20
41.2418
 30
0.0
 11
284.926
 21
44.4722
 31
0.0
  0
LINE
  8
0
 62
     0
 10
284.926
 20
44.4722
 30
0.0
 11
278.175
 21
44.4722
 31
0.0
  0
LINE
  8
0
 62
     0
 10
278.175
 20
44.4722
 30
0.0
 11
278.175
 21
41.2418
 31
0.0
  0
LINE
  8
0
 62
     0
 10
278.175
 20
41.2418
 30
0.0
 11
276.651
 21
41.2418
 31
0.0
  0
LINE
  8
0
 62
     0
 10
276.651
 20
41.2418
 30
0.0
 11
276.651
 21
41.8412
 31
0.0
  0
LINE
  8
0
 62
     0
 10
276.651
 20
41.8412
 30
0.0
 11
277.45
 21
41.8412
 31
0.0
  0
LINE
  8
0
 62
     0
 10
277.45
 20
41.8412
 30
0.0
 11
277.45
 21
44.9421
 31
0.0
  0
LINE
  8
0
 62
     0
 10
277.45
 20
44.9421
 30
0.0
 11
276.651
 21
44.9421
 31
0.0
  0
LINE
  8
0
 62
     0
 10
276.651
 20
44.9421
 30
0.0
 11
276.651
 21
45.9412
 31
0.0
  0
LINE
  8
0
 62
     0
 10
276.651
 20
45.9412
 30
0.0
 11
262.65
 21
45.9412
 31
0.0
  0
LINE
  8
0
 62
     0
 10
55.4814
 20
45.9412
 30
0.0
 11
55.4814
 21
44.9421
 31
0.0
  0
LINE
  8
0
 62
     0
 10
55.4814
 20
44.9421
 30
0.0
 11
54.682
 21
44.9421
 31
0.0
  0
LINE
  8
0
 62
     0
 10
54.682
 20
44.9421
 30
0.0
 11
54.682
 21
41.8412
 31
0.0
  0
LINE
  8
0
 62
     0
 10
54.682
 20
41.8412
 30
0.0
 11
55.4814
 21
41.8412
 31
0.0
  0
LINE
  8
0
 62
     0
 10
55.4814
 20
41.8412
 30
0.0
 11
55.4814
 21
36.0412
 31
0.0
  0
LINE
  8
0
 62
     0
 10
55.4814
 20
36.0412
 30
0.0
 11
54.682
 21
36.0412
 31
0.0
  0
LINE
  8
0
 62
     0
 10
54.682
 20
36.0412
 30
0.0
 11
54.682
 21
32.942
 31
0.0
  0
LINE
  8
0
 62
     0
 10
54.682
 20
32.942
 30
0.0
 11
55.4814
 21
32.942
 31
0.0
  0
LINE
  8
0
 62
     0
 10
55.4814
 20
32.942
 30
0.0
 11
55.4814
 21
31.9416
 31
0.0
  0
LINE
  8
0
 62
     0
 10
55.4814
 20
31.9416
 30
0.0
 11
69.4821
 21
31.9416
 31
0.0
  0
LINE
  8
0
 62
     0
 10
69.4821
 20
31.9416
 30
0.0
 11
69.4821
 21
32.942
 31
0.0
  0
LINE
  8
0
 62
     0
 10
69.4821
 20
32.942
 30
0.0
 11
70.2815
 21
32.942
 31
0.0
  0
LINE
  8
0
 62
     0
 10
70.2815
 20
32.942
 30
0.0
 11
70.2815
 21
36.0412
 31
0.0
  0
LINE
  8
0
 62
     0
 10
70.2815
 20
36.0412
 30
0.0
 11
69.4821
 21
36.0412
 31
0.0
  0
LINE
  8
0
 62
     0
 10
69.4821
 20
36.0412
 30
0.0
 11
69.4821
 21
41.8412
 31
0.0
  0
LINE
  8
0
 62
     0
 10
69.4821
 20
41.8412
 30
0.0
 11
70.2815
 21
41.8412
 31
0.0
  0
LINE
  8
0
 62
     0
 10
70.2815
 20
41.8412
 30
0.0
 11
70.2815
 21
44.9421
 31
0.0
  0
LINE
  8
0
 62
     0
 10
70.2815
 20
44.9421
 30
0.0
 11
69.4821
 21
44.9421
 31
0.0
  0
LINE
  8
0
 62
     0
 10
69.4821
 20
44.9421
 30
0.0
 11
69.4821
 21
45.9412
 31
0.0
  0
LINE
  8
0
 62
     0
 10
69.4821
 20
45.9412
 30
0.0
 11
55.4814
 21
45.9412
 31
0.0
  0
LINE
  8
0
 62
     0
 10
74.5314
 20
45.9412
 30
0.0
 11
74.5314
 21
44.9421
 31
0.0
  0
LINE
  8
0
 62
     0
 10
74.5314
 20
44.9421
 30
0.0
 11
73.732
 21
44.9421
 31
0.0
  0
LINE
  8
0
 62
     0
 10
73.732
 20
44.9421
 30
0.0
 11
73.732
 21
41.8412
 31
0.0
  0
LINE
  8
0
 62
     0
 10
73.732
 20
41.8412
 30
0.0
 11
74.5314
 21
41.8412
 31
0.0
  0
LINE
  8
0
 62
     0
 10
74.5314
 20
41.8412
 30
0.0
 11
74.5314
 21
36.0412
 31
0.0
  0
LINE
  8
0
 62
     0
 10
74.5314
 20
36.0412
 30
0.0
 11
73.732
 21
36.0412
 31
0.0
  0
LINE
  8
0
 62
     0
 10
73.732
 20
36.0412
 30
0.0
 11
73.732
 21
32.942
 31
0.0
  0
LINE
  8
0
 62
     0
 10
73.732
 20
32.942
 30
0.0
 11
74.5314
 21
32.942
 31
0.0
  0
LINE
  8
0
 62
     0
 10
74.5314
 20
32.942
 30
0.0
 11
74.5314
 21
31.9416
 31
0.0
  0
LINE
  8
0
 62
     0
 10
74.5314
 20
31.9416
 30
0.0
 11
88.5321
 21
31.9416
 31
0.0
  0
LINE
  8
0
 62
     0
 10
88.5321
 20
31.9416
 30
0.0
 11
88.5321
 21
32.942
 31
0.0
  0
LINE
  8
0
 62
     0
 10
88.5321
 20
32.942
 30
0.0
 11
89.3315
 21
32.942
 31
0.0
  0
LINE
  8
0
 62
     0
 10
89.3315
 20
32.942
 30
0.0
 11
89.3315
 21
36.0412
 31
0.0
  0
LINE
  8
0
 62
     0
 10
89.3315
 20
36.0412
 30
0.0
 11
88.5321
 21
36.0412
 31
0.0
  0
LINE
  8
0
 62
     0
 10
88.5321
 20
36.0412
 30
0.0
 11
88.5321
 21
41.8412
 31
0.0
  0
LINE
  8
0
 62
     0
 10
88.5321
 20
41.8412
 30
0.0
 11
89.3315
 21
41.8412
 31
0.0
  0
LINE
  8
0
 62
     0
 10
89.3315
 20
41.8412
 30
0.0
 11
89.3315
 21
44.9421
 31
0.0
  0
LINE
  8
0
 62
     0
 10
89.3315
 20
44.9421
 30
0.0
 11
88.5321
 21
44.9421
 31
0.0
  0
LINE
  8
0
 62
     0
 10
88.5321
 20
44.9421
 30
0.0
 11
88.5321
 21
45.9412
 31
0.0
  0
LINE
  8
0
 62
     0
 10
88.5321
 20
45.9412
 30
0.0
 11
74.5314
 21
45.9412
 31
0.0
  0
LINE
  8
0
 62
     0
 10
93.5814
 20
45.9412
 30
0.0
 11
93.5814
 21
44.9421
 31
0.0
  0
LINE
  8
0
 62
     0
 10
93.5814
 20
44.9421
 30
0.0
 11
92.782
 21
44.9421
 31
0.0
  0
LINE
  8
0
 62
     0
 10
92.782
 20
44.9421
 30
0.0
 11
92.782
 21
41.8412
 31
0.0
  0
LINE
  8
0
 62
     0
 10
92.782
 20
41.8412
 30
0.0
 11
93.5814
 21
41.8412
 31
0.0
  0
LINE
  8
0
 62
     0
 10
93.5814
 20
41.8412
 30
0.0
 11
93.5814
 21
36.0412
 31
0.0
  0
LINE
  8
0
 62
     0
 10
93.5814
 20
36.0412
 30
0.0
 11
92.782
 21
36.0412
 31
0.0
  0
LINE
  8
0
 62
     0
 10
92.782
 20
36.0412
 30
0.0
 11
92.782
 21
32.942
 31
0.0
  0
LINE
  8
0
 62
     0
 10
92.782
 20
32.942
 30
0.0
 11
93.5814
 21
32.942
 31
0.0
  0
LINE
  8
0
 62
     0
 10
93.5814
 20
32.942
 30
0.0
 11
93.5814
 21
31.9416
 31
0.0
  0
LINE
  8
0
 62
     0
 10
93.5814
 20
31.9416
 30
0.0
 11
107.582
 21
31.9416
 31
0.0
  0
LINE
  8
0
 62
     0
 10
107.582
 20
31.9416
 30
0.0
 11
107.582
 21
32.942
 31
0.0
  0
LINE
  8
0
 62
     0
 10
107.582
 20
32.942
 30
0.0
 11
108.381
 21
32.942
 31
0.0
  0
LINE
  8
0
 62
     0
 10
108.381
 20
32.942
 30
0.0
 11
108.381
 21
36.0412
 31
0.0
  0
LINE
  8
0
 62
     0
 10
108.381
 20
36.0412
 30
0.0
 11
107.582
 21
36.0412
 31
0.0
  0
LINE
  8
0
 62
     0
 10
107.582
 20
36.0412
 30
0.0
 11
107.582
 21
41.8412
 31
0.0
  0
LINE
  8
0
 62
     0
 10
107.582
 20
41.8412
 30
0.0
 11
108.381
 21
41.8412
 31
0.0
  0
LINE
  8
0
 62
     0
 10
108.381
 20
41.8412
 30
0.0
 11
108.381
 21
44.9421
 31
0.0
  0
LINE
  8
0
 62
     0
 10
108.381
 20
44.9421
 30
0.0
 11
107.582
 21
44.9421
 31
0.0
  0
LINE
  8
0
 62
     0
 10
107.582
 20
44.9421
 30
0.0
 11
107.582
 21
45.9412
 31
0.0
  0
LINE
  8
0
 62
     0
 10
107.582
 20
45.9412
 30
0.0
 11
93.5814
 21
45.9412
 31
0.0
  0
LINE
  8
0
 62
     0
 10
112.631
 20
45.9412
 30
0.0
 11
112.631
 21
44.9421
 31
0.0
  0
LINE
  8
0
 62
     0
 10
112.631
 20
44.9421
 30
0.0
 11
111.832
 21
44.9421
 31
0.0
  0
LINE
  8
0
 62
     0
 10
111.832
 20
44.9421
 30
0.0
 11
111.832
 21
41.8412
 31
0.0
  0
LINE
  8
0
 62
     0
 10
111.832
 20
41.8412
 30
0.0
 11
112.631
 21
41.8412
 31
0.0
  0
LINE
  8
0
 62
     0
 10
112.631
 20
41.8412
 30
0.0
 11
112.631
 21
36.0412
 31
0.0
  0
LINE
  8
0
 62
     0
 10
112.631
 20
36.0412
 30
0.0
 11
111.832
 21
36.0412
 31
0.0
  0
LINE
  8
0
 62
     0
 10
111.832
 20
36.0412
 30
0.0
 11
111.832
 21
32.942
 31
0.0
  0
LINE
  8
0
 62
     0
 10
111.832
 20
32.942
 30
0.0
 11
112.631
 21
32.942
 31
0.0
  0
LINE
  8
0
 62
     0
 10
112.631
 20
32.942
 30
0.0
 11
112.631
 21
31.9416
 31
0.0
  0
LINE
  8
0
 62
     0
 10
112.631
 20
31.9416
 30
0.0
 11
126.632
 21
31.9416
 31
0.0
  0
LINE
  8
0
 62
     0
 10
126.632
 20
31.9416
 30
0.0
 11
126.632
 21
32.942
 31
0.0
  0
LINE
  8
0
 62
     0
 10
126.632
 20
32.942
 30
0.0
 11
127.431
 21
32.942
 31
0.0
  0
LINE
  8
0
 62
     0
 10
127.431
 20
32.942
 30
0.0
 11
127.431
 21
36.0412
 31
0.0
  0
LINE
  8
0
 62
     0
 10
127.431
 20
36.0412
 30
0.0
 11
126.632
 21
36.0412
 31
0.0
  0
LINE
  8
0
 62
     0
 10
126.632
 20
36.0412
 30
0.0
 11
126.632
 21
41.8412
 31
0.0
  0
LINE
  8
0
 62
     0
 10
126.632
 20
41.8412
 30
0.0
 11
127.431
 21
41.8412
 31
0.0
  0
LINE
  8
0
 62
     0
 10
127.431
 20
41.8412
 30
0.0
 11
127.431
 21
44.9421
 31
0.0
  0
LINE
  8
0
 62
     0
 10
127.431
 20
44.9421
 30
0.0
 11
126.632
 21
44.9421
 31
0.0
  0
LINE
  8
0
 62
     0
 10
126.632
 20
44.9421
 30
0.0
 11
126.632
 21
45.9412
 31
0.0
  0
LINE
  8
0
 62
     0
 10
126.632
 20
45.9412
 30
0.0
 11
112.631
 21
45.9412
 31
0.0
  0
LINE
  8
0
 62
     0
 10
131.681
 20
45.9412
 30
0.0
 11
131.681
 21
44.9421
 31
0.0
  0
LINE
  8
0
 62
     0
 10
131.681
 20
44.9421
 30
0.0
 11
130.882
 21
44.9421
 31
0.0
  0
LINE
  8
0
 62
     0
 10
130.882
 20
44.9421
 30
0.0
 11
130.882
 21
41.8412
 31
0.0
  0
LINE
  8
0
 62
     0
 10
130.882
 20
41.8412
 30
0.0
 11
131.681
 21
41.8412
 31
0.0
  0
LINE
  8
0
 62
     0
 10
131.681
 20
41.8412
 30
0.0
 11
131.681
 21
36.0412
 31
0.0
  0
LINE
  8
0
 62
     0
 10
131.681
 20
36.0412
 30
0.0
 11
130.882
 21
36.0412
 31
0.0
  0
LINE
  8
0
 62
     0
 10
130.882
 20
36.0412
 30
0.0
 11
130.882
 21
32.942
 31
0.0
  0
LINE
  8
0
 62
     0
 10
130.882
 20
32.942
 30
0.0
 11
131.681
 21
32.942
 31
0.0
  0
LINE
  8
0
 62
     0
 10
131.681
 20
32.942
 30
0.0
 11
131.681
 21
31.9416
 31
0.0
  0
LINE
  8
0
 62
     0
 10
131.681
 20
31.9416
 30
0.0
 11
145.682
 21
31.9416
 31
0.0
  0
LINE
  8
0
 62
     0
 10
145.682
 20
31.9416
 30
0.0
 11
145.682
 21
32.942
 31
0.0
  0
LINE
  8
0
 62
     0
 10
145.682
 20
32.942
 30
0.0
 11
146.481
 21
32.942
 31
0.0
  0
LINE
  8
0
 62
     0
 10
146.481
 20
32.942
 30
0.0
 11
146.481
 21
36.0412
 31
0.0
  0
LINE
  8
0
 62
     0
 10
146.481
 20
36.0412
 30
0.0
 11
145.682
 21
36.0412
 31
0.0
  0
LINE
  8
0
 62
     0
 10
145.682
 20
36.0412
 30
0.0
 11
145.682
 21
41.8412
 31
0.0
  0
LINE
  8
0
 62
     0
 10
145.682
 20
41.8412
 30
0.0
 11
146.481
 21
41.8412
 31
0.0
  0
LINE
  8
0
 62
     0
 10
146.481
 20
41.8412
 30
0.0
 11
146.481
 21
44.9421
 31
0.0
  0
LINE
  8
0
 62
     0
 10
146.481
 20
44.9421
 30
0.0
 11
145.682
 21
44.9421
 31
0.0
  0
LINE
  8
0
 62
     0
 10
145.682
 20
44.9421
 30
0.0
 11
145.682
 21
45.9412
 31
0.0
  0
LINE
  8
0
 62
     0
 10
145.682
 20
45.9412
 30
0.0
 11
131.681
 21
45.9412
 31
0.0
  0
LINE
  8
0
 62
     0
 10
150.731
 20
45.9412
 30
0.0
 11
150.731
 21
44.9421
 31
0.0
  0
LINE
  8
0
 62
     0
 10
150.731
 20
44.9421
 30
0.0
 11
149.932
 21
44.9421
 31
0.0
  0
LINE
  8
0
 62
     0
 10
149.932
 20
44.9421
 30
0.0
 11
149.932
 21
41.8412
 31
0.0
  0
LINE
  8
0
 62
     0
 10
149.932
 20
41.8412
 30
0.0
 11
150.731
 21
41.8412
 31
0.0
  0
LINE
  8
0
 62
     0
 10
150.731
 20
41.8412
 30
0.0
 11
150.731
 21
36.0412
 31
0.0
  0
LINE
  8
0
 62
     0
 10
150.731
 20
36.0412
 30
0.0
 11
149.932
 21
36.0412
 31
0.0
  0
LINE
  8
0
 62
     0
 10
149.932
 20
36.0412
 30
0.0
 11
149.932
 21
32.942
 31
0.0
  0
LINE
  8
0
 62
     0
 10
149.932
 20
32.942
 30
0.0
 11
150.731
 21
32.942
 31
0.0
  0
LINE
  8
0
 62
     0
 10
150.731
 20
32.942
 30
0.0
 11
150.731
 21
31.9416
 31
0.0
  0
LINE
  8
0
 62
     0
 10
150.731
 20
31.9416
 30
0.0
 11
164.732
 21
31.9416
 31
0.0
  0
LINE
  8
0
 62
     0
 10
164.732
 20
31.9416
 30
0.0
 11
164.732
 21
32.942
 31
0.0
  0
LINE
  8
0
 62
     0
 10
164.732
 20
32.942
 30
0.0
 11
165.531
 21
32.942
 31
0.0
  0
LINE
  8
0
 62
     0
 10
165.531
 20
32.942
 30
0.0
 11
165.531
 21
36.0412
 31
0.0
  0
LINE
  8
0
 62
     0
 10
165.531
 20
36.0412
 30
0.0
 11
164.732
 21
36.0412
 31
0.0
  0
LINE
  8
0
 62
     0
 10
164.732
 20
36.0412
 30
0.0
 11
164.732
 21
41.8412
 31
0.0
  0
LINE
  8
0
 62
     0
 10
164.732
 20
41.8412
 30
0.0
 11
165.531
 21
41.8412
 31
0.0
  0
LINE
  8
0
 62
     0
 10
165.531
 20
41.8412
 30
0.0
 11
165.531
 21
44.9421
 31
0.0
  0
LINE
  8
0
 62
     0
 10
165.531
 20
44.9421
 30
0.0
 11
164.732
 21
44.9421
 31
0.0
  0
LINE
  8
0
 62
     0
 10
164.732
 20
44.9421
 30
0.0
 11
164.732
 21
45.9412
 31
0.0
  0
LINE
  8
0
 62
     0
 10
164.732
 20
45.9412
 30
0.0
 11
150.731
 21
45.9412
 31
0.0
  0
LINE
  8
0
 62
     0
 10
169.781
 20
45.9412
 30
0.0
 11
169.781
 21
44.9421
 31
0.0
  0
LINE
  8
0
 62
     0
 10
169.781
 20
44.9421
 30
0.0
 11
168.982
 21
44.9421
 31
0.0
  0
LINE
  8
0
 62
     0
 10
168.982
 20
44.9421
 30
0.0
 11
168.982
 21
41.8412
 31
0.0
  0
LINE
  8
0
 62
     0
 10
168.982
 20
41.8412
 30
0.0
 11
169.781
 21
41.8412
 31
0.0
  0
LINE
  8
0
 62
     0
 10
169.781
 20
41.8412
 30
0.0
 11
169.781
 21
36.0412
 31
0.0
  0
LINE
  8
0
 62
     0
 10
169.781
 20
36.0412
 30
0.0
 11
168.982
 21
36.0412
 31
0.0
  0
LINE
  8
0
 62
     0
 10
168.982
 20
36.0412
 30
0.0
 11
168.982
 21
32.942
 31
0.0
  0
LINE
  8
0
 62
     0
 10
168.982
 20
32.942
 30
0.0
 11
169.781
 21
32.942
 31
0.0
  0
LINE
  8
0
 62
     0
 10
169.781
 20
32.942
 30
0.0
 11
169.781
 21
31.9416
 31
0.0
  0
LINE
  8
0
 62
     0
 10
169.781
 20
31.9416
 30
0.0
 11
183.782
 21
31.9416
 31
0.0
  0
LINE
  8
0
 62
     0
 10
183.782
 20
31.9416
 30
0.0
 11
183.782
 21
32.942
 31
0.0
  0
LINE
  8
0
 62
     0
 10
183.782
 20
32.942
 30
0.0
 11
184.581
 21
32.942
 31
0.0
  0
LINE
  8
0
 62
     0
 10
184.581
 20
32.942
 30
0.0
 11
184.581
 21
36.0412
 31
0.0
  0
LINE
  8
0
 62
     0
 10
184.581
 20
36.0412
 30
0.0
 11
183.782
 21
36.0412
 31
0.0
  0
LINE
  8
0
 62
     0
 10
183.782
 20
36.0412
 30
0.0
 11
183.782
 21
41.8412
 31
0.0
  0
LINE
  8
0
 62
     0
 10
183.782
 20
41.8412
 30
0.0
 11
184.581
 21
41.8412
 31
0.0
  0
LINE
  8
0
 62
     0
 10
184.581
 20
41.8412
 30
0.0
 11
184.581
 21
44.9421
 31
0.0
  0
LINE
  8
0
 62
     0
 10
184.581
 20
44.9421
 30
0.0
 11
183.782
 21
44.9421
 31
0.0
  0
LINE
  8
0
 62
     0
 10
183.782
 20
44.9421
 30
0.0
 11
183.782
 21
45.9412
 31
0.0
  0
LINE
  8
0
 62
     0
 10
183.782
 20
45.9412
 30
0.0
 11
169.781
 21
45.9412
 31
0.0
  0
LINE
  8
0
 62
     0
 10
188.831
 20
45.9412
 30
0.0
 11
188.831
 21
44.9421
 31
0.0
  0
LINE
  8
0
 62
     0
 10
188.831
 20
44.9421
 30
0.0
 11
188.032
 21
44.9421
 31
0.0
  0
LINE
  8
0
 62
     0
 10
188.032
 20
44.9421
 30
0.0
 11
188.032
 21
41.8412
 31
0.0
  0
LINE
  8
0
 62
     0
 10
188.032
 20
41.8412
 30
0.0
 11
188.831
 21
41.8412
 31
0.0
  0
LINE
  8
0
 62
     0
 10
188.831
 20
41.8412
 30
0.0
 11
188.831
 21
36.0412
 31
0.0
  0
LINE
  8
0
 62
     0
 10
188.831
 20
36.0412
 30
0.0
 11
188.032
 21
36.0412
 31
0.0
  0
LINE
  8
0
 62
     0
 10
188.032
 20
36.0412
 30
0.0
 11
188.032
 21
32.942
 31
0.0
  0
LINE
  8
0
 62
     0
 10
188.032
 20
32.942
 30
0.0
 11
188.831
 21
32.942
 31
0.0
  0
LINE
  8
0
 62
     0
 10
188.831
 20
32.942
 30
0.0
 11
188.831
 21
31.9416
 31
0.0
  0
LINE
  8
0
 62
     0
 10
188.831
 20
31.9416
 30
0.0
 11
202.832
 21
31.9416
 31
0.0
  0
LINE
  8
0
 62
     0
 10
202.832
 20
31.9416
 30
0.0
 11
202.832
 21
32.942
 31
0.0
  0
LINE
  8
0
 62
     0
 10
202.832
 20
32.942
 30
0.0
 11
203.631
 21
32.942
 31
0.0
  0
LINE
  8
0
 62
     0
 10
203.631
 20
32.942
 30
0.0
 11
203.631
 21
36.0412
 31
0.0
  0
LINE
  8
0
 62
     0
 10
203.631
 20
36.0412
 30
0.0
 11
202.832
 21
36.0412
 31
0.0
  0
LINE
  8
0
 62
     0
 10
202.832
 20
36.0412
 30
0.0
 11
202.832
 21
41.8412
 31
0.0
  0
LINE
  8
0
 62
     0
 10
202.832
 20
41.8412
 30
0.0
 11
203.631
 21
41.8412
 31
0.0
  0
LINE
  8
0
 62
     0
 10
203.631
 20
41.8412
 30
0.0
 11
203.631
 21
44.9421
 31
0.0
  0
LINE
  8
0
 62
     0
 10
203.631
 20
44.9421
 30
0.0
 11
202.832
 21
44.9421
 31
0.0
  0
LINE
  8
0
 62
     0
 10
202.832
 20
44.9421
 30
0.0
 11
202.832
 21
45.9412
 31
0.0
  0
LINE
  8
0
 62
     0
 10
202.832
 20
45.9412
 30
0.0
 11
188.831
 21
45.9412
 31
0.0
  0
LINE
  8
0
 62
     0
 10
207.881
 20
45.9412
 30
0.0
 11
207.881
 21
44.9421
 31
0.0
  0
LINE
  8
0
 62
     0
 10
207.881
 20
44.9421
 30
0.0
 11
207.082
 21
44.9421
 31
0.0
  0
LINE
  8
0
 62
     0
 10
207.082
 20
44.9421
 30
0.0
 11
207.082
 21
41.8412
 31
0.0
  0
LINE
  8
0
 62
     0
 10
207.082
 20
41.8412
 30
0.0
 11
207.881
 21
41.8412
 31
0.0
  0
LINE
  8
0
 62
     0
 10
207.881
 20
41.8412
 30
0.0
 11
207.881
 21
36.0412
 31
0.0
  0
LINE
  8
0
 62
     0
 10
207.881
 20
36.0412
 30
0.0
 11
207.082
 21
36.0412
 31
0.0
  0
LINE
  8
0
 62
     0
 10
207.082
 20
36.0412
 30
0.0
 11
207.082
 21
32.942
 31
0.0
  0
LINE
  8
0
 62
     0
 10
207.082
 20
32.942
 30
0.0
 11
207.881
 21
32.942
 31
0.0
  0
LINE
  8
0
 62
     0
 10
207.881
 20
32.942
 30
0.0
 11
207.881
 21
31.9416
 31
0.0
  0
LINE
  8
0
 62
     0
 10
207.881
 20
31.9416
 30
0.0
 11
221.882
 21
31.9416
 31
0.0
  0
LINE
  8
0
 62
     0
 10
221.882
 20
31.9416
 30
0.0
 11
221.882
 21
32.942
 31
0.0
  0
LINE
  8
0
 62
     0
 10
221.882
 20
32.942
 30
0.0
 11
222.681
 21
32.942
 31
0.0
  0
LINE
  8
0
 62
     0
 10
222.681
 20
32.942
 30
0.0
 11
222.681
 21
36.0412
 31
0.0
  0
LINE
  8
0
 62
     0
 10
222.681
 20
36.0412
 30
0.0
 11
221.882
 21
36.0412
 31
0.0
  0
LINE
  8
0
 62
     0
 10
221.882
 20
36.0412
 30
0.0
 11
221.882
 21
41.8412
 31
0.0
  0
LINE
  8
0
 62
     0
 10
221.882
 20
41.8412
 30
0.0
 11
222.681
 21
41.8412
 31
0.0
  0
LINE
  8
0
 62
     0
 10
222.681
 20
41.8412
 30
0.0
 11
222.681
 21
44.9421
 31
0.0
  0
LINE
  8
0
 62
     0
 10
222.681
 20
44.9421
 30
0.0
 11
221.882
 21
44.9421
 31
0.0
  0
LINE
  8
0
 62
     0
 10
221.882
 20
44.9421
 30
0.0
 11
221.882
 21
45.9412
 31
0.0
  0
LINE
  8
0
 62
     0
 10
221.882
 20
45.9412
 30
0.0
 11
207.881
 21
45.9412
 31
0.0
  0
LINE
  8
0
 62
     0
 10
226.931
 20
45.9412
 30
0.0
 11
226.931
 21
44.9421
 31
0.0
  0
LINE
  8
0
 62
     0
 10
226.931
 20
44.9421
 30
0.0
 11
226.132
 21
44.9421
 31
0.0
  0
LINE
  8
0
 62
     0
 10
226.132
 20
44.9421
 30
0.0
 11
226.132
 21
41.8412
 31
0.0
  0
LINE
  8
0
 62
     0
 10
226.132
 20
41.8412
 30
0.0
 11
226.931
 21
41.8412
 31
0.0
  0
LINE
  8
0
 62
     0
 10
226.931
 20
41.8412
 30
0.0
 11
226.931
 21
36.0412
 31
0.0
  0
LINE
  8
0
 62
     0
 10
226.931
 20
36.0412
 30
0.0
 11
226.132
 21
36.0412
 31
0.0
  0
LINE
  8
0
 62
     0
 10
226.132
 20
36.0412
 30
0.0
 11
226.132
 21
32.942
 31
0.0
  0
LINE
  8
0
 62
     0
 10
226.132
 20
32.942
 30
0.0
 11
226.931
 21
32.942
 31
0.0
  0
LINE
  8
0
 62
     0
 10
226.931
 20
32.942
 30
0.0
 11
226.931
 21
31.9416
 31
0.0
  0
LINE
  8
0
 62
     0
 10
226.931
 20
31.9416
 30
0.0
 11
240.932
 21
31.9416
 31
0.0
  0
LINE
  8
0
 62
     0
 10
240.932
 20
31.9416
 30
0.0
 11
240.932
 21
32.942
 31
0.0
  0
LINE
  8
0
 62
     0
 10
240.932
 20
32.942
 30
0.0
 11
241.731
 21
32.942
 31
0.0
  0
LINE
  8
0
 62
     0
 10
241.731
 20
32.942
 30
0.0
 11
241.731
 21
36.0412
 31
0.0
  0
LINE
  8
0
 62
     0
 10
241.731
 20
36.0412
 30
0.0
 11
240.932
 21
36.0412
 31
0.0
  0
LINE
  8
0
 62
     0
 10
240.932
 20
36.0412
 30
0.0
 11
240.932
 21
41.8412
 31
0.0
  0
LINE
  8
0
 62
     0
 10
240.932
 20
41.8412
 30
0.0
 11
241.731
 21
41.8412
 31
0.0
  0
LINE
  8
0
 62
     0
 10
241.731
 20
41.8412
 30
0.0
 11
241.731
 21
44.9421
 31
0.0
  0
LINE
  8
0
 62
     0
 10
241.731
 20
44.9421
 30
0.0
 11
240.932
 21
44.9421
 31
0.0
  0
LINE
  8
0
 62
     0
 10
240.932
 20
44.9421
 30
0.0
 11
240.932
 21
45.9412
 31
0.0
  0
LINE
  8
0
 62
     0
 10
240.932
 20
45.9412
 30
0.0
 11
226.931
 21
45.9412
 31
0.0
  0
LINE
  8
0
 62
     0
 10
267.413
 20
64.9912
 30
0.0
 11
267.413
 21
63.9921
 31
0.0
  0
LINE
  8
0
 62
     0
 10
267.413
 20
63.9921
 30
0.0
 11
266.612
 21
63.9921
 31
0.0
  0
LINE
  8
0
 62
     0
 10
266.612
 20
63.9921
 30
0.0
 11
266.612
 21
60.8912
 31
0.0
  0
LINE
  8
0
 62
     0
 10
266.612
 20
60.8912
 30
0.0
 11
267.413
 21
60.8912
 31
0.0
  0
LINE
  8
0
 62
     0
 10
267.413
 20
60.8912
 30
0.0
 11
267.413
 21
60.2918
 31
0.0
  0
LINE
  8
0
 62
     0
 10
267.413
 20
60.2918
 30
0.0
 11
265.887
 21
60.2918
 31
0.0
  0
LINE
  8
0
 62
     0
 10
265.887
 20
60.2918
 30
0.0
 11
265.887
 21
63.5222
 31
0.0
  0
LINE
  8
0
 62
     0
 10
265.887
 20
63.5222
 30
0.0
 11
259.137
 21
63.5222
 31
0.0
  0
LINE
  8
0
 62
     0
 10
259.137
 20
63.5222
 30
0.0
 11
259.137
 21
60.2918
 31
0.0
  0
LINE
  8
0
 62
     0
 10
259.137
 20
60.2918
 30
0.0
 11
258.312
 21
60.2918
 31
0.0
  0
LINE
  8
0
 62
     0
 10
258.312
 20
60.2918
 30
0.0
 11
258.312
 21
57.4918
 31
0.0
  0
LINE
  8
0
 62
     0
 10
258.312
 20
57.4918
 30
0.0
 11
259.137
 21
57.4918
 31
0.0
  0
LINE
  8
0
 62
     0
 10
259.137
 20
57.4918
 30
0.0
 11
259.137
 21
51.2216
 31
0.0
  0
LINE
  8
0
 62
     0
 10
259.137
 20
51.2216
 30
0.0
 11
260.863
 21
51.2216
 31
0.0
  0
LINE
  8
0
 62
     0
 10
260.863
 20
51.2216
 30
0.0
 11
260.863
 21
50.0214
 31
0.0
  0
LINE
  8
0
 62
     0
 10
260.863
 20
50.0214
 30
0.0
 11
264.163
 21
50.0214
 31
0.0
  0
LINE
  8
0
 62
     0
 10
264.163
 20
50.0214
 30
0.0
 11
264.163
 21
51.2216
 31
0.0
  0
LINE
  8
0
 62
     0
 10
264.163
 20
51.2216
 30
0.0
 11
265.887
 21
51.2216
 31
0.0
  0
LINE
  8
0
 62
     0
 10
265.887
 20
51.2216
 30
0.0
 11
265.887
 21
55.692
 31
0.0
  0
LINE
  8
0
 62
     0
 10
265.887
 20
55.692
 30
0.0
 11
267.413
 21
55.692
 31
0.0
  0
LINE
  8
0
 62
     0
 10
267.413
 20
55.692
 30
0.0
 11
267.413
 21
55.0912
 31
0.0
  0
LINE
  8
0
 62
     0
 10
267.413
 20
55.0912
 30
0.0
 11
266.612
 21
55.0912
 31
0.0
  0
LINE
  8
0
 62
     0
 10
266.612
 20
55.0912
 30
0.0
 11
266.612
 21
51.992
 31
0.0
  0
LINE
  8
0
 62
     0
 10
266.612
 20
51.992
 30
0.0
 11
267.413
 21
51.992
 31
0.0
  0
LINE
  8
0
 62
     0
 10
267.413
 20
51.992
 30
0.0
 11
267.413
 21
50.9916
 31
0.0
  0
LINE
  8
0
 62
     0
 10
267.413
 20
50.9916
 30
0.0
 11
281.412
 21
50.9916
 31
0.0
  0
LINE
  8
0
 62
     0
 10
281.412
 20
50.9916
 30
0.0
 11
281.412
 21
51.992
 31
0.0
  0
LINE
  8
0
 62
     0
 10
281.412
 20
51.992
 30
0.0
 11
282.213
 21
51.992
 31
0.0
  0
LINE
  8
0
 62
     0
 10
282.213
 20
51.992
 30
0.0
 11
282.213
 21
55.0912
 31
0.0
  0
LINE
  8
0
 62
     0
 10
282.213
 20
55.0912
 30
0.0
 11
281.412
 21
55.0912
 31
0.0
  0
LINE
  8
0
 62
     0
 10
281.412
 20
55.0912
 30
0.0
 11
281.412
 21
55.692
 31
0.0
  0
LINE
  8
0
 62
     0
 10
281.412
 20
55.692
 30
0.0
 11
282.937
 21
55.692
 31
0.0
  0
LINE
  8
0
 62
     0
 10
282.937
 20
55.692
 30
0.0
 11
282.937
 21
51.2216
 31
0.0
  0
LINE
  8
0
 62
     0
 10
282.937
 20
51.2216
 30
0.0
 11
284.663
 21
51.2216
 31
0.0
  0
LINE
  8
0
 62
     0
 10
284.663
 20
51.2216
 30
0.0
 11
284.663
 21
50.0214
 31
0.0
  0
LINE
  8
0
 62
     0
 10
284.663
 20
50.0214
 30
0.0
 11
287.963
 21
50.0214
 31
0.0
  0
LINE
  8
0
 62
     0
 10
287.963
 20
50.0214
 30
0.0
 11
287.963
 21
51.2216
 31
0.0
  0
LINE
  8
0
 62
     0
 10
287.963
 20
51.2216
 30
0.0
 11
289.687
 21
51.2216
 31
0.0
  0
LINE
  8
0
 62
     0
 10
289.687
 20
51.2216
 30
0.0
 11
289.687
 21
57.4918
 31
0.0
  0
LINE
  8
0
 62
     0
 10
289.687
 20
57.4918
 30
0.0
 11
290.513
 21
57.4918
 31
0.0
  0
LINE
  8
0
 62
     0
 10
290.513
 20
57.4918
 30
0.0
 11
290.513
 21
60.2918
 31
0.0
  0
LINE
  8
0
 62
     0
 10
290.513
 20
60.2918
 30
0.0
 11
289.687
 21
60.2918
 31
0.0
  0
LINE
  8
0
 62
     0
 10
289.687
 20
60.2918
 30
0.0
 11
289.687
 21
63.5222
 31
0.0
  0
LINE
  8
0
 62
     0
 10
289.687
 20
63.5222
 30
0.0
 11
282.937
 21
63.5222
 31
0.0
  0
LINE
  8
0
 62
     0
 10
282.937
 20
63.5222
 30
0.0
 11
282.937
 21
60.2918
 31
0.0
  0
LINE
  8
0
 62
     0
 10
282.937
 20
60.2918
 30
0.0
 11
281.412
 21
60.2918
 31
0.0
  0
LINE
  8
0
 62
     0
 10
281.412
 20
60.2918
 30
0.0
 11
281.412
 21
60.8912
 31
0.0
  0
LINE
  8
0
 62
     0
 10
281.412
 20
60.8912
 30
0.0
 11
282.213
 21
60.8912
 31
0.0
  0
LINE
  8
0
 62
     0
 10
282.213
 20
60.8912
 30
0.0
 11
282.213
 21
63.9921
 31
0.0
  0
LINE
  8
0
 62
     0
 10
282.213
 20
63.9921
 30
0.0
 11
281.412
 21
63.9921
 31
0.0
  0
LINE
  8
0
 62
     0
 10
281.412
 20
63.9921
 30
0.0
 11
281.412
 21
64.9912
 31
0.0
  0
LINE
  8
0
 62
     0
 10
281.412
 20
64.9912
 30
0.0
 11
267.413
 21
64.9912
 31
0.0
  0
LINE
  8
0
 62
     0
 10
19.7624
 20
64.9912
 30
0.0
 11
19.7624
 21
63.9921
 31
0.0
  0
LINE
  8
0
 62
     0
 10
19.7624
 20
63.9921
 30
0.0
 11
18.9618
 21
63.9921
 31
0.0
  0
LINE
  8
0
 62
     0
 10
18.9618
 20
63.9921
 30
0.0
 11
18.9618
 21
60.8912
 31
0.0
  0
LINE
  8
0
 62
     0
 10
18.9618
 20
60.8912
 30
0.0
 11
19.7624
 21
60.8912
 31
0.0
  0
LINE
  8
0
 62
     0
 10
19.7624
 20
60.8912
 30
0.0
 11
19.7624
 21
55.0912
 31
0.0
  0
LINE
  8
0
 62
     0
 10
19.7624
 20
55.0912
 30
0.0
 11
18.9618
 21
55.0912
 31
0.0
  0
LINE
  8
0
 62
     0
 10
18.9618
 20
55.0912
 30
0.0
 11
18.9618
 21
51.992
 31
0.0
  0
LINE
  8
0
 62
     0
 10
18.9618
 20
51.992
 30
0.0
 11
19.7624
 21
51.992
 31
0.0
  0
LINE
  8
0
 62
     0
 10
19.7624
 20
51.992
 30
0.0
 11
19.7624
 21
50.9916
 31
0.0
  0
LINE
  8
0
 62
     0
 10
19.7624
 20
50.9916
 30
0.0
 11
33.7619
 21
50.9916
 31
0.0
  0
LINE
  8
0
 62
     0
 10
33.7619
 20
50.9916
 30
0.0
 11
33.7619
 21
51.992
 31
0.0
  0
LINE
  8
0
 62
     0
 10
33.7619
 20
51.992
 30
0.0
 11
34.5626
 21
51.992
 31
0.0
  0
LINE
  8
0
 62
     0
 10
34.5626
 20
51.992
 30
0.0
 11
34.5626
 21
55.0912
 31
0.0
  0
LINE
  8
0
 62
     0
 10
34.5626
 20
55.0912
 30
0.0
 11
33.7619
 21
55.0912
 31
0.0
  0
LINE
  8
0
 62
     0
 10
33.7619
 20
55.0912
 30
0.0
 11
33.7619
 21
60.8912
 31
0.0
  0
LINE
  8
0
 62
     0
 10
33.7619
 20
60.8912
 30
0.0
 11
34.5626
 21
60.8912
 31
0.0
  0
LINE
  8
0
 62
     0
 10
34.5626
 20
60.8912
 30
0.0
 11
34.5626
 21
63.9921
 31
0.0
  0
LINE
  8
0
 62
     0
 10
34.5626
 20
63.9921
 30
0.0
 11
33.7619
 21
63.9921
 31
0.0
  0
LINE
  8
0
 62
     0
 10
33.7619
 20
63.9921
 30
0.0
 11
33.7619
 21
64.9912
 31
0.0
  0
LINE
  8
0
 62
     0
 10
33.7619
 20
64.9912
 30
0.0
 11
19.7624
 21
64.9912
 31
0.0
  0
LINE
  8
0
 62
     0
 10
45.9564
 20
64.9912
 30
0.0
 11
45.9564
 21
63.9921
 31
0.0
  0
LINE
  8
0
 62
     0
 10
45.9564
 20
63.9921
 30
0.0
 11
45.157
 21
63.9921
 31
0.0
  0
LINE
  8
0
 62
     0
 10
45.157
 20
63.9921
 30
0.0
 11
45.157
 21
60.8912
 31
0.0
  0
LINE
  8
0
 62
     0
 10
45.157
 20
60.8912
 30
0.0
 11
45.9564
 21
60.8912
 31
0.0
  0
LINE
  8
0
 62
     0
 10
45.9564
 20
60.8912
 30
0.0
 11
45.9564
 21
55.0912
 31
0.0
  0
LINE
  8
0
 62
     0
 10
45.9564
 20
55.0912
 30
0.0
 11
45.157
 21
55.0912
 31
0.0
  0
LINE
  8
0
 62
     0
 10
45.157
 20
55.0912
 30
0.0
 11
45.157
 21
51.992
 31
0.0
  0
LINE
  8
0
 62
     0
 10
45.157
 20
51.992
 30
0.0
 11
45.9564
 21
51.992
 31
0.0
  0
LINE
  8
0
 62
     0
 10
45.9564
 20
51.992
 30
0.0
 11
45.9564
 21
50.9916
 31
0.0
  0
LINE
  8
0
 62
     0
 10
45.9564
 20
50.9916
 30
0.0
 11
59.9556
 21
50.9916
 31
0.0
  0
LINE
  8
0
 62
     0
 10
59.9556
 20
50.9916
 30
0.0
 11
59.9556
 21
51.992
 31
0.0
  0
LINE
  8
0
 62
     0
 10
59.9556
 20
51.992
 30
0.0
 11
60.7564
 21
51.992
 31
0.0
  0
LINE
  8
0
 62
     0
 10
60.7564
 20
51.992
 30
0.0
 11
60.7564
 21
55.0912
 31
0.0
  0
LINE
  8
0
 62
     0
 10
60.7564
 20
55.0912
 30
0.0
 11
59.9556
 21
55.0912
 31
0.0
  0
LINE
  8
0
 62
     0
 10
59.9556
 20
55.0912
 30
0.0
 11
59.9556
 21
60.8912
 31
0.0
  0
LINE
  8
0
 62
     0
 10
59.9556
 20
60.8912
 30
0.0
 11
60.7564
 21
60.8912
 31
0.0
  0
LINE
  8
0
 62
     0
 10
60.7564
 20
60.8912
 30
0.0
 11
60.7564
 21
63.9921
 31
0.0
  0
LINE
  8
0
 62
     0
 10
60.7564
 20
63.9921
 30
0.0
 11
59.9556
 21
63.9921
 31
0.0
  0
LINE
  8
0
 62
     0
 10
59.9556
 20
63.9921
 30
0.0
 11
59.9556
 21
64.9912
 31
0.0
  0
LINE
  8
0
 62
     0
 10
59.9556
 20
64.9912
 30
0.0
 11
45.9564
 21
64.9912
 31
0.0
  0
LINE
  8
0
 62
     0
 10
65.0064
 20
64.9912
 30
0.0
 11
65.0064
 21
63.9921
 31
0.0
  0
LINE
  8
0
 62
     0
 10
65.0064
 20
63.9921
 30
0.0
 11
64.207
 21
63.9921
 31
0.0
  0
LINE
  8
0
 62
     0
 10
64.207
 20
63.9921
 30
0.0
 11
64.207
 21
60.8912
 31
0.0
  0
LINE
  8
0
 62
     0
 10
64.207
 20
60.8912
 30
0.0
 11
65.0064
 21
60.8912
 31
0.0
  0
LINE
  8
0
 62
     0
 10
65.0064
 20
60.8912
 30
0.0
 11
65.0064
 21
55.0912
 31
0.0
  0
LINE
  8
0
 62
     0
 10
65.0064
 20
55.0912
 30
0.0
 11
64.207
 21
55.0912
 31
0.0
  0
LINE
  8
0
 62
     0
 10
64.207
 20
55.0912
 30
0.0
 11
64.207
 21
51.992
 31
0.0
  0
LINE
  8
0
 62
     0
 10
64.207
 20
51.992
 30
0.0
 11
65.0064
 21
51.992
 31
0.0
  0
LINE
  8
0
 62
     0
 10
65.0064
 20
51.992
 30
0.0
 11
65.0064
 21
50.9916
 31
0.0
  0
LINE
  8
0
 62
     0
 10
65.0064
 20
50.9916
 30
0.0
 11
79.0071
 21
50.9916
 31
0.0
  0
LINE
  8
0
 62
     0
 10
79.0071
 20
50.9916
 30
0.0
 11
79.0071
 21
51.992
 31
0.0
  0
LINE
  8
0
 62
     0
 10
79.0071
 20
51.992
 30
0.0
 11
79.8065
 21
51.992
 31
0.0
  0
LINE
  8
0
 62
     0
 10
79.8065
 20
51.992
 30
0.0
 11
79.8065
 21
55.0912
 31
0.0
  0
LINE
  8
0
 62
     0
 10
79.8065
 20
55.0912
 30
0.0
 11
79.0071
 21
55.0912
 31
0.0
  0
LINE
  8
0
 62
     0
 10
79.0071
 20
55.0912
 30
0.0
 11
79.0071
 21
60.8912
 31
0.0
  0
LINE
  8
0
 62
     0
 10
79.0071
 20
60.8912
 30
0.0
 11
79.8065
 21
60.8912
 31
0.0
  0
LINE
  8
0
 62
     0
 10
79.8065
 20
60.8912
 30
0.0
 11
79.8065
 21
63.9921
 31
0.0
  0
LINE
  8
0
 62
     0
 10
79.8065
 20
63.9921
 30
0.0
 11
79.0071
 21
63.9921
 31
0.0
  0
LINE
  8
0
 62
     0
 10
79.0071
 20
63.9921
 30
0.0
 11
79.0071
 21
64.9912
 31
0.0
  0
LINE
  8
0
 62
     0
 10
79.0071
 20
64.9912
 30
0.0
 11
65.0064
 21
64.9912
 31
0.0
  0
LINE
  8
0
 62
     0
 10
84.0564
 20
64.9912
 30
0.0
 11
84.0564
 21
63.9921
 31
0.0
  0
LINE
  8
0
 62
     0
 10
84.0564
 20
63.9921
 30
0.0
 11
83.257
 21
63.9921
 31
0.0
  0
LINE
  8
0
 62
     0
 10
83.257
 20
63.9921
 30
0.0
 11
83.257
 21
60.8912
 31
0.0
  0
LINE
  8
0
 62
     0
 10
83.257
 20
60.8912
 30
0.0
 11
84.0564
 21
60.8912
 31
0.0
  0
LINE
  8
0
 62
     0
 10
84.0564
 20
60.8912
 30
0.0
 11
84.0564
 21
55.0912
 31
0.0
  0
LINE
  8
0
 62
     0
 10
84.0564
 20
55.0912
 30
0.0
 11
83.257
 21
55.0912
 31
0.0
  0
LINE
  8
0
 62
     0
 10
83.257
 20
55.0912
 30
0.0
 11
83.257
 21
51.992
 31
0.0
  0
LINE
  8
0
 62
     0
 10
83.257
 20
51.992
 30
0.0
 11
84.0564
 21
51.992
 31
0.0
  0
LINE
  8
0
 62
     0
 10
84.0564
 20
51.992
 30
0.0
 11
84.0564
 21
50.9916
 31
0.0
  0
LINE
  8
0
 62
     0
 10
84.0564
 20
50.9916
 30
0.0
 11
98.0571
 21
50.9916
 31
0.0
  0
LINE
  8
0
 62
     0
 10
98.0571
 20
50.9916
 30
0.0
 11
98.0571
 21
51.992
 31
0.0
  0
LINE
  8
0
 62
     0
 10
98.0571
 20
51.992
 30
0.0
 11
98.8564
 21
51.992
 31
0.0
  0
LINE
  8
0
 62
     0
 10
98.8564
 20
51.992
 30
0.0
 11
98.8564
 21
55.0912
 31
0.0
  0
LINE
  8
0
 62
     0
 10
98.8564
 20
55.0912
 30
0.0
 11
98.0571
 21
55.0912
 31
0.0
  0
LINE
  8
0
 62
     0
 10
98.0571
 20
55.0912
 30
0.0
 11
98.0571
 21
60.8912
 31
0.0
  0
LINE
  8
0
 62
     0
 10
98.0571
 20
60.8912
 30
0.0
 11
98.8564
 21
60.8912
 31
0.0
  0
LINE
  8
0
 62
     0
 10
98.8564
 20
60.8912
 30
0.0
 11
98.8564
 21
63.9921
 31
0.0
  0
LINE
  8
0
 62
     0
 10
98.8564
 20
63.9921
 30
0.0
 11
98.0571
 21
63.9921
 31
0.0
  0
LINE
  8
0
 62
     0
 10
98.0571
 20
63.9921
 30
0.0
 11
98.0571
 21
64.9912
 31
0.0
  0
LINE
  8
0
 62
     0
 10
98.0571
 20
64.9912
 30
0.0
 11
84.0564
 21
64.9912
 31
0.0
  0
LINE
  8
0
 62
     0
 10
103.106
 20
64.9912
 30
0.0
 11
103.106
 21
63.9921
 31
0.0
  0
LINE
  8
0
 62
     0
 10
103.106
 20
63.9921
 30
0.0
 11
102.307
 21
63.9921
 31
0.0
  0
LINE
  8
0
 62
     0
 10
102.307
 20
63.9921
 30
0.0
 11
102.307
 21
60.8912
 31
0.0
  0
LINE
  8
0
 62
     0
 10
102.307
 20
60.8912
 30
0.0
 11
103.106
 21
60.8912
 31
0.0
  0
LINE
  8
0
 62
     0
 10
103.106
 20
60.8912
 30
0.0
 11
103.106
 21
55.0912
 31
0.0
  0
LINE
  8
0
 62
     0
 10
103.106
 20
55.0912
 30
0.0
 11
102.307
 21
55.0912
 31
0.0
  0
LINE
  8
0
 62
     0
 10
102.307
 20
55.0912
 30
0.0
 11
102.307
 21
51.992
 31
0.0
  0
LINE
  8
0
 62
     0
 10
102.307
 20
51.992
 30
0.0
 11
103.106
 21
51.992
 31
0.0
  0
LINE
  8
0
 62
     0
 10
103.106
 20
51.992
 30
0.0
 11
103.106
 21
50.9916
 31
0.0
  0
LINE
  8
0
 62
     0
 10
103.106
 20
50.9916
 30
0.0
 11
117.107
 21
50.9916
 31
0.0
  0
LINE
  8
0
 62
     0
 10
117.107
 20
50.9916
 30
0.0
 11
117.107
 21
51.992
 31
0.0
  0
LINE
  8
0
 62
     0
 10
117.107
 20
51.992
 30
0.0
 11
117.906
 21
51.992
 31
0.0
  0
LINE
  8
0
 62
     0
 10
117.906
 20
51.992
 30
0.0
 11
117.906
 21
55.0912
 31
0.0
  0
LINE
  8
0
 62
     0
 10
117.906
 20
55.0912
 30
0.0
 11
117.107
 21
55.0912
 31
0.0
  0
LINE
  8
0
 62
     0
 10
117.107
 20
55.0912
 30
0.0
 11
117.107
 21
60.8912
 31
0.0
  0
LINE
  8
0
 62
     0
 10
117.107
 20
60.8912
 30
0.0
 11
117.906
 21
60.8912
 31
0.0
  0
LINE
  8
0
 62
     0
 10
117.906
 20
60.8912
 30
0.0
 11
117.906
 21
63.9921
 31
0.0
  0
LINE
  8
0
 62
     0
 10
117.906
 20
63.9921
 30
0.0
 11
117.107
 21
63.9921
 31
0.0
  0
LINE
  8
0
 62
     0
 10
117.107
 20
63.9921
 30
0.0
 11
117.107
 21
64.9912
 31
0.0
  0
LINE
  8
0
 62
     0
 10
117.107
 20
64.9912
 30
0.0
 11
103.106
 21
64.9912
 31
0.0
  0
LINE
  8
0
 62
     0
 10
122.156
 20
64.9912
 30
0.0
 11
122.156
 21
63.9921
 31
0.0
  0
LINE
  8
0
 62
     0
 10
122.156
 20
63.9921
 30
0.0
 11
121.357
 21
63.9921
 31
0.0
  0
LINE
  8
0
 62
     0
 10
121.357
 20
63.9921
 30
0.0
 11
121.357
 21
60.8912
 31
0.0
  0
LINE
  8
0
 62
     0
 10
121.357
 20
60.8912
 30
0.0
 11
122.156
 21
60.8912
 31
0.0
  0
LINE
  8
0
 62
     0
 10
122.156
 20
60.8912
 30
0.0
 11
122.156
 21
55.0912
 31
0.0
  0
LINE
  8
0
 62
     0
 10
122.156
 20
55.0912
 30
0.0
 11
121.357
 21
55.0912
 31
0.0
  0
LINE
  8
0
 62
     0
 10
121.357
 20
55.0912
 30
0.0
 11
121.357
 21
51.992
 31
0.0
  0
LINE
  8
0
 62
     0
 10
121.357
 20
51.992
 30
0.0
 11
122.156
 21
51.992
 31
0.0
  0
LINE
  8
0
 62
     0
 10
122.156
 20
51.992
 30
0.0
 11
122.156
 21
50.9916
 31
0.0
  0
LINE
  8
0
 62
     0
 10
122.156
 20
50.9916
 30
0.0
 11
136.157
 21
50.9916
 31
0.0
  0
LINE
  8
0
 62
     0
 10
136.157
 20
50.9916
 30
0.0
 11
136.157
 21
51.992
 31
0.0
  0
LINE
  8
0
 62
     0
 10
136.157
 20
51.992
 30
0.0
 11
136.956
 21
51.992
 31
0.0
  0
LINE
  8
0
 62
     0
 10
136.956
 20
51.992
 30
0.0
 11
136.956
 21
55.0912
 31
0.0
  0
LINE
  8
0
 62
     0
 10
136.956
 20
55.0912
 30
0.0
 11
136.157
 21
55.0912
 31
0.0
  0
LINE
  8
0
 62
     0
 10
136.157
 20
55.0912
 30
0.0
 11
136.157
 21
60.8912
 31
0.0
  0
LINE
  8
0
 62
     0
 10
136.157
 20
60.8912
 30
0.0
 11
136.956
 21
60.8912
 31
0.0
  0
LINE
  8
0
 62
     0
 10
136.956
 20
60.8912
 30
0.0
 11
136.956
 21
63.9921
 31
0.0
  0
LINE
  8
0
 62
     0
 10
136.956
 20
63.9921
 30
0.0
 11
136.157
 21
63.9921
 31
0.0
  0
LINE
  8
0
 62
     0
 10
136.157
 20
63.9921
 30
0.0
 11
136.157
 21
64.9912
 31
0.0
  0
LINE
  8
0
 62
     0
 10
136.157
 20
64.9912
 30
0.0
 11
122.156
 21
64.9912
 31
0.0
  0
LINE
  8
0
 62
     0
 10
141.206
 20
64.9912
 30
0.0
 11
141.206
 21
63.9921
 31
0.0
  0
LINE
  8
0
 62
     0
 10
141.206
 20
63.9921
 30
0.0
 11
140.407
 21
63.9921
 31
0.0
  0
LINE
  8
0
 62
     0
 10
140.407
 20
63.9921
 30
0.0
 11
140.407
 21
60.8912
 31
0.0
  0
LINE
  8
0
 62
     0
 10
140.407
 20
60.8912
 30
0.0
 11
141.206
 21
60.8912
 31
0.0
  0
LINE
  8
0
 62
     0
 10
141.206
 20
60.8912
 30
0.0
 11
141.206
 21
55.0912
 31
0.0
  0
LINE
  8
0
 62
     0
 10
141.206
 20
55.0912
 30
0.0
 11
140.407
 21
55.0912
 31
0.0
  0
LINE
  8
0
 62
     0
 10
140.407
 20
55.0912
 30
0.0
 11
140.407
 21
51.992
 31
0.0
  0
LINE
  8
0
 62
     0
 10
140.407
 20
51.992
 30
0.0
 11
141.206
 21
51.992
 31
0.0
  0
LINE
  8
0
 62
     0
 10
141.206
 20
51.992
 30
0.0
 11
141.206
 21
50.9916
 31
0.0
  0
LINE
  8
0
 62
     0
 10
141.206
 20
50.9916
 30
0.0
 11
155.207
 21
50.9916
 31
0.0
  0
LINE
  8
0
 62
     0
 10
155.207
 20
50.9916
 30
0.0
 11
155.207
 21
51.992
 31
0.0
  0
LINE
  8
0
 62
     0
 10
155.207
 20
51.992
 30
0.0
 11
156.006
 21
51.992
 31
0.0
  0
LINE
  8
0
 62
     0
 10
156.006
 20
51.992
 30
0.0
 11
156.006
 21
55.0912
 31
0.0
  0
LINE
  8
0
 62
     0
 10
156.006
 20
55.0912
 30
0.0
 11
155.207
 21
55.0912
 31
0.0
  0
LINE
  8
0
 62
     0
 10
155.207
 20
55.0912
 30
0.0
 11
155.207
 21
60.8912
 31
0.0
  0
LINE
  8
0
 62
     0
 10
155.207
 20
60.8912
 30
0.0
 11
156.006
 21
60.8912
 31
0.0
  0
LINE
  8
0
 62
     0
 10
156.006
 20
60.8912
 30
0.0
 11
156.006
 21
63.9921
 31
0.0
  0
LINE
  8
0
 62
     0
 10
156.006
 20
63.9921
 30
0.0
 11
155.207
 21
63.9921
 31
0.0
  0
LINE
  8
0
 62
     0
 10
155.207
 20
63.9921
 30
0.0
 11
155.207
 21
64.9912
 31
0.0
  0
LINE
  8
0
 62
     0
 10
155.207
 20
64.9912
 30
0.0
 11
141.206
 21
64.9912
 31
0.0
  0
LINE
  8
0
 62
     0
 10
160.256
 20
64.9912
 30
0.0
 11
160.256
 21
63.9921
 31
0.0
  0
LINE
  8
0
 62
     0
 10
160.256
 20
63.9921
 30
0.0
 11
159.457
 21
63.9921
 31
0.0
  0
LINE
  8
0
 62
     0
 10
159.457
 20
63.9921
 30
0.0
 11
159.457
 21
60.8912
 31
0.0
  0
LINE
  8
0
 62
     0
 10
159.457
 20
60.8912
 30
0.0
 11
160.256
 21
60.8912
 31
0.0
  0
LINE
  8
0
 62
     0
 10
160.256
 20
60.8912
 30
0.0
 11
160.256
 21
55.0912
 31
0.0
  0
LINE
  8
0
 62
     0
 10
160.256
 20
55.0912
 30
0.0
 11
159.457
 21
55.0912
 31
0.0
  0
LINE
  8
0
 62
     0
 10
159.457
 20
55.0912
 30
0.0
 11
159.457
 21
51.992
 31
0.0
  0
LINE
  8
0
 62
     0
 10
159.457
 20
51.992
 30
0.0
 11
160.256
 21
51.992
 31
0.0
  0
LINE
  8
0
 62
     0
 10
160.256
 20
51.992
 30
0.0
 11
160.256
 21
50.9916
 31
0.0
  0
LINE
  8
0
 62
     0
 10
160.256
 20
50.9916
 30
0.0
 11
174.257
 21
50.9916
 31
0.0
  0
LINE
  8
0
 62
     0
 10
174.257
 20
50.9916
 30
0.0
 11
174.257
 21
51.992
 31
0.0
  0
LINE
  8
0
 62
     0
 10
174.257
 20
51.992
 30
0.0
 11
175.056
 21
51.992
 31
0.0
  0
LINE
  8
0
 62
     0
 10
175.056
 20
51.992
 30
0.0
 11
175.056
 21
55.0912
 31
0.0
  0
LINE
  8
0
 62
     0
 10
175.056
 20
55.0912
 30
0.0
 11
174.257
 21
55.0912
 31
0.0
  0
LINE
  8
0
 62
     0
 10
174.257
 20
55.0912
 30
0.0
 11
174.257
 21
60.8912
 31
0.0
  0
LINE
  8
0
 62
     0
 10
174.257
 20
60.8912
 30
0.0
 11
175.056
 21
60.8912
 31
0.0
  0
LINE
  8
0
 62
     0
 10
175.056
 20
60.8912
 30
0.0
 11
175.056
 21
63.9921
 31
0.0
  0
LINE
  8
0
 62
     0
 10
175.056
 20
63.9921
 30
0.0
 11
174.257
 21
63.9921
 31
0.0
  0
LINE
  8
0
 62
     0
 10
174.257
 20
63.9921
 30
0.0
 11
174.257
 21
64.9912
 31
0.0
  0
LINE
  8
0
 62
     0
 10
174.257
 20
64.9912
 30
0.0
 11
160.256
 21
64.9912
 31
0.0
  0
LINE
  8
0
 62
     0
 10
179.306
 20
64.9912
 30
0.0
 11
179.306
 21
63.9921
 31
0.0
  0
LINE
  8
0
 62
     0
 10
179.306
 20
63.9921
 30
0.0
 11
178.507
 21
63.9921
 31
0.0
  0
LINE
  8
0
 62
     0
 10
178.507
 20
63.9921
 30
0.0
 11
178.507
 21
60.8912
 31
0.0
  0
LINE
  8
0
 62
     0
 10
178.507
 20
60.8912
 30
0.0
 11
179.306
 21
60.8912
 31
0.0
  0
LINE
  8
0
 62
     0
 10
179.306
 20
60.8912
 30
0.0
 11
179.306
 21
55.0912
 31
0.0
  0
LINE
  8
0
 62
     0
 10
179.306
 20
55.0912
 30
0.0
 11
178.507
 21
55.0912
 31
0.0
  0
LINE
  8
0
 62
     0
 10
178.507
 20
55.0912
 30
0.0
 11
178.507
 21
51.992
 31
0.0
  0
LINE
  8
0
 62
     0
 10
178.507
 20
51.992
 30
0.0
 11
179.306
 21
51.992
 31
0.0
  0
LINE
  8
0
 62
     0
 10
179.306
 20
51.992
 30
0.0
 11
179.306
 21
50.9916
 31
0.0
  0
LINE
  8
0
 62
     0
 10
179.306
 20
50.9916
 30
0.0
 11
193.307
 21
50.9916
 31
0.0
  0
LINE
  8
0
 62
     0
 10
193.307
 20
50.9916
 30
0.0
 11
193.307
 21
51.992
 31
0.0
  0
LINE
  8
0
 62
     0
 10
193.307
 20
51.992
 30
0.0
 11
194.106
 21
51.992
 31
0.0
  0
LINE
  8
0
 62
     0
 10
194.106
 20
51.992
 30
0.0
 11
194.106
 21
55.0912
 31
0.0
  0
LINE
  8
0
 62
     0
 10
194.106
 20
55.0912
 30
0.0
 11
193.307
 21
55.0912
 31
0.0
  0
LINE
  8
0
 62
     0
 10
193.307
 20
55.0912
 30
0.0
 11
193.307
 21
60.8912
 31
0.0
  0
LINE
  8
0
 62
     0
 10
193.307
 20
60.8912
 30
0.0
 11
194.106
 21
60.8912
 31
0.0
  0
LINE
  8
0
 62
     0
 10
194.106
 20
60.8912
 30
0.0
 11
194.106
 21
63.9921
 31
0.0
  0
LINE
  8
0
 62
     0
 10
194.106
 20
63.9921
 30
0.0
 11
193.307
 21
63.9921
 31
0.0
  0
LINE
  8
0
 62
     0
 10
193.307
 20
63.9921
 30
0.0
 11
193.307
 21
64.9912
 31
0.0
  0
LINE
  8
0
 62
     0
 10
193.307
 20
64.9912
 30
0.0
 11
179.306
 21
64.9912
 31
0.0
  0
LINE
  8
0
 62
     0
 10
198.356
 20
64.9912
 30
0.0
 11
198.356
 21
63.9921
 31
0.0
  0
LINE
  8
0
 62
     0
 10
198.356
 20
63.9921
 30
0.0
 11
197.557
 21
63.9921
 31
0.0
  0
LINE
  8
0
 62
     0
 10
197.557
 20
63.9921
 30
0.0
 11
197.557
 21
60.8912
 31
0.0
  0
LINE
  8
0
 62
     0
 10
197.557
 20
60.8912
 30
0.0
 11
198.356
 21
60.8912
 31
0.0
  0
LINE
  8
0
 62
     0
 10
198.356
 20
60.8912
 30
0.0
 11
198.356
 21
55.0912
 31
0.0
  0
LINE
  8
0
 62
     0
 10
198.356
 20
55.0912
 30
0.0
 11
197.557
 21
55.0912
 31
0.0
  0
LINE
  8
0
 62
     0
 10
197.557
 20
55.0912
 30
0.0
 11
197.557
 21
51.992
 31
0.0
  0
LINE
  8
0
 62
     0
 10
197.557
 20
51.992
 30
0.0
 11
198.356
 21
51.992
 31
0.0
  0
LINE
  8
0
 62
     0
 10
198.356
 20
51.992
 30
0.0
 11
198.356
 21
50.9916
 31
0.0
  0
LINE
  8
0
 62
     0
 10
198.356
 20
50.9916
 30
0.0
 11
212.357
 21
50.9916
 31
0.0
  0
LINE
  8
0
 62
     0
 10
212.357
 20
50.9916
 30
0.0
 11
212.357
 21
51.992
 31
0.0
  0
LINE
  8
0
 62
     0
 10
212.357
 20
51.992
 30
0.0
 11
213.156
 21
51.992
 31
0.0
  0
LINE
  8
0
 62
     0
 10
213.156
 20
51.992
 30
0.0
 11
213.156
 21
55.0912
 31
0.0
  0
LINE
  8
0
 62
     0
 10
213.156
 20
55.0912
 30
0.0
 11
212.357
 21
55.0912
 31
0.0
  0
LINE
  8
0
 62
     0
 10
212.357
 20
55.0912
 30
0.0
 11
212.357
 21
60.8912
 31
0.0
  0
LINE
  8
0
 62
     0
 10
212.357
 20
60.8912
 30
0.0
 11
213.156
 21
60.8912
 31
0.0
  0
LINE
  8
0
 62
     0
 10
213.156
 20
60.8912
 30
0.0
 11
213.156
 21
63.9921
 31
0.0
  0
LINE
  8
0
 62
     0
 10
213.156
 20
63.9921
 30
0.0
 11
212.357
 21
63.9921
 31
0.0
  0
LINE
  8
0
 62
     0
 10
212.357
 20
63.9921
 30
0.0
 11
212.357
 21
64.9912
 31
0.0
  0
LINE
  8
0
 62
     0
 10
212.357
 20
64.9912
 30
0.0
 11
198.356
 21
64.9912
 31
0.0
  0
LINE
  8
0
 62
     0
 10
217.406
 20
64.9912
 30
0.0
 11
217.406
 21
63.9921
 31
0.0
  0
LINE
  8
0
 62
     0
 10
217.406
 20
63.9921
 30
0.0
 11
216.607
 21
63.9921
 31
0.0
  0
LINE
  8
0
 62
     0
 10
216.607
 20
63.9921
 30
0.0
 11
216.607
 21
60.8912
 31
0.0
  0
LINE
  8
0
 62
     0
 10
216.607
 20
60.8912
 30
0.0
 11
217.406
 21
60.8912
 31
0.0
  0
LINE
  8
0
 62
     0
 10
217.406
 20
60.8912
 30
0.0
 11
217.406
 21
55.0912
 31
0.0
  0
LINE
  8
0
 62
     0
 10
217.406
 20
55.0912
 30
0.0
 11
216.607
 21
55.0912
 31
0.0
  0
LINE
  8
0
 62
     0
 10
216.607
 20
55.0912
 30
0.0
 11
216.607
 21
51.992
 31
0.0
  0
LINE
  8
0
 62
     0
 10
216.607
 20
51.992
 30
0.0
 11
217.406
 21
51.992
 31
0.0
  0
LINE
  8
0
 62
     0
 10
217.406
 20
51.992
 30
0.0
 11
217.406
 21
50.9916
 31
0.0
  0
LINE
  8
0
 62
     0
 10
217.406
 20
50.9916
 30
0.0
 11
231.407
 21
50.9916
 31
0.0
  0
LINE
  8
0
 62
     0
 10
231.407
 20
50.9916
 30
0.0
 11
231.407
 21
51.992
 31
0.0
  0
LINE
  8
0
 62
     0
 10
231.407
 20
51.992
 30
0.0
 11
232.206
 21
51.992
 31
0.0
  0
LINE
  8
0
 62
     0
 10
232.206
 20
51.992
 30
0.0
 11
232.206
 21
55.0912
 31
0.0
  0
LINE
  8
0
 62
     0
 10
232.206
 20
55.0912
 30
0.0
 11
231.407
 21
55.0912
 31
0.0
  0
LINE
  8
0
 62
     0
 10
231.407
 20
55.0912
 30
0.0
 11
231.407
 21
60.8912
 31
0.0
  0
LINE
  8
0
 62
     0
 10
231.407
 20
60.8912
 30
0.0
 11
232.206
 21
60.8912
 31
0.0
  0
LINE
  8
0
 62
     0
 10
232.206
 20
60.8912
 30
0.0
 11
232.206
 21
63.9921
 31
0.0
  0
LINE
  8
0
 62
     0
 10
232.206
 20
63.9921
 30
0.0
 11
231.407
 21
63.9921
 31
0.0
  0
LINE
  8
0
 62
     0
 10
231.407
 20
63.9921
 30
0.0
 11
231.407
 21
64.9912
 31
0.0
  0
LINE
  8
0
 62
     0
 10
231.407
 20
64.9912
 30
0.0
 11
217.406
 21
64.9912
 31
0.0
  0
LINE
  8
0
 62
     0
 10
236.456
 20
64.9912
 30
0.0
 11
236.456
 21
63.9921
 31
0.0
  0
LINE
  8
0
 62
     0
 10
236.456
 20
63.9921
 30
0.0
 11
235.657
 21
63.9921
 31
0.0
  0
LINE
  8
0
 62
     0
 10
235.657
 20
63.9921
 30
0.0
 11
235.657
 21
60.8912
 31
0.0
  0
LINE
  8
0
 62
     0
 10
235.657
 20
60.8912
 30
0.0
 11
236.456
 21
60.8912
 31
0.0
  0
LINE
  8
0
 62
     0
 10
236.456
 20
60.8912
 30
0.0
 11
236.456
 21
55.0912
 31
0.0
  0
LINE
  8
0
 62
     0
 10
236.456
 20
55.0912
 30
0.0
 11
235.657
 21
55.0912
 31
0.0
  0
LINE
  8
0
 62
     0
 10
235.657
 20
55.0912
 30
0.0
 11
235.657
 21
51.992
 31
0.0
  0
LINE
  8
0
 62
     0
 10
235.657
 20
51.992
 30
0.0
 11
236.456
 21
51.992
 31
0.0
  0
LINE
  8
0
 62
     0
 10
236.456
 20
51.992
 30
0.0
 11
236.456
 21
50.9916
 31
0.0
  0
LINE
  8
0
 62
     0
 10
236.456
 20
50.9916
 30
0.0
 11
250.457
 21
50.9916
 31
0.0
  0
LINE
  8
0
 62
     0
 10
250.457
 20
50.9916
 30
0.0
 11
250.457
 21
51.992
 31
0.0
  0
LINE
  8
0
 62
     0
 10
250.457
 20
51.992
 30
0.0
 11
251.255
 21
51.992
 31
0.0
  0
LINE
  8
0
 62
     0
 10
251.255
 20
51.992
 30
0.0
 11
251.255
 21
55.0912
 31
0.0
  0
LINE
  8
0
 62
     0
 10
251.255
 20
55.0912
 30
0.0
 11
250.457
 21
55.0912
 31
0.0
  0
LINE
  8
0
 62
     0
 10
250.457
 20
55.0912
 30
0.0
 11
250.457
 21
60.8912
 31
0.0
  0
LINE
  8
0
 62
     0
 10
250.457
 20
60.8912
 30
0.0
 11
251.255
 21
60.8912
 31
0.0
  0
LINE
  8
0
 62
     0
 10
251.255
 20
60.8912
 30
0.0
 11
251.255
 21
63.9921
 31
0.0
  0
LINE
  8
0
 62
     0
 10
251.255
 20
63.9921
 30
0.0
 11
250.457
 21
63.9921
 31
0.0
  0
LINE
  8
0
 62
     0
 10
250.457
 20
63.9921
 30
0.0
 11
250.457
 21
64.9912
 31
0.0
  0
LINE
  8
0
 62
     0
 10
250.457
 20
64.9912
 30
0.0
 11
236.456
 21
64.9912
 31
0.0
  0
LINE
  8
0
 62
     0
 10
17.3812
 20
84.0412
 30
0.0
 11
17.3812
 21
83.0421
 31
0.0
  0
LINE
  8
0
 62
     0
 10
17.3812
 20
83.0421
 30
0.0
 11
16.5819
 21
83.0421
 31
0.0
  0
LINE
  8
0
 62
     0
 10
16.5819
 20
83.0421
 30
0.0
 11
16.5819
 21
79.9412
 31
0.0
  0
LINE
  8
0
 62
     0
 10
16.5819
 20
79.9412
 30
0.0
 11
17.3812
 21
79.9412
 31
0.0
  0
LINE
  8
0
 62
     0
 10
17.3812
 20
79.9412
 30
0.0
 11
17.3812
 21
74.1426
 31
0.0
  0
LINE
  8
0
 62
     0
 10
17.3812
 20
74.1426
 30
0.0
 11
16.5819
 21
74.1426
 31
0.0
  0
LINE
  8
0
 62
     0
 10
16.5819
 20
74.1426
 30
0.0
 11
16.5819
 21
71.042
 31
0.0
  0
LINE
  8
0
 62
     0
 10
16.5819
 20
71.042
 30
0.0
 11
17.3812
 21
71.042
 31
0.0
  0
LINE
  8
0
 62
     0
 10
17.3812
 20
71.042
 30
0.0
 11
17.3812
 21
70.0416
 31
0.0
  0
LINE
  8
0
 62
     0
 10
17.3812
 20
70.0416
 30
0.0
 11
31.3821
 21
70.0416
 31
0.0
  0
LINE
  8
0
 62
     0
 10
31.3821
 20
70.0416
 30
0.0
 11
31.3821
 21
71.042
 31
0.0
  0
LINE
  8
0
 62
     0
 10
31.3821
 20
71.042
 30
0.0
 11
32.1813
 21
71.042
 31
0.0
  0
LINE
  8
0
 62
     0
 10
32.1813
 20
71.042
 30
0.0
 11
32.1813
 21
74.1426
 31
0.0
  0
LINE
  8
0
 62
     0
 10
32.1813
 20
74.1426
 30
0.0
 11
31.3821
 21
74.1426
 31
0.0
  0
LINE
  8
0
 62
     0
 10
31.3821
 20
74.1426
 30
0.0
 11
31.3821
 21
79.9412
 31
0.0
  0
LINE
  8
0
 62
     0
 10
31.3821
 20
79.9412
 30
0.0
 11
32.1813
 21
79.9412
 31
0.0
  0
LINE
  8
0
 62
     0
 10
32.1813
 20
79.9412
 30
0.0
 11
32.1813
 21
83.0421
 31
0.0
  0
LINE
  8
0
 62
     0
 10
32.1813
 20
83.0421
 30
0.0
 11
31.3821
 21
83.0421
 31
0.0
  0
LINE
  8
0
 62
     0
 10
31.3821
 20
83.0421
 30
0.0
 11
31.3821
 21
84.0412
 31
0.0
  0
LINE
  8
0
 62
     0
 10
31.3821
 20
84.0412
 30
0.0
 11
17.3812
 21
84.0412
 31
0.0
  0
LINE
  8
0
 62
     0
 10
41.1949
 20
84.0412
 30
0.0
 11
41.1949
 21
83.0421
 31
0.0
  0
LINE
  8
0
 62
     0
 10
41.1949
 20
83.0421
 30
0.0
 11
40.3945
 21
83.0421
 31
0.0
  0
LINE
  8
0
 62
     0
 10
40.3945
 20
83.0421
 30
0.0
 11
40.3945
 21
79.9412
 31
0.0
  0
LINE
  8
0
 62
     0
 10
40.3945
 20
79.9412
 30
0.0
 11
41.1949
 21
79.9412
 31
0.0
  0
LINE
  8
0
 62
     0
 10
41.1949
 20
79.9412
 30
0.0
 11
41.1949
 21
74.1426
 31
0.0
  0
LINE
  8
0
 62
     0
 10
41.1949
 20
74.1426
 30
0.0
 11
40.3945
 21
74.1426
 31
0.0
  0
LINE
  8
0
 62
     0
 10
40.3945
 20
74.1426
 30
0.0
 11
40.3945
 21
71.042
 31
0.0
  0
LINE
  8
0
 62
     0
 10
40.3945
 20
71.042
 30
0.0
 11
41.1949
 21
71.042
 31
0.0
  0
LINE
  8
0
 62
     0
 10
41.1949
 20
71.042
 30
0.0
 11
41.1949
 21
70.0416
 31
0.0
  0
LINE
  8
0
 62
     0
 10
41.1949
 20
70.0416
 30
0.0
 11
55.1946
 21
70.0416
 31
0.0
  0
LINE
  8
0
 62
     0
 10
55.1946
 20
70.0416
 30
0.0
 11
55.1946
 21
71.042
 31
0.0
  0
LINE
  8
0
 62
     0
 10
55.1946
 20
71.042
 30
0.0
 11
55.9939
 21
71.042
 31
0.0
  0
LINE
  8
0
 62
     0
 10
55.9939
 20
71.042
 30
0.0
 11
55.9939
 21
74.1426
 31
0.0
  0
LINE
  8
0
 62
     0
 10
55.9939
 20
74.1426
 30
0.0
 11
55.1946
 21
74.1426
 31
0.0
  0
LINE
  8
0
 62
     0
 10
55.1946
 20
74.1426
 30
0.0
 11
55.1946
 21
79.9412
 31
0.0
  0
LINE
  8
0
 62
     0
 10
55.1946
 20
79.9412
 30
0.0
 11
55.9939
 21
79.9412
 31
0.0
  0
LINE
  8
0
 62
     0
 10
55.9939
 20
79.9412
 30
0.0
 11
55.9939
 21
83.0421
 31
0.0
  0
LINE
  8
0
 62
     0
 10
55.9939
 20
83.0421
 30
0.0
 11
55.1946
 21
83.0421
 31
0.0
  0
LINE
  8
0
 62
     0
 10
55.1946
 20
83.0421
 30
0.0
 11
55.1946
 21
84.0412
 31
0.0
  0
LINE
  8
0
 62
     0
 10
55.1946
 20
84.0412
 30
0.0
 11
41.1949
 21
84.0412
 31
0.0
  0
LINE
  8
0
 62
     0
 10
60.2449
 20
84.0412
 30
0.0
 11
60.2449
 21
83.0421
 31
0.0
  0
LINE
  8
0
 62
     0
 10
60.2449
 20
83.0421
 30
0.0
 11
59.4431
 21
83.0421
 31
0.0
  0
LINE
  8
0
 62
     0
 10
59.4431
 20
83.0421
 30
0.0
 11
59.4431
 21
79.9412
 31
0.0
  0
LINE
  8
0
 62
     0
 10
59.4431
 20
79.9412
 30
0.0
 11
60.2449
 21
79.9412
 31
0.0
  0
LINE
  8
0
 62
     0
 10
60.2449
 20
79.9412
 30
0.0
 11
60.2449
 21
74.1426
 31
0.0
  0
LINE
  8
0
 62
     0
 10
60.2449
 20
74.1426
 30
0.0
 11
59.4431
 21
74.1426
 31
0.0
  0
LINE
  8
0
 62
     0
 10
59.4431
 20
74.1426
 30
0.0
 11
59.4431
 21
71.042
 31
0.0
  0
LINE
  8
0
 62
     0
 10
59.4431
 20
71.042
 30
0.0
 11
60.2449
 21
71.042
 31
0.0
  0
LINE
  8
0
 62
     0
 10
60.2449
 20
71.042
 30
0.0
 11
60.2449
 21
70.0416
 31
0.0
  0
LINE
  8
0
 62
     0
 10
60.2449
 20
70.0416
 30
0.0
 11
74.2446
 21
70.0416
 31
0.0
  0
LINE
  8
0
 62
     0
 10
74.2446
 20
70.0416
 30
0.0
 11
74.2446
 21
71.042
 31
0.0
  0
LINE
  8
0
 62
     0
 10
74.2446
 20
71.042
 30
0.0
 11
75.044
 21
71.042
 31
0.0
  0
LINE
  8
0
 62
     0
 10
75.044
 20
71.042
 30
0.0
 11
75.044
 21
74.1426
 31
0.0
  0
LINE
  8
0
 62
     0
 10
75.044
 20
74.1426
 30
0.0
 11
74.2446
 21
74.1426
 31
0.0
  0
LINE
  8
0
 62
     0
 10
74.2446
 20
74.1426
 30
0.0
 11
74.2446
 21
79.9412
 31
0.0
  0
LINE
  8
0
 62
     0
 10
74.2446
 20
79.9412
 30
0.0
 11
75.044
 21
79.9412
 31
0.0
  0
LINE
  8
0
 62
     0
 10
75.044
 20
79.9412
 30
0.0
 11
75.044
 21
83.0421
 31
0.0
  0
LINE
  8
0
 62
     0
 10
75.044
 20
83.0421
 30
0.0
 11
74.2446
 21
83.0421
 31
0.0
  0
LINE
  8
0
 62
     0
 10
74.2446
 20
83.0421
 30
0.0
 11
74.2446
 21
84.0412
 31
0.0
  0
LINE
  8
0
 62
     0
 10
74.2446
 20
84.0412
 30
0.0
 11
60.2449
 21
84.0412
 31
0.0
  0
LINE
  8
0
 62
     0
 10
79.2949
 20
84.0412
 30
0.0
 11
79.2949
 21
83.0421
 31
0.0
  0
LINE
  8
0
 62
     0
 10
79.2949
 20
83.0421
 30
0.0
 11
78.4945
 21
83.0421
 31
0.0
  0
LINE
  8
0
 62
     0
 10
78.4945
 20
83.0421
 30
0.0
 11
78.4945
 21
79.9412
 31
0.0
  0
LINE
  8
0
 62
     0
 10
78.4945
 20
79.9412
 30
0.0
 11
79.2949
 21
79.9412
 31
0.0
  0
LINE
  8
0
 62
     0
 10
79.2949
 20
79.9412
 30
0.0
 11
79.2949
 21
74.1426
 31
0.0
  0
LINE
  8
0
 62
     0
 10
79.2949
 20
74.1426
 30
0.0
 11
78.4945
 21
74.1426
 31
0.0
  0
LINE
  8
0
 62
     0
 10
78.4945
 20
74.1426
 30
0.0
 11
78.4945
 21
71.042
 31
0.0
  0
LINE
  8
0
 62
     0
 10
78.4945
 20
71.042
 30
0.0
 11
79.2949
 21
71.042
 31
0.0
  0
LINE
  8
0
 62
     0
 10
79.2949
 20
71.042
 30
0.0
 11
79.2949
 21
70.0416
 31
0.0
  0
LINE
  8
0
 62
     0
 10
79.2949
 20
70.0416
 30
0.0
 11
93.2946
 21
70.0416
 31
0.0
  0
LINE
  8
0
 62
     0
 10
93.2946
 20
70.0416
 30
0.0
 11
93.2946
 21
71.042
 31
0.0
  0
LINE
  8
0
 62
     0
 10
93.2946
 20
71.042
 30
0.0
 11
94.0939
 21
71.042
 31
0.0
  0
LINE
  8
0
 62
     0
 10
94.0939
 20
71.042
 30
0.0
 11
94.0939
 21
74.1426
 31
0.0
  0
LINE
  8
0
 62
     0
 10
94.0939
 20
74.1426
 30
0.0
 11
93.2946
 21
74.1426
 31
0.0
  0
LINE
  8
0
 62
     0
 10
93.2946
 20
74.1426
 30
0.0
 11
93.2946
 21
79.9412
 31
0.0
  0
LINE
  8
0
 62
     0
 10
93.2946
 20
79.9412
 30
0.0
 11
94.0939
 21
79.9412
 31
0.0
  0
LINE
  8
0
 62
     0
 10
94.0939
 20
79.9412
 30
0.0
 11
94.0939
 21
83.0421
 31
0.0
  0
LINE
  8
0
 62
     0
 10
94.0939
 20
83.0421
 30
0.0
 11
93.2946
 21
83.0421
 31
0.0
  0
LINE
  8
0
 62
     0
 10
93.2946
 20
83.0421
 30
0.0
 11
93.2946
 21
84.0412
 31
0.0
  0
LINE
  8
0
 62
     0
 10
93.2946
 20
84.0412
 30
0.0
 11
79.2949
 21
84.0412
 31
0.0
  0
LINE
  8
0
 62
     0
 10
98.3449
 20
84.0412
 30
0.0
 11
98.3449
 21
83.0421
 31
0.0
  0
LINE
  8
0
 62
     0
 10
98.3449
 20
83.0421
 30
0.0
 11
97.5445
 21
83.0421
 31
0.0
  0
LINE
  8
0
 62
     0
 10
97.5445
 20
83.0421
 30
0.0
 11
97.5445
 21
79.9412
 31
0.0
  0
LINE
  8
0
 62
     0
 10
97.5445
 20
79.9412
 30
0.0
 11
98.3449
 21
79.9412
 31
0.0
  0
LINE
  8
0
 62
     0
 10
98.3449
 20
79.9412
 30
0.0
 11
98.3449
 21
74.1426
 31
0.0
  0
LINE
  8
0
 62
     0
 10
98.3449
 20
74.1426
 30
0.0
 11
97.5445
 21
74.1426
 31
0.0
  0
LINE
  8
0
 62
     0
 10
97.5445
 20
74.1426
 30
0.0
 11
97.5445
 21
71.042
 31
0.0
  0
LINE
  8
0
 62
     0
 10
97.5445
 20
71.042
 30
0.0
 11
98.3449
 21
71.042
 31
0.0
  0
LINE
  8
0
 62
     0
 10
98.3449
 20
71.042
 30
0.0
 11
98.3449
 21
70.0416
 31
0.0
  0
LINE
  8
0
 62
     0
 10
98.3449
 20
70.0416
 30
0.0
 11
112.345
 21
70.0416
 31
0.0
  0
LINE
  8
0
 62
     0
 10
112.345
 20
70.0416
 30
0.0
 11
112.345
 21
71.042
 31
0.0
  0
LINE
  8
0
 62
     0
 10
112.345
 20
71.042
 30
0.0
 11
113.144
 21
71.042
 31
0.0
  0
LINE
  8
0
 62
     0
 10
113.144
 20
71.042
 30
0.0
 11
113.144
 21
74.1426
 31
0.0
  0
LINE
  8
0
 62
     0
 10
113.144
 20
74.1426
 30
0.0
 11
112.345
 21
74.1426
 31
0.0
  0
LINE
  8
0
 62
     0
 10
112.345
 20
74.1426
 30
0.0
 11
112.345
 21
79.9412
 31
0.0
  0
LINE
  8
0
 62
     0
 10
112.345
 20
79.9412
 30
0.0
 11
113.144
 21
79.9412
 31
0.0
  0
LINE
  8
0
 62
     0
 10
113.144
 20
79.9412
 30
0.0
 11
113.144
 21
83.0421
 31
0.0
  0
LINE
  8
0
 62
     0
 10
113.144
 20
83.0421
 30
0.0
 11
112.345
 21
83.0421
 31
0.0
  0
LINE
  8
0
 62
     0
 10
112.345
 20
83.0421
 30
0.0
 11
112.345
 21
84.0412
 31
0.0
  0
LINE
  8
0
 62
     0
 10
112.345
 20
84.0412
 30
0.0
 11
98.3449
 21
84.0412
 31
0.0
  0
LINE
  8
0
 62
     0
 10
117.395
 20
84.0412
 30
0.0
 11
117.395
 21
83.0421
 31
0.0
  0
LINE
  8
0
 62
     0
 10
117.395
 20
83.0421
 30
0.0
 11
116.594
 21
83.0421
 31
0.0
  0
LINE
  8
0
 62
     0
 10
116.594
 20
83.0421
 30
0.0
 11
116.594
 21
79.9412
 31
0.0
  0
LINE
  8
0
 62
     0
 10
116.594
 20
79.9412
 30
0.0
 11
117.395
 21
79.9412
 31
0.0
  0
LINE
  8
0
 62
     0
 10
117.395
 20
79.9412
 30
0.0
 11
117.395
 21
74.1426
 31
0.0
  0
LINE
  8
0
 62
     0
 10
117.395
 20
74.1426
 30
0.0
 11
116.594
 21
74.1426
 31
0.0
  0
LINE
  8
0
 62
     0
 10
116.594
 20
74.1426
 30
0.0
 11
116.594
 21
71.042
 31
0.0
  0
LINE
  8
0
 62
     0
 10
116.594
 20
71.042
 30
0.0
 11
117.395
 21
71.042
 31
0.0
  0
LINE
  8
0
 62
     0
 10
117.395
 20
71.042
 30
0.0
 11
117.395
 21
70.0416
 31
0.0
  0
LINE
  8
0
 62
     0
 10
117.395
 20
70.0416
 30
0.0
 11
131.395
 21
70.0416
 31
0.0
  0
LINE
  8
0
 62
     0
 10
131.395
 20
70.0416
 30
0.0
 11
131.395
 21
71.042
 31
0.0
  0
LINE
  8
0
 62
     0
 10
131.395
 20
71.042
 30
0.0
 11
132.194
 21
71.042
 31
0.0
  0
LINE
  8
0
 62
     0
 10
132.194
 20
71.042
 30
0.0
 11
132.194
 21
74.1426
 31
0.0
  0
LINE
  8
0
 62
     0
 10
132.194
 20
74.1426
 30
0.0
 11
131.395
 21
74.1426
 31
0.0
  0
LINE
  8
0
 62
     0
 10
131.395
 20
74.1426
 30
0.0
 11
131.395
 21
79.9412
 31
0.0
  0
LINE
  8
0
 62
     0
 10
131.395
 20
79.9412
 30
0.0
 11
132.194
 21
79.9412
 31
0.0
  0
LINE
  8
0
 62
     0
 10
132.194
 20
79.9412
 30
0.0
 11
132.194
 21
83.0421
 31
0.0
  0
LINE
  8
0
 62
     0
 10
132.194
 20
83.0421
 30
0.0
 11
131.395
 21
83.0421
 31
0.0
  0
LINE
  8
0
 62
     0
 10
131.395
 20
83.0421
 30
0.0
 11
131.395
 21
84.0412
 31
0.0
  0
LINE
  8
0
 62
     0
 10
131.395
 20
84.0412
 30
0.0
 11
117.395
 21
84.0412
 31
0.0
  0
LINE
  8
0
 62
     0
 10
136.445
 20
84.0412
 30
0.0
 11
136.445
 21
83.0421
 31
0.0
  0
LINE
  8
0
 62
     0
 10
136.445
 20
83.0421
 30
0.0
 11
135.644
 21
83.0421
 31
0.0
  0
LINE
  8
0
 62
     0
 10
135.644
 20
83.0421
 30
0.0
 11
135.644
 21
79.9412
 31
0.0
  0
LINE
  8
0
 62
     0
 10
135.644
 20
79.9412
 30
0.0
 11
136.445
 21
79.9412
 31
0.0
  0
LINE
  8
0
 62
     0
 10
136.445
 20
79.9412
 30
0.0
 11
136.445
 21
74.1426
 31
0.0
  0
LINE
  8
0
 62
     0
 10
136.445
 20
74.1426
 30
0.0
 11
135.644
 21
74.1426
 31
0.0
  0
LINE
  8
0
 62
     0
 10
135.644
 20
74.1426
 30
0.0
 11
135.644
 21
71.042
 31
0.0
  0
LINE
  8
0
 62
     0
 10
135.644
 20
71.042
 30
0.0
 11
136.445
 21
71.042
 31
0.0
  0
LINE
  8
0
 62
     0
 10
136.445
 20
71.042
 30
0.0
 11
136.445
 21
70.0416
 31
0.0
  0
LINE
  8
0
 62
     0
 10
136.445
 20
70.0416
 30
0.0
 11
150.445
 21
70.0416
 31
0.0
  0
LINE
  8
0
 62
     0
 10
150.445
 20
70.0416
 30
0.0
 11
150.445
 21
71.042
 31
0.0
  0
LINE
  8
0
 62
     0
 10
150.445
 20
71.042
 30
0.0
 11
151.244
 21
71.042
 31
0.0
  0
LINE
  8
0
 62
     0
 10
151.244
 20
71.042
 30
0.0
 11
151.244
 21
74.1426
 31
0.0
  0
LINE
  8
0
 62
     0
 10
151.244
 20
74.1426
 30
0.0
 11
150.445
 21
74.1426
 31
0.0
  0
LINE
  8
0
 62
     0
 10
150.445
 20
74.1426
 30
0.0
 11
150.445
 21
79.9412
 31
0.0
  0
LINE
  8
0
 62
     0
 10
150.445
 20
79.9412
 30
0.0
 11
151.244
 21
79.9412
 31
0.0
  0
LINE
  8
0
 62
     0
 10
151.244
 20
79.9412
 30
0.0
 11
151.244
 21
83.0421
 31
0.0
  0
LINE
  8
0
 62
     0
 10
151.244
 20
83.0421
 30
0.0
 11
150.445
 21
83.0421
 31
0.0
  0
LINE
  8
0
 62
     0
 10
150.445
 20
83.0421
 30
0.0
 11
150.445
 21
84.0412
 31
0.0
  0
LINE
  8
0
 62
     0
 10
150.445
 20
84.0412
 30
0.0
 11
136.445
 21
84.0412
 31
0.0
  0
LINE
  8
0
 62
     0
 10
155.495
 20
84.0412
 30
0.0
 11
155.495
 21
83.0421
 31
0.0
  0
LINE
  8
0
 62
     0
 10
155.495
 20
83.0421
 30
0.0
 11
154.694
 21
83.0421
 31
0.0
  0
LINE
  8
0
 62
     0
 10
154.694
 20
83.0421
 30
0.0
 11
154.694
 21
79.9412
 31
0.0
  0
LINE
  8
0
 62
     0
 10
154.694
 20
79.9412
 30
0.0
 11
155.495
 21
79.9412
 31
0.0
  0
LINE
  8
0
 62
     0
 10
155.495
 20
79.9412
 30
0.0
 11
155.495
 21
74.1426
 31
0.0
  0
LINE
  8
0
 62
     0
 10
155.495
 20
74.1426
 30
0.0
 11
154.694
 21
74.1426
 31
0.0
  0
LINE
  8
0
 62
     0
 10
154.694
 20
74.1426
 30
0.0
 11
154.694
 21
71.042
 31
0.0
  0
LINE
  8
0
 62
     0
 10
154.694
 20
71.042
 30
0.0
 11
155.495
 21
71.042
 31
0.0
  0
LINE
  8
0
 62
     0
 10
155.495
 20
71.042
 30
0.0
 11
155.495
 21
70.0416
 31
0.0
  0
LINE
  8
0
 62
     0
 10
155.495
 20
70.0416
 30
0.0
 11
169.495
 21
70.0416
 31
0.0
  0
LINE
  8
0
 62
     0
 10
169.495
 20
70.0416
 30
0.0
 11
169.495
 21
71.042
 31
0.0
  0
LINE
  8
0
 62
     0
 10
169.495
 20
71.042
 30
0.0
 11
170.294
 21
71.042
 31
0.0
  0
LINE
  8
0
 62
     0
 10
170.294
 20
71.042
 30
0.0
 11
170.294
 21
74.1426
 31
0.0
  0
LINE
  8
0
 62
     0
 10
170.294
 20
74.1426
 30
0.0
 11
169.495
 21
74.1426
 31
0.0
  0
LINE
  8
0
 62
     0
 10
169.495
 20
74.1426
 30
0.0
 11
169.495
 21
79.9412
 31
0.0
  0
LINE
  8
0
 62
     0
 10
169.495
 20
79.9412
 30
0.0
 11
170.294
 21
79.9412
 31
0.0
  0
LINE
  8
0
 62
     0
 10
170.294
 20
79.9412
 30
0.0
 11
170.294
 21
83.0421
 31
0.0
  0
LINE
  8
0
 62
     0
 10
170.294
 20
83.0421
 30
0.0
 11
169.495
 21
83.0421
 31
0.0
  0
LINE
  8
0
 62
     0
 10
169.495
 20
83.0421
 30
0.0
 11
169.495
 21
84.0412
 31
0.0
  0
LINE
  8
0
 62
     0
 10
169.495
 20
84.0412
 30
0.0
 11
155.495
 21
84.0412
 31
0.0
  0
LINE
  8
0
 62
     0
 10
174.545
 20
84.0412
 30
0.0
 11
174.545
 21
83.0421
 31
0.0
  0
LINE
  8
0
 62
     0
 10
174.545
 20
83.0421
 30
0.0
 11
173.744
 21
83.0421
 31
0.0
  0
LINE
  8
0
 62
     0
 10
173.744
 20
83.0421
 30
0.0
 11
173.744
 21
79.9412
 31
0.0
  0
LINE
  8
0
 62
     0
 10
173.744
 20
79.9412
 30
0.0
 11
174.545
 21
79.9412
 31
0.0
  0
LINE
  8
0
 62
     0
 10
174.545
 20
79.9412
 30
0.0
 11
174.545
 21
74.1426
 31
0.0
  0
LINE
  8
0
 62
     0
 10
174.545
 20
74.1426
 30
0.0
 11
173.744
 21
74.1426
 31
0.0
  0
LINE
  8
0
 62
     0
 10
173.744
 20
74.1426
 30
0.0
 11
173.744
 21
71.042
 31
0.0
  0
LINE
  8
0
 62
     0
 10
173.744
 20
71.042
 30
0.0
 11
174.545
 21
71.042
 31
0.0
  0
LINE
  8
0
 62
     0
 10
174.545
 20
71.042
 30
0.0
 11
174.545
 21
70.0416
 31
0.0
  0
LINE
  8
0
 62
     0
 10
174.545
 20
70.0416
 30
0.0
 11
188.545
 21
70.0416
 31
0.0
  0
LINE
  8
0
 62
     0
 10
188.545
 20
70.0416
 30
0.0
 11
188.545
 21
71.042
 31
0.0
  0
LINE
  8
0
 62
     0
 10
188.545
 20
71.042
 30
0.0
 11
189.344
 21
71.042
 31
0.0
  0
LINE
  8
0
 62
     0
 10
189.344
 20
71.042
 30
0.0
 11
189.344
 21
74.1426
 31
0.0
  0
LINE
  8
0
 62
     0
 10
189.344
 20
74.1426
 30
0.0
 11
188.545
 21
74.1426
 31
0.0
  0
LINE
  8
0
 62
     0
 10
188.545
 20
74.1426
 30
0.0
 11
188.545
 21
79.9412
 31
0.0
  0
LINE
  8
0
 62
     0
 10
188.545
 20
79.9412
 30
0.0
 11
189.344
 21
79.9412
 31
0.0
  0
LINE
  8
0
 62
     0
 10
189.344
 20
79.9412
 30
0.0
 11
189.344
 21
83.0421
 31
0.0
  0
LINE
  8
0
 62
     0
 10
189.344
 20
83.0421
 30
0.0
 11
188.545
 21
83.0421
 31
0.0
  0
LINE
  8
0
 62
     0
 10
188.545
 20
83.0421
 30
0.0
 11
188.545
 21
84.0412
 31
0.0
  0
LINE
  8
0
 62
     0
 10
188.545
 20
84.0412
 30
0.0
 11
174.545
 21
84.0412
 31
0.0
  0
LINE
  8
0
 62
     0
 10
193.595
 20
84.0412
 30
0.0
 11
193.595
 21
83.0421
 31
0.0
  0
LINE
  8
0
 62
     0
 10
193.595
 20
83.0421
 30
0.0
 11
192.794
 21
83.0421
 31
0.0
  0
LINE
  8
0
 62
     0
 10
192.794
 20
83.0421
 30
0.0
 11
192.794
 21
79.9412
 31
0.0
  0
LINE
  8
0
 62
     0
 10
192.794
 20
79.9412
 30
0.0
 11
193.595
 21
79.9412
 31
0.0
  0
LINE
  8
0
 62
     0
 10
193.595
 20
79.9412
 30
0.0
 11
193.595
 21
74.1426
 31
0.0
  0
LINE
  8
0
 62
     0
 10
193.595
 20
74.1426
 30
0.0
 11
192.794
 21
74.1426
 31
0.0
  0
LINE
  8
0
 62
     0
 10
192.794
 20
74.1426
 30
0.0
 11
192.794
 21
71.042
 31
0.0
  0
LINE
  8
0
 62
     0
 10
192.794
 20
71.042
 30
0.0
 11
193.595
 21
71.042
 31
0.0
  0
LINE
  8
0
 62
     0
 10
193.595
 20
71.042
 30
0.0
 11
193.595
 21
70.0416
 31
0.0
  0
LINE
  8
0
 62
     0
 10
193.595
 20
70.0416
 30
0.0
 11
207.595
 21
70.0416
 31
0.0
  0
LINE
  8
0
 62
     0
 10
207.595
 20
70.0416
 30
0.0
 11
207.595
 21
71.042
 31
0.0
  0
LINE
  8
0
 62
     0
 10
207.595
 20
71.042
 30
0.0
 11
208.394
 21
71.042
 31
0.0
  0
LINE
  8
0
 62
     0
 10
208.394
 20
71.042
 30
0.0
 11
208.394
 21
74.1426
 31
0.0
  0
LINE
  8
0
 62
     0
 10
208.394
 20
74.1426
 30
0.0
 11
207.595
 21
74.1426
 31
0.0
  0
LINE
  8
0
 62
     0
 10
207.595
 20
74.1426
 30
0.0
 11
207.595
 21
79.9412
 31
0.0
  0
LINE
  8
0
 62
     0
 10
207.595
 20
79.9412
 30
0.0
 11
208.394
 21
79.9412
 31
0.0
  0
LINE
  8
0
 62
     0
 10
208.394
 20
79.9412
 30
0.0
 11
208.394
 21
83.0421
 31
0.0
  0
LINE
  8
0
 62
     0
 10
208.394
 20
83.0421
 30
0.0
 11
207.595
 21
83.0421
 31
0.0
  0
LINE
  8
0
 62
     0
 10
207.595
 20
83.0421
 30
0.0
 11
207.595
 21
84.0412
 31
0.0
  0
LINE
  8
0
 62
     0
 10
207.595
 20
84.0412
 30
0.0
 11
193.595
 21
84.0412
 31
0.0
  0
LINE
  8
0
 62
     0
 10
212.645
 20
84.0412
 30
0.0
 11
212.645
 21
83.0421
 31
0.0
  0
LINE
  8
0
 62
     0
 10
212.645
 20
83.0421
 30
0.0
 11
211.844
 21
83.0421
 31
0.0
  0
LINE
  8
0
 62
     0
 10
211.844
 20
83.0421
 30
0.0
 11
211.844
 21
79.9412
 31
0.0
  0
LINE
  8
0
 62
     0
 10
211.844
 20
79.9412
 30
0.0
 11
212.645
 21
79.9412
 31
0.0
  0
LINE
  8
0
 62
     0
 10
212.645
 20
79.9412
 30
0.0
 11
212.645
 21
74.1426
 31
0.0
  0
LINE
  8
0
 62
     0
 10
212.645
 20
74.1426
 30
0.0
 11
211.844
 21
74.1426
 31
0.0
  0
LINE
  8
0
 62
     0
 10
211.844
 20
74.1426
 30
0.0
 11
211.844
 21
71.042
 31
0.0
  0
LINE
  8
0
 62
     0
 10
211.844
 20
71.042
 30
0.0
 11
212.645
 21
71.042
 31
0.0
  0
LINE
  8
0
 62
     0
 10
212.645
 20
71.042
 30
0.0
 11
212.645
 21
70.0416
 31
0.0
  0
LINE
  8
0
 62
     0
 10
212.645
 20
70.0416
 30
0.0
 11
226.645
 21
70.0416
 31
0.0
  0
LINE
  8
0
 62
     0
 10
226.645
 20
70.0416
 30
0.0
 11
226.645
 21
71.042
 31
0.0
  0
LINE
  8
0
 62
     0
 10
226.645
 20
71.042
 30
0.0
 11
227.444
 21
71.042
 31
0.0
  0
LINE
  8
0
 62
     0
 10
227.444
 20
71.042
 30
0.0
 11
227.444
 21
74.1426
 31
0.0
  0
LINE
  8
0
 62
     0
 10
227.444
 20
74.1426
 30
0.0
 11
226.645
 21
74.1426
 31
0.0
  0
LINE
  8
0
 62
     0
 10
226.645
 20
74.1426
 30
0.0
 11
226.645
 21
79.9412
 31
0.0
  0
LINE
  8
0
 62
     0
 10
226.645
 20
79.9412
 30
0.0
 11
227.444
 21
79.9412
 31
0.0
  0
LINE
  8
0
 62
     0
 10
227.444
 20
79.9412
 30
0.0
 11
227.444
 21
83.0421
 31
0.0
  0
LINE
  8
0
 62
     0
 10
227.444
 20
83.0421
 30
0.0
 11
226.645
 21
83.0421
 31
0.0
  0
LINE
  8
0
 62
     0
 10
226.645
 20
83.0421
 30
0.0
 11
226.645
 21
84.0412
 31
0.0
  0
LINE
  8
0
 62
     0
 10
226.645
 20
84.0412
 30
0.0
 11
212.645
 21
84.0412
 31
0.0
  0
LINE
  8
0
 62
     0
 10
231.695
 20
84.0412
 30
0.0
 11
231.695
 21
83.0421
 31
0.0
  0
LINE
  8
0
 62
     0
 10
231.695
 20
83.0421
 30
0.0
 11
230.894
 21
83.0421
 31
0.0
  0
LINE
  8
0
 62
     0
 10
230.894
 20
83.0421
 30
0.0
 11
230.894
 21
79.9412
 31
0.0
  0
LINE
  8
0
 62
     0
 10
230.894
 20
79.9412
 30
0.0
 11
231.695
 21
79.9412
 31
0.0
  0
LINE
  8
0
 62
     0
 10
231.695
 20
79.9412
 30
0.0
 11
231.695
 21
74.1426
 31
0.0
  0
LINE
  8
0
 62
     0
 10
231.695
 20
74.1426
 30
0.0
 11
230.894
 21
74.1426
 31
0.0
  0
LINE
  8
0
 62
     0
 10
230.894
 20
74.1426
 30
0.0
 11
230.894
 21
71.042
 31
0.0
  0
LINE
  8
0
 62
     0
 10
230.894
 20
71.042
 30
0.0
 11
231.695
 21
71.042
 31
0.0
  0
LINE
  8
0
 62
     0
 10
231.695
 20
71.042
 30
0.0
 11
231.695
 21
70.0416
 31
0.0
  0
LINE
  8
0
 62
     0
 10
231.695
 20
70.0416
 30
0.0
 11
245.695
 21
70.0416
 31
0.0
  0
LINE
  8
0
 62
     0
 10
245.695
 20
70.0416
 30
0.0
 11
245.695
 21
71.042
 31
0.0
  0
LINE
  8
0
 62
     0
 10
245.695
 20
71.042
 30
0.0
 11
246.494
 21
71.042
 31
0.0
  0
LINE
  8
0
 62
     0
 10
246.494
 20
71.042
 30
0.0
 11
246.494
 21
74.1426
 31
0.0
  0
LINE
  8
0
 62
     0
 10
246.494
 20
74.1426
 30
0.0
 11
245.695
 21
74.1426
 31
0.0
  0
LINE
  8
0
 62
     0
 10
245.695
 20
74.1426
 30
0.0
 11
245.695
 21
79.9412
 31
0.0
  0
LINE
  8
0
 62
     0
 10
245.695
 20
79.9412
 30
0.0
 11
246.494
 21
79.9412
 31
0.0
  0
LINE
  8
0
 62
     0
 10
246.494
 20
79.9412
 30
0.0
 11
246.494
 21
83.0421
 31
0.0
  0
LINE
  8
0
 62
     0
 10
246.494
 20
83.0421
 30
0.0
 11
245.695
 21
83.0421
 31
0.0
  0
LINE
  8
0
 62
     0
 10
245.695
 20
83.0421
 30
0.0
 11
245.695
 21
84.0412
 31
0.0
  0
LINE
  8
0
 62
     0
 10
245.695
 20
84.0412
 30
0.0
 11
231.695
 21
84.0412
 31
0.0
  0
LINE
  8
0
 62
     0
 10
250.745
 20
84.0412
 30
0.0
 11
250.745
 21
83.0421
 31
0.0
  0
LINE
  8
0
 62
     0
 10
250.745
 20
83.0421
 30
0.0
 11
249.944
 21
83.0421
 31
0.0
  0
LINE
  8
0
 62
     0
 10
249.944
 20
83.0421
 30
0.0
 11
249.944
 21
79.9412
 31
0.0
  0
LINE
  8
0
 62
     0
 10
249.944
 20
79.9412
 30
0.0
 11
250.745
 21
79.9412
 31
0.0
  0
LINE
  8
0
 62
     0
 10
250.745
 20
79.9412
 30
0.0
 11
250.745
 21
74.1426
 31
0.0
  0
LINE
  8
0
 62
     0
 10
250.745
 20
74.1426
 30
0.0
 11
249.944
 21
74.1426
 31
0.0
  0
LINE
  8
0
 62
     0
 10
249.944
 20
74.1426
 30
0.0
 11
249.944
 21
71.042
 31
0.0
  0
LINE
  8
0
 62
     0
 10
249.944
 20
71.042
 30
0.0
 11
250.745
 21
71.042
 31
0.0
  0
LINE
  8
0
 62
     0
 10
250.745
 20
71.042
 30
0.0
 11
250.745
 21
70.0416
 31
0.0
  0
LINE
  8
0
 62
     0
 10
250.745
 20
70.0416
 30
0.0
 11
264.745
 21
70.0416
 31
0.0
  0
LINE
  8
0
 62
     0
 10
264.745
 20
70.0416
 30
0.0
 11
264.745
 21
71.042
 31
0.0
  0
LINE
  8
0
 62
     0
 10
264.745
 20
71.042
 30
0.0
 11
265.544
 21
71.042
 31
0.0
  0
LINE
  8
0
 62
     0
 10
265.544
 20
71.042
 30
0.0
 11
265.544
 21
74.1426
 31
0.0
  0
LINE
  8
0
 62
     0
 10
265.544
 20
74.1426
 30
0.0
 11
264.745
 21
74.1426
 31
0.0
  0
LINE
  8
0
 62
     0
 10
264.745
 20
74.1426
 30
0.0
 11
264.745
 21
79.9412
 31
0.0
  0
LINE
  8
0
 62
     0
 10
264.745
 20
79.9412
 30
0.0
 11
265.544
 21
79.9412
 31
0.0
  0
LINE
  8
0
 62
     0
 10
265.544
 20
79.9412
 30
0.0
 11
265.544
 21
83.0421
 31
0.0
  0
LINE
  8
0
 62
     0
 10
265.544
 20
83.0421
 30
0.0
 11
264.745
 21
83.0421
 31
0.0
  0
LINE
  8
0
 62
     0
 10
264.745
 20
83.0421
 30
0.0
 11
264.745
 21
84.0412
 31
0.0
  0
LINE
  8
0
 62
     0
 10
264.745
 20
84.0412
 30
0.0
 11
250.745
 21
84.0412
 31
0.0
  0
LINE
  8
0
 62
     0
 10
274.556
 20
84.0412
 30
0.0
 11
274.556
 21
83.0421
 31
0.0
  0
LINE
  8
0
 62
     0
 10
274.556
 20
83.0421
 30
0.0
 11
273.757
 21
83.0421
 31
0.0
  0
LINE
  8
0
 62
     0
 10
273.757
 20
83.0421
 30
0.0
 11
273.757
 21
79.9412
 31
0.0
  0
LINE
  8
0
 62
     0
 10
273.757
 20
79.9412
 30
0.0
 11
274.556
 21
79.9412
 31
0.0
  0
LINE
  8
0
 62
     0
 10
274.556
 20
79.9412
 30
0.0
 11
274.556
 21
74.1426
 31
0.0
  0
LINE
  8
0
 62
     0
 10
274.556
 20
74.1426
 30
0.0
 11
273.757
 21
74.1426
 31
0.0
  0
LINE
  8
0
 62
     0
 10
273.757
 20
74.1426
 30
0.0
 11
273.757
 21
71.042
 31
0.0
  0
LINE
  8
0
 62
     0
 10
273.757
 20
71.042
 30
0.0
 11
274.556
 21
71.042
 31
0.0
  0
LINE
  8
0
 62
     0
 10
274.556
 20
71.042
 30
0.0
 11
274.556
 21
70.0416
 31
0.0
  0
LINE
  8
0
 62
     0
 10
274.556
 20
70.0416
 30
0.0
 11
288.557
 21
70.0416
 31
0.0
  0
LINE
  8
0
 62
     0
 10
288.557
 20
70.0416
 30
0.0
 11
288.557
 21
71.042
 31
0.0
  0
LINE
  8
0
 62
     0
 10
288.557
 20
71.042
 30
0.0
 11
289.356
 21
71.042
 31
0.0
  0
LINE
  8
0
 62
     0
 10
289.356
 20
71.042
 30
0.0
 11
289.356
 21
74.1426
 31
0.0
  0
LINE
  8
0
 62
     0
 10
289.356
 20
74.1426
 30
0.0
 11
288.557
 21
74.1426
 31
0.0
  0
LINE
  8
0
 62
     0
 10
288.557
 20
74.1426
 30
0.0
 11
288.557
 21
79.9412
 31
0.0
  0
LINE
  8
0
 62
     0
 10
288.557
 20
79.9412
 30
0.0
 11
289.356
 21
79.9412
 31
0.0
  0
LINE
  8
0
 62
     0
 10
289.356
 20
79.9412
 30
0.0
 11
289.356
 21
83.0421
 31
0.0
  0
LINE
  8
0
 62
     0
 10
289.356
 20
83.0421
 30
0.0
 11
288.557
 21
83.0421
 31
0.0
  0
LINE
  8
0
 62
     0
 10
288.557
 20
83.0421
 30
0.0
 11
288.557
 21
84.0412
 31
0.0
  0
LINE
  8
0
 62
     0
 10
288.557
 20
84.0412
 30
0.0
 11
274.556
 21
84.0412
 31
0.0
  0
ENDSEC
  0
EOF
