%TF.GenerationSoftware,KiCad,Pcbnew,7.0.2*%
%TF.CreationDate,2023-06-06T03:33:47+01:00*%
%TF.ProjectId,45_keyboard,34355f6b-6579-4626-9f61-72642e6b6963,rev?*%
%TF.SameCoordinates,Original*%
%TF.FileFunction,Soldermask,Bot*%
%TF.FilePolarity,Negative*%
%FSLAX46Y46*%
G04 Gerber Fmt 4.6, Leading zero omitted, Abs format (unit mm)*
G04 Created by KiCad (PCBNEW 7.0.2) date 2023-06-06 03:33:47*
%MOMM*%
%LPD*%
G01*
G04 APERTURE LIST*
G04 Aperture macros list*
%AMRoundRect*
0 Rectangle with rounded corners*
0 $1 Rounding radius*
0 $2 $3 $4 $5 $6 $7 $8 $9 X,Y pos of 4 corners*
0 Add a 4 corners polygon primitive as box body*
4,1,4,$2,$3,$4,$5,$6,$7,$8,$9,$2,$3,0*
0 Add four circle primitives for the rounded corners*
1,1,$1+$1,$2,$3*
1,1,$1+$1,$4,$5*
1,1,$1+$1,$6,$7*
1,1,$1+$1,$8,$9*
0 Add four rect primitives between the rounded corners*
20,1,$1+$1,$2,$3,$4,$5,0*
20,1,$1+$1,$4,$5,$6,$7,0*
20,1,$1+$1,$6,$7,$8,$9,0*
20,1,$1+$1,$8,$9,$2,$3,0*%
%AMHorizOval*
0 Thick line with rounded ends*
0 $1 width*
0 $2 $3 position (X,Y) of the first rounded end (center of the circle)*
0 $4 $5 position (X,Y) of the second rounded end (center of the circle)*
0 Add line between two ends*
20,1,$1,$2,$3,$4,$5,0*
0 Add two circle primitives to create the rounded ends*
1,1,$1,$2,$3*
1,1,$1,$4,$5*%
G04 Aperture macros list end*
%ADD10C,1.750000*%
%ADD11C,3.987800*%
%ADD12HorizOval,2.250000X0.655001X0.730000X-0.655001X-0.730000X0*%
%ADD13C,2.250000*%
%ADD14HorizOval,2.250000X0.020000X0.290000X-0.020000X-0.290000X0*%
%ADD15C,3.048000*%
%ADD16HorizOval,2.250000X-0.655001X-0.730000X0.655001X0.730000X0*%
%ADD17HorizOval,2.250000X-0.020000X-0.290000X0.020000X0.290000X0*%
%ADD18RoundRect,0.225000X0.375000X-0.225000X0.375000X0.225000X-0.375000X0.225000X-0.375000X-0.225000X0*%
%ADD19RoundRect,0.250000X0.250000X0.475000X-0.250000X0.475000X-0.250000X-0.475000X0.250000X-0.475000X0*%
%ADD20RoundRect,0.225000X-0.375000X0.225000X-0.375000X-0.225000X0.375000X-0.225000X0.375000X0.225000X0*%
%ADD21RoundRect,0.250000X-0.475000X0.250000X-0.475000X-0.250000X0.475000X-0.250000X0.475000X0.250000X0*%
%ADD22R,1.100000X1.800000*%
%ADD23RoundRect,0.250000X-0.262500X-0.450000X0.262500X-0.450000X0.262500X0.450000X-0.262500X0.450000X0*%
%ADD24RoundRect,0.250000X-0.450000X0.262500X-0.450000X-0.262500X0.450000X-0.262500X0.450000X0.262500X0*%
%ADD25RoundRect,0.250000X-0.250000X-0.475000X0.250000X-0.475000X0.250000X0.475000X-0.250000X0.475000X0*%
%ADD26RoundRect,0.250000X0.262500X0.450000X-0.262500X0.450000X-0.262500X-0.450000X0.262500X-0.450000X0*%
%ADD27R,1.200000X1.400000*%
%ADD28RoundRect,0.150000X-0.625000X0.150000X-0.625000X-0.150000X0.625000X-0.150000X0.625000X0.150000X0*%
%ADD29RoundRect,0.250000X-0.650000X0.350000X-0.650000X-0.350000X0.650000X-0.350000X0.650000X0.350000X0*%
%ADD30R,0.550000X1.500000*%
%ADD31R,1.500000X0.550000*%
%ADD32C,0.800000*%
G04 APERTURE END LIST*
D10*
%TO.C,MX14*%
X327468998Y-65602750D03*
D11*
X332548998Y-65602750D03*
D10*
X337628998Y-65602750D03*
D12*
X329393999Y-62332750D03*
D13*
X330048998Y-61602750D03*
D14*
X335068998Y-60812750D03*
D13*
X335088998Y-60522750D03*
%TD*%
D10*
%TO.C,MX12*%
X284606498Y-65602750D03*
D11*
X289686498Y-65602750D03*
D10*
X294766498Y-65602750D03*
D12*
X286531499Y-62332750D03*
D13*
X287186498Y-61602750D03*
D14*
X292206498Y-60812750D03*
D13*
X292226498Y-60522750D03*
%TD*%
D10*
%TO.C,MX4*%
X132206498Y-65602750D03*
D11*
X137286498Y-65602750D03*
D10*
X142366498Y-65602750D03*
D12*
X134131499Y-62332750D03*
D13*
X134786498Y-61602750D03*
D14*
X139806498Y-60812750D03*
D13*
X139826498Y-60522750D03*
%TD*%
D10*
%TO.C,MX44*%
X248887748Y-122752750D03*
D11*
X253967748Y-122752750D03*
D10*
X259047748Y-122752750D03*
D12*
X250812749Y-119482750D03*
D13*
X251467748Y-118752750D03*
D14*
X256487748Y-117962750D03*
D13*
X256507748Y-117672750D03*
%TD*%
D10*
%TO.C,MX5*%
X151256498Y-65602750D03*
D11*
X156336498Y-65602750D03*
D10*
X161416498Y-65602750D03*
D12*
X153181499Y-62332750D03*
D13*
X153836498Y-61602750D03*
D14*
X158856498Y-60812750D03*
D13*
X158876498Y-60522750D03*
%TD*%
D10*
%TO.C,MX17*%
X117918998Y-84652750D03*
D11*
X122998998Y-84652750D03*
D10*
X128078998Y-84652750D03*
D12*
X119843999Y-81382750D03*
D13*
X120498998Y-80652750D03*
D14*
X125518998Y-79862750D03*
D13*
X125538998Y-79572750D03*
%TD*%
D10*
%TO.C,MX10*%
X246506498Y-65602750D03*
D11*
X251586498Y-65602750D03*
D10*
X256666498Y-65602750D03*
D12*
X248431499Y-62332750D03*
D13*
X249086498Y-61602750D03*
D14*
X254106498Y-60812750D03*
D13*
X254126498Y-60522750D03*
%TD*%
D10*
%TO.C,MX7*%
X189356498Y-65602750D03*
D11*
X194436498Y-65602750D03*
D10*
X199516498Y-65602750D03*
D12*
X191281499Y-62332750D03*
D13*
X191936498Y-61602750D03*
D14*
X196956498Y-60812750D03*
D13*
X196976498Y-60522750D03*
%TD*%
D10*
%TO.C,MX34*%
X203643998Y-103702750D03*
D11*
X208723998Y-103702750D03*
D10*
X213803998Y-103702750D03*
D12*
X205568999Y-100432750D03*
D13*
X206223998Y-99702750D03*
D14*
X211243998Y-98912750D03*
D13*
X211263998Y-98622750D03*
%TD*%
D10*
%TO.C,MX45*%
X272700248Y-122752750D03*
D11*
X277780248Y-122752750D03*
D10*
X282860248Y-122752750D03*
D12*
X274625249Y-119482750D03*
D13*
X275280248Y-118752750D03*
D14*
X280300248Y-117962750D03*
D13*
X280320248Y-117672750D03*
%TD*%
D15*
%TO.C,MX28*%
X70579748Y-96717750D03*
D11*
X70579748Y-111957750D03*
D10*
X77437748Y-103702750D03*
D11*
X82517748Y-103702750D03*
D10*
X87597748Y-103702750D03*
D15*
X94455748Y-96717750D03*
D11*
X94455748Y-111957750D03*
D12*
X79362749Y-100432750D03*
D13*
X80017748Y-99702750D03*
D14*
X85037748Y-98912750D03*
D13*
X85057748Y-98622750D03*
%TD*%
D15*
%TO.C,MX43*%
X227805748Y-129737750D03*
D11*
X227805748Y-114497750D03*
D10*
X220947748Y-122752750D03*
D11*
X215867748Y-122752750D03*
D10*
X210787748Y-122752750D03*
D15*
X203929748Y-129737750D03*
D11*
X203929748Y-114497750D03*
D16*
X219022747Y-126022750D03*
D13*
X218367748Y-126752750D03*
D17*
X213347748Y-127542750D03*
D13*
X213327748Y-127832750D03*
%TD*%
D10*
%TO.C,MX16*%
X98868998Y-84652750D03*
D11*
X103948998Y-84652750D03*
D10*
X109028998Y-84652750D03*
D12*
X100793999Y-81382750D03*
D13*
X101448998Y-80652750D03*
D14*
X106468998Y-79862750D03*
D13*
X106488998Y-79572750D03*
%TD*%
D10*
%TO.C,MX2*%
X94106498Y-65602750D03*
D11*
X99186498Y-65602750D03*
D10*
X104266498Y-65602750D03*
D12*
X96031499Y-62332750D03*
D13*
X96686498Y-61602750D03*
D14*
X101706498Y-60812750D03*
D13*
X101726498Y-60522750D03*
%TD*%
D10*
%TO.C,MX23*%
X232218998Y-84652750D03*
D11*
X237298998Y-84652750D03*
D10*
X242378998Y-84652750D03*
D12*
X234143999Y-81382750D03*
D13*
X234798998Y-80652750D03*
D14*
X239818998Y-79862750D03*
D13*
X239838998Y-79572750D03*
%TD*%
D10*
%TO.C,MX38*%
X279843998Y-103702750D03*
D11*
X284923998Y-103702750D03*
D10*
X290003998Y-103702750D03*
D12*
X281768999Y-100432750D03*
D13*
X282423998Y-99702750D03*
D14*
X287443998Y-98912750D03*
D13*
X287463998Y-98622750D03*
%TD*%
D10*
%TO.C,MX22*%
X213168998Y-84652750D03*
D11*
X218248998Y-84652750D03*
D10*
X223328998Y-84652750D03*
D12*
X215093999Y-81382750D03*
D13*
X215748998Y-80652750D03*
D14*
X220768998Y-79862750D03*
D13*
X220788998Y-79572750D03*
%TD*%
D10*
%TO.C,MX31*%
X146493998Y-103702750D03*
D11*
X151573998Y-103702750D03*
D10*
X156653998Y-103702750D03*
D12*
X148418999Y-100432750D03*
D13*
X149073998Y-99702750D03*
D14*
X154093998Y-98912750D03*
D13*
X154113998Y-98622750D03*
%TD*%
D10*
%TO.C,MX35*%
X222693998Y-103702750D03*
D11*
X227773998Y-103702750D03*
D10*
X232853998Y-103702750D03*
D12*
X224618999Y-100432750D03*
D13*
X225273998Y-99702750D03*
D14*
X230293998Y-98912750D03*
D13*
X230313998Y-98622750D03*
%TD*%
D10*
%TO.C,MX15*%
X72675248Y-84652750D03*
D11*
X77755248Y-84652750D03*
D10*
X82835248Y-84652750D03*
D12*
X74600249Y-81382750D03*
D13*
X75255248Y-80652750D03*
D14*
X80275248Y-79862750D03*
D13*
X80295248Y-79572750D03*
%TD*%
D10*
%TO.C,MX20*%
X175068998Y-84652750D03*
D11*
X180148998Y-84652750D03*
D10*
X185228998Y-84652750D03*
D12*
X176993999Y-81382750D03*
D13*
X177648998Y-80652750D03*
D14*
X182668998Y-79862750D03*
D13*
X182688998Y-79572750D03*
%TD*%
D10*
%TO.C,MX46*%
X296512748Y-122752750D03*
D11*
X301592748Y-122752750D03*
D10*
X306672748Y-122752750D03*
D12*
X298437749Y-119482750D03*
D13*
X299092748Y-118752750D03*
D14*
X304112748Y-117962750D03*
D13*
X304132748Y-117672750D03*
%TD*%
D10*
%TO.C,MX21*%
X194118998Y-84652750D03*
D11*
X199198998Y-84652750D03*
D10*
X204278998Y-84652750D03*
D12*
X196043999Y-81382750D03*
D13*
X196698998Y-80652750D03*
D14*
X201718998Y-79862750D03*
D13*
X201738998Y-79572750D03*
%TD*%
D10*
%TO.C,MX6*%
X170306498Y-65602750D03*
D11*
X175386498Y-65602750D03*
D10*
X180466498Y-65602750D03*
D12*
X172231499Y-62332750D03*
D13*
X172886498Y-61602750D03*
D14*
X177906498Y-60812750D03*
D13*
X177926498Y-60522750D03*
%TD*%
D10*
%TO.C,MX18*%
X136968998Y-84652750D03*
D11*
X142048998Y-84652750D03*
D10*
X147128998Y-84652750D03*
D12*
X138893999Y-81382750D03*
D13*
X139548998Y-80652750D03*
D14*
X144568998Y-79862750D03*
D13*
X144588998Y-79572750D03*
%TD*%
D10*
%TO.C,MX29*%
X108393998Y-103702750D03*
D11*
X113473998Y-103702750D03*
D10*
X118553998Y-103702750D03*
D12*
X110318999Y-100432750D03*
D13*
X110973998Y-99702750D03*
D14*
X115993998Y-98912750D03*
D13*
X116013998Y-98622750D03*
%TD*%
D10*
%TO.C,MX32*%
X165543998Y-103702750D03*
D11*
X170623998Y-103702750D03*
D10*
X175703998Y-103702750D03*
D12*
X167468999Y-100432750D03*
D13*
X168123998Y-99702750D03*
D14*
X173143998Y-98912750D03*
D13*
X173163998Y-98622750D03*
%TD*%
D15*
%TO.C,MX42*%
X180180748Y-129737750D03*
D11*
X180180748Y-114497750D03*
D10*
X173322748Y-122752750D03*
D11*
X168242748Y-122752750D03*
D10*
X163162748Y-122752750D03*
D15*
X156304748Y-129737750D03*
D11*
X156304748Y-114497750D03*
D16*
X171397747Y-126022750D03*
D13*
X170742748Y-126752750D03*
D17*
X165722748Y-127542750D03*
D13*
X165702748Y-127832750D03*
%TD*%
D15*
%TO.C,MX27*%
X313467248Y-77667750D03*
D11*
X313467248Y-92907750D03*
D10*
X320325248Y-84652750D03*
D11*
X325405248Y-84652750D03*
D10*
X330485248Y-84652750D03*
D15*
X337343248Y-77667750D03*
D11*
X337343248Y-92907750D03*
D12*
X322250249Y-81382750D03*
D13*
X322905248Y-80652750D03*
D14*
X327925248Y-79862750D03*
D13*
X327945248Y-79572750D03*
%TD*%
D10*
%TO.C,MX25*%
X270318998Y-84652750D03*
D11*
X275398998Y-84652750D03*
D10*
X280478998Y-84652750D03*
D12*
X272243999Y-81382750D03*
D13*
X272898998Y-80652750D03*
D14*
X277918998Y-79862750D03*
D13*
X277938998Y-79572750D03*
%TD*%
D10*
%TO.C,MX41*%
X129825248Y-122752750D03*
D11*
X134905248Y-122752750D03*
D10*
X139985248Y-122752750D03*
D12*
X131750249Y-119482750D03*
D13*
X132405248Y-118752750D03*
D14*
X137425248Y-117962750D03*
D13*
X137445248Y-117672750D03*
%TD*%
D10*
%TO.C,MX19*%
X156018998Y-84652750D03*
D11*
X161098998Y-84652750D03*
D10*
X166178998Y-84652750D03*
D12*
X157943999Y-81382750D03*
D13*
X158598998Y-80652750D03*
D14*
X163618998Y-79862750D03*
D13*
X163638998Y-79572750D03*
%TD*%
D10*
%TO.C,MX40*%
X106012748Y-122752750D03*
D11*
X111092748Y-122752750D03*
D10*
X116172748Y-122752750D03*
D12*
X107937749Y-119482750D03*
D13*
X108592748Y-118752750D03*
D14*
X113612748Y-117962750D03*
D13*
X113632748Y-117672750D03*
%TD*%
D10*
%TO.C,MX9*%
X227456498Y-65602750D03*
D11*
X232536498Y-65602750D03*
D10*
X237616498Y-65602750D03*
D12*
X229381499Y-62332750D03*
D13*
X230036498Y-61602750D03*
D14*
X235056498Y-60812750D03*
D13*
X235076498Y-60522750D03*
%TD*%
D10*
%TO.C,MX24*%
X251268998Y-84652750D03*
D11*
X256348998Y-84652750D03*
D10*
X261428998Y-84652750D03*
D12*
X253193999Y-81382750D03*
D13*
X253848998Y-80652750D03*
D14*
X258868998Y-79862750D03*
D13*
X258888998Y-79572750D03*
%TD*%
D10*
%TO.C,MX33*%
X184593998Y-103702750D03*
D11*
X189673998Y-103702750D03*
D10*
X194753998Y-103702750D03*
D12*
X186518999Y-100432750D03*
D13*
X187173998Y-99702750D03*
D14*
X192193998Y-98912750D03*
D13*
X192213998Y-98622750D03*
%TD*%
D10*
%TO.C,MX13*%
X303656498Y-65602750D03*
D11*
X308736498Y-65602750D03*
D10*
X313816498Y-65602750D03*
D12*
X305581499Y-62332750D03*
D13*
X306236498Y-61602750D03*
D14*
X311256498Y-60812750D03*
D13*
X311276498Y-60522750D03*
%TD*%
D10*
%TO.C,MX30*%
X127443998Y-103702750D03*
D11*
X132523998Y-103702750D03*
D10*
X137603998Y-103702750D03*
D12*
X129368999Y-100432750D03*
D13*
X130023998Y-99702750D03*
D14*
X135043998Y-98912750D03*
D13*
X135063998Y-98622750D03*
%TD*%
D10*
%TO.C,MX1*%
X70293998Y-65602750D03*
D11*
X75373998Y-65602750D03*
D10*
X80453998Y-65602750D03*
D12*
X72218999Y-62332750D03*
D13*
X72873998Y-61602750D03*
D14*
X77893998Y-60812750D03*
D13*
X77913998Y-60522750D03*
%TD*%
D10*
%TO.C,MX3*%
X113156498Y-65602750D03*
D11*
X118236498Y-65602750D03*
D10*
X123316498Y-65602750D03*
D12*
X115081499Y-62332750D03*
D13*
X115736498Y-61602750D03*
D14*
X120756498Y-60812750D03*
D13*
X120776498Y-60522750D03*
%TD*%
D10*
%TO.C,MX37*%
X260793998Y-103702750D03*
D11*
X265873998Y-103702750D03*
D10*
X270953998Y-103702750D03*
D12*
X262718999Y-100432750D03*
D13*
X263373998Y-99702750D03*
D14*
X268393998Y-98912750D03*
D13*
X268413998Y-98622750D03*
%TD*%
D10*
%TO.C,MX26*%
X289368998Y-84652750D03*
D11*
X294448998Y-84652750D03*
D10*
X299528998Y-84652750D03*
D12*
X291293999Y-81382750D03*
D13*
X291948998Y-80652750D03*
D14*
X296968998Y-79862750D03*
D13*
X296988998Y-79572750D03*
%TD*%
D10*
%TO.C,MX8*%
X208406498Y-65602750D03*
D11*
X213486498Y-65602750D03*
D10*
X218566498Y-65602750D03*
D12*
X210331499Y-62332750D03*
D13*
X210986498Y-61602750D03*
D14*
X216006498Y-60812750D03*
D13*
X216026498Y-60522750D03*
%TD*%
D10*
%TO.C,MX11*%
X265556498Y-65602750D03*
D11*
X270636498Y-65602750D03*
D10*
X275716498Y-65602750D03*
D12*
X267481499Y-62332750D03*
D13*
X268136498Y-61602750D03*
D14*
X273156498Y-60812750D03*
D13*
X273176498Y-60522750D03*
%TD*%
D15*
%TO.C,MX39*%
X308704748Y-96717750D03*
D11*
X308704748Y-111957750D03*
D10*
X315562748Y-103702750D03*
D11*
X320642748Y-103702750D03*
D10*
X325722748Y-103702750D03*
D15*
X332580748Y-96717750D03*
D11*
X332580748Y-111957750D03*
D12*
X317487749Y-100432750D03*
D13*
X318142748Y-99702750D03*
D14*
X323162748Y-98912750D03*
D13*
X323182748Y-98622750D03*
%TD*%
D10*
%TO.C,MX36*%
X241743998Y-103702750D03*
D11*
X246823998Y-103702750D03*
D10*
X251903998Y-103702750D03*
D12*
X243668999Y-100432750D03*
D13*
X244323998Y-99702750D03*
D14*
X249343998Y-98912750D03*
D13*
X249363998Y-98622750D03*
%TD*%
D18*
%TO.C,D3*%
X126173998Y-67127750D03*
X126173998Y-63827750D03*
%TD*%
%TO.C,D5*%
X164273998Y-67252750D03*
X164273998Y-63952750D03*
%TD*%
%TO.C,D1*%
X83311498Y-67190250D03*
X83311498Y-63890250D03*
%TD*%
%TO.C,D30*%
X140461498Y-105352750D03*
X140461498Y-102052750D03*
%TD*%
%TO.C,D29*%
X121411498Y-105352750D03*
X121411498Y-102052750D03*
%TD*%
%TO.C,D28*%
X90455248Y-105352750D03*
X90455248Y-102052750D03*
%TD*%
%TO.C,D36*%
X254761498Y-105352750D03*
X254761498Y-102052750D03*
%TD*%
%TO.C,D14*%
X340486498Y-67315250D03*
X340486498Y-64015250D03*
%TD*%
%TO.C,D13*%
X315880248Y-67315250D03*
X315880248Y-64015250D03*
%TD*%
%TO.C,D25*%
X283336498Y-86302750D03*
X283336498Y-83002750D03*
%TD*%
%TO.C,D4*%
X145223998Y-67190250D03*
X145223998Y-63890250D03*
%TD*%
%TO.C,D18*%
X149986498Y-86302750D03*
X149986498Y-83002750D03*
%TD*%
D19*
%TO.C,C6*%
X216342000Y-116840000D03*
X214442000Y-116840000D03*
%TD*%
D18*
%TO.C,D38*%
X292861498Y-105352750D03*
X292861498Y-102052750D03*
%TD*%
%TO.C,D45*%
X285717748Y-124402750D03*
X285717748Y-121102750D03*
%TD*%
D20*
%TO.C,D43*%
X208153000Y-121033000D03*
X208153000Y-124333000D03*
%TD*%
D18*
%TO.C,D35*%
X235711498Y-105290250D03*
X235711498Y-101990250D03*
%TD*%
%TO.C,D46*%
X309530248Y-124402750D03*
X309530248Y-121102750D03*
%TD*%
%TO.C,D21*%
X207136498Y-86302750D03*
X207136498Y-83002750D03*
%TD*%
%TO.C,D15*%
X85692748Y-86240250D03*
X85692748Y-82940250D03*
%TD*%
D21*
%TO.C,C3*%
X185039000Y-112080000D03*
X185039000Y-113980000D03*
%TD*%
D18*
%TO.C,D41*%
X142842748Y-124340250D03*
X142842748Y-121040250D03*
%TD*%
%TO.C,D39*%
X328580248Y-105290250D03*
X328580248Y-101990250D03*
%TD*%
%TO.C,D2*%
X107123998Y-67190250D03*
X107123998Y-63890250D03*
%TD*%
%TO.C,D9*%
X240473998Y-67252750D03*
X240473998Y-63952750D03*
%TD*%
%TO.C,D19*%
X169036498Y-86302750D03*
X169036498Y-83002750D03*
%TD*%
%TO.C,D11*%
X278573998Y-67252750D03*
X278573998Y-63952750D03*
%TD*%
%TO.C,D12*%
X297623998Y-67252750D03*
X297623998Y-63952750D03*
%TD*%
%TO.C,D27*%
X332994000Y-86296500D03*
X332994000Y-82996500D03*
%TD*%
%TO.C,D16*%
X111886498Y-86302750D03*
X111886498Y-83002750D03*
%TD*%
%TO.C,D33*%
X197611498Y-105352750D03*
X197611498Y-102052750D03*
%TD*%
%TO.C,D22*%
X226186498Y-86302750D03*
X226186498Y-83002750D03*
%TD*%
%TO.C,D8*%
X221423998Y-67252750D03*
X221423998Y-63952750D03*
%TD*%
%TO.C,D37*%
X273811498Y-105352750D03*
X273811498Y-102052750D03*
%TD*%
%TO.C,D44*%
X261905248Y-124340250D03*
X261905248Y-121040250D03*
%TD*%
%TO.C,D24*%
X264286498Y-86302750D03*
X264286498Y-83002750D03*
%TD*%
D22*
%TO.C,SW1*%
X240356000Y-120575000D03*
X236656000Y-114375000D03*
X236656000Y-120575000D03*
X240356000Y-114375000D03*
%TD*%
D19*
%TO.C,C7*%
X216342000Y-113538000D03*
X214442000Y-113538000D03*
%TD*%
D18*
%TO.C,D20*%
X188086498Y-86302750D03*
X188086498Y-83002750D03*
%TD*%
D19*
%TO.C,C1*%
X194371000Y-108331000D03*
X192471000Y-108331000D03*
%TD*%
D23*
%TO.C,R4*%
X232386500Y-114173000D03*
X234211500Y-114173000D03*
%TD*%
D24*
%TO.C,R3*%
X195072000Y-94845500D03*
X195072000Y-96670500D03*
%TD*%
D18*
%TO.C,D23*%
X245236498Y-86302750D03*
X245236498Y-83002750D03*
%TD*%
D25*
%TO.C,C4*%
X196535000Y-125222000D03*
X198435000Y-125222000D03*
%TD*%
D18*
%TO.C,D7*%
X202373998Y-67252750D03*
X202373998Y-63952750D03*
%TD*%
D26*
%TO.C,R1*%
X189380500Y-125222000D03*
X187555500Y-125222000D03*
%TD*%
D21*
%TO.C,C2*%
X207518000Y-110495000D03*
X207518000Y-112395000D03*
%TD*%
D18*
%TO.C,D31*%
X159511498Y-105290250D03*
X159511498Y-101990250D03*
%TD*%
%TO.C,D10*%
X259523998Y-67252750D03*
X259523998Y-63952750D03*
%TD*%
%TO.C,D32*%
X178561498Y-105290250D03*
X178561498Y-101990250D03*
%TD*%
D24*
%TO.C,R2*%
X197231000Y-94869000D03*
X197231000Y-96694000D03*
%TD*%
D18*
%TO.C,D6*%
X183323998Y-67252750D03*
X183323998Y-63952750D03*
%TD*%
%TO.C,D17*%
X130936498Y-86302750D03*
X130936498Y-83002750D03*
%TD*%
D20*
%TO.C,D42*%
X160401000Y-121033000D03*
X160401000Y-124333000D03*
%TD*%
D18*
%TO.C,D34*%
X216661498Y-105352750D03*
X216661498Y-102052750D03*
%TD*%
%TO.C,D26*%
X302386498Y-86302750D03*
X302386498Y-83002750D03*
%TD*%
D19*
%TO.C,C5*%
X185166000Y-121285000D03*
X183266000Y-121285000D03*
%TD*%
D27*
%TO.C,Y1*%
X210478000Y-118321000D03*
X210478000Y-116121000D03*
X212178000Y-116121000D03*
X212178000Y-118321000D03*
%TD*%
D28*
%TO.C,J1*%
X199676000Y-91972000D03*
X199676000Y-92972000D03*
X199676000Y-93972000D03*
X199676000Y-94972000D03*
D29*
X203551000Y-90672000D03*
X203551000Y-96272000D03*
%TD*%
D30*
%TO.C,U1*%
X189294000Y-111552750D03*
X190094000Y-111552750D03*
X190894000Y-111552750D03*
X191694000Y-111552750D03*
X192494000Y-111552750D03*
X193294000Y-111552750D03*
X194094000Y-111552750D03*
X194894000Y-111552750D03*
X195694000Y-111552750D03*
X196494000Y-111552750D03*
X197294000Y-111552750D03*
D31*
X198994000Y-113252750D03*
X198994000Y-114052750D03*
X198994000Y-114852750D03*
X198994000Y-115652750D03*
X198994000Y-116452750D03*
X198994000Y-117252750D03*
X198994000Y-118052750D03*
X198994000Y-118852750D03*
X198994000Y-119652750D03*
X198994000Y-120452750D03*
X198994000Y-121252750D03*
D30*
X197294000Y-122952750D03*
X196494000Y-122952750D03*
X195694000Y-122952750D03*
X194894000Y-122952750D03*
X194094000Y-122952750D03*
X193294000Y-122952750D03*
X192494000Y-122952750D03*
X191694000Y-122952750D03*
X190894000Y-122952750D03*
X190094000Y-122952750D03*
X189294000Y-122952750D03*
D31*
X187594000Y-121252750D03*
X187594000Y-120452750D03*
X187594000Y-119652750D03*
X187594000Y-118852750D03*
X187594000Y-118052750D03*
X187594000Y-117252750D03*
X187594000Y-116452750D03*
X187594000Y-115652750D03*
X187594000Y-114852750D03*
X187594000Y-114052750D03*
X187594000Y-113252750D03*
%TD*%
D18*
%TO.C,D40*%
X119030248Y-124340250D03*
X119030248Y-121040250D03*
%TD*%
D32*
X201422000Y-102108000D03*
X207137000Y-114935000D03*
X197505546Y-98638026D03*
X184277000Y-124841000D03*
X195580000Y-107950000D03*
X188722000Y-109855000D03*
X195326000Y-127000000D03*
X183261000Y-112014000D03*
X193802000Y-106426000D03*
X187452000Y-106426000D03*
X194310000Y-99314000D03*
X197358000Y-100838000D03*
X109663998Y-108331000D03*
X128713998Y-108204000D03*
X147828000Y-108331000D03*
X190500000Y-127381000D03*
X201295000Y-124730497D03*
X201295000Y-125730000D03*
X197612000Y-128592494D03*
X195251993Y-129591997D03*
X194840774Y-130565945D03*
X194182752Y-131318283D03*
X200787000Y-111760000D03*
X222504000Y-118872000D03*
X204851000Y-119634000D03*
X225044000Y-118872000D03*
X234188000Y-117221000D03*
X208280000Y-119634000D03*
M02*
