%TF.GenerationSoftware,KiCad,Pcbnew,7.0.2*%
%TF.CreationDate,2023-06-06T03:33:47+01:00*%
%TF.ProjectId,45_keyboard,34355f6b-6579-4626-9f61-72642e6b6963,rev?*%
%TF.SameCoordinates,Original*%
%TF.FileFunction,Soldermask,Top*%
%TF.FilePolarity,Negative*%
%FSLAX46Y46*%
G04 Gerber Fmt 4.6, Leading zero omitted, Abs format (unit mm)*
G04 Created by KiCad (PCBNEW 7.0.2) date 2023-06-06 03:33:47*
%MOMM*%
%LPD*%
G01*
G04 APERTURE LIST*
%ADD10C,1.750000*%
%ADD11C,3.987800*%
%ADD12C,3.048000*%
%ADD13C,0.800000*%
G04 APERTURE END LIST*
D10*
%TO.C,MX14*%
X327468998Y-65602750D03*
D11*
X332548998Y-65602750D03*
D10*
X337628998Y-65602750D03*
%TD*%
%TO.C,MX12*%
X284606498Y-65602750D03*
D11*
X289686498Y-65602750D03*
D10*
X294766498Y-65602750D03*
%TD*%
%TO.C,MX4*%
X132206498Y-65602750D03*
D11*
X137286498Y-65602750D03*
D10*
X142366498Y-65602750D03*
%TD*%
%TO.C,MX44*%
X248887748Y-122752750D03*
D11*
X253967748Y-122752750D03*
D10*
X259047748Y-122752750D03*
%TD*%
%TO.C,MX5*%
X151256498Y-65602750D03*
D11*
X156336498Y-65602750D03*
D10*
X161416498Y-65602750D03*
%TD*%
%TO.C,MX17*%
X117918998Y-84652750D03*
D11*
X122998998Y-84652750D03*
D10*
X128078998Y-84652750D03*
%TD*%
%TO.C,MX10*%
X246506498Y-65602750D03*
D11*
X251586498Y-65602750D03*
D10*
X256666498Y-65602750D03*
%TD*%
%TO.C,MX7*%
X189356498Y-65602750D03*
D11*
X194436498Y-65602750D03*
D10*
X199516498Y-65602750D03*
%TD*%
%TO.C,MX34*%
X203643998Y-103702750D03*
D11*
X208723998Y-103702750D03*
D10*
X213803998Y-103702750D03*
%TD*%
%TO.C,MX45*%
X272700248Y-122752750D03*
D11*
X277780248Y-122752750D03*
D10*
X282860248Y-122752750D03*
%TD*%
D12*
%TO.C,MX28*%
X70579748Y-96717750D03*
D11*
X70579748Y-111957750D03*
D10*
X77437748Y-103702750D03*
D11*
X82517748Y-103702750D03*
D10*
X87597748Y-103702750D03*
D12*
X94455748Y-96717750D03*
D11*
X94455748Y-111957750D03*
%TD*%
D12*
%TO.C,MX43*%
X227805748Y-129737750D03*
D11*
X227805748Y-114497750D03*
D10*
X220947748Y-122752750D03*
D11*
X215867748Y-122752750D03*
D10*
X210787748Y-122752750D03*
D12*
X203929748Y-129737750D03*
D11*
X203929748Y-114497750D03*
%TD*%
D10*
%TO.C,MX16*%
X98868998Y-84652750D03*
D11*
X103948998Y-84652750D03*
D10*
X109028998Y-84652750D03*
%TD*%
%TO.C,MX2*%
X94106498Y-65602750D03*
D11*
X99186498Y-65602750D03*
D10*
X104266498Y-65602750D03*
%TD*%
%TO.C,MX23*%
X232218998Y-84652750D03*
D11*
X237298998Y-84652750D03*
D10*
X242378998Y-84652750D03*
%TD*%
%TO.C,MX38*%
X279843998Y-103702750D03*
D11*
X284923998Y-103702750D03*
D10*
X290003998Y-103702750D03*
%TD*%
%TO.C,MX22*%
X213168998Y-84652750D03*
D11*
X218248998Y-84652750D03*
D10*
X223328998Y-84652750D03*
%TD*%
%TO.C,MX31*%
X146493998Y-103702750D03*
D11*
X151573998Y-103702750D03*
D10*
X156653998Y-103702750D03*
%TD*%
%TO.C,MX35*%
X222693998Y-103702750D03*
D11*
X227773998Y-103702750D03*
D10*
X232853998Y-103702750D03*
%TD*%
%TO.C,MX15*%
X72675248Y-84652750D03*
D11*
X77755248Y-84652750D03*
D10*
X82835248Y-84652750D03*
%TD*%
%TO.C,MX20*%
X175068998Y-84652750D03*
D11*
X180148998Y-84652750D03*
D10*
X185228998Y-84652750D03*
%TD*%
%TO.C,MX46*%
X296512748Y-122752750D03*
D11*
X301592748Y-122752750D03*
D10*
X306672748Y-122752750D03*
%TD*%
%TO.C,MX21*%
X194118998Y-84652750D03*
D11*
X199198998Y-84652750D03*
D10*
X204278998Y-84652750D03*
%TD*%
%TO.C,MX6*%
X170306498Y-65602750D03*
D11*
X175386498Y-65602750D03*
D10*
X180466498Y-65602750D03*
%TD*%
%TO.C,MX18*%
X136968998Y-84652750D03*
D11*
X142048998Y-84652750D03*
D10*
X147128998Y-84652750D03*
%TD*%
%TO.C,MX29*%
X108393998Y-103702750D03*
D11*
X113473998Y-103702750D03*
D10*
X118553998Y-103702750D03*
%TD*%
%TO.C,MX32*%
X165543998Y-103702750D03*
D11*
X170623998Y-103702750D03*
D10*
X175703998Y-103702750D03*
%TD*%
D12*
%TO.C,MX42*%
X180180748Y-129737750D03*
D11*
X180180748Y-114497750D03*
D10*
X173322748Y-122752750D03*
D11*
X168242748Y-122752750D03*
D10*
X163162748Y-122752750D03*
D12*
X156304748Y-129737750D03*
D11*
X156304748Y-114497750D03*
%TD*%
D12*
%TO.C,MX27*%
X313467248Y-77667750D03*
D11*
X313467248Y-92907750D03*
D10*
X320325248Y-84652750D03*
D11*
X325405248Y-84652750D03*
D10*
X330485248Y-84652750D03*
D12*
X337343248Y-77667750D03*
D11*
X337343248Y-92907750D03*
%TD*%
D10*
%TO.C,MX25*%
X270318998Y-84652750D03*
D11*
X275398998Y-84652750D03*
D10*
X280478998Y-84652750D03*
%TD*%
%TO.C,MX41*%
X129825248Y-122752750D03*
D11*
X134905248Y-122752750D03*
D10*
X139985248Y-122752750D03*
%TD*%
%TO.C,MX19*%
X156018998Y-84652750D03*
D11*
X161098998Y-84652750D03*
D10*
X166178998Y-84652750D03*
%TD*%
%TO.C,MX40*%
X106012748Y-122752750D03*
D11*
X111092748Y-122752750D03*
D10*
X116172748Y-122752750D03*
%TD*%
%TO.C,MX9*%
X227456498Y-65602750D03*
D11*
X232536498Y-65602750D03*
D10*
X237616498Y-65602750D03*
%TD*%
%TO.C,MX24*%
X251268998Y-84652750D03*
D11*
X256348998Y-84652750D03*
D10*
X261428998Y-84652750D03*
%TD*%
%TO.C,MX33*%
X184593998Y-103702750D03*
D11*
X189673998Y-103702750D03*
D10*
X194753998Y-103702750D03*
%TD*%
%TO.C,MX13*%
X303656498Y-65602750D03*
D11*
X308736498Y-65602750D03*
D10*
X313816498Y-65602750D03*
%TD*%
%TO.C,MX30*%
X127443998Y-103702750D03*
D11*
X132523998Y-103702750D03*
D10*
X137603998Y-103702750D03*
%TD*%
%TO.C,MX1*%
X70293998Y-65602750D03*
D11*
X75373998Y-65602750D03*
D10*
X80453998Y-65602750D03*
%TD*%
%TO.C,MX3*%
X113156498Y-65602750D03*
D11*
X118236498Y-65602750D03*
D10*
X123316498Y-65602750D03*
%TD*%
%TO.C,MX37*%
X260793998Y-103702750D03*
D11*
X265873998Y-103702750D03*
D10*
X270953998Y-103702750D03*
%TD*%
%TO.C,MX26*%
X289368998Y-84652750D03*
D11*
X294448998Y-84652750D03*
D10*
X299528998Y-84652750D03*
%TD*%
%TO.C,MX8*%
X208406498Y-65602750D03*
D11*
X213486498Y-65602750D03*
D10*
X218566498Y-65602750D03*
%TD*%
%TO.C,MX11*%
X265556498Y-65602750D03*
D11*
X270636498Y-65602750D03*
D10*
X275716498Y-65602750D03*
%TD*%
D12*
%TO.C,MX39*%
X308704748Y-96717750D03*
D11*
X308704748Y-111957750D03*
D10*
X315562748Y-103702750D03*
D11*
X320642748Y-103702750D03*
D10*
X325722748Y-103702750D03*
D12*
X332580748Y-96717750D03*
D11*
X332580748Y-111957750D03*
%TD*%
D10*
%TO.C,MX36*%
X241743998Y-103702750D03*
D11*
X246823998Y-103702750D03*
D10*
X251903998Y-103702750D03*
%TD*%
D13*
X201422000Y-102108000D03*
X207137000Y-114935000D03*
X197505546Y-98638026D03*
X184277000Y-124841000D03*
X195580000Y-107950000D03*
X188722000Y-109855000D03*
X195326000Y-127000000D03*
X183261000Y-112014000D03*
X193802000Y-106426000D03*
X187452000Y-106426000D03*
X194310000Y-99314000D03*
X197358000Y-100838000D03*
X109663998Y-108331000D03*
X128713998Y-108204000D03*
X147828000Y-108331000D03*
X190500000Y-127381000D03*
X201295000Y-124730497D03*
X201295000Y-125730000D03*
X197612000Y-128592494D03*
X195251993Y-129591997D03*
X194840774Y-130565945D03*
X194182752Y-131318283D03*
X200787000Y-111760000D03*
X222504000Y-118872000D03*
X204851000Y-119634000D03*
X225044000Y-118872000D03*
X234188000Y-117221000D03*
X208280000Y-119634000D03*
M02*
