%TF.GenerationSoftware,KiCad,Pcbnew,7.0.2*%
%TF.CreationDate,2023-06-06T03:33:47+01:00*%
%TF.ProjectId,45_keyboard,34355f6b-6579-4626-9f61-72642e6b6963,rev?*%
%TF.SameCoordinates,Original*%
%TF.FileFunction,Copper,L2,Bot*%
%TF.FilePolarity,Positive*%
%FSLAX46Y46*%
G04 Gerber Fmt 4.6, Leading zero omitted, Abs format (unit mm)*
G04 Created by KiCad (PCBNEW 7.0.2) date 2023-06-06 03:33:47*
%MOMM*%
%LPD*%
G01*
G04 APERTURE LIST*
G04 Aperture macros list*
%AMRoundRect*
0 Rectangle with rounded corners*
0 $1 Rounding radius*
0 $2 $3 $4 $5 $6 $7 $8 $9 X,Y pos of 4 corners*
0 Add a 4 corners polygon primitive as box body*
4,1,4,$2,$3,$4,$5,$6,$7,$8,$9,$2,$3,0*
0 Add four circle primitives for the rounded corners*
1,1,$1+$1,$2,$3*
1,1,$1+$1,$4,$5*
1,1,$1+$1,$6,$7*
1,1,$1+$1,$8,$9*
0 Add four rect primitives between the rounded corners*
20,1,$1+$1,$2,$3,$4,$5,0*
20,1,$1+$1,$4,$5,$6,$7,0*
20,1,$1+$1,$6,$7,$8,$9,0*
20,1,$1+$1,$8,$9,$2,$3,0*%
%AMHorizOval*
0 Thick line with rounded ends*
0 $1 width*
0 $2 $3 position (X,Y) of the first rounded end (center of the circle)*
0 $4 $5 position (X,Y) of the second rounded end (center of the circle)*
0 Add line between two ends*
20,1,$1,$2,$3,$4,$5,0*
0 Add two circle primitives to create the rounded ends*
1,1,$1,$2,$3*
1,1,$1,$4,$5*%
G04 Aperture macros list end*
%TA.AperFunction,ComponentPad*%
%ADD10HorizOval,2.250000X0.655001X0.730000X-0.655001X-0.730000X0*%
%TD*%
%TA.AperFunction,ComponentPad*%
%ADD11C,2.250000*%
%TD*%
%TA.AperFunction,ComponentPad*%
%ADD12HorizOval,2.250000X0.020000X0.290000X-0.020000X-0.290000X0*%
%TD*%
%TA.AperFunction,ComponentPad*%
%ADD13HorizOval,2.250000X-0.655001X-0.730000X0.655001X0.730000X0*%
%TD*%
%TA.AperFunction,ComponentPad*%
%ADD14HorizOval,2.250000X-0.020000X-0.290000X0.020000X0.290000X0*%
%TD*%
%TA.AperFunction,SMDPad,CuDef*%
%ADD15RoundRect,0.225000X0.375000X-0.225000X0.375000X0.225000X-0.375000X0.225000X-0.375000X-0.225000X0*%
%TD*%
%TA.AperFunction,SMDPad,CuDef*%
%ADD16RoundRect,0.250000X0.250000X0.475000X-0.250000X0.475000X-0.250000X-0.475000X0.250000X-0.475000X0*%
%TD*%
%TA.AperFunction,SMDPad,CuDef*%
%ADD17RoundRect,0.225000X-0.375000X0.225000X-0.375000X-0.225000X0.375000X-0.225000X0.375000X0.225000X0*%
%TD*%
%TA.AperFunction,SMDPad,CuDef*%
%ADD18RoundRect,0.250000X-0.475000X0.250000X-0.475000X-0.250000X0.475000X-0.250000X0.475000X0.250000X0*%
%TD*%
%TA.AperFunction,SMDPad,CuDef*%
%ADD19R,1.100000X1.800000*%
%TD*%
%TA.AperFunction,SMDPad,CuDef*%
%ADD20RoundRect,0.250000X-0.262500X-0.450000X0.262500X-0.450000X0.262500X0.450000X-0.262500X0.450000X0*%
%TD*%
%TA.AperFunction,SMDPad,CuDef*%
%ADD21RoundRect,0.250000X-0.450000X0.262500X-0.450000X-0.262500X0.450000X-0.262500X0.450000X0.262500X0*%
%TD*%
%TA.AperFunction,SMDPad,CuDef*%
%ADD22RoundRect,0.250000X-0.250000X-0.475000X0.250000X-0.475000X0.250000X0.475000X-0.250000X0.475000X0*%
%TD*%
%TA.AperFunction,SMDPad,CuDef*%
%ADD23RoundRect,0.250000X0.262500X0.450000X-0.262500X0.450000X-0.262500X-0.450000X0.262500X-0.450000X0*%
%TD*%
%TA.AperFunction,SMDPad,CuDef*%
%ADD24R,1.200000X1.400000*%
%TD*%
%TA.AperFunction,SMDPad,CuDef*%
%ADD25RoundRect,0.150000X-0.625000X0.150000X-0.625000X-0.150000X0.625000X-0.150000X0.625000X0.150000X0*%
%TD*%
%TA.AperFunction,SMDPad,CuDef*%
%ADD26RoundRect,0.250000X-0.650000X0.350000X-0.650000X-0.350000X0.650000X-0.350000X0.650000X0.350000X0*%
%TD*%
%TA.AperFunction,SMDPad,CuDef*%
%ADD27R,0.550000X1.500000*%
%TD*%
%TA.AperFunction,SMDPad,CuDef*%
%ADD28R,1.500000X0.550000*%
%TD*%
%TA.AperFunction,ViaPad*%
%ADD29C,0.800000*%
%TD*%
%TA.AperFunction,Conductor*%
%ADD30C,0.254000*%
%TD*%
%TA.AperFunction,Conductor*%
%ADD31C,0.381000*%
%TD*%
%TA.AperFunction,Conductor*%
%ADD32C,0.200000*%
%TD*%
G04 APERTURE END LIST*
D10*
%TO.P,MX14,1,COL*%
%TO.N,col12*%
X329393999Y-62332750D03*
D11*
X330048998Y-61602750D03*
D12*
%TO.P,MX14,2,ROW*%
%TO.N,Net-(D14-A)*%
X335068998Y-60812750D03*
D11*
X335088998Y-60522750D03*
%TD*%
D10*
%TO.P,MX12,1,COL*%
%TO.N,col11*%
X286531499Y-62332750D03*
D11*
X287186498Y-61602750D03*
D12*
%TO.P,MX12,2,ROW*%
%TO.N,Net-(D12-A)*%
X292206498Y-60812750D03*
D11*
X292226498Y-60522750D03*
%TD*%
D10*
%TO.P,MX4,1,COL*%
%TO.N,col3*%
X134131499Y-62332750D03*
D11*
X134786498Y-61602750D03*
D12*
%TO.P,MX4,2,ROW*%
%TO.N,Net-(D4-A)*%
X139806498Y-60812750D03*
D11*
X139826498Y-60522750D03*
%TD*%
D10*
%TO.P,MX44,1,COL*%
%TO.N,col9*%
X250812749Y-119482750D03*
D11*
X251467748Y-118752750D03*
D12*
%TO.P,MX44,2,ROW*%
%TO.N,Net-(D44-A)*%
X256487748Y-117962750D03*
D11*
X256507748Y-117672750D03*
%TD*%
D10*
%TO.P,MX5,1,COL*%
%TO.N,col4*%
X153181499Y-62332750D03*
D11*
X153836498Y-61602750D03*
D12*
%TO.P,MX5,2,ROW*%
%TO.N,Net-(D5-A)*%
X158856498Y-60812750D03*
D11*
X158876498Y-60522750D03*
%TD*%
D10*
%TO.P,MX17,1,COL*%
%TO.N,col2*%
X119843999Y-81382750D03*
D11*
X120498998Y-80652750D03*
D12*
%TO.P,MX17,2,ROW*%
%TO.N,Net-(D17-A)*%
X125518998Y-79862750D03*
D11*
X125538998Y-79572750D03*
%TD*%
D10*
%TO.P,MX10,1,COL*%
%TO.N,col9*%
X248431499Y-62332750D03*
D11*
X249086498Y-61602750D03*
D12*
%TO.P,MX10,2,ROW*%
%TO.N,Net-(D10-A)*%
X254106498Y-60812750D03*
D11*
X254126498Y-60522750D03*
%TD*%
D10*
%TO.P,MX7,1,COL*%
%TO.N,col6*%
X191281499Y-62332750D03*
D11*
X191936498Y-61602750D03*
D12*
%TO.P,MX7,2,ROW*%
%TO.N,Net-(D7-A)*%
X196956498Y-60812750D03*
D11*
X196976498Y-60522750D03*
%TD*%
D10*
%TO.P,MX34,1,COL*%
%TO.N,col7*%
X205568999Y-100432750D03*
D11*
X206223998Y-99702750D03*
D12*
%TO.P,MX34,2,ROW*%
%TO.N,Net-(D34-A)*%
X211243998Y-98912750D03*
D11*
X211263998Y-98622750D03*
%TD*%
D10*
%TO.P,MX45,1,COL*%
%TO.N,col10*%
X274625249Y-119482750D03*
D11*
X275280248Y-118752750D03*
D12*
%TO.P,MX45,2,ROW*%
%TO.N,Net-(D45-A)*%
X280300248Y-117962750D03*
D11*
X280320248Y-117672750D03*
%TD*%
D10*
%TO.P,MX28,1,COL*%
%TO.N,col1*%
X79362749Y-100432750D03*
D11*
X80017748Y-99702750D03*
D12*
%TO.P,MX28,2,ROW*%
%TO.N,Net-(D28-A)*%
X85037748Y-98912750D03*
D11*
X85057748Y-98622750D03*
%TD*%
D13*
%TO.P,MX43,1,COL*%
%TO.N,col8*%
X219022747Y-126022750D03*
D11*
X218367748Y-126752750D03*
D14*
%TO.P,MX43,2,ROW*%
%TO.N,Net-(D43-A)*%
X213347748Y-127542750D03*
D11*
X213327748Y-127832750D03*
%TD*%
D10*
%TO.P,MX16,1,COL*%
%TO.N,col1*%
X100793999Y-81382750D03*
D11*
X101448998Y-80652750D03*
D12*
%TO.P,MX16,2,ROW*%
%TO.N,Net-(D16-A)*%
X106468998Y-79862750D03*
D11*
X106488998Y-79572750D03*
%TD*%
D10*
%TO.P,MX2,1,COL*%
%TO.N,col1*%
X96031499Y-62332750D03*
D11*
X96686498Y-61602750D03*
D12*
%TO.P,MX2,2,ROW*%
%TO.N,Net-(D2-A)*%
X101706498Y-60812750D03*
D11*
X101726498Y-60522750D03*
%TD*%
D10*
%TO.P,MX23,1,COL*%
%TO.N,col8*%
X234143999Y-81382750D03*
D11*
X234798998Y-80652750D03*
D12*
%TO.P,MX23,2,ROW*%
%TO.N,Net-(D23-A)*%
X239818998Y-79862750D03*
D11*
X239838998Y-79572750D03*
%TD*%
D10*
%TO.P,MX38,1,COL*%
%TO.N,col11*%
X281768999Y-100432750D03*
D11*
X282423998Y-99702750D03*
D12*
%TO.P,MX38,2,ROW*%
%TO.N,Net-(D38-A)*%
X287443998Y-98912750D03*
D11*
X287463998Y-98622750D03*
%TD*%
D10*
%TO.P,MX22,1,COL*%
%TO.N,col7*%
X215093999Y-81382750D03*
D11*
X215748998Y-80652750D03*
D12*
%TO.P,MX22,2,ROW*%
%TO.N,Net-(D22-A)*%
X220768998Y-79862750D03*
D11*
X220788998Y-79572750D03*
%TD*%
D10*
%TO.P,MX31,1,COL*%
%TO.N,col4*%
X148418999Y-100432750D03*
D11*
X149073998Y-99702750D03*
D12*
%TO.P,MX31,2,ROW*%
%TO.N,Net-(D31-A)*%
X154093998Y-98912750D03*
D11*
X154113998Y-98622750D03*
%TD*%
D10*
%TO.P,MX35,1,COL*%
%TO.N,col8*%
X224618999Y-100432750D03*
D11*
X225273998Y-99702750D03*
D12*
%TO.P,MX35,2,ROW*%
%TO.N,Net-(D35-A)*%
X230293998Y-98912750D03*
D11*
X230313998Y-98622750D03*
%TD*%
D10*
%TO.P,MX15,1,COL*%
%TO.N,col0*%
X74600249Y-81382750D03*
D11*
X75255248Y-80652750D03*
D12*
%TO.P,MX15,2,ROW*%
%TO.N,Net-(D15-A)*%
X80275248Y-79862750D03*
D11*
X80295248Y-79572750D03*
%TD*%
D10*
%TO.P,MX20,1,COL*%
%TO.N,col5*%
X176993999Y-81382750D03*
D11*
X177648998Y-80652750D03*
D12*
%TO.P,MX20,2,ROW*%
%TO.N,Net-(D20-A)*%
X182668998Y-79862750D03*
D11*
X182688998Y-79572750D03*
%TD*%
D10*
%TO.P,MX46,1,COL*%
%TO.N,col11*%
X298437749Y-119482750D03*
D11*
X299092748Y-118752750D03*
D12*
%TO.P,MX46,2,ROW*%
%TO.N,Net-(D46-A)*%
X304112748Y-117962750D03*
D11*
X304132748Y-117672750D03*
%TD*%
D10*
%TO.P,MX21,1,COL*%
%TO.N,col6*%
X196043999Y-81382750D03*
D11*
X196698998Y-80652750D03*
D12*
%TO.P,MX21,2,ROW*%
%TO.N,Net-(D21-A)*%
X201718998Y-79862750D03*
D11*
X201738998Y-79572750D03*
%TD*%
D10*
%TO.P,MX6,1,COL*%
%TO.N,col5*%
X172231499Y-62332750D03*
D11*
X172886498Y-61602750D03*
D12*
%TO.P,MX6,2,ROW*%
%TO.N,Net-(D6-A)*%
X177906498Y-60812750D03*
D11*
X177926498Y-60522750D03*
%TD*%
D10*
%TO.P,MX18,1,COL*%
%TO.N,col3*%
X138893999Y-81382750D03*
D11*
X139548998Y-80652750D03*
D12*
%TO.P,MX18,2,ROW*%
%TO.N,Net-(D18-A)*%
X144568998Y-79862750D03*
D11*
X144588998Y-79572750D03*
%TD*%
D10*
%TO.P,MX29,1,COL*%
%TO.N,col2*%
X110318999Y-100432750D03*
D11*
X110973998Y-99702750D03*
D12*
%TO.P,MX29,2,ROW*%
%TO.N,Net-(D29-A)*%
X115993998Y-98912750D03*
D11*
X116013998Y-98622750D03*
%TD*%
D10*
%TO.P,MX32,1,COL*%
%TO.N,col5*%
X167468999Y-100432750D03*
D11*
X168123998Y-99702750D03*
D12*
%TO.P,MX32,2,ROW*%
%TO.N,Net-(D32-A)*%
X173143998Y-98912750D03*
D11*
X173163998Y-98622750D03*
%TD*%
D13*
%TO.P,MX42,1,COL*%
%TO.N,col5*%
X171397747Y-126022750D03*
D11*
X170742748Y-126752750D03*
D14*
%TO.P,MX42,2,ROW*%
%TO.N,Net-(D42-A)*%
X165722748Y-127542750D03*
D11*
X165702748Y-127832750D03*
%TD*%
D10*
%TO.P,MX27,1,COL*%
%TO.N,col12*%
X322250249Y-81382750D03*
D11*
X322905248Y-80652750D03*
D12*
%TO.P,MX27,2,ROW*%
%TO.N,Net-(D27-A)*%
X327925248Y-79862750D03*
D11*
X327945248Y-79572750D03*
%TD*%
D10*
%TO.P,MX25,1,COL*%
%TO.N,col10*%
X272243999Y-81382750D03*
D11*
X272898998Y-80652750D03*
D12*
%TO.P,MX25,2,ROW*%
%TO.N,Net-(D25-A)*%
X277918998Y-79862750D03*
D11*
X277938998Y-79572750D03*
%TD*%
D10*
%TO.P,MX41,1,COL*%
%TO.N,col3*%
X131750249Y-119482750D03*
D11*
X132405248Y-118752750D03*
D12*
%TO.P,MX41,2,ROW*%
%TO.N,Net-(D41-A)*%
X137425248Y-117962750D03*
D11*
X137445248Y-117672750D03*
%TD*%
D10*
%TO.P,MX19,1,COL*%
%TO.N,col4*%
X157943999Y-81382750D03*
D11*
X158598998Y-80652750D03*
D12*
%TO.P,MX19,2,ROW*%
%TO.N,Net-(D19-A)*%
X163618998Y-79862750D03*
D11*
X163638998Y-79572750D03*
%TD*%
D10*
%TO.P,MX40,1,COL*%
%TO.N,col2*%
X107937749Y-119482750D03*
D11*
X108592748Y-118752750D03*
D12*
%TO.P,MX40,2,ROW*%
%TO.N,Net-(D40-A)*%
X113612748Y-117962750D03*
D11*
X113632748Y-117672750D03*
%TD*%
D10*
%TO.P,MX9,1,COL*%
%TO.N,col8*%
X229381499Y-62332750D03*
D11*
X230036498Y-61602750D03*
D12*
%TO.P,MX9,2,ROW*%
%TO.N,Net-(D9-A)*%
X235056498Y-60812750D03*
D11*
X235076498Y-60522750D03*
%TD*%
D10*
%TO.P,MX24,1,COL*%
%TO.N,col9*%
X253193999Y-81382750D03*
D11*
X253848998Y-80652750D03*
D12*
%TO.P,MX24,2,ROW*%
%TO.N,Net-(D24-A)*%
X258868998Y-79862750D03*
D11*
X258888998Y-79572750D03*
%TD*%
D10*
%TO.P,MX33,1,COL*%
%TO.N,col6*%
X186518999Y-100432750D03*
D11*
X187173998Y-99702750D03*
D12*
%TO.P,MX33,2,ROW*%
%TO.N,Net-(D33-A)*%
X192193998Y-98912750D03*
D11*
X192213998Y-98622750D03*
%TD*%
D10*
%TO.P,MX13,1,COL*%
%TO.N,col12*%
X305581499Y-62332750D03*
D11*
X306236498Y-61602750D03*
D12*
%TO.P,MX13,2,ROW*%
%TO.N,Net-(D13-A)*%
X311256498Y-60812750D03*
D11*
X311276498Y-60522750D03*
%TD*%
D10*
%TO.P,MX30,1,COL*%
%TO.N,col3*%
X129368999Y-100432750D03*
D11*
X130023998Y-99702750D03*
D12*
%TO.P,MX30,2,ROW*%
%TO.N,Net-(D30-A)*%
X135043998Y-98912750D03*
D11*
X135063998Y-98622750D03*
%TD*%
D10*
%TO.P,MX1,1,COL*%
%TO.N,col0*%
X72218999Y-62332750D03*
D11*
X72873998Y-61602750D03*
D12*
%TO.P,MX1,2,ROW*%
%TO.N,Net-(D1-A)*%
X77893998Y-60812750D03*
D11*
X77913998Y-60522750D03*
%TD*%
D10*
%TO.P,MX3,1,COL*%
%TO.N,col2*%
X115081499Y-62332750D03*
D11*
X115736498Y-61602750D03*
D12*
%TO.P,MX3,2,ROW*%
%TO.N,Net-(D3-A)*%
X120756498Y-60812750D03*
D11*
X120776498Y-60522750D03*
%TD*%
D10*
%TO.P,MX37,1,COL*%
%TO.N,col10*%
X262718999Y-100432750D03*
D11*
X263373998Y-99702750D03*
D12*
%TO.P,MX37,2,ROW*%
%TO.N,Net-(D37-A)*%
X268393998Y-98912750D03*
D11*
X268413998Y-98622750D03*
%TD*%
D10*
%TO.P,MX26,1,COL*%
%TO.N,col11*%
X291293999Y-81382750D03*
D11*
X291948998Y-80652750D03*
D12*
%TO.P,MX26,2,ROW*%
%TO.N,Net-(D26-A)*%
X296968998Y-79862750D03*
D11*
X296988998Y-79572750D03*
%TD*%
D10*
%TO.P,MX8,1,COL*%
%TO.N,col7*%
X210331499Y-62332750D03*
D11*
X210986498Y-61602750D03*
D12*
%TO.P,MX8,2,ROW*%
%TO.N,Net-(D8-A)*%
X216006498Y-60812750D03*
D11*
X216026498Y-60522750D03*
%TD*%
D10*
%TO.P,MX11,1,COL*%
%TO.N,col10*%
X267481499Y-62332750D03*
D11*
X268136498Y-61602750D03*
D12*
%TO.P,MX11,2,ROW*%
%TO.N,Net-(D11-A)*%
X273156498Y-60812750D03*
D11*
X273176498Y-60522750D03*
%TD*%
D10*
%TO.P,MX39,1,COL*%
%TO.N,col12*%
X317487749Y-100432750D03*
D11*
X318142748Y-99702750D03*
D12*
%TO.P,MX39,2,ROW*%
%TO.N,Net-(D39-A)*%
X323162748Y-98912750D03*
D11*
X323182748Y-98622750D03*
%TD*%
D10*
%TO.P,MX36,1,COL*%
%TO.N,col9*%
X243668999Y-100432750D03*
D11*
X244323998Y-99702750D03*
D12*
%TO.P,MX36,2,ROW*%
%TO.N,Net-(D36-A)*%
X249343998Y-98912750D03*
D11*
X249363998Y-98622750D03*
%TD*%
D15*
%TO.P,D3,1,K*%
%TO.N,row0*%
X126173998Y-67127750D03*
%TO.P,D3,2,A*%
%TO.N,Net-(D3-A)*%
X126173998Y-63827750D03*
%TD*%
%TO.P,D5,1,K*%
%TO.N,row0*%
X164273998Y-67252750D03*
%TO.P,D5,2,A*%
%TO.N,Net-(D5-A)*%
X164273998Y-63952750D03*
%TD*%
%TO.P,D1,1,K*%
%TO.N,row0*%
X83311498Y-67190250D03*
%TO.P,D1,2,A*%
%TO.N,Net-(D1-A)*%
X83311498Y-63890250D03*
%TD*%
%TO.P,D30,1,K*%
%TO.N,row2*%
X140461498Y-105352750D03*
%TO.P,D30,2,A*%
%TO.N,Net-(D30-A)*%
X140461498Y-102052750D03*
%TD*%
%TO.P,D29,1,K*%
%TO.N,row2*%
X121411498Y-105352750D03*
%TO.P,D29,2,A*%
%TO.N,Net-(D29-A)*%
X121411498Y-102052750D03*
%TD*%
%TO.P,D28,1,K*%
%TO.N,row2*%
X90455248Y-105352750D03*
%TO.P,D28,2,A*%
%TO.N,Net-(D28-A)*%
X90455248Y-102052750D03*
%TD*%
%TO.P,D36,1,K*%
%TO.N,row2*%
X254761498Y-105352750D03*
%TO.P,D36,2,A*%
%TO.N,Net-(D36-A)*%
X254761498Y-102052750D03*
%TD*%
%TO.P,D14,1,K*%
%TO.N,row3*%
X340486498Y-67315250D03*
%TO.P,D14,2,A*%
%TO.N,Net-(D14-A)*%
X340486498Y-64015250D03*
%TD*%
%TO.P,D13,1,K*%
%TO.N,row0*%
X315880248Y-67315250D03*
%TO.P,D13,2,A*%
%TO.N,Net-(D13-A)*%
X315880248Y-64015250D03*
%TD*%
%TO.P,D25,1,K*%
%TO.N,row1*%
X283336498Y-86302750D03*
%TO.P,D25,2,A*%
%TO.N,Net-(D25-A)*%
X283336498Y-83002750D03*
%TD*%
%TO.P,D4,1,K*%
%TO.N,row0*%
X145223998Y-67190250D03*
%TO.P,D4,2,A*%
%TO.N,Net-(D4-A)*%
X145223998Y-63890250D03*
%TD*%
%TO.P,D18,1,K*%
%TO.N,row1*%
X149986498Y-86302750D03*
%TO.P,D18,2,A*%
%TO.N,Net-(D18-A)*%
X149986498Y-83002750D03*
%TD*%
D16*
%TO.P,C6,1*%
%TO.N,GND*%
X216342000Y-116840000D03*
%TO.P,C6,2*%
%TO.N,Net-(U1-XTAL1)*%
X214442000Y-116840000D03*
%TD*%
D15*
%TO.P,D38,1,K*%
%TO.N,row2*%
X292861498Y-105352750D03*
%TO.P,D38,2,A*%
%TO.N,Net-(D38-A)*%
X292861498Y-102052750D03*
%TD*%
%TO.P,D45,1,K*%
%TO.N,row3*%
X285717748Y-124402750D03*
%TO.P,D45,2,A*%
%TO.N,Net-(D45-A)*%
X285717748Y-121102750D03*
%TD*%
D17*
%TO.P,D43,1,K*%
%TO.N,row3*%
X208153000Y-121033000D03*
%TO.P,D43,2,A*%
%TO.N,Net-(D43-A)*%
X208153000Y-124333000D03*
%TD*%
D15*
%TO.P,D35,1,K*%
%TO.N,row2*%
X235711498Y-105290250D03*
%TO.P,D35,2,A*%
%TO.N,Net-(D35-A)*%
X235711498Y-101990250D03*
%TD*%
%TO.P,D46,1,K*%
%TO.N,row3*%
X309530248Y-124402750D03*
%TO.P,D46,2,A*%
%TO.N,Net-(D46-A)*%
X309530248Y-121102750D03*
%TD*%
%TO.P,D21,1,K*%
%TO.N,row1*%
X207136498Y-86302750D03*
%TO.P,D21,2,A*%
%TO.N,Net-(D21-A)*%
X207136498Y-83002750D03*
%TD*%
%TO.P,D15,1,K*%
%TO.N,row1*%
X85692748Y-86240250D03*
%TO.P,D15,2,A*%
%TO.N,Net-(D15-A)*%
X85692748Y-82940250D03*
%TD*%
D18*
%TO.P,C3,1*%
%TO.N,+5V*%
X185039000Y-112080000D03*
%TO.P,C3,2*%
%TO.N,GND*%
X185039000Y-113980000D03*
%TD*%
D15*
%TO.P,D41,1,K*%
%TO.N,row3*%
X142842748Y-124340250D03*
%TO.P,D41,2,A*%
%TO.N,Net-(D41-A)*%
X142842748Y-121040250D03*
%TD*%
%TO.P,D39,1,K*%
%TO.N,row2*%
X328580248Y-105290250D03*
%TO.P,D39,2,A*%
%TO.N,Net-(D39-A)*%
X328580248Y-101990250D03*
%TD*%
%TO.P,D2,1,K*%
%TO.N,row0*%
X107123998Y-67190250D03*
%TO.P,D2,2,A*%
%TO.N,Net-(D2-A)*%
X107123998Y-63890250D03*
%TD*%
%TO.P,D9,1,K*%
%TO.N,row0*%
X240473998Y-67252750D03*
%TO.P,D9,2,A*%
%TO.N,Net-(D9-A)*%
X240473998Y-63952750D03*
%TD*%
%TO.P,D19,1,K*%
%TO.N,row1*%
X169036498Y-86302750D03*
%TO.P,D19,2,A*%
%TO.N,Net-(D19-A)*%
X169036498Y-83002750D03*
%TD*%
%TO.P,D11,1,K*%
%TO.N,row0*%
X278573998Y-67252750D03*
%TO.P,D11,2,A*%
%TO.N,Net-(D11-A)*%
X278573998Y-63952750D03*
%TD*%
%TO.P,D12,1,K*%
%TO.N,row0*%
X297623998Y-67252750D03*
%TO.P,D12,2,A*%
%TO.N,Net-(D12-A)*%
X297623998Y-63952750D03*
%TD*%
%TO.P,D27,1,K*%
%TO.N,row1*%
X332994000Y-86296500D03*
%TO.P,D27,2,A*%
%TO.N,Net-(D27-A)*%
X332994000Y-82996500D03*
%TD*%
%TO.P,D16,1,K*%
%TO.N,row1*%
X111886498Y-86302750D03*
%TO.P,D16,2,A*%
%TO.N,Net-(D16-A)*%
X111886498Y-83002750D03*
%TD*%
%TO.P,D33,1,K*%
%TO.N,row2*%
X197611498Y-105352750D03*
%TO.P,D33,2,A*%
%TO.N,Net-(D33-A)*%
X197611498Y-102052750D03*
%TD*%
%TO.P,D22,1,K*%
%TO.N,row1*%
X226186498Y-86302750D03*
%TO.P,D22,2,A*%
%TO.N,Net-(D22-A)*%
X226186498Y-83002750D03*
%TD*%
%TO.P,D8,1,K*%
%TO.N,row0*%
X221423998Y-67252750D03*
%TO.P,D8,2,A*%
%TO.N,Net-(D8-A)*%
X221423998Y-63952750D03*
%TD*%
%TO.P,D37,1,K*%
%TO.N,row2*%
X273811498Y-105352750D03*
%TO.P,D37,2,A*%
%TO.N,Net-(D37-A)*%
X273811498Y-102052750D03*
%TD*%
%TO.P,D44,1,K*%
%TO.N,row3*%
X261905248Y-124340250D03*
%TO.P,D44,2,A*%
%TO.N,Net-(D44-A)*%
X261905248Y-121040250D03*
%TD*%
%TO.P,D24,1,K*%
%TO.N,row1*%
X264286498Y-86302750D03*
%TO.P,D24,2,A*%
%TO.N,Net-(D24-A)*%
X264286498Y-83002750D03*
%TD*%
D19*
%TO.P,SW1,1,1*%
%TO.N,GND*%
X240356000Y-120575000D03*
%TO.P,SW1,2,2*%
%TO.N,Net-(U1-~{RESET})*%
X236656000Y-114375000D03*
%TO.P,SW1,3*%
%TO.N,N/C*%
X236656000Y-120575000D03*
%TO.P,SW1,4*%
X240356000Y-114375000D03*
%TD*%
D16*
%TO.P,C7,1*%
%TO.N,GND*%
X216342000Y-113538000D03*
%TO.P,C7,2*%
%TO.N,Net-(U1-XTAL2)*%
X214442000Y-113538000D03*
%TD*%
D15*
%TO.P,D20,1,K*%
%TO.N,row1*%
X188086498Y-86302750D03*
%TO.P,D20,2,A*%
%TO.N,Net-(D20-A)*%
X188086498Y-83002750D03*
%TD*%
D16*
%TO.P,C1,1*%
%TO.N,Net-(U1-UCAP)*%
X194371000Y-108331000D03*
%TO.P,C1,2*%
%TO.N,GND*%
X192471000Y-108331000D03*
%TD*%
D20*
%TO.P,R4,1*%
%TO.N,+5V*%
X232386500Y-114173000D03*
%TO.P,R4,2*%
%TO.N,Net-(U1-~{RESET})*%
X234211500Y-114173000D03*
%TD*%
D21*
%TO.P,R3,1*%
%TO.N,D-*%
X195072000Y-94845500D03*
%TO.P,R3,2*%
%TO.N,Net-(U1-D-)*%
X195072000Y-96670500D03*
%TD*%
D15*
%TO.P,D23,1,K*%
%TO.N,row1*%
X245236498Y-86302750D03*
%TO.P,D23,2,A*%
%TO.N,Net-(D23-A)*%
X245236498Y-83002750D03*
%TD*%
D22*
%TO.P,C4,1*%
%TO.N,+5V*%
X196535000Y-125222000D03*
%TO.P,C4,2*%
%TO.N,GND*%
X198435000Y-125222000D03*
%TD*%
D15*
%TO.P,D7,1,K*%
%TO.N,row0*%
X202373998Y-67252750D03*
%TO.P,D7,2,A*%
%TO.N,Net-(D7-A)*%
X202373998Y-63952750D03*
%TD*%
D23*
%TO.P,R1,1*%
%TO.N,Net-(U1-~{HWB}{slash}PE2)*%
X189380500Y-125222000D03*
%TO.P,R1,2*%
%TO.N,GND*%
X187555500Y-125222000D03*
%TD*%
D18*
%TO.P,C2,1*%
%TO.N,+5V*%
X207518000Y-110495000D03*
%TO.P,C2,2*%
%TO.N,GND*%
X207518000Y-112395000D03*
%TD*%
D15*
%TO.P,D31,1,K*%
%TO.N,row2*%
X159511498Y-105290250D03*
%TO.P,D31,2,A*%
%TO.N,Net-(D31-A)*%
X159511498Y-101990250D03*
%TD*%
%TO.P,D10,1,K*%
%TO.N,row0*%
X259523998Y-67252750D03*
%TO.P,D10,2,A*%
%TO.N,Net-(D10-A)*%
X259523998Y-63952750D03*
%TD*%
%TO.P,D32,1,K*%
%TO.N,row2*%
X178561498Y-105290250D03*
%TO.P,D32,2,A*%
%TO.N,Net-(D32-A)*%
X178561498Y-101990250D03*
%TD*%
D21*
%TO.P,R2,1*%
%TO.N,D+*%
X197231000Y-94869000D03*
%TO.P,R2,2*%
%TO.N,Net-(U1-D+)*%
X197231000Y-96694000D03*
%TD*%
D15*
%TO.P,D6,1,K*%
%TO.N,row0*%
X183323998Y-67252750D03*
%TO.P,D6,2,A*%
%TO.N,Net-(D6-A)*%
X183323998Y-63952750D03*
%TD*%
%TO.P,D17,1,K*%
%TO.N,row1*%
X130936498Y-86302750D03*
%TO.P,D17,2,A*%
%TO.N,Net-(D17-A)*%
X130936498Y-83002750D03*
%TD*%
D17*
%TO.P,D42,1,K*%
%TO.N,row3*%
X160401000Y-121033000D03*
%TO.P,D42,2,A*%
%TO.N,Net-(D42-A)*%
X160401000Y-124333000D03*
%TD*%
D15*
%TO.P,D34,1,K*%
%TO.N,row2*%
X216661498Y-105352750D03*
%TO.P,D34,2,A*%
%TO.N,Net-(D34-A)*%
X216661498Y-102052750D03*
%TD*%
%TO.P,D26,1,K*%
%TO.N,row1*%
X302386498Y-86302750D03*
%TO.P,D26,2,A*%
%TO.N,Net-(D26-A)*%
X302386498Y-83002750D03*
%TD*%
D16*
%TO.P,C5,1*%
%TO.N,+5V*%
X185166000Y-121285000D03*
%TO.P,C5,2*%
%TO.N,GND*%
X183266000Y-121285000D03*
%TD*%
D24*
%TO.P,Y1,1,1*%
%TO.N,Net-(U1-XTAL1)*%
X210478000Y-118321000D03*
%TO.P,Y1,2,2*%
%TO.N,GND*%
X210478000Y-116121000D03*
%TO.P,Y1,3,3*%
%TO.N,Net-(U1-XTAL2)*%
X212178000Y-116121000D03*
%TO.P,Y1,4,4*%
%TO.N,GND*%
X212178000Y-118321000D03*
%TD*%
D25*
%TO.P,J1,1,Pin_1*%
%TO.N,+5V*%
X199676000Y-91972000D03*
%TO.P,J1,2,Pin_2*%
%TO.N,D-*%
X199676000Y-92972000D03*
%TO.P,J1,3,Pin_3*%
%TO.N,D+*%
X199676000Y-93972000D03*
%TO.P,J1,4,Pin_4*%
%TO.N,GND*%
X199676000Y-94972000D03*
D26*
%TO.P,J1,MP*%
%TO.N,N/C*%
X203551000Y-90672000D03*
X203551000Y-96272000D03*
%TD*%
D27*
%TO.P,U1,1,PE6*%
%TO.N,unconnected-(U1-PE6-Pad1)*%
X189294000Y-111552750D03*
%TO.P,U1,2,UVCC*%
%TO.N,+5V*%
X190094000Y-111552750D03*
%TO.P,U1,3,D-*%
%TO.N,Net-(U1-D-)*%
X190894000Y-111552750D03*
%TO.P,U1,4,D+*%
%TO.N,Net-(U1-D+)*%
X191694000Y-111552750D03*
%TO.P,U1,5,UGND*%
%TO.N,GND*%
X192494000Y-111552750D03*
%TO.P,U1,6,UCAP*%
%TO.N,Net-(U1-UCAP)*%
X193294000Y-111552750D03*
%TO.P,U1,7,VBUS*%
%TO.N,+5V*%
X194094000Y-111552750D03*
%TO.P,U1,8,PB0*%
%TO.N,row2*%
X194894000Y-111552750D03*
%TO.P,U1,9,PB1*%
%TO.N,row1*%
X195694000Y-111552750D03*
%TO.P,U1,10,PB2*%
%TO.N,row0*%
X196494000Y-111552750D03*
%TO.P,U1,11,PB3*%
%TO.N,row3*%
X197294000Y-111552750D03*
D28*
%TO.P,U1,12,PB7*%
%TO.N,unconnected-(U1-PB7-Pad12)*%
X198994000Y-113252750D03*
%TO.P,U1,13,~{RESET}*%
%TO.N,Net-(U1-~{RESET})*%
X198994000Y-114052750D03*
%TO.P,U1,14,VCC*%
%TO.N,+5V*%
X198994000Y-114852750D03*
%TO.P,U1,15,GND*%
%TO.N,GND*%
X198994000Y-115652750D03*
%TO.P,U1,16,XTAL2*%
%TO.N,Net-(U1-XTAL2)*%
X198994000Y-116452750D03*
%TO.P,U1,17,XTAL1*%
%TO.N,Net-(U1-XTAL1)*%
X198994000Y-117252750D03*
%TO.P,U1,18,PD0*%
%TO.N,unconnected-(U1-PD0-Pad18)*%
X198994000Y-118052750D03*
%TO.P,U1,19,PD1*%
%TO.N,unconnected-(U1-PD1-Pad19)*%
X198994000Y-118852750D03*
%TO.P,U1,20,PD2*%
%TO.N,unconnected-(U1-PD2-Pad20)*%
X198994000Y-119652750D03*
%TO.P,U1,21,PD3*%
%TO.N,unconnected-(U1-PD3-Pad21)*%
X198994000Y-120452750D03*
%TO.P,U1,22,PD5*%
%TO.N,unconnected-(U1-PD5-Pad22)*%
X198994000Y-121252750D03*
D27*
%TO.P,U1,23,GND*%
%TO.N,GND*%
X197294000Y-122952750D03*
%TO.P,U1,24,AVCC*%
%TO.N,+5V*%
X196494000Y-122952750D03*
%TO.P,U1,25,PD4*%
%TO.N,unconnected-(U1-PD4-Pad25)*%
X195694000Y-122952750D03*
%TO.P,U1,26,PD6*%
%TO.N,col7*%
X194894000Y-122952750D03*
%TO.P,U1,27,PD7*%
%TO.N,col8*%
X194094000Y-122952750D03*
%TO.P,U1,28,PB4*%
%TO.N,col9*%
X193294000Y-122952750D03*
%TO.P,U1,29,PB5*%
%TO.N,col10*%
X192494000Y-122952750D03*
%TO.P,U1,30,PB6*%
%TO.N,col11*%
X191694000Y-122952750D03*
%TO.P,U1,31,PC6*%
%TO.N,col12*%
X190894000Y-122952750D03*
%TO.P,U1,32,PC7*%
%TO.N,col6*%
X190094000Y-122952750D03*
%TO.P,U1,33,~{HWB}/PE2*%
%TO.N,Net-(U1-~{HWB}{slash}PE2)*%
X189294000Y-122952750D03*
D28*
%TO.P,U1,34,VCC*%
%TO.N,+5V*%
X187594000Y-121252750D03*
%TO.P,U1,35,GND*%
%TO.N,GND*%
X187594000Y-120452750D03*
%TO.P,U1,36,PF7*%
%TO.N,col5*%
X187594000Y-119652750D03*
%TO.P,U1,37,PF6*%
%TO.N,col0*%
X187594000Y-118852750D03*
%TO.P,U1,38,PF5*%
%TO.N,col1*%
X187594000Y-118052750D03*
%TO.P,U1,39,PF4*%
%TO.N,col2*%
X187594000Y-117252750D03*
%TO.P,U1,40,PF1*%
%TO.N,col3*%
X187594000Y-116452750D03*
%TO.P,U1,41,PF0*%
%TO.N,col4*%
X187594000Y-115652750D03*
%TO.P,U1,42,AREF*%
%TO.N,unconnected-(U1-AREF-Pad42)*%
X187594000Y-114852750D03*
%TO.P,U1,43,GND*%
%TO.N,GND*%
X187594000Y-114052750D03*
%TO.P,U1,44,AVCC*%
%TO.N,+5V*%
X187594000Y-113252750D03*
%TD*%
D15*
%TO.P,D40,1,K*%
%TO.N,row3*%
X119030248Y-124340250D03*
%TO.P,D40,2,A*%
%TO.N,Net-(D40-A)*%
X119030248Y-121040250D03*
%TD*%
D29*
%TO.N,GND*%
X201422000Y-102108000D03*
X207137000Y-114935000D03*
%TO.N,+5V*%
X197505546Y-98638026D03*
X184277000Y-124841000D03*
X195580000Y-107950000D03*
X188722000Y-109855000D03*
X195326000Y-127000000D03*
X183261000Y-112014000D03*
%TO.N,row2*%
X193802000Y-106426000D03*
X187452000Y-106426000D03*
%TO.N,Net-(D33-A)*%
X194310000Y-99314000D03*
X197358000Y-100838000D03*
%TO.N,col2*%
X109663998Y-108331000D03*
%TO.N,col3*%
X128713998Y-108204000D03*
%TO.N,col4*%
X147828000Y-108331000D03*
%TO.N,col6*%
X190500000Y-127381000D03*
%TO.N,col7*%
X201295000Y-124730497D03*
%TO.N,col8*%
X201295000Y-125730000D03*
%TO.N,col9*%
X197612000Y-128592494D03*
%TO.N,col10*%
X195251993Y-129591997D03*
%TO.N,col11*%
X194840774Y-130565945D03*
%TO.N,col12*%
X194182752Y-131318283D03*
%TO.N,Net-(U1-~{RESET})*%
X200787000Y-111760000D03*
X222504000Y-118872000D03*
X204851000Y-119634000D03*
X225044000Y-118872000D03*
X234188000Y-117221000D03*
X208280000Y-119634000D03*
%TD*%
D30*
%TO.N,Net-(U1-UCAP)*%
X193298000Y-111548750D02*
X193294000Y-111552750D01*
X193298000Y-108835000D02*
X193298000Y-111548750D01*
X193802000Y-108331000D02*
X193298000Y-108835000D01*
X194371000Y-108331000D02*
X193802000Y-108331000D01*
D31*
%TO.N,GND*%
X240356000Y-120575000D02*
X237741000Y-123190000D01*
X197294000Y-122952750D02*
X197294000Y-124081000D01*
X231775000Y-123190000D02*
X225425000Y-116840000D01*
X214249000Y-115316000D02*
X213168500Y-116396500D01*
X188734500Y-121706250D02*
X188734500Y-120662500D01*
X214249000Y-115316000D02*
X214691000Y-115316000D01*
X187555500Y-125222000D02*
X187555500Y-122885250D01*
X200125000Y-115652750D02*
X201810750Y-117338500D01*
X187521250Y-113980000D02*
X187594000Y-114052750D01*
X214787500Y-115412500D02*
X216342000Y-116967000D01*
X195463000Y-119990750D02*
X195463000Y-115652750D01*
X214787500Y-115412500D02*
X214787500Y-115092500D01*
X185681304Y-120169500D02*
X184381500Y-120169500D01*
X197294000Y-122952750D02*
X197294000Y-121821750D01*
X237741000Y-123190000D02*
X231775000Y-123190000D01*
X199136000Y-97820144D02*
X199136000Y-95512000D01*
X197294000Y-121821750D02*
X195463000Y-119990750D01*
X207557644Y-117338500D02*
X208524500Y-116371644D01*
X185964554Y-120452750D02*
X185681304Y-120169500D01*
X208524500Y-116371644D02*
X208524500Y-114847644D01*
X192494000Y-112683750D02*
X193892625Y-114082375D01*
X185039000Y-113980000D02*
X187521250Y-113980000D01*
X201422000Y-100106144D02*
X199136000Y-97820144D01*
X201422000Y-102108000D02*
X201422000Y-100106144D01*
X210478000Y-116121000D02*
X210478000Y-116380500D01*
X207137000Y-114935000D02*
X208437144Y-114935000D01*
X195463000Y-115652750D02*
X198994000Y-115652750D01*
X210478000Y-116380500D02*
X212178000Y-118080500D01*
X188734500Y-120662500D02*
X189406250Y-119990750D01*
X199136000Y-95512000D02*
X199676000Y-94972000D01*
X193863000Y-114052750D02*
X193892625Y-114082375D01*
X193892625Y-114082375D02*
X195463000Y-115652750D01*
X207518000Y-112395000D02*
X208524500Y-113401500D01*
X184381500Y-120169500D02*
X183266000Y-121285000D01*
X208437144Y-114935000D02*
X208524500Y-114847644D01*
X213168500Y-117330500D02*
X212178000Y-118321000D01*
X208524500Y-114847644D02*
X210949644Y-112422500D01*
X187594000Y-120452750D02*
X185964554Y-120452750D01*
X214787500Y-115092500D02*
X216342000Y-113538000D01*
X201810750Y-117338500D02*
X207557644Y-117338500D01*
X210949644Y-112422500D02*
X215226500Y-112422500D01*
X192471000Y-111529750D02*
X192494000Y-111552750D01*
X192471000Y-108331000D02*
X192471000Y-111529750D01*
X197294000Y-124081000D02*
X198435000Y-125222000D01*
X212178000Y-118080500D02*
X212178000Y-118321000D01*
X189406250Y-119990750D02*
X195463000Y-119990750D01*
X215226500Y-112422500D02*
X216342000Y-113538000D01*
X188524750Y-120452750D02*
X187594000Y-120452750D01*
X208524500Y-113401500D02*
X208524500Y-114847644D01*
X188734500Y-120662500D02*
X188524750Y-120452750D01*
X192494000Y-111552750D02*
X192494000Y-112683750D01*
X198994000Y-115652750D02*
X200125000Y-115652750D01*
X225425000Y-116840000D02*
X216342000Y-116840000D01*
X187555500Y-122885250D02*
X188734500Y-121706250D01*
X214691000Y-115316000D02*
X214787500Y-115412500D01*
X213168500Y-116396500D02*
X213168500Y-117330500D01*
X187594000Y-114052750D02*
X193863000Y-114052750D01*
%TO.N,+5V*%
X194094000Y-112683750D02*
X194094000Y-111552750D01*
X190094000Y-111552750D02*
X190094000Y-112683750D01*
X203195000Y-110495000D02*
X207518000Y-110495000D01*
X190094000Y-110421750D02*
X189527250Y-109855000D01*
X190094000Y-111552750D02*
X190094000Y-110421750D01*
X201304500Y-113478106D02*
X201304500Y-112385500D01*
X196263000Y-114852750D02*
X194094000Y-112683750D01*
X197505546Y-98638026D02*
X197304474Y-98436954D01*
X195580000Y-108935750D02*
X194094000Y-110421750D01*
X195220150Y-98436954D02*
X193981500Y-97198304D01*
X187594000Y-113252750D02*
X186211750Y-113252750D01*
X185166000Y-121285000D02*
X187561750Y-121285000D01*
X197304474Y-98436954D02*
X195220150Y-98436954D01*
X196327196Y-91972000D02*
X199676000Y-91972000D01*
X196494000Y-125181000D02*
X196535000Y-125222000D01*
X196140223Y-92158973D02*
X196327196Y-91972000D01*
X227076000Y-117475000D02*
X221234000Y-111633000D01*
X186211750Y-113252750D02*
X185039000Y-112080000D01*
X208656000Y-111633000D02*
X207518000Y-110495000D01*
X232386500Y-114173000D02*
X229084500Y-117475000D01*
X194094000Y-110421750D02*
X194094000Y-111552750D01*
X184277000Y-122174000D02*
X184277000Y-124841000D01*
X185039000Y-112080000D02*
X183327000Y-112080000D01*
X183327000Y-112080000D02*
X183261000Y-112014000D01*
X189527250Y-109855000D02*
X188722000Y-109855000D01*
X229084500Y-117475000D02*
X227076000Y-117475000D01*
X198994000Y-114852750D02*
X196263000Y-114852750D01*
X189525000Y-113252750D02*
X187594000Y-113252750D01*
X185420000Y-109855000D02*
X188722000Y-109855000D01*
X196535000Y-125791000D02*
X195326000Y-127000000D01*
X195580000Y-107950000D02*
X195580000Y-108935750D01*
X221234000Y-111633000D02*
X208656000Y-111633000D01*
X187561750Y-121285000D02*
X187594000Y-121252750D01*
X185166000Y-121285000D02*
X184277000Y-122174000D01*
X198994000Y-114852750D02*
X199929856Y-114852750D01*
X196494000Y-122952750D02*
X196494000Y-125181000D01*
X199929856Y-114852750D02*
X201304500Y-113478106D01*
X201304500Y-112385500D02*
X203195000Y-110495000D01*
X183261000Y-112014000D02*
X185420000Y-109855000D01*
X190094000Y-112683750D02*
X189525000Y-113252750D01*
X196535000Y-125222000D02*
X196535000Y-125791000D01*
X193981500Y-94317696D02*
X196140223Y-92158973D01*
X193981500Y-97198304D02*
X193981500Y-94317696D01*
D30*
%TO.N,Net-(U1-XTAL1)*%
X198994000Y-117252750D02*
X199929750Y-117252750D01*
X210947000Y-120015000D02*
X210478000Y-119546000D01*
X214442000Y-119441000D02*
X213868000Y-120015000D01*
X200998000Y-118321000D02*
X210478000Y-118321000D01*
X210478000Y-119546000D02*
X210478000Y-118321000D01*
X199929750Y-117252750D02*
X200998000Y-118321000D01*
X214442000Y-116840000D02*
X214442000Y-119441000D01*
X213868000Y-120015000D02*
X210947000Y-120015000D01*
%TO.N,Net-(U1-XTAL2)*%
X214442000Y-113857000D02*
X212178000Y-116121000D01*
X211219000Y-115062000D02*
X212178000Y-116021000D01*
X199771802Y-116452750D02*
X201175052Y-117856000D01*
X209042000Y-116586000D02*
X209042000Y-115062000D01*
X212178000Y-116021000D02*
X212178000Y-116121000D01*
X201175052Y-117856000D02*
X207772000Y-117856000D01*
X198994000Y-116452750D02*
X199771802Y-116452750D01*
X214442000Y-113538000D02*
X214442000Y-113857000D01*
X207772000Y-117856000D02*
X209042000Y-116586000D01*
X209042000Y-115062000D02*
X211219000Y-115062000D01*
%TO.N,row0*%
X334899000Y-77423578D02*
X326264171Y-68788749D01*
X165728248Y-68707000D02*
X181869748Y-68707000D01*
X126173998Y-67127750D02*
X127753248Y-68707000D01*
X226822000Y-109020000D02*
X227438000Y-108404000D01*
X164273998Y-67252750D02*
X165728248Y-68707000D01*
X108640748Y-68707000D02*
X124594748Y-68707000D01*
X202373998Y-67252750D02*
X203574248Y-68453000D01*
X83311498Y-67190250D02*
X85082248Y-68961000D01*
X105664000Y-68961000D02*
X107123998Y-67501002D01*
X222751248Y-68580000D02*
X239146748Y-68580000D01*
X127753248Y-68707000D02*
X143707248Y-68707000D01*
X162819748Y-68707000D02*
X164273998Y-67252750D01*
X198147750Y-109020000D02*
X226822000Y-109020000D01*
X107123998Y-67501002D02*
X107123998Y-67190250D01*
X278573998Y-67252750D02*
X280155248Y-68834000D01*
X143707248Y-68707000D02*
X145223998Y-67190250D01*
X221423998Y-67252750D02*
X222751248Y-68580000D01*
X85082248Y-68961000D02*
X105664000Y-68961000D01*
X196494000Y-110673750D02*
X198147750Y-109020000D01*
X299205248Y-68834000D02*
X314361498Y-68834000D01*
X124594748Y-68707000D02*
X126173998Y-67127750D01*
X183323998Y-67252750D02*
X184778248Y-68707000D01*
X181869748Y-68707000D02*
X183323998Y-67252750D01*
X240473998Y-67252750D02*
X241928248Y-68707000D01*
X297623998Y-67252750D02*
X299205248Y-68834000D01*
X227438000Y-108404000D02*
X328610053Y-108404000D01*
X296042748Y-68834000D02*
X297623998Y-67252750D01*
X196494000Y-111552750D02*
X196494000Y-110673750D01*
X314406749Y-68788749D02*
X315880248Y-67315250D01*
X258069748Y-68707000D02*
X259523998Y-67252750D01*
X200919748Y-68707000D02*
X202373998Y-67252750D01*
X328610053Y-108404000D02*
X334899000Y-102115052D01*
X220223748Y-68453000D02*
X221423998Y-67252750D01*
X107123998Y-67190250D02*
X108640748Y-68707000D01*
X314361498Y-68834000D02*
X314406749Y-68788749D01*
X239146748Y-68580000D02*
X240473998Y-67252750D01*
X145223998Y-67190250D02*
X146740748Y-68707000D01*
X261105248Y-68834000D02*
X276992748Y-68834000D01*
X184778248Y-68707000D02*
X200919748Y-68707000D01*
X146740748Y-68707000D02*
X162819748Y-68707000D01*
X241928248Y-68707000D02*
X258069748Y-68707000D01*
X203574248Y-68453000D02*
X220223748Y-68453000D01*
X276992748Y-68834000D02*
X278573998Y-67252750D01*
X259523998Y-67252750D02*
X261105248Y-68834000D01*
X334899000Y-102115052D02*
X334899000Y-77423578D01*
X326264171Y-68788749D02*
X314406749Y-68788749D01*
X280155248Y-68834000D02*
X296042748Y-68834000D01*
%TO.N,Net-(D1-A)*%
X77873998Y-61102750D02*
X80523998Y-61102750D01*
X80523998Y-61102750D02*
X83311498Y-63890250D01*
%TO.N,Net-(D2-A)*%
X104336498Y-61102750D02*
X107123998Y-63890250D01*
X101686498Y-61102750D02*
X104336498Y-61102750D01*
%TO.N,Net-(D3-A)*%
X123448998Y-61102750D02*
X126173998Y-63827750D01*
X120736498Y-61102750D02*
X123448998Y-61102750D01*
%TO.N,Net-(D4-A)*%
X139786498Y-61102750D02*
X142436498Y-61102750D01*
X142436498Y-61102750D02*
X145223998Y-63890250D01*
%TO.N,Net-(D5-A)*%
X161423998Y-61102750D02*
X164273998Y-63952750D01*
X158836498Y-61102750D02*
X161423998Y-61102750D01*
%TO.N,Net-(D6-A)*%
X180473998Y-61102750D02*
X183323998Y-63952750D01*
X177886498Y-61102750D02*
X180473998Y-61102750D01*
%TO.N,Net-(D7-A)*%
X196936498Y-61102750D02*
X199523998Y-61102750D01*
X199523998Y-61102750D02*
X202373998Y-63952750D01*
%TO.N,Net-(D8-A)*%
X218573998Y-61102750D02*
X221423998Y-63952750D01*
X215986498Y-61102750D02*
X218573998Y-61102750D01*
%TO.N,Net-(D9-A)*%
X235036498Y-61102750D02*
X237623998Y-61102750D01*
X237623998Y-61102750D02*
X240473998Y-63952750D01*
%TO.N,Net-(D10-A)*%
X256673998Y-61102750D02*
X259523998Y-63952750D01*
X254086498Y-61102750D02*
X256673998Y-61102750D01*
%TO.N,Net-(D11-A)*%
X275723998Y-61102750D02*
X278573998Y-63952750D01*
X273136498Y-61102750D02*
X275723998Y-61102750D01*
%TO.N,Net-(D12-A)*%
X292186498Y-61102750D02*
X294773998Y-61102750D01*
X294773998Y-61102750D02*
X297623998Y-63952750D01*
%TO.N,Net-(D13-A)*%
X311236498Y-61102750D02*
X312967748Y-61102750D01*
X312967748Y-61102750D02*
X315880248Y-64015250D01*
%TO.N,row3*%
X119030248Y-124340250D02*
X119030248Y-124491248D01*
X199372750Y-109474000D02*
X208788000Y-109474000D01*
X165481000Y-122936000D02*
X163578000Y-121033000D01*
X193421000Y-131572000D02*
X188722000Y-126873000D01*
X139801998Y-127381000D02*
X142842748Y-124340250D01*
X208788000Y-109474000D02*
X210058000Y-110744000D01*
X169926000Y-128778000D02*
X165481000Y-124333000D01*
X210058000Y-110744000D02*
X255778000Y-110744000D01*
X193421000Y-131584634D02*
X193421000Y-131572000D01*
X264564998Y-127000000D02*
X261905248Y-124340250D01*
X214234539Y-121033000D02*
X214885689Y-120381850D01*
X197294000Y-111552750D02*
X199372750Y-109474000D01*
X165481000Y-124333000D02*
X165481000Y-122936000D01*
X312039000Y-113157000D02*
X312039000Y-121893998D01*
X255778000Y-110744000D02*
X266065000Y-121031000D01*
X172593000Y-128778000D02*
X169926000Y-128778000D01*
X214885689Y-120381850D02*
X228234994Y-120381850D01*
X174498000Y-126873000D02*
X172593000Y-128778000D01*
X197140500Y-132045500D02*
X193881866Y-132045500D01*
X121920000Y-127381000D02*
X139801998Y-127381000D01*
X312039000Y-121893998D02*
X309530248Y-124402750D01*
X119030248Y-124491248D02*
X121920000Y-127381000D01*
X288441998Y-127127000D02*
X285717748Y-124402750D01*
X157093750Y-124340250D02*
X142842748Y-124340250D01*
X306805998Y-127127000D02*
X288441998Y-127127000D01*
X208153000Y-121033000D02*
X197140500Y-132045500D01*
X316103000Y-109093000D02*
X312039000Y-113157000D01*
X233075144Y-125222000D02*
X261023498Y-125222000D01*
X309530248Y-124402750D02*
X306805998Y-127127000D01*
X193881866Y-132045500D02*
X193421000Y-131584634D01*
X266065000Y-127000000D02*
X264564998Y-127000000D01*
X266065000Y-121031000D02*
X266065000Y-127000000D01*
X329564498Y-109093000D02*
X316103000Y-109093000D01*
X228234994Y-120381850D02*
X233075144Y-125222000D01*
X283120498Y-127000000D02*
X266065000Y-127000000D01*
X208153000Y-121033000D02*
X214234539Y-121033000D01*
X340486498Y-67315250D02*
X340486498Y-98171000D01*
X340486498Y-98171000D02*
X329564498Y-109093000D01*
X285717748Y-124402750D02*
X283120498Y-127000000D01*
X163578000Y-121033000D02*
X160401000Y-121033000D01*
X188722000Y-126873000D02*
X174498000Y-126873000D01*
X160401000Y-121033000D02*
X157093750Y-124340250D01*
X261023498Y-125222000D02*
X261905248Y-124340250D01*
%TO.N,Net-(D14-A)*%
X337573998Y-61102750D02*
X340486498Y-64015250D01*
X335048998Y-61102750D02*
X337573998Y-61102750D01*
%TO.N,row1*%
X224224248Y-88265000D02*
X226186498Y-86302750D01*
X264286498Y-86302750D02*
X266121748Y-88138000D01*
X198292750Y-107950000D02*
X195694000Y-110548750D01*
X167074248Y-88265000D02*
X169036498Y-86302750D01*
X129101248Y-88138000D02*
X130936498Y-86302750D01*
X188086498Y-86302750D02*
X189921748Y-88138000D01*
X226186498Y-86302750D02*
X228021748Y-88138000D01*
X283336498Y-86302750D02*
X285298748Y-88265000D01*
X170871748Y-88138000D02*
X186251248Y-88138000D01*
X186251248Y-88138000D02*
X188086498Y-86302750D01*
X329946000Y-88138000D02*
X331152500Y-88138000D01*
X228021748Y-88138000D02*
X243401248Y-88138000D01*
X87590498Y-88138000D02*
X110051248Y-88138000D01*
X328422000Y-107950000D02*
X198292750Y-107950000D01*
X209098748Y-88265000D02*
X224224248Y-88265000D01*
X262451248Y-88138000D02*
X264286498Y-86302750D01*
X332740000Y-100330000D02*
X332740000Y-103632000D01*
X113721748Y-88138000D02*
X129101248Y-88138000D01*
X205301248Y-88138000D02*
X207136498Y-86302750D01*
X266121748Y-88138000D02*
X281501248Y-88138000D01*
X148024248Y-88265000D02*
X149986498Y-86302750D01*
X243401248Y-88138000D02*
X245236498Y-86302750D01*
X130936498Y-86302750D02*
X132898748Y-88265000D01*
X189921748Y-88138000D02*
X205301248Y-88138000D01*
X329946000Y-88138000D02*
X329946000Y-97536000D01*
X149986498Y-86302750D02*
X151948748Y-88265000D01*
X151948748Y-88265000D02*
X167074248Y-88265000D01*
X302386498Y-86302750D02*
X304221748Y-88138000D01*
X110051248Y-88138000D02*
X111886498Y-86302750D01*
X245236498Y-86302750D02*
X247071748Y-88138000D01*
X247071748Y-88138000D02*
X262451248Y-88138000D01*
X332740000Y-103632000D02*
X328422000Y-107950000D01*
X331152500Y-88138000D02*
X332994000Y-86296500D01*
X85692748Y-86240250D02*
X87590498Y-88138000D01*
X300424248Y-88265000D02*
X302386498Y-86302750D01*
X195694000Y-110548750D02*
X195694000Y-111552750D01*
X207136498Y-86302750D02*
X209098748Y-88265000D01*
X285298748Y-88265000D02*
X300424248Y-88265000D01*
X111886498Y-86302750D02*
X113721748Y-88138000D01*
X329946000Y-97536000D02*
X332740000Y-100330000D01*
X304221748Y-88138000D02*
X329946000Y-88138000D01*
X132898748Y-88265000D02*
X148024248Y-88265000D01*
X169036498Y-86302750D02*
X170871748Y-88138000D01*
X281501248Y-88138000D02*
X283336498Y-86302750D01*
%TO.N,Net-(D15-A)*%
X80255248Y-80152750D02*
X82905248Y-80152750D01*
X82905248Y-80152750D02*
X85692748Y-82940250D01*
%TO.N,Net-(D16-A)*%
X109036498Y-80152750D02*
X111886498Y-83002750D01*
X106448998Y-80152750D02*
X109036498Y-80152750D01*
%TO.N,Net-(D17-A)*%
X128086498Y-80152750D02*
X130936498Y-83002750D01*
X125498998Y-80152750D02*
X128086498Y-80152750D01*
%TO.N,Net-(D18-A)*%
X144548998Y-80152750D02*
X147136498Y-80152750D01*
X147136498Y-80152750D02*
X149986498Y-83002750D01*
%TO.N,Net-(D19-A)*%
X163598998Y-80152750D02*
X166186498Y-80152750D01*
X166186498Y-80152750D02*
X169036498Y-83002750D01*
%TO.N,Net-(D20-A)*%
X182648998Y-80152750D02*
X185236498Y-80152750D01*
X185236498Y-80152750D02*
X188086498Y-83002750D01*
%TO.N,Net-(D21-A)*%
X204286498Y-80152750D02*
X207136498Y-83002750D01*
X201698998Y-80152750D02*
X204286498Y-80152750D01*
%TO.N,Net-(D22-A)*%
X220748998Y-80152750D02*
X223336498Y-80152750D01*
X223336498Y-80152750D02*
X226186498Y-83002750D01*
%TO.N,Net-(D23-A)*%
X242386498Y-80152750D02*
X245236498Y-83002750D01*
X239798998Y-80152750D02*
X242386498Y-80152750D01*
%TO.N,Net-(D24-A)*%
X261436498Y-80152750D02*
X264286498Y-83002750D01*
X258848998Y-80152750D02*
X261436498Y-80152750D01*
%TO.N,Net-(D25-A)*%
X280486498Y-80152750D02*
X283336498Y-83002750D01*
X277898998Y-80152750D02*
X280486498Y-80152750D01*
%TO.N,Net-(D26-A)*%
X299536498Y-80152750D02*
X302386498Y-83002750D01*
X296948998Y-80152750D02*
X299536498Y-80152750D01*
%TO.N,Net-(D27-A)*%
X330150250Y-80152750D02*
X332994000Y-82996500D01*
X327905248Y-80152750D02*
X330150250Y-80152750D01*
%TO.N,row2*%
X256342748Y-106934000D02*
X272230248Y-106934000D01*
X161409248Y-107188000D02*
X176663748Y-107188000D01*
X272230248Y-106934000D02*
X273811498Y-105352750D01*
X197611498Y-105352750D02*
X199192748Y-106934000D01*
X193802000Y-106426000D02*
X194564000Y-106426000D01*
X92290498Y-107188000D02*
X119576248Y-107188000D01*
X235711498Y-105290250D02*
X237228248Y-106807000D01*
X234067748Y-106934000D02*
X235711498Y-105290250D01*
X275392748Y-106934000D02*
X291280248Y-106934000D01*
X178561498Y-105290250D02*
X180332248Y-107061000D01*
X237228248Y-106807000D02*
X253307248Y-106807000D01*
X138753248Y-107061000D02*
X140461498Y-105352750D01*
X254761498Y-105352750D02*
X256342748Y-106934000D01*
X157740748Y-107061000D02*
X159511498Y-105290250D01*
X123119748Y-107061000D02*
X138753248Y-107061000D01*
X218242748Y-106934000D02*
X234067748Y-106934000D01*
X194894000Y-110458866D02*
X198418866Y-106934000D01*
X216661498Y-105352750D02*
X218242748Y-106934000D01*
X294442748Y-106934000D02*
X326936498Y-106934000D01*
X90455248Y-105352750D02*
X92290498Y-107188000D01*
X121411498Y-105352750D02*
X123119748Y-107061000D01*
X253307248Y-106807000D02*
X254761498Y-105352750D01*
X176663748Y-107188000D02*
X178561498Y-105290250D01*
X195637250Y-105352750D02*
X197611498Y-105352750D01*
X142169748Y-107061000D02*
X157740748Y-107061000D01*
X119576248Y-107188000D02*
X121411498Y-105352750D01*
X187452000Y-106426000D02*
X186817000Y-107061000D01*
X199192748Y-106934000D02*
X215080248Y-106934000D01*
X326936498Y-106934000D02*
X328580248Y-105290250D01*
X292861498Y-105352750D02*
X294442748Y-106934000D01*
X140461498Y-105352750D02*
X142169748Y-107061000D01*
X186817000Y-107061000D02*
X180332248Y-107061000D01*
X194894000Y-111552750D02*
X194894000Y-110458866D01*
X215080248Y-106934000D02*
X216661498Y-105352750D01*
X198418866Y-106934000D02*
X199192748Y-106934000D01*
X273811498Y-105352750D02*
X275392748Y-106934000D01*
X291280248Y-106934000D02*
X292861498Y-105352750D01*
X194564000Y-106426000D02*
X195637250Y-105352750D01*
X159511498Y-105290250D02*
X161409248Y-107188000D01*
%TO.N,Net-(D28-A)*%
X85017748Y-99202750D02*
X87605248Y-99202750D01*
X87605248Y-99202750D02*
X90455248Y-102052750D01*
%TO.N,Net-(D29-A)*%
X115973998Y-99202750D02*
X118561498Y-99202750D01*
X118561498Y-99202750D02*
X121411498Y-102052750D01*
%TO.N,Net-(D30-A)*%
X135023998Y-99202750D02*
X137611498Y-99202750D01*
X137611498Y-99202750D02*
X140461498Y-102052750D01*
%TO.N,Net-(D31-A)*%
X156723998Y-99202750D02*
X159511498Y-101990250D01*
X154073998Y-99202750D02*
X156723998Y-99202750D01*
%TO.N,Net-(D32-A)*%
X173123998Y-99202750D02*
X175773998Y-99202750D01*
X175773998Y-99202750D02*
X178561498Y-101990250D01*
%TO.N,Net-(D33-A)*%
X197611498Y-102052750D02*
X197611498Y-101091498D01*
X194198750Y-99202750D02*
X194310000Y-99314000D01*
X192173998Y-98662750D02*
X192213998Y-98622750D01*
X192173998Y-99202750D02*
X194198750Y-99202750D01*
X192173998Y-99202750D02*
X192173998Y-98662750D01*
X197611498Y-101091498D02*
X197358000Y-100838000D01*
%TO.N,Net-(D34-A)*%
X213811498Y-99202750D02*
X216661498Y-102052750D01*
X211223998Y-99202750D02*
X213811498Y-99202750D01*
%TO.N,Net-(D35-A)*%
X232923998Y-99202750D02*
X235711498Y-101990250D01*
X230273998Y-99202750D02*
X232923998Y-99202750D01*
%TO.N,Net-(D36-A)*%
X251911498Y-99202750D02*
X254761498Y-102052750D01*
X249323998Y-99202750D02*
X251911498Y-99202750D01*
%TO.N,Net-(D37-A)*%
X268373998Y-99202750D02*
X270961498Y-99202750D01*
X270961498Y-99202750D02*
X273811498Y-102052750D01*
%TO.N,Net-(D38-A)*%
X290011498Y-99202750D02*
X292861498Y-102052750D01*
X287423998Y-99202750D02*
X290011498Y-99202750D01*
%TO.N,Net-(D39-A)*%
X323142748Y-99202750D02*
X325792748Y-99202750D01*
X325792748Y-99202750D02*
X328580248Y-101990250D01*
%TO.N,Net-(D40-A)*%
X113592748Y-118252750D02*
X116242748Y-118252750D01*
X116242748Y-118252750D02*
X119030248Y-121040250D01*
%TO.N,Net-(D41-A)*%
X137405248Y-118252750D02*
X140055248Y-118252750D01*
X140055248Y-118252750D02*
X142842748Y-121040250D01*
%TO.N,Net-(D42-A)*%
X163320750Y-127252750D02*
X160401000Y-124333000D01*
X165742748Y-127252750D02*
X163320750Y-127252750D01*
%TO.N,Net-(D43-A)*%
X213367748Y-127252750D02*
X211072750Y-127252750D01*
X211072750Y-127252750D02*
X208153000Y-124333000D01*
%TO.N,Net-(D44-A)*%
X256467748Y-118252750D02*
X259117748Y-118252750D01*
X259117748Y-118252750D02*
X261905248Y-121040250D01*
%TO.N,Net-(D45-A)*%
X282867748Y-118252750D02*
X285717748Y-121102750D01*
X280280248Y-118252750D02*
X282867748Y-118252750D01*
%TO.N,Net-(D46-A)*%
X304092748Y-118252750D02*
X306680248Y-118252750D01*
X306680248Y-118252750D02*
X309530248Y-121102750D01*
D32*
%TO.N,D-*%
X199576000Y-92872000D02*
X199676000Y-92972000D01*
X195072000Y-94845500D02*
X197045500Y-92872000D01*
X197045500Y-92872000D02*
X199576000Y-92872000D01*
%TO.N,D+*%
X199576000Y-94072000D02*
X199676000Y-93972000D01*
X197998500Y-94072000D02*
X197331250Y-94739250D01*
X197998500Y-94072000D02*
X199576000Y-94072000D01*
D30*
%TO.N,col0*%
X169037000Y-110744000D02*
X177145750Y-118852750D01*
X177145750Y-118852750D02*
X187594000Y-118852750D01*
X73945248Y-103155248D02*
X80376850Y-109586850D01*
X100950850Y-109586850D02*
X102108000Y-110744000D01*
X80376850Y-109586850D02*
X100950850Y-109586850D01*
X102108000Y-110744000D02*
X169037000Y-110744000D01*
X73945248Y-82112750D02*
X73945248Y-103155248D01*
%TO.N,col1*%
X78707748Y-104361748D02*
X83404000Y-109058000D01*
X109748945Y-109058000D02*
X110799945Y-110109000D01*
X169164000Y-110109000D02*
X177453750Y-118398750D01*
X177453750Y-118398750D02*
X186147250Y-118398750D01*
X186147250Y-118398750D02*
X186493250Y-118052750D01*
X110799945Y-110109000D02*
X169164000Y-110109000D01*
X83404000Y-109058000D02*
X109748945Y-109058000D01*
X78707748Y-101162750D02*
X78707748Y-104361748D01*
X186493250Y-118052750D02*
X187594000Y-118052750D01*
%TO.N,col2*%
X186023250Y-117252750D02*
X187594000Y-117252750D01*
X177761750Y-117944750D02*
X185331250Y-117944750D01*
X185331250Y-117944750D02*
X186023250Y-117252750D01*
X169418000Y-109601000D02*
X177761750Y-117944750D01*
X109663998Y-108331000D02*
X110933998Y-109601000D01*
X110933998Y-109601000D02*
X169418000Y-109601000D01*
%TO.N,col3*%
X129567998Y-109058000D02*
X169383000Y-109058000D01*
X128713998Y-108204000D02*
X129567998Y-109058000D01*
X177949802Y-117490750D02*
X185143198Y-117490750D01*
X169552052Y-109093000D02*
X177949802Y-117490750D01*
X186181198Y-116452750D02*
X187594000Y-116452750D01*
X185143198Y-117490750D02*
X186181198Y-116452750D01*
X169418000Y-109093000D02*
X169552052Y-109093000D01*
X169383000Y-109058000D02*
X169418000Y-109093000D01*
%TO.N,col4*%
X185123246Y-116868650D02*
X177969754Y-116868650D01*
X177299052Y-116085052D02*
X169545000Y-108331000D01*
X177969754Y-116868650D02*
X177299052Y-116197948D01*
X186339146Y-115652750D02*
X185123246Y-116868650D01*
X187594000Y-115652750D02*
X186339146Y-115652750D01*
X169545000Y-108331000D02*
X147828000Y-108331000D01*
X177299052Y-116197948D02*
X177299052Y-116085052D01*
%TO.N,col5*%
X172593000Y-125222000D02*
X177787999Y-125222000D01*
X177787999Y-125222000D02*
X183357999Y-119652000D01*
X183357999Y-119652000D02*
X187593250Y-119652000D01*
X172522250Y-125292750D02*
X172593000Y-125222000D01*
X187593250Y-119652000D02*
X187594000Y-119652750D01*
X172052748Y-125292750D02*
X172522250Y-125292750D01*
%TO.N,col6*%
X190500000Y-124362750D02*
X190094000Y-123956750D01*
X190094000Y-123956750D02*
X190094000Y-122952750D01*
X190500000Y-127381000D02*
X190500000Y-124362750D01*
%TO.N,col7*%
X194564000Y-127889000D02*
X194548000Y-127873000D01*
X195487929Y-127889000D02*
X194564000Y-127889000D01*
X196238438Y-127138491D02*
X195487929Y-127889000D01*
X194548000Y-124460000D02*
X194894000Y-124114000D01*
X194894000Y-124114000D02*
X194894000Y-122952750D01*
X194548000Y-127873000D02*
X194548000Y-124460000D01*
X198108509Y-127138491D02*
X196238438Y-127138491D01*
X200516503Y-124730497D02*
X198108509Y-127138491D01*
X201295000Y-124730497D02*
X200516503Y-124730497D01*
%TO.N,col8*%
X194094000Y-128181000D02*
X194094000Y-122952750D01*
X199432509Y-127592491D02*
X196426491Y-127592491D01*
X196426491Y-127592491D02*
X195675981Y-128343000D01*
X194256000Y-128343000D02*
X194094000Y-128181000D01*
X201295000Y-125730000D02*
X199432509Y-127592491D01*
X195675981Y-128343000D02*
X194256000Y-128343000D01*
%TO.N,col9*%
X193294000Y-128023052D02*
X193294000Y-122952750D01*
X197407494Y-128797000D02*
X194067948Y-128797000D01*
X194067948Y-128797000D02*
X193294000Y-128023052D01*
X197612000Y-128592494D02*
X197407494Y-128797000D01*
%TO.N,col10*%
X195251993Y-129591997D02*
X194220893Y-129591997D01*
X192494000Y-127865104D02*
X192494000Y-122952750D01*
X194220893Y-129591997D02*
X192494000Y-127865104D01*
%TO.N,col11*%
X194110811Y-130565945D02*
X191694000Y-128149134D01*
X194840774Y-130565945D02*
X194110811Y-130565945D01*
X191694000Y-128149134D02*
X191694000Y-122952750D01*
%TO.N,col12*%
X190954000Y-125831631D02*
X190954000Y-123012750D01*
X191227000Y-128362500D02*
X191227000Y-126104631D01*
X190954000Y-123012750D02*
X190894000Y-122952750D01*
X194182752Y-131318283D02*
X194182752Y-131318252D01*
X194182752Y-131318252D02*
X191227000Y-128362500D01*
X191227000Y-126104631D02*
X190954000Y-125831631D01*
%TO.N,Net-(U1-~{HWB}{slash}PE2)*%
X189294000Y-125135500D02*
X189380500Y-125222000D01*
X189294000Y-122952750D02*
X189294000Y-125135500D01*
%TO.N,Net-(U1-D+)*%
X195901026Y-99889026D02*
X192786000Y-103004052D01*
X192786000Y-105290053D02*
X191262000Y-106814052D01*
X191262000Y-110116750D02*
X191694000Y-110548750D01*
X198441026Y-99889026D02*
X195901026Y-99889026D01*
X192786000Y-103004052D02*
X192786000Y-105290053D01*
X197231000Y-96694000D02*
X197278000Y-96694000D01*
X191262000Y-106814052D02*
X191262000Y-110116750D01*
X197278000Y-96694000D02*
X198882000Y-98298000D01*
X191694000Y-110548750D02*
X191694000Y-111552750D01*
X198882000Y-98298000D02*
X198882000Y-99448052D01*
X198882000Y-99448052D02*
X198441026Y-99889026D01*
%TO.N,Net-(U1-D-)*%
X192278000Y-102870000D02*
X192278000Y-105156000D01*
X190808000Y-111466750D02*
X190894000Y-111552750D01*
X195782974Y-99365026D02*
X192278000Y-102870000D01*
X198374000Y-98479052D02*
X198374000Y-99314000D01*
X196218526Y-97817026D02*
X197711974Y-97817026D01*
X198322974Y-99365026D02*
X195782974Y-99365026D01*
X192278000Y-105156000D02*
X190808000Y-106626000D01*
X190808000Y-106626000D02*
X190808000Y-111466750D01*
X195072000Y-96670500D02*
X196218526Y-97817026D01*
X198374000Y-99314000D02*
X198322974Y-99365026D01*
X197711974Y-97817026D02*
X198374000Y-98479052D01*
%TO.N,Net-(U1-~{RESET})*%
X199998000Y-114052750D02*
X200787000Y-113263750D01*
X200787000Y-113263750D02*
X200787000Y-111760000D01*
X234188000Y-117221000D02*
X234188000Y-114196500D01*
X222504000Y-118872000D02*
X225044000Y-118872000D01*
X198994000Y-114052750D02*
X199998000Y-114052750D01*
X236454000Y-114173000D02*
X236656000Y-114375000D01*
X234188000Y-114196500D02*
X234211500Y-114173000D01*
X204851000Y-119634000D02*
X208280000Y-119634000D01*
X234211500Y-114173000D02*
X236454000Y-114173000D01*
%TD*%
M02*
