%TF.GenerationSoftware,KiCad,Pcbnew,7.0.2*%
%TF.CreationDate,2023-06-06T03:33:47+01:00*%
%TF.ProjectId,45_keyboard,34355f6b-6579-4626-9f61-72642e6b6963,rev?*%
%TF.SameCoordinates,Original*%
%TF.FileFunction,Legend,Bot*%
%TF.FilePolarity,Positive*%
%FSLAX46Y46*%
G04 Gerber Fmt 4.6, Leading zero omitted, Abs format (unit mm)*
G04 Created by KiCad (PCBNEW 7.0.2) date 2023-06-06 03:33:47*
%MOMM*%
%LPD*%
G01*
G04 APERTURE LIST*
G04 Aperture macros list*
%AMRoundRect*
0 Rectangle with rounded corners*
0 $1 Rounding radius*
0 $2 $3 $4 $5 $6 $7 $8 $9 X,Y pos of 4 corners*
0 Add a 4 corners polygon primitive as box body*
4,1,4,$2,$3,$4,$5,$6,$7,$8,$9,$2,$3,0*
0 Add four circle primitives for the rounded corners*
1,1,$1+$1,$2,$3*
1,1,$1+$1,$4,$5*
1,1,$1+$1,$6,$7*
1,1,$1+$1,$8,$9*
0 Add four rect primitives between the rounded corners*
20,1,$1+$1,$2,$3,$4,$5,0*
20,1,$1+$1,$4,$5,$6,$7,0*
20,1,$1+$1,$6,$7,$8,$9,0*
20,1,$1+$1,$8,$9,$2,$3,0*%
%AMHorizOval*
0 Thick line with rounded ends*
0 $1 width*
0 $2 $3 position (X,Y) of the first rounded end (center of the circle)*
0 $4 $5 position (X,Y) of the second rounded end (center of the circle)*
0 Add line between two ends*
20,1,$1,$2,$3,$4,$5,0*
0 Add two circle primitives to create the rounded ends*
1,1,$1,$2,$3*
1,1,$1,$4,$5*%
G04 Aperture macros list end*
%ADD10C,0.150000*%
%ADD11C,0.120000*%
%ADD12C,1.750000*%
%ADD13C,3.987800*%
%ADD14HorizOval,2.250000X0.655001X0.730000X-0.655001X-0.730000X0*%
%ADD15C,2.250000*%
%ADD16HorizOval,2.250000X0.020000X0.290000X-0.020000X-0.290000X0*%
%ADD17C,3.048000*%
%ADD18HorizOval,2.250000X-0.655001X-0.730000X0.655001X0.730000X0*%
%ADD19HorizOval,2.250000X-0.020000X-0.290000X0.020000X0.290000X0*%
%ADD20RoundRect,0.225000X0.375000X-0.225000X0.375000X0.225000X-0.375000X0.225000X-0.375000X-0.225000X0*%
%ADD21RoundRect,0.250000X0.250000X0.475000X-0.250000X0.475000X-0.250000X-0.475000X0.250000X-0.475000X0*%
%ADD22RoundRect,0.225000X-0.375000X0.225000X-0.375000X-0.225000X0.375000X-0.225000X0.375000X0.225000X0*%
%ADD23RoundRect,0.250000X-0.475000X0.250000X-0.475000X-0.250000X0.475000X-0.250000X0.475000X0.250000X0*%
%ADD24R,1.100000X1.800000*%
%ADD25RoundRect,0.250000X-0.262500X-0.450000X0.262500X-0.450000X0.262500X0.450000X-0.262500X0.450000X0*%
%ADD26RoundRect,0.250000X-0.450000X0.262500X-0.450000X-0.262500X0.450000X-0.262500X0.450000X0.262500X0*%
%ADD27RoundRect,0.250000X-0.250000X-0.475000X0.250000X-0.475000X0.250000X0.475000X-0.250000X0.475000X0*%
%ADD28RoundRect,0.250000X0.262500X0.450000X-0.262500X0.450000X-0.262500X-0.450000X0.262500X-0.450000X0*%
%ADD29R,1.200000X1.400000*%
%ADD30RoundRect,0.150000X-0.625000X0.150000X-0.625000X-0.150000X0.625000X-0.150000X0.625000X0.150000X0*%
%ADD31RoundRect,0.250000X-0.650000X0.350000X-0.650000X-0.350000X0.650000X-0.350000X0.650000X0.350000X0*%
%ADD32R,0.550000X1.500000*%
%ADD33R,1.500000X0.550000*%
%ADD34C,0.800000*%
G04 APERTURE END LIST*
D10*
%TO.C,D3*%
X128636617Y-64739655D02*
X127636617Y-64739655D01*
X127636617Y-64739655D02*
X127636617Y-64977750D01*
X127636617Y-64977750D02*
X127684236Y-65120607D01*
X127684236Y-65120607D02*
X127779474Y-65215845D01*
X127779474Y-65215845D02*
X127874712Y-65263464D01*
X127874712Y-65263464D02*
X128065188Y-65311083D01*
X128065188Y-65311083D02*
X128208045Y-65311083D01*
X128208045Y-65311083D02*
X128398521Y-65263464D01*
X128398521Y-65263464D02*
X128493759Y-65215845D01*
X128493759Y-65215845D02*
X128588998Y-65120607D01*
X128588998Y-65120607D02*
X128636617Y-64977750D01*
X128636617Y-64977750D02*
X128636617Y-64739655D01*
X127636617Y-65644417D02*
X127636617Y-66263464D01*
X127636617Y-66263464D02*
X128017569Y-65930131D01*
X128017569Y-65930131D02*
X128017569Y-66072988D01*
X128017569Y-66072988D02*
X128065188Y-66168226D01*
X128065188Y-66168226D02*
X128112807Y-66215845D01*
X128112807Y-66215845D02*
X128208045Y-66263464D01*
X128208045Y-66263464D02*
X128446140Y-66263464D01*
X128446140Y-66263464D02*
X128541378Y-66215845D01*
X128541378Y-66215845D02*
X128588998Y-66168226D01*
X128588998Y-66168226D02*
X128636617Y-66072988D01*
X128636617Y-66072988D02*
X128636617Y-65787274D01*
X128636617Y-65787274D02*
X128588998Y-65692036D01*
X128588998Y-65692036D02*
X128541378Y-65644417D01*
%TO.C,D5*%
X166736617Y-64864655D02*
X165736617Y-64864655D01*
X165736617Y-64864655D02*
X165736617Y-65102750D01*
X165736617Y-65102750D02*
X165784236Y-65245607D01*
X165784236Y-65245607D02*
X165879474Y-65340845D01*
X165879474Y-65340845D02*
X165974712Y-65388464D01*
X165974712Y-65388464D02*
X166165188Y-65436083D01*
X166165188Y-65436083D02*
X166308045Y-65436083D01*
X166308045Y-65436083D02*
X166498521Y-65388464D01*
X166498521Y-65388464D02*
X166593759Y-65340845D01*
X166593759Y-65340845D02*
X166688998Y-65245607D01*
X166688998Y-65245607D02*
X166736617Y-65102750D01*
X166736617Y-65102750D02*
X166736617Y-64864655D01*
X165736617Y-66340845D02*
X165736617Y-65864655D01*
X165736617Y-65864655D02*
X166212807Y-65817036D01*
X166212807Y-65817036D02*
X166165188Y-65864655D01*
X166165188Y-65864655D02*
X166117569Y-65959893D01*
X166117569Y-65959893D02*
X166117569Y-66197988D01*
X166117569Y-66197988D02*
X166165188Y-66293226D01*
X166165188Y-66293226D02*
X166212807Y-66340845D01*
X166212807Y-66340845D02*
X166308045Y-66388464D01*
X166308045Y-66388464D02*
X166546140Y-66388464D01*
X166546140Y-66388464D02*
X166641378Y-66340845D01*
X166641378Y-66340845D02*
X166688998Y-66293226D01*
X166688998Y-66293226D02*
X166736617Y-66197988D01*
X166736617Y-66197988D02*
X166736617Y-65959893D01*
X166736617Y-65959893D02*
X166688998Y-65864655D01*
X166688998Y-65864655D02*
X166641378Y-65817036D01*
%TO.C,D1*%
X85774117Y-64802155D02*
X84774117Y-64802155D01*
X84774117Y-64802155D02*
X84774117Y-65040250D01*
X84774117Y-65040250D02*
X84821736Y-65183107D01*
X84821736Y-65183107D02*
X84916974Y-65278345D01*
X84916974Y-65278345D02*
X85012212Y-65325964D01*
X85012212Y-65325964D02*
X85202688Y-65373583D01*
X85202688Y-65373583D02*
X85345545Y-65373583D01*
X85345545Y-65373583D02*
X85536021Y-65325964D01*
X85536021Y-65325964D02*
X85631259Y-65278345D01*
X85631259Y-65278345D02*
X85726498Y-65183107D01*
X85726498Y-65183107D02*
X85774117Y-65040250D01*
X85774117Y-65040250D02*
X85774117Y-64802155D01*
X85774117Y-66325964D02*
X85774117Y-65754536D01*
X85774117Y-66040250D02*
X84774117Y-66040250D01*
X84774117Y-66040250D02*
X84916974Y-65945012D01*
X84916974Y-65945012D02*
X85012212Y-65849774D01*
X85012212Y-65849774D02*
X85059831Y-65754536D01*
%TO.C,D30*%
X142924117Y-102488464D02*
X141924117Y-102488464D01*
X141924117Y-102488464D02*
X141924117Y-102726559D01*
X141924117Y-102726559D02*
X141971736Y-102869416D01*
X141971736Y-102869416D02*
X142066974Y-102964654D01*
X142066974Y-102964654D02*
X142162212Y-103012273D01*
X142162212Y-103012273D02*
X142352688Y-103059892D01*
X142352688Y-103059892D02*
X142495545Y-103059892D01*
X142495545Y-103059892D02*
X142686021Y-103012273D01*
X142686021Y-103012273D02*
X142781259Y-102964654D01*
X142781259Y-102964654D02*
X142876498Y-102869416D01*
X142876498Y-102869416D02*
X142924117Y-102726559D01*
X142924117Y-102726559D02*
X142924117Y-102488464D01*
X141924117Y-103393226D02*
X141924117Y-104012273D01*
X141924117Y-104012273D02*
X142305069Y-103678940D01*
X142305069Y-103678940D02*
X142305069Y-103821797D01*
X142305069Y-103821797D02*
X142352688Y-103917035D01*
X142352688Y-103917035D02*
X142400307Y-103964654D01*
X142400307Y-103964654D02*
X142495545Y-104012273D01*
X142495545Y-104012273D02*
X142733640Y-104012273D01*
X142733640Y-104012273D02*
X142828878Y-103964654D01*
X142828878Y-103964654D02*
X142876498Y-103917035D01*
X142876498Y-103917035D02*
X142924117Y-103821797D01*
X142924117Y-103821797D02*
X142924117Y-103536083D01*
X142924117Y-103536083D02*
X142876498Y-103440845D01*
X142876498Y-103440845D02*
X142828878Y-103393226D01*
X141924117Y-104631321D02*
X141924117Y-104726559D01*
X141924117Y-104726559D02*
X141971736Y-104821797D01*
X141971736Y-104821797D02*
X142019355Y-104869416D01*
X142019355Y-104869416D02*
X142114593Y-104917035D01*
X142114593Y-104917035D02*
X142305069Y-104964654D01*
X142305069Y-104964654D02*
X142543164Y-104964654D01*
X142543164Y-104964654D02*
X142733640Y-104917035D01*
X142733640Y-104917035D02*
X142828878Y-104869416D01*
X142828878Y-104869416D02*
X142876498Y-104821797D01*
X142876498Y-104821797D02*
X142924117Y-104726559D01*
X142924117Y-104726559D02*
X142924117Y-104631321D01*
X142924117Y-104631321D02*
X142876498Y-104536083D01*
X142876498Y-104536083D02*
X142828878Y-104488464D01*
X142828878Y-104488464D02*
X142733640Y-104440845D01*
X142733640Y-104440845D02*
X142543164Y-104393226D01*
X142543164Y-104393226D02*
X142305069Y-104393226D01*
X142305069Y-104393226D02*
X142114593Y-104440845D01*
X142114593Y-104440845D02*
X142019355Y-104488464D01*
X142019355Y-104488464D02*
X141971736Y-104536083D01*
X141971736Y-104536083D02*
X141924117Y-104631321D01*
%TO.C,D29*%
X123874117Y-102488464D02*
X122874117Y-102488464D01*
X122874117Y-102488464D02*
X122874117Y-102726559D01*
X122874117Y-102726559D02*
X122921736Y-102869416D01*
X122921736Y-102869416D02*
X123016974Y-102964654D01*
X123016974Y-102964654D02*
X123112212Y-103012273D01*
X123112212Y-103012273D02*
X123302688Y-103059892D01*
X123302688Y-103059892D02*
X123445545Y-103059892D01*
X123445545Y-103059892D02*
X123636021Y-103012273D01*
X123636021Y-103012273D02*
X123731259Y-102964654D01*
X123731259Y-102964654D02*
X123826498Y-102869416D01*
X123826498Y-102869416D02*
X123874117Y-102726559D01*
X123874117Y-102726559D02*
X123874117Y-102488464D01*
X122969355Y-103440845D02*
X122921736Y-103488464D01*
X122921736Y-103488464D02*
X122874117Y-103583702D01*
X122874117Y-103583702D02*
X122874117Y-103821797D01*
X122874117Y-103821797D02*
X122921736Y-103917035D01*
X122921736Y-103917035D02*
X122969355Y-103964654D01*
X122969355Y-103964654D02*
X123064593Y-104012273D01*
X123064593Y-104012273D02*
X123159831Y-104012273D01*
X123159831Y-104012273D02*
X123302688Y-103964654D01*
X123302688Y-103964654D02*
X123874117Y-103393226D01*
X123874117Y-103393226D02*
X123874117Y-104012273D01*
X123874117Y-104488464D02*
X123874117Y-104678940D01*
X123874117Y-104678940D02*
X123826498Y-104774178D01*
X123826498Y-104774178D02*
X123778878Y-104821797D01*
X123778878Y-104821797D02*
X123636021Y-104917035D01*
X123636021Y-104917035D02*
X123445545Y-104964654D01*
X123445545Y-104964654D02*
X123064593Y-104964654D01*
X123064593Y-104964654D02*
X122969355Y-104917035D01*
X122969355Y-104917035D02*
X122921736Y-104869416D01*
X122921736Y-104869416D02*
X122874117Y-104774178D01*
X122874117Y-104774178D02*
X122874117Y-104583702D01*
X122874117Y-104583702D02*
X122921736Y-104488464D01*
X122921736Y-104488464D02*
X122969355Y-104440845D01*
X122969355Y-104440845D02*
X123064593Y-104393226D01*
X123064593Y-104393226D02*
X123302688Y-104393226D01*
X123302688Y-104393226D02*
X123397926Y-104440845D01*
X123397926Y-104440845D02*
X123445545Y-104488464D01*
X123445545Y-104488464D02*
X123493164Y-104583702D01*
X123493164Y-104583702D02*
X123493164Y-104774178D01*
X123493164Y-104774178D02*
X123445545Y-104869416D01*
X123445545Y-104869416D02*
X123397926Y-104917035D01*
X123397926Y-104917035D02*
X123302688Y-104964654D01*
%TO.C,D28*%
X92917867Y-102488464D02*
X91917867Y-102488464D01*
X91917867Y-102488464D02*
X91917867Y-102726559D01*
X91917867Y-102726559D02*
X91965486Y-102869416D01*
X91965486Y-102869416D02*
X92060724Y-102964654D01*
X92060724Y-102964654D02*
X92155962Y-103012273D01*
X92155962Y-103012273D02*
X92346438Y-103059892D01*
X92346438Y-103059892D02*
X92489295Y-103059892D01*
X92489295Y-103059892D02*
X92679771Y-103012273D01*
X92679771Y-103012273D02*
X92775009Y-102964654D01*
X92775009Y-102964654D02*
X92870248Y-102869416D01*
X92870248Y-102869416D02*
X92917867Y-102726559D01*
X92917867Y-102726559D02*
X92917867Y-102488464D01*
X92013105Y-103440845D02*
X91965486Y-103488464D01*
X91965486Y-103488464D02*
X91917867Y-103583702D01*
X91917867Y-103583702D02*
X91917867Y-103821797D01*
X91917867Y-103821797D02*
X91965486Y-103917035D01*
X91965486Y-103917035D02*
X92013105Y-103964654D01*
X92013105Y-103964654D02*
X92108343Y-104012273D01*
X92108343Y-104012273D02*
X92203581Y-104012273D01*
X92203581Y-104012273D02*
X92346438Y-103964654D01*
X92346438Y-103964654D02*
X92917867Y-103393226D01*
X92917867Y-103393226D02*
X92917867Y-104012273D01*
X92346438Y-104583702D02*
X92298819Y-104488464D01*
X92298819Y-104488464D02*
X92251200Y-104440845D01*
X92251200Y-104440845D02*
X92155962Y-104393226D01*
X92155962Y-104393226D02*
X92108343Y-104393226D01*
X92108343Y-104393226D02*
X92013105Y-104440845D01*
X92013105Y-104440845D02*
X91965486Y-104488464D01*
X91965486Y-104488464D02*
X91917867Y-104583702D01*
X91917867Y-104583702D02*
X91917867Y-104774178D01*
X91917867Y-104774178D02*
X91965486Y-104869416D01*
X91965486Y-104869416D02*
X92013105Y-104917035D01*
X92013105Y-104917035D02*
X92108343Y-104964654D01*
X92108343Y-104964654D02*
X92155962Y-104964654D01*
X92155962Y-104964654D02*
X92251200Y-104917035D01*
X92251200Y-104917035D02*
X92298819Y-104869416D01*
X92298819Y-104869416D02*
X92346438Y-104774178D01*
X92346438Y-104774178D02*
X92346438Y-104583702D01*
X92346438Y-104583702D02*
X92394057Y-104488464D01*
X92394057Y-104488464D02*
X92441676Y-104440845D01*
X92441676Y-104440845D02*
X92536914Y-104393226D01*
X92536914Y-104393226D02*
X92727390Y-104393226D01*
X92727390Y-104393226D02*
X92822628Y-104440845D01*
X92822628Y-104440845D02*
X92870248Y-104488464D01*
X92870248Y-104488464D02*
X92917867Y-104583702D01*
X92917867Y-104583702D02*
X92917867Y-104774178D01*
X92917867Y-104774178D02*
X92870248Y-104869416D01*
X92870248Y-104869416D02*
X92822628Y-104917035D01*
X92822628Y-104917035D02*
X92727390Y-104964654D01*
X92727390Y-104964654D02*
X92536914Y-104964654D01*
X92536914Y-104964654D02*
X92441676Y-104917035D01*
X92441676Y-104917035D02*
X92394057Y-104869416D01*
X92394057Y-104869416D02*
X92346438Y-104774178D01*
%TO.C,D36*%
X257224117Y-102488464D02*
X256224117Y-102488464D01*
X256224117Y-102488464D02*
X256224117Y-102726559D01*
X256224117Y-102726559D02*
X256271736Y-102869416D01*
X256271736Y-102869416D02*
X256366974Y-102964654D01*
X256366974Y-102964654D02*
X256462212Y-103012273D01*
X256462212Y-103012273D02*
X256652688Y-103059892D01*
X256652688Y-103059892D02*
X256795545Y-103059892D01*
X256795545Y-103059892D02*
X256986021Y-103012273D01*
X256986021Y-103012273D02*
X257081259Y-102964654D01*
X257081259Y-102964654D02*
X257176498Y-102869416D01*
X257176498Y-102869416D02*
X257224117Y-102726559D01*
X257224117Y-102726559D02*
X257224117Y-102488464D01*
X256224117Y-103393226D02*
X256224117Y-104012273D01*
X256224117Y-104012273D02*
X256605069Y-103678940D01*
X256605069Y-103678940D02*
X256605069Y-103821797D01*
X256605069Y-103821797D02*
X256652688Y-103917035D01*
X256652688Y-103917035D02*
X256700307Y-103964654D01*
X256700307Y-103964654D02*
X256795545Y-104012273D01*
X256795545Y-104012273D02*
X257033640Y-104012273D01*
X257033640Y-104012273D02*
X257128878Y-103964654D01*
X257128878Y-103964654D02*
X257176498Y-103917035D01*
X257176498Y-103917035D02*
X257224117Y-103821797D01*
X257224117Y-103821797D02*
X257224117Y-103536083D01*
X257224117Y-103536083D02*
X257176498Y-103440845D01*
X257176498Y-103440845D02*
X257128878Y-103393226D01*
X256224117Y-104869416D02*
X256224117Y-104678940D01*
X256224117Y-104678940D02*
X256271736Y-104583702D01*
X256271736Y-104583702D02*
X256319355Y-104536083D01*
X256319355Y-104536083D02*
X256462212Y-104440845D01*
X256462212Y-104440845D02*
X256652688Y-104393226D01*
X256652688Y-104393226D02*
X257033640Y-104393226D01*
X257033640Y-104393226D02*
X257128878Y-104440845D01*
X257128878Y-104440845D02*
X257176498Y-104488464D01*
X257176498Y-104488464D02*
X257224117Y-104583702D01*
X257224117Y-104583702D02*
X257224117Y-104774178D01*
X257224117Y-104774178D02*
X257176498Y-104869416D01*
X257176498Y-104869416D02*
X257128878Y-104917035D01*
X257128878Y-104917035D02*
X257033640Y-104964654D01*
X257033640Y-104964654D02*
X256795545Y-104964654D01*
X256795545Y-104964654D02*
X256700307Y-104917035D01*
X256700307Y-104917035D02*
X256652688Y-104869416D01*
X256652688Y-104869416D02*
X256605069Y-104774178D01*
X256605069Y-104774178D02*
X256605069Y-104583702D01*
X256605069Y-104583702D02*
X256652688Y-104488464D01*
X256652688Y-104488464D02*
X256700307Y-104440845D01*
X256700307Y-104440845D02*
X256795545Y-104393226D01*
%TO.C,D14*%
X342949117Y-64450964D02*
X341949117Y-64450964D01*
X341949117Y-64450964D02*
X341949117Y-64689059D01*
X341949117Y-64689059D02*
X341996736Y-64831916D01*
X341996736Y-64831916D02*
X342091974Y-64927154D01*
X342091974Y-64927154D02*
X342187212Y-64974773D01*
X342187212Y-64974773D02*
X342377688Y-65022392D01*
X342377688Y-65022392D02*
X342520545Y-65022392D01*
X342520545Y-65022392D02*
X342711021Y-64974773D01*
X342711021Y-64974773D02*
X342806259Y-64927154D01*
X342806259Y-64927154D02*
X342901498Y-64831916D01*
X342901498Y-64831916D02*
X342949117Y-64689059D01*
X342949117Y-64689059D02*
X342949117Y-64450964D01*
X342949117Y-65974773D02*
X342949117Y-65403345D01*
X342949117Y-65689059D02*
X341949117Y-65689059D01*
X341949117Y-65689059D02*
X342091974Y-65593821D01*
X342091974Y-65593821D02*
X342187212Y-65498583D01*
X342187212Y-65498583D02*
X342234831Y-65403345D01*
X342282450Y-66831916D02*
X342949117Y-66831916D01*
X341901498Y-66593821D02*
X342615783Y-66355726D01*
X342615783Y-66355726D02*
X342615783Y-66974773D01*
%TO.C,D13*%
X318342867Y-64450964D02*
X317342867Y-64450964D01*
X317342867Y-64450964D02*
X317342867Y-64689059D01*
X317342867Y-64689059D02*
X317390486Y-64831916D01*
X317390486Y-64831916D02*
X317485724Y-64927154D01*
X317485724Y-64927154D02*
X317580962Y-64974773D01*
X317580962Y-64974773D02*
X317771438Y-65022392D01*
X317771438Y-65022392D02*
X317914295Y-65022392D01*
X317914295Y-65022392D02*
X318104771Y-64974773D01*
X318104771Y-64974773D02*
X318200009Y-64927154D01*
X318200009Y-64927154D02*
X318295248Y-64831916D01*
X318295248Y-64831916D02*
X318342867Y-64689059D01*
X318342867Y-64689059D02*
X318342867Y-64450964D01*
X318342867Y-65974773D02*
X318342867Y-65403345D01*
X318342867Y-65689059D02*
X317342867Y-65689059D01*
X317342867Y-65689059D02*
X317485724Y-65593821D01*
X317485724Y-65593821D02*
X317580962Y-65498583D01*
X317580962Y-65498583D02*
X317628581Y-65403345D01*
X317342867Y-66308107D02*
X317342867Y-66927154D01*
X317342867Y-66927154D02*
X317723819Y-66593821D01*
X317723819Y-66593821D02*
X317723819Y-66736678D01*
X317723819Y-66736678D02*
X317771438Y-66831916D01*
X317771438Y-66831916D02*
X317819057Y-66879535D01*
X317819057Y-66879535D02*
X317914295Y-66927154D01*
X317914295Y-66927154D02*
X318152390Y-66927154D01*
X318152390Y-66927154D02*
X318247628Y-66879535D01*
X318247628Y-66879535D02*
X318295248Y-66831916D01*
X318295248Y-66831916D02*
X318342867Y-66736678D01*
X318342867Y-66736678D02*
X318342867Y-66450964D01*
X318342867Y-66450964D02*
X318295248Y-66355726D01*
X318295248Y-66355726D02*
X318247628Y-66308107D01*
%TO.C,D25*%
X285799117Y-83438464D02*
X284799117Y-83438464D01*
X284799117Y-83438464D02*
X284799117Y-83676559D01*
X284799117Y-83676559D02*
X284846736Y-83819416D01*
X284846736Y-83819416D02*
X284941974Y-83914654D01*
X284941974Y-83914654D02*
X285037212Y-83962273D01*
X285037212Y-83962273D02*
X285227688Y-84009892D01*
X285227688Y-84009892D02*
X285370545Y-84009892D01*
X285370545Y-84009892D02*
X285561021Y-83962273D01*
X285561021Y-83962273D02*
X285656259Y-83914654D01*
X285656259Y-83914654D02*
X285751498Y-83819416D01*
X285751498Y-83819416D02*
X285799117Y-83676559D01*
X285799117Y-83676559D02*
X285799117Y-83438464D01*
X284894355Y-84390845D02*
X284846736Y-84438464D01*
X284846736Y-84438464D02*
X284799117Y-84533702D01*
X284799117Y-84533702D02*
X284799117Y-84771797D01*
X284799117Y-84771797D02*
X284846736Y-84867035D01*
X284846736Y-84867035D02*
X284894355Y-84914654D01*
X284894355Y-84914654D02*
X284989593Y-84962273D01*
X284989593Y-84962273D02*
X285084831Y-84962273D01*
X285084831Y-84962273D02*
X285227688Y-84914654D01*
X285227688Y-84914654D02*
X285799117Y-84343226D01*
X285799117Y-84343226D02*
X285799117Y-84962273D01*
X284799117Y-85867035D02*
X284799117Y-85390845D01*
X284799117Y-85390845D02*
X285275307Y-85343226D01*
X285275307Y-85343226D02*
X285227688Y-85390845D01*
X285227688Y-85390845D02*
X285180069Y-85486083D01*
X285180069Y-85486083D02*
X285180069Y-85724178D01*
X285180069Y-85724178D02*
X285227688Y-85819416D01*
X285227688Y-85819416D02*
X285275307Y-85867035D01*
X285275307Y-85867035D02*
X285370545Y-85914654D01*
X285370545Y-85914654D02*
X285608640Y-85914654D01*
X285608640Y-85914654D02*
X285703878Y-85867035D01*
X285703878Y-85867035D02*
X285751498Y-85819416D01*
X285751498Y-85819416D02*
X285799117Y-85724178D01*
X285799117Y-85724178D02*
X285799117Y-85486083D01*
X285799117Y-85486083D02*
X285751498Y-85390845D01*
X285751498Y-85390845D02*
X285703878Y-85343226D01*
%TO.C,D4*%
X147686617Y-64802155D02*
X146686617Y-64802155D01*
X146686617Y-64802155D02*
X146686617Y-65040250D01*
X146686617Y-65040250D02*
X146734236Y-65183107D01*
X146734236Y-65183107D02*
X146829474Y-65278345D01*
X146829474Y-65278345D02*
X146924712Y-65325964D01*
X146924712Y-65325964D02*
X147115188Y-65373583D01*
X147115188Y-65373583D02*
X147258045Y-65373583D01*
X147258045Y-65373583D02*
X147448521Y-65325964D01*
X147448521Y-65325964D02*
X147543759Y-65278345D01*
X147543759Y-65278345D02*
X147638998Y-65183107D01*
X147638998Y-65183107D02*
X147686617Y-65040250D01*
X147686617Y-65040250D02*
X147686617Y-64802155D01*
X147019950Y-66230726D02*
X147686617Y-66230726D01*
X146638998Y-65992631D02*
X147353283Y-65754536D01*
X147353283Y-65754536D02*
X147353283Y-66373583D01*
%TO.C,D18*%
X152449117Y-83438464D02*
X151449117Y-83438464D01*
X151449117Y-83438464D02*
X151449117Y-83676559D01*
X151449117Y-83676559D02*
X151496736Y-83819416D01*
X151496736Y-83819416D02*
X151591974Y-83914654D01*
X151591974Y-83914654D02*
X151687212Y-83962273D01*
X151687212Y-83962273D02*
X151877688Y-84009892D01*
X151877688Y-84009892D02*
X152020545Y-84009892D01*
X152020545Y-84009892D02*
X152211021Y-83962273D01*
X152211021Y-83962273D02*
X152306259Y-83914654D01*
X152306259Y-83914654D02*
X152401498Y-83819416D01*
X152401498Y-83819416D02*
X152449117Y-83676559D01*
X152449117Y-83676559D02*
X152449117Y-83438464D01*
X152449117Y-84962273D02*
X152449117Y-84390845D01*
X152449117Y-84676559D02*
X151449117Y-84676559D01*
X151449117Y-84676559D02*
X151591974Y-84581321D01*
X151591974Y-84581321D02*
X151687212Y-84486083D01*
X151687212Y-84486083D02*
X151734831Y-84390845D01*
X151877688Y-85533702D02*
X151830069Y-85438464D01*
X151830069Y-85438464D02*
X151782450Y-85390845D01*
X151782450Y-85390845D02*
X151687212Y-85343226D01*
X151687212Y-85343226D02*
X151639593Y-85343226D01*
X151639593Y-85343226D02*
X151544355Y-85390845D01*
X151544355Y-85390845D02*
X151496736Y-85438464D01*
X151496736Y-85438464D02*
X151449117Y-85533702D01*
X151449117Y-85533702D02*
X151449117Y-85724178D01*
X151449117Y-85724178D02*
X151496736Y-85819416D01*
X151496736Y-85819416D02*
X151544355Y-85867035D01*
X151544355Y-85867035D02*
X151639593Y-85914654D01*
X151639593Y-85914654D02*
X151687212Y-85914654D01*
X151687212Y-85914654D02*
X151782450Y-85867035D01*
X151782450Y-85867035D02*
X151830069Y-85819416D01*
X151830069Y-85819416D02*
X151877688Y-85724178D01*
X151877688Y-85724178D02*
X151877688Y-85533702D01*
X151877688Y-85533702D02*
X151925307Y-85438464D01*
X151925307Y-85438464D02*
X151972926Y-85390845D01*
X151972926Y-85390845D02*
X152068164Y-85343226D01*
X152068164Y-85343226D02*
X152258640Y-85343226D01*
X152258640Y-85343226D02*
X152353878Y-85390845D01*
X152353878Y-85390845D02*
X152401498Y-85438464D01*
X152401498Y-85438464D02*
X152449117Y-85533702D01*
X152449117Y-85533702D02*
X152449117Y-85724178D01*
X152449117Y-85724178D02*
X152401498Y-85819416D01*
X152401498Y-85819416D02*
X152353878Y-85867035D01*
X152353878Y-85867035D02*
X152258640Y-85914654D01*
X152258640Y-85914654D02*
X152068164Y-85914654D01*
X152068164Y-85914654D02*
X151972926Y-85867035D01*
X151972926Y-85867035D02*
X151925307Y-85819416D01*
X151925307Y-85819416D02*
X151877688Y-85724178D01*
%TO.C,C6*%
X215558666Y-115527380D02*
X215606285Y-115575000D01*
X215606285Y-115575000D02*
X215749142Y-115622619D01*
X215749142Y-115622619D02*
X215844380Y-115622619D01*
X215844380Y-115622619D02*
X215987237Y-115575000D01*
X215987237Y-115575000D02*
X216082475Y-115479761D01*
X216082475Y-115479761D02*
X216130094Y-115384523D01*
X216130094Y-115384523D02*
X216177713Y-115194047D01*
X216177713Y-115194047D02*
X216177713Y-115051190D01*
X216177713Y-115051190D02*
X216130094Y-114860714D01*
X216130094Y-114860714D02*
X216082475Y-114765476D01*
X216082475Y-114765476D02*
X215987237Y-114670238D01*
X215987237Y-114670238D02*
X215844380Y-114622619D01*
X215844380Y-114622619D02*
X215749142Y-114622619D01*
X215749142Y-114622619D02*
X215606285Y-114670238D01*
X215606285Y-114670238D02*
X215558666Y-114717857D01*
X214701523Y-114622619D02*
X214891999Y-114622619D01*
X214891999Y-114622619D02*
X214987237Y-114670238D01*
X214987237Y-114670238D02*
X215034856Y-114717857D01*
X215034856Y-114717857D02*
X215130094Y-114860714D01*
X215130094Y-114860714D02*
X215177713Y-115051190D01*
X215177713Y-115051190D02*
X215177713Y-115432142D01*
X215177713Y-115432142D02*
X215130094Y-115527380D01*
X215130094Y-115527380D02*
X215082475Y-115575000D01*
X215082475Y-115575000D02*
X214987237Y-115622619D01*
X214987237Y-115622619D02*
X214796761Y-115622619D01*
X214796761Y-115622619D02*
X214701523Y-115575000D01*
X214701523Y-115575000D02*
X214653904Y-115527380D01*
X214653904Y-115527380D02*
X214606285Y-115432142D01*
X214606285Y-115432142D02*
X214606285Y-115194047D01*
X214606285Y-115194047D02*
X214653904Y-115098809D01*
X214653904Y-115098809D02*
X214701523Y-115051190D01*
X214701523Y-115051190D02*
X214796761Y-115003571D01*
X214796761Y-115003571D02*
X214987237Y-115003571D01*
X214987237Y-115003571D02*
X215082475Y-115051190D01*
X215082475Y-115051190D02*
X215130094Y-115098809D01*
X215130094Y-115098809D02*
X215177713Y-115194047D01*
%TO.C,D38*%
X295324117Y-102488464D02*
X294324117Y-102488464D01*
X294324117Y-102488464D02*
X294324117Y-102726559D01*
X294324117Y-102726559D02*
X294371736Y-102869416D01*
X294371736Y-102869416D02*
X294466974Y-102964654D01*
X294466974Y-102964654D02*
X294562212Y-103012273D01*
X294562212Y-103012273D02*
X294752688Y-103059892D01*
X294752688Y-103059892D02*
X294895545Y-103059892D01*
X294895545Y-103059892D02*
X295086021Y-103012273D01*
X295086021Y-103012273D02*
X295181259Y-102964654D01*
X295181259Y-102964654D02*
X295276498Y-102869416D01*
X295276498Y-102869416D02*
X295324117Y-102726559D01*
X295324117Y-102726559D02*
X295324117Y-102488464D01*
X294324117Y-103393226D02*
X294324117Y-104012273D01*
X294324117Y-104012273D02*
X294705069Y-103678940D01*
X294705069Y-103678940D02*
X294705069Y-103821797D01*
X294705069Y-103821797D02*
X294752688Y-103917035D01*
X294752688Y-103917035D02*
X294800307Y-103964654D01*
X294800307Y-103964654D02*
X294895545Y-104012273D01*
X294895545Y-104012273D02*
X295133640Y-104012273D01*
X295133640Y-104012273D02*
X295228878Y-103964654D01*
X295228878Y-103964654D02*
X295276498Y-103917035D01*
X295276498Y-103917035D02*
X295324117Y-103821797D01*
X295324117Y-103821797D02*
X295324117Y-103536083D01*
X295324117Y-103536083D02*
X295276498Y-103440845D01*
X295276498Y-103440845D02*
X295228878Y-103393226D01*
X294752688Y-104583702D02*
X294705069Y-104488464D01*
X294705069Y-104488464D02*
X294657450Y-104440845D01*
X294657450Y-104440845D02*
X294562212Y-104393226D01*
X294562212Y-104393226D02*
X294514593Y-104393226D01*
X294514593Y-104393226D02*
X294419355Y-104440845D01*
X294419355Y-104440845D02*
X294371736Y-104488464D01*
X294371736Y-104488464D02*
X294324117Y-104583702D01*
X294324117Y-104583702D02*
X294324117Y-104774178D01*
X294324117Y-104774178D02*
X294371736Y-104869416D01*
X294371736Y-104869416D02*
X294419355Y-104917035D01*
X294419355Y-104917035D02*
X294514593Y-104964654D01*
X294514593Y-104964654D02*
X294562212Y-104964654D01*
X294562212Y-104964654D02*
X294657450Y-104917035D01*
X294657450Y-104917035D02*
X294705069Y-104869416D01*
X294705069Y-104869416D02*
X294752688Y-104774178D01*
X294752688Y-104774178D02*
X294752688Y-104583702D01*
X294752688Y-104583702D02*
X294800307Y-104488464D01*
X294800307Y-104488464D02*
X294847926Y-104440845D01*
X294847926Y-104440845D02*
X294943164Y-104393226D01*
X294943164Y-104393226D02*
X295133640Y-104393226D01*
X295133640Y-104393226D02*
X295228878Y-104440845D01*
X295228878Y-104440845D02*
X295276498Y-104488464D01*
X295276498Y-104488464D02*
X295324117Y-104583702D01*
X295324117Y-104583702D02*
X295324117Y-104774178D01*
X295324117Y-104774178D02*
X295276498Y-104869416D01*
X295276498Y-104869416D02*
X295228878Y-104917035D01*
X295228878Y-104917035D02*
X295133640Y-104964654D01*
X295133640Y-104964654D02*
X294943164Y-104964654D01*
X294943164Y-104964654D02*
X294847926Y-104917035D01*
X294847926Y-104917035D02*
X294800307Y-104869416D01*
X294800307Y-104869416D02*
X294752688Y-104774178D01*
%TO.C,D45*%
X288180367Y-121538464D02*
X287180367Y-121538464D01*
X287180367Y-121538464D02*
X287180367Y-121776559D01*
X287180367Y-121776559D02*
X287227986Y-121919416D01*
X287227986Y-121919416D02*
X287323224Y-122014654D01*
X287323224Y-122014654D02*
X287418462Y-122062273D01*
X287418462Y-122062273D02*
X287608938Y-122109892D01*
X287608938Y-122109892D02*
X287751795Y-122109892D01*
X287751795Y-122109892D02*
X287942271Y-122062273D01*
X287942271Y-122062273D02*
X288037509Y-122014654D01*
X288037509Y-122014654D02*
X288132748Y-121919416D01*
X288132748Y-121919416D02*
X288180367Y-121776559D01*
X288180367Y-121776559D02*
X288180367Y-121538464D01*
X287513700Y-122967035D02*
X288180367Y-122967035D01*
X287132748Y-122728940D02*
X287847033Y-122490845D01*
X287847033Y-122490845D02*
X287847033Y-123109892D01*
X287180367Y-123967035D02*
X287180367Y-123490845D01*
X287180367Y-123490845D02*
X287656557Y-123443226D01*
X287656557Y-123443226D02*
X287608938Y-123490845D01*
X287608938Y-123490845D02*
X287561319Y-123586083D01*
X287561319Y-123586083D02*
X287561319Y-123824178D01*
X287561319Y-123824178D02*
X287608938Y-123919416D01*
X287608938Y-123919416D02*
X287656557Y-123967035D01*
X287656557Y-123967035D02*
X287751795Y-124014654D01*
X287751795Y-124014654D02*
X287989890Y-124014654D01*
X287989890Y-124014654D02*
X288085128Y-123967035D01*
X288085128Y-123967035D02*
X288132748Y-123919416D01*
X288132748Y-123919416D02*
X288180367Y-123824178D01*
X288180367Y-123824178D02*
X288180367Y-123586083D01*
X288180367Y-123586083D02*
X288132748Y-123490845D01*
X288132748Y-123490845D02*
X288085128Y-123443226D01*
%TO.C,D43*%
X206615619Y-121468714D02*
X205615619Y-121468714D01*
X205615619Y-121468714D02*
X205615619Y-121706809D01*
X205615619Y-121706809D02*
X205663238Y-121849666D01*
X205663238Y-121849666D02*
X205758476Y-121944904D01*
X205758476Y-121944904D02*
X205853714Y-121992523D01*
X205853714Y-121992523D02*
X206044190Y-122040142D01*
X206044190Y-122040142D02*
X206187047Y-122040142D01*
X206187047Y-122040142D02*
X206377523Y-121992523D01*
X206377523Y-121992523D02*
X206472761Y-121944904D01*
X206472761Y-121944904D02*
X206568000Y-121849666D01*
X206568000Y-121849666D02*
X206615619Y-121706809D01*
X206615619Y-121706809D02*
X206615619Y-121468714D01*
X205948952Y-122897285D02*
X206615619Y-122897285D01*
X205568000Y-122659190D02*
X206282285Y-122421095D01*
X206282285Y-122421095D02*
X206282285Y-123040142D01*
X205615619Y-123325857D02*
X205615619Y-123944904D01*
X205615619Y-123944904D02*
X205996571Y-123611571D01*
X205996571Y-123611571D02*
X205996571Y-123754428D01*
X205996571Y-123754428D02*
X206044190Y-123849666D01*
X206044190Y-123849666D02*
X206091809Y-123897285D01*
X206091809Y-123897285D02*
X206187047Y-123944904D01*
X206187047Y-123944904D02*
X206425142Y-123944904D01*
X206425142Y-123944904D02*
X206520380Y-123897285D01*
X206520380Y-123897285D02*
X206568000Y-123849666D01*
X206568000Y-123849666D02*
X206615619Y-123754428D01*
X206615619Y-123754428D02*
X206615619Y-123468714D01*
X206615619Y-123468714D02*
X206568000Y-123373476D01*
X206568000Y-123373476D02*
X206520380Y-123325857D01*
%TO.C,D35*%
X238174117Y-102425964D02*
X237174117Y-102425964D01*
X237174117Y-102425964D02*
X237174117Y-102664059D01*
X237174117Y-102664059D02*
X237221736Y-102806916D01*
X237221736Y-102806916D02*
X237316974Y-102902154D01*
X237316974Y-102902154D02*
X237412212Y-102949773D01*
X237412212Y-102949773D02*
X237602688Y-102997392D01*
X237602688Y-102997392D02*
X237745545Y-102997392D01*
X237745545Y-102997392D02*
X237936021Y-102949773D01*
X237936021Y-102949773D02*
X238031259Y-102902154D01*
X238031259Y-102902154D02*
X238126498Y-102806916D01*
X238126498Y-102806916D02*
X238174117Y-102664059D01*
X238174117Y-102664059D02*
X238174117Y-102425964D01*
X237174117Y-103330726D02*
X237174117Y-103949773D01*
X237174117Y-103949773D02*
X237555069Y-103616440D01*
X237555069Y-103616440D02*
X237555069Y-103759297D01*
X237555069Y-103759297D02*
X237602688Y-103854535D01*
X237602688Y-103854535D02*
X237650307Y-103902154D01*
X237650307Y-103902154D02*
X237745545Y-103949773D01*
X237745545Y-103949773D02*
X237983640Y-103949773D01*
X237983640Y-103949773D02*
X238078878Y-103902154D01*
X238078878Y-103902154D02*
X238126498Y-103854535D01*
X238126498Y-103854535D02*
X238174117Y-103759297D01*
X238174117Y-103759297D02*
X238174117Y-103473583D01*
X238174117Y-103473583D02*
X238126498Y-103378345D01*
X238126498Y-103378345D02*
X238078878Y-103330726D01*
X237174117Y-104854535D02*
X237174117Y-104378345D01*
X237174117Y-104378345D02*
X237650307Y-104330726D01*
X237650307Y-104330726D02*
X237602688Y-104378345D01*
X237602688Y-104378345D02*
X237555069Y-104473583D01*
X237555069Y-104473583D02*
X237555069Y-104711678D01*
X237555069Y-104711678D02*
X237602688Y-104806916D01*
X237602688Y-104806916D02*
X237650307Y-104854535D01*
X237650307Y-104854535D02*
X237745545Y-104902154D01*
X237745545Y-104902154D02*
X237983640Y-104902154D01*
X237983640Y-104902154D02*
X238078878Y-104854535D01*
X238078878Y-104854535D02*
X238126498Y-104806916D01*
X238126498Y-104806916D02*
X238174117Y-104711678D01*
X238174117Y-104711678D02*
X238174117Y-104473583D01*
X238174117Y-104473583D02*
X238126498Y-104378345D01*
X238126498Y-104378345D02*
X238078878Y-104330726D01*
%TO.C,D46*%
X311992867Y-121538464D02*
X310992867Y-121538464D01*
X310992867Y-121538464D02*
X310992867Y-121776559D01*
X310992867Y-121776559D02*
X311040486Y-121919416D01*
X311040486Y-121919416D02*
X311135724Y-122014654D01*
X311135724Y-122014654D02*
X311230962Y-122062273D01*
X311230962Y-122062273D02*
X311421438Y-122109892D01*
X311421438Y-122109892D02*
X311564295Y-122109892D01*
X311564295Y-122109892D02*
X311754771Y-122062273D01*
X311754771Y-122062273D02*
X311850009Y-122014654D01*
X311850009Y-122014654D02*
X311945248Y-121919416D01*
X311945248Y-121919416D02*
X311992867Y-121776559D01*
X311992867Y-121776559D02*
X311992867Y-121538464D01*
X311326200Y-122967035D02*
X311992867Y-122967035D01*
X310945248Y-122728940D02*
X311659533Y-122490845D01*
X311659533Y-122490845D02*
X311659533Y-123109892D01*
X310992867Y-123919416D02*
X310992867Y-123728940D01*
X310992867Y-123728940D02*
X311040486Y-123633702D01*
X311040486Y-123633702D02*
X311088105Y-123586083D01*
X311088105Y-123586083D02*
X311230962Y-123490845D01*
X311230962Y-123490845D02*
X311421438Y-123443226D01*
X311421438Y-123443226D02*
X311802390Y-123443226D01*
X311802390Y-123443226D02*
X311897628Y-123490845D01*
X311897628Y-123490845D02*
X311945248Y-123538464D01*
X311945248Y-123538464D02*
X311992867Y-123633702D01*
X311992867Y-123633702D02*
X311992867Y-123824178D01*
X311992867Y-123824178D02*
X311945248Y-123919416D01*
X311945248Y-123919416D02*
X311897628Y-123967035D01*
X311897628Y-123967035D02*
X311802390Y-124014654D01*
X311802390Y-124014654D02*
X311564295Y-124014654D01*
X311564295Y-124014654D02*
X311469057Y-123967035D01*
X311469057Y-123967035D02*
X311421438Y-123919416D01*
X311421438Y-123919416D02*
X311373819Y-123824178D01*
X311373819Y-123824178D02*
X311373819Y-123633702D01*
X311373819Y-123633702D02*
X311421438Y-123538464D01*
X311421438Y-123538464D02*
X311469057Y-123490845D01*
X311469057Y-123490845D02*
X311564295Y-123443226D01*
%TO.C,D21*%
X209599117Y-83438464D02*
X208599117Y-83438464D01*
X208599117Y-83438464D02*
X208599117Y-83676559D01*
X208599117Y-83676559D02*
X208646736Y-83819416D01*
X208646736Y-83819416D02*
X208741974Y-83914654D01*
X208741974Y-83914654D02*
X208837212Y-83962273D01*
X208837212Y-83962273D02*
X209027688Y-84009892D01*
X209027688Y-84009892D02*
X209170545Y-84009892D01*
X209170545Y-84009892D02*
X209361021Y-83962273D01*
X209361021Y-83962273D02*
X209456259Y-83914654D01*
X209456259Y-83914654D02*
X209551498Y-83819416D01*
X209551498Y-83819416D02*
X209599117Y-83676559D01*
X209599117Y-83676559D02*
X209599117Y-83438464D01*
X208694355Y-84390845D02*
X208646736Y-84438464D01*
X208646736Y-84438464D02*
X208599117Y-84533702D01*
X208599117Y-84533702D02*
X208599117Y-84771797D01*
X208599117Y-84771797D02*
X208646736Y-84867035D01*
X208646736Y-84867035D02*
X208694355Y-84914654D01*
X208694355Y-84914654D02*
X208789593Y-84962273D01*
X208789593Y-84962273D02*
X208884831Y-84962273D01*
X208884831Y-84962273D02*
X209027688Y-84914654D01*
X209027688Y-84914654D02*
X209599117Y-84343226D01*
X209599117Y-84343226D02*
X209599117Y-84962273D01*
X209599117Y-85914654D02*
X209599117Y-85343226D01*
X209599117Y-85628940D02*
X208599117Y-85628940D01*
X208599117Y-85628940D02*
X208741974Y-85533702D01*
X208741974Y-85533702D02*
X208837212Y-85438464D01*
X208837212Y-85438464D02*
X208884831Y-85343226D01*
%TO.C,D15*%
X88155367Y-83375964D02*
X87155367Y-83375964D01*
X87155367Y-83375964D02*
X87155367Y-83614059D01*
X87155367Y-83614059D02*
X87202986Y-83756916D01*
X87202986Y-83756916D02*
X87298224Y-83852154D01*
X87298224Y-83852154D02*
X87393462Y-83899773D01*
X87393462Y-83899773D02*
X87583938Y-83947392D01*
X87583938Y-83947392D02*
X87726795Y-83947392D01*
X87726795Y-83947392D02*
X87917271Y-83899773D01*
X87917271Y-83899773D02*
X88012509Y-83852154D01*
X88012509Y-83852154D02*
X88107748Y-83756916D01*
X88107748Y-83756916D02*
X88155367Y-83614059D01*
X88155367Y-83614059D02*
X88155367Y-83375964D01*
X88155367Y-84899773D02*
X88155367Y-84328345D01*
X88155367Y-84614059D02*
X87155367Y-84614059D01*
X87155367Y-84614059D02*
X87298224Y-84518821D01*
X87298224Y-84518821D02*
X87393462Y-84423583D01*
X87393462Y-84423583D02*
X87441081Y-84328345D01*
X87155367Y-85804535D02*
X87155367Y-85328345D01*
X87155367Y-85328345D02*
X87631557Y-85280726D01*
X87631557Y-85280726D02*
X87583938Y-85328345D01*
X87583938Y-85328345D02*
X87536319Y-85423583D01*
X87536319Y-85423583D02*
X87536319Y-85661678D01*
X87536319Y-85661678D02*
X87583938Y-85756916D01*
X87583938Y-85756916D02*
X87631557Y-85804535D01*
X87631557Y-85804535D02*
X87726795Y-85852154D01*
X87726795Y-85852154D02*
X87964890Y-85852154D01*
X87964890Y-85852154D02*
X88060128Y-85804535D01*
X88060128Y-85804535D02*
X88107748Y-85756916D01*
X88107748Y-85756916D02*
X88155367Y-85661678D01*
X88155367Y-85661678D02*
X88155367Y-85423583D01*
X88155367Y-85423583D02*
X88107748Y-85328345D01*
X88107748Y-85328345D02*
X88060128Y-85280726D01*
%TO.C,C3*%
X183726380Y-112863333D02*
X183774000Y-112815714D01*
X183774000Y-112815714D02*
X183821619Y-112672857D01*
X183821619Y-112672857D02*
X183821619Y-112577619D01*
X183821619Y-112577619D02*
X183774000Y-112434762D01*
X183774000Y-112434762D02*
X183678761Y-112339524D01*
X183678761Y-112339524D02*
X183583523Y-112291905D01*
X183583523Y-112291905D02*
X183393047Y-112244286D01*
X183393047Y-112244286D02*
X183250190Y-112244286D01*
X183250190Y-112244286D02*
X183059714Y-112291905D01*
X183059714Y-112291905D02*
X182964476Y-112339524D01*
X182964476Y-112339524D02*
X182869238Y-112434762D01*
X182869238Y-112434762D02*
X182821619Y-112577619D01*
X182821619Y-112577619D02*
X182821619Y-112672857D01*
X182821619Y-112672857D02*
X182869238Y-112815714D01*
X182869238Y-112815714D02*
X182916857Y-112863333D01*
X182821619Y-113196667D02*
X182821619Y-113815714D01*
X182821619Y-113815714D02*
X183202571Y-113482381D01*
X183202571Y-113482381D02*
X183202571Y-113625238D01*
X183202571Y-113625238D02*
X183250190Y-113720476D01*
X183250190Y-113720476D02*
X183297809Y-113768095D01*
X183297809Y-113768095D02*
X183393047Y-113815714D01*
X183393047Y-113815714D02*
X183631142Y-113815714D01*
X183631142Y-113815714D02*
X183726380Y-113768095D01*
X183726380Y-113768095D02*
X183774000Y-113720476D01*
X183774000Y-113720476D02*
X183821619Y-113625238D01*
X183821619Y-113625238D02*
X183821619Y-113339524D01*
X183821619Y-113339524D02*
X183774000Y-113244286D01*
X183774000Y-113244286D02*
X183726380Y-113196667D01*
%TO.C,D41*%
X145305367Y-121475964D02*
X144305367Y-121475964D01*
X144305367Y-121475964D02*
X144305367Y-121714059D01*
X144305367Y-121714059D02*
X144352986Y-121856916D01*
X144352986Y-121856916D02*
X144448224Y-121952154D01*
X144448224Y-121952154D02*
X144543462Y-121999773D01*
X144543462Y-121999773D02*
X144733938Y-122047392D01*
X144733938Y-122047392D02*
X144876795Y-122047392D01*
X144876795Y-122047392D02*
X145067271Y-121999773D01*
X145067271Y-121999773D02*
X145162509Y-121952154D01*
X145162509Y-121952154D02*
X145257748Y-121856916D01*
X145257748Y-121856916D02*
X145305367Y-121714059D01*
X145305367Y-121714059D02*
X145305367Y-121475964D01*
X144638700Y-122904535D02*
X145305367Y-122904535D01*
X144257748Y-122666440D02*
X144972033Y-122428345D01*
X144972033Y-122428345D02*
X144972033Y-123047392D01*
X145305367Y-123952154D02*
X145305367Y-123380726D01*
X145305367Y-123666440D02*
X144305367Y-123666440D01*
X144305367Y-123666440D02*
X144448224Y-123571202D01*
X144448224Y-123571202D02*
X144543462Y-123475964D01*
X144543462Y-123475964D02*
X144591081Y-123380726D01*
%TO.C,D39*%
X331042867Y-102425964D02*
X330042867Y-102425964D01*
X330042867Y-102425964D02*
X330042867Y-102664059D01*
X330042867Y-102664059D02*
X330090486Y-102806916D01*
X330090486Y-102806916D02*
X330185724Y-102902154D01*
X330185724Y-102902154D02*
X330280962Y-102949773D01*
X330280962Y-102949773D02*
X330471438Y-102997392D01*
X330471438Y-102997392D02*
X330614295Y-102997392D01*
X330614295Y-102997392D02*
X330804771Y-102949773D01*
X330804771Y-102949773D02*
X330900009Y-102902154D01*
X330900009Y-102902154D02*
X330995248Y-102806916D01*
X330995248Y-102806916D02*
X331042867Y-102664059D01*
X331042867Y-102664059D02*
X331042867Y-102425964D01*
X330042867Y-103330726D02*
X330042867Y-103949773D01*
X330042867Y-103949773D02*
X330423819Y-103616440D01*
X330423819Y-103616440D02*
X330423819Y-103759297D01*
X330423819Y-103759297D02*
X330471438Y-103854535D01*
X330471438Y-103854535D02*
X330519057Y-103902154D01*
X330519057Y-103902154D02*
X330614295Y-103949773D01*
X330614295Y-103949773D02*
X330852390Y-103949773D01*
X330852390Y-103949773D02*
X330947628Y-103902154D01*
X330947628Y-103902154D02*
X330995248Y-103854535D01*
X330995248Y-103854535D02*
X331042867Y-103759297D01*
X331042867Y-103759297D02*
X331042867Y-103473583D01*
X331042867Y-103473583D02*
X330995248Y-103378345D01*
X330995248Y-103378345D02*
X330947628Y-103330726D01*
X331042867Y-104425964D02*
X331042867Y-104616440D01*
X331042867Y-104616440D02*
X330995248Y-104711678D01*
X330995248Y-104711678D02*
X330947628Y-104759297D01*
X330947628Y-104759297D02*
X330804771Y-104854535D01*
X330804771Y-104854535D02*
X330614295Y-104902154D01*
X330614295Y-104902154D02*
X330233343Y-104902154D01*
X330233343Y-104902154D02*
X330138105Y-104854535D01*
X330138105Y-104854535D02*
X330090486Y-104806916D01*
X330090486Y-104806916D02*
X330042867Y-104711678D01*
X330042867Y-104711678D02*
X330042867Y-104521202D01*
X330042867Y-104521202D02*
X330090486Y-104425964D01*
X330090486Y-104425964D02*
X330138105Y-104378345D01*
X330138105Y-104378345D02*
X330233343Y-104330726D01*
X330233343Y-104330726D02*
X330471438Y-104330726D01*
X330471438Y-104330726D02*
X330566676Y-104378345D01*
X330566676Y-104378345D02*
X330614295Y-104425964D01*
X330614295Y-104425964D02*
X330661914Y-104521202D01*
X330661914Y-104521202D02*
X330661914Y-104711678D01*
X330661914Y-104711678D02*
X330614295Y-104806916D01*
X330614295Y-104806916D02*
X330566676Y-104854535D01*
X330566676Y-104854535D02*
X330471438Y-104902154D01*
%TO.C,D2*%
X109586617Y-64802155D02*
X108586617Y-64802155D01*
X108586617Y-64802155D02*
X108586617Y-65040250D01*
X108586617Y-65040250D02*
X108634236Y-65183107D01*
X108634236Y-65183107D02*
X108729474Y-65278345D01*
X108729474Y-65278345D02*
X108824712Y-65325964D01*
X108824712Y-65325964D02*
X109015188Y-65373583D01*
X109015188Y-65373583D02*
X109158045Y-65373583D01*
X109158045Y-65373583D02*
X109348521Y-65325964D01*
X109348521Y-65325964D02*
X109443759Y-65278345D01*
X109443759Y-65278345D02*
X109538998Y-65183107D01*
X109538998Y-65183107D02*
X109586617Y-65040250D01*
X109586617Y-65040250D02*
X109586617Y-64802155D01*
X108681855Y-65754536D02*
X108634236Y-65802155D01*
X108634236Y-65802155D02*
X108586617Y-65897393D01*
X108586617Y-65897393D02*
X108586617Y-66135488D01*
X108586617Y-66135488D02*
X108634236Y-66230726D01*
X108634236Y-66230726D02*
X108681855Y-66278345D01*
X108681855Y-66278345D02*
X108777093Y-66325964D01*
X108777093Y-66325964D02*
X108872331Y-66325964D01*
X108872331Y-66325964D02*
X109015188Y-66278345D01*
X109015188Y-66278345D02*
X109586617Y-65706917D01*
X109586617Y-65706917D02*
X109586617Y-66325964D01*
%TO.C,D9*%
X242936617Y-64864655D02*
X241936617Y-64864655D01*
X241936617Y-64864655D02*
X241936617Y-65102750D01*
X241936617Y-65102750D02*
X241984236Y-65245607D01*
X241984236Y-65245607D02*
X242079474Y-65340845D01*
X242079474Y-65340845D02*
X242174712Y-65388464D01*
X242174712Y-65388464D02*
X242365188Y-65436083D01*
X242365188Y-65436083D02*
X242508045Y-65436083D01*
X242508045Y-65436083D02*
X242698521Y-65388464D01*
X242698521Y-65388464D02*
X242793759Y-65340845D01*
X242793759Y-65340845D02*
X242888998Y-65245607D01*
X242888998Y-65245607D02*
X242936617Y-65102750D01*
X242936617Y-65102750D02*
X242936617Y-64864655D01*
X242936617Y-65912274D02*
X242936617Y-66102750D01*
X242936617Y-66102750D02*
X242888998Y-66197988D01*
X242888998Y-66197988D02*
X242841378Y-66245607D01*
X242841378Y-66245607D02*
X242698521Y-66340845D01*
X242698521Y-66340845D02*
X242508045Y-66388464D01*
X242508045Y-66388464D02*
X242127093Y-66388464D01*
X242127093Y-66388464D02*
X242031855Y-66340845D01*
X242031855Y-66340845D02*
X241984236Y-66293226D01*
X241984236Y-66293226D02*
X241936617Y-66197988D01*
X241936617Y-66197988D02*
X241936617Y-66007512D01*
X241936617Y-66007512D02*
X241984236Y-65912274D01*
X241984236Y-65912274D02*
X242031855Y-65864655D01*
X242031855Y-65864655D02*
X242127093Y-65817036D01*
X242127093Y-65817036D02*
X242365188Y-65817036D01*
X242365188Y-65817036D02*
X242460426Y-65864655D01*
X242460426Y-65864655D02*
X242508045Y-65912274D01*
X242508045Y-65912274D02*
X242555664Y-66007512D01*
X242555664Y-66007512D02*
X242555664Y-66197988D01*
X242555664Y-66197988D02*
X242508045Y-66293226D01*
X242508045Y-66293226D02*
X242460426Y-66340845D01*
X242460426Y-66340845D02*
X242365188Y-66388464D01*
%TO.C,D19*%
X171499117Y-83438464D02*
X170499117Y-83438464D01*
X170499117Y-83438464D02*
X170499117Y-83676559D01*
X170499117Y-83676559D02*
X170546736Y-83819416D01*
X170546736Y-83819416D02*
X170641974Y-83914654D01*
X170641974Y-83914654D02*
X170737212Y-83962273D01*
X170737212Y-83962273D02*
X170927688Y-84009892D01*
X170927688Y-84009892D02*
X171070545Y-84009892D01*
X171070545Y-84009892D02*
X171261021Y-83962273D01*
X171261021Y-83962273D02*
X171356259Y-83914654D01*
X171356259Y-83914654D02*
X171451498Y-83819416D01*
X171451498Y-83819416D02*
X171499117Y-83676559D01*
X171499117Y-83676559D02*
X171499117Y-83438464D01*
X171499117Y-84962273D02*
X171499117Y-84390845D01*
X171499117Y-84676559D02*
X170499117Y-84676559D01*
X170499117Y-84676559D02*
X170641974Y-84581321D01*
X170641974Y-84581321D02*
X170737212Y-84486083D01*
X170737212Y-84486083D02*
X170784831Y-84390845D01*
X171499117Y-85438464D02*
X171499117Y-85628940D01*
X171499117Y-85628940D02*
X171451498Y-85724178D01*
X171451498Y-85724178D02*
X171403878Y-85771797D01*
X171403878Y-85771797D02*
X171261021Y-85867035D01*
X171261021Y-85867035D02*
X171070545Y-85914654D01*
X171070545Y-85914654D02*
X170689593Y-85914654D01*
X170689593Y-85914654D02*
X170594355Y-85867035D01*
X170594355Y-85867035D02*
X170546736Y-85819416D01*
X170546736Y-85819416D02*
X170499117Y-85724178D01*
X170499117Y-85724178D02*
X170499117Y-85533702D01*
X170499117Y-85533702D02*
X170546736Y-85438464D01*
X170546736Y-85438464D02*
X170594355Y-85390845D01*
X170594355Y-85390845D02*
X170689593Y-85343226D01*
X170689593Y-85343226D02*
X170927688Y-85343226D01*
X170927688Y-85343226D02*
X171022926Y-85390845D01*
X171022926Y-85390845D02*
X171070545Y-85438464D01*
X171070545Y-85438464D02*
X171118164Y-85533702D01*
X171118164Y-85533702D02*
X171118164Y-85724178D01*
X171118164Y-85724178D02*
X171070545Y-85819416D01*
X171070545Y-85819416D02*
X171022926Y-85867035D01*
X171022926Y-85867035D02*
X170927688Y-85914654D01*
%TO.C,D11*%
X281036617Y-64388464D02*
X280036617Y-64388464D01*
X280036617Y-64388464D02*
X280036617Y-64626559D01*
X280036617Y-64626559D02*
X280084236Y-64769416D01*
X280084236Y-64769416D02*
X280179474Y-64864654D01*
X280179474Y-64864654D02*
X280274712Y-64912273D01*
X280274712Y-64912273D02*
X280465188Y-64959892D01*
X280465188Y-64959892D02*
X280608045Y-64959892D01*
X280608045Y-64959892D02*
X280798521Y-64912273D01*
X280798521Y-64912273D02*
X280893759Y-64864654D01*
X280893759Y-64864654D02*
X280988998Y-64769416D01*
X280988998Y-64769416D02*
X281036617Y-64626559D01*
X281036617Y-64626559D02*
X281036617Y-64388464D01*
X281036617Y-65912273D02*
X281036617Y-65340845D01*
X281036617Y-65626559D02*
X280036617Y-65626559D01*
X280036617Y-65626559D02*
X280179474Y-65531321D01*
X280179474Y-65531321D02*
X280274712Y-65436083D01*
X280274712Y-65436083D02*
X280322331Y-65340845D01*
X281036617Y-66864654D02*
X281036617Y-66293226D01*
X281036617Y-66578940D02*
X280036617Y-66578940D01*
X280036617Y-66578940D02*
X280179474Y-66483702D01*
X280179474Y-66483702D02*
X280274712Y-66388464D01*
X280274712Y-66388464D02*
X280322331Y-66293226D01*
%TO.C,D12*%
X300086617Y-64388464D02*
X299086617Y-64388464D01*
X299086617Y-64388464D02*
X299086617Y-64626559D01*
X299086617Y-64626559D02*
X299134236Y-64769416D01*
X299134236Y-64769416D02*
X299229474Y-64864654D01*
X299229474Y-64864654D02*
X299324712Y-64912273D01*
X299324712Y-64912273D02*
X299515188Y-64959892D01*
X299515188Y-64959892D02*
X299658045Y-64959892D01*
X299658045Y-64959892D02*
X299848521Y-64912273D01*
X299848521Y-64912273D02*
X299943759Y-64864654D01*
X299943759Y-64864654D02*
X300038998Y-64769416D01*
X300038998Y-64769416D02*
X300086617Y-64626559D01*
X300086617Y-64626559D02*
X300086617Y-64388464D01*
X300086617Y-65912273D02*
X300086617Y-65340845D01*
X300086617Y-65626559D02*
X299086617Y-65626559D01*
X299086617Y-65626559D02*
X299229474Y-65531321D01*
X299229474Y-65531321D02*
X299324712Y-65436083D01*
X299324712Y-65436083D02*
X299372331Y-65340845D01*
X299181855Y-66293226D02*
X299134236Y-66340845D01*
X299134236Y-66340845D02*
X299086617Y-66436083D01*
X299086617Y-66436083D02*
X299086617Y-66674178D01*
X299086617Y-66674178D02*
X299134236Y-66769416D01*
X299134236Y-66769416D02*
X299181855Y-66817035D01*
X299181855Y-66817035D02*
X299277093Y-66864654D01*
X299277093Y-66864654D02*
X299372331Y-66864654D01*
X299372331Y-66864654D02*
X299515188Y-66817035D01*
X299515188Y-66817035D02*
X300086617Y-66245607D01*
X300086617Y-66245607D02*
X300086617Y-66864654D01*
%TO.C,D27*%
X335456619Y-83432214D02*
X334456619Y-83432214D01*
X334456619Y-83432214D02*
X334456619Y-83670309D01*
X334456619Y-83670309D02*
X334504238Y-83813166D01*
X334504238Y-83813166D02*
X334599476Y-83908404D01*
X334599476Y-83908404D02*
X334694714Y-83956023D01*
X334694714Y-83956023D02*
X334885190Y-84003642D01*
X334885190Y-84003642D02*
X335028047Y-84003642D01*
X335028047Y-84003642D02*
X335218523Y-83956023D01*
X335218523Y-83956023D02*
X335313761Y-83908404D01*
X335313761Y-83908404D02*
X335409000Y-83813166D01*
X335409000Y-83813166D02*
X335456619Y-83670309D01*
X335456619Y-83670309D02*
X335456619Y-83432214D01*
X334551857Y-84384595D02*
X334504238Y-84432214D01*
X334504238Y-84432214D02*
X334456619Y-84527452D01*
X334456619Y-84527452D02*
X334456619Y-84765547D01*
X334456619Y-84765547D02*
X334504238Y-84860785D01*
X334504238Y-84860785D02*
X334551857Y-84908404D01*
X334551857Y-84908404D02*
X334647095Y-84956023D01*
X334647095Y-84956023D02*
X334742333Y-84956023D01*
X334742333Y-84956023D02*
X334885190Y-84908404D01*
X334885190Y-84908404D02*
X335456619Y-84336976D01*
X335456619Y-84336976D02*
X335456619Y-84956023D01*
X334456619Y-85289357D02*
X334456619Y-85956023D01*
X334456619Y-85956023D02*
X335456619Y-85527452D01*
%TO.C,D16*%
X114349117Y-83438464D02*
X113349117Y-83438464D01*
X113349117Y-83438464D02*
X113349117Y-83676559D01*
X113349117Y-83676559D02*
X113396736Y-83819416D01*
X113396736Y-83819416D02*
X113491974Y-83914654D01*
X113491974Y-83914654D02*
X113587212Y-83962273D01*
X113587212Y-83962273D02*
X113777688Y-84009892D01*
X113777688Y-84009892D02*
X113920545Y-84009892D01*
X113920545Y-84009892D02*
X114111021Y-83962273D01*
X114111021Y-83962273D02*
X114206259Y-83914654D01*
X114206259Y-83914654D02*
X114301498Y-83819416D01*
X114301498Y-83819416D02*
X114349117Y-83676559D01*
X114349117Y-83676559D02*
X114349117Y-83438464D01*
X114349117Y-84962273D02*
X114349117Y-84390845D01*
X114349117Y-84676559D02*
X113349117Y-84676559D01*
X113349117Y-84676559D02*
X113491974Y-84581321D01*
X113491974Y-84581321D02*
X113587212Y-84486083D01*
X113587212Y-84486083D02*
X113634831Y-84390845D01*
X113349117Y-85819416D02*
X113349117Y-85628940D01*
X113349117Y-85628940D02*
X113396736Y-85533702D01*
X113396736Y-85533702D02*
X113444355Y-85486083D01*
X113444355Y-85486083D02*
X113587212Y-85390845D01*
X113587212Y-85390845D02*
X113777688Y-85343226D01*
X113777688Y-85343226D02*
X114158640Y-85343226D01*
X114158640Y-85343226D02*
X114253878Y-85390845D01*
X114253878Y-85390845D02*
X114301498Y-85438464D01*
X114301498Y-85438464D02*
X114349117Y-85533702D01*
X114349117Y-85533702D02*
X114349117Y-85724178D01*
X114349117Y-85724178D02*
X114301498Y-85819416D01*
X114301498Y-85819416D02*
X114253878Y-85867035D01*
X114253878Y-85867035D02*
X114158640Y-85914654D01*
X114158640Y-85914654D02*
X113920545Y-85914654D01*
X113920545Y-85914654D02*
X113825307Y-85867035D01*
X113825307Y-85867035D02*
X113777688Y-85819416D01*
X113777688Y-85819416D02*
X113730069Y-85724178D01*
X113730069Y-85724178D02*
X113730069Y-85533702D01*
X113730069Y-85533702D02*
X113777688Y-85438464D01*
X113777688Y-85438464D02*
X113825307Y-85390845D01*
X113825307Y-85390845D02*
X113920545Y-85343226D01*
%TO.C,D33*%
X200074117Y-102488464D02*
X199074117Y-102488464D01*
X199074117Y-102488464D02*
X199074117Y-102726559D01*
X199074117Y-102726559D02*
X199121736Y-102869416D01*
X199121736Y-102869416D02*
X199216974Y-102964654D01*
X199216974Y-102964654D02*
X199312212Y-103012273D01*
X199312212Y-103012273D02*
X199502688Y-103059892D01*
X199502688Y-103059892D02*
X199645545Y-103059892D01*
X199645545Y-103059892D02*
X199836021Y-103012273D01*
X199836021Y-103012273D02*
X199931259Y-102964654D01*
X199931259Y-102964654D02*
X200026498Y-102869416D01*
X200026498Y-102869416D02*
X200074117Y-102726559D01*
X200074117Y-102726559D02*
X200074117Y-102488464D01*
X199074117Y-103393226D02*
X199074117Y-104012273D01*
X199074117Y-104012273D02*
X199455069Y-103678940D01*
X199455069Y-103678940D02*
X199455069Y-103821797D01*
X199455069Y-103821797D02*
X199502688Y-103917035D01*
X199502688Y-103917035D02*
X199550307Y-103964654D01*
X199550307Y-103964654D02*
X199645545Y-104012273D01*
X199645545Y-104012273D02*
X199883640Y-104012273D01*
X199883640Y-104012273D02*
X199978878Y-103964654D01*
X199978878Y-103964654D02*
X200026498Y-103917035D01*
X200026498Y-103917035D02*
X200074117Y-103821797D01*
X200074117Y-103821797D02*
X200074117Y-103536083D01*
X200074117Y-103536083D02*
X200026498Y-103440845D01*
X200026498Y-103440845D02*
X199978878Y-103393226D01*
X199074117Y-104345607D02*
X199074117Y-104964654D01*
X199074117Y-104964654D02*
X199455069Y-104631321D01*
X199455069Y-104631321D02*
X199455069Y-104774178D01*
X199455069Y-104774178D02*
X199502688Y-104869416D01*
X199502688Y-104869416D02*
X199550307Y-104917035D01*
X199550307Y-104917035D02*
X199645545Y-104964654D01*
X199645545Y-104964654D02*
X199883640Y-104964654D01*
X199883640Y-104964654D02*
X199978878Y-104917035D01*
X199978878Y-104917035D02*
X200026498Y-104869416D01*
X200026498Y-104869416D02*
X200074117Y-104774178D01*
X200074117Y-104774178D02*
X200074117Y-104488464D01*
X200074117Y-104488464D02*
X200026498Y-104393226D01*
X200026498Y-104393226D02*
X199978878Y-104345607D01*
%TO.C,D22*%
X228649117Y-83438464D02*
X227649117Y-83438464D01*
X227649117Y-83438464D02*
X227649117Y-83676559D01*
X227649117Y-83676559D02*
X227696736Y-83819416D01*
X227696736Y-83819416D02*
X227791974Y-83914654D01*
X227791974Y-83914654D02*
X227887212Y-83962273D01*
X227887212Y-83962273D02*
X228077688Y-84009892D01*
X228077688Y-84009892D02*
X228220545Y-84009892D01*
X228220545Y-84009892D02*
X228411021Y-83962273D01*
X228411021Y-83962273D02*
X228506259Y-83914654D01*
X228506259Y-83914654D02*
X228601498Y-83819416D01*
X228601498Y-83819416D02*
X228649117Y-83676559D01*
X228649117Y-83676559D02*
X228649117Y-83438464D01*
X227744355Y-84390845D02*
X227696736Y-84438464D01*
X227696736Y-84438464D02*
X227649117Y-84533702D01*
X227649117Y-84533702D02*
X227649117Y-84771797D01*
X227649117Y-84771797D02*
X227696736Y-84867035D01*
X227696736Y-84867035D02*
X227744355Y-84914654D01*
X227744355Y-84914654D02*
X227839593Y-84962273D01*
X227839593Y-84962273D02*
X227934831Y-84962273D01*
X227934831Y-84962273D02*
X228077688Y-84914654D01*
X228077688Y-84914654D02*
X228649117Y-84343226D01*
X228649117Y-84343226D02*
X228649117Y-84962273D01*
X227744355Y-85343226D02*
X227696736Y-85390845D01*
X227696736Y-85390845D02*
X227649117Y-85486083D01*
X227649117Y-85486083D02*
X227649117Y-85724178D01*
X227649117Y-85724178D02*
X227696736Y-85819416D01*
X227696736Y-85819416D02*
X227744355Y-85867035D01*
X227744355Y-85867035D02*
X227839593Y-85914654D01*
X227839593Y-85914654D02*
X227934831Y-85914654D01*
X227934831Y-85914654D02*
X228077688Y-85867035D01*
X228077688Y-85867035D02*
X228649117Y-85295607D01*
X228649117Y-85295607D02*
X228649117Y-85914654D01*
%TO.C,D8*%
X223886617Y-64864655D02*
X222886617Y-64864655D01*
X222886617Y-64864655D02*
X222886617Y-65102750D01*
X222886617Y-65102750D02*
X222934236Y-65245607D01*
X222934236Y-65245607D02*
X223029474Y-65340845D01*
X223029474Y-65340845D02*
X223124712Y-65388464D01*
X223124712Y-65388464D02*
X223315188Y-65436083D01*
X223315188Y-65436083D02*
X223458045Y-65436083D01*
X223458045Y-65436083D02*
X223648521Y-65388464D01*
X223648521Y-65388464D02*
X223743759Y-65340845D01*
X223743759Y-65340845D02*
X223838998Y-65245607D01*
X223838998Y-65245607D02*
X223886617Y-65102750D01*
X223886617Y-65102750D02*
X223886617Y-64864655D01*
X223315188Y-66007512D02*
X223267569Y-65912274D01*
X223267569Y-65912274D02*
X223219950Y-65864655D01*
X223219950Y-65864655D02*
X223124712Y-65817036D01*
X223124712Y-65817036D02*
X223077093Y-65817036D01*
X223077093Y-65817036D02*
X222981855Y-65864655D01*
X222981855Y-65864655D02*
X222934236Y-65912274D01*
X222934236Y-65912274D02*
X222886617Y-66007512D01*
X222886617Y-66007512D02*
X222886617Y-66197988D01*
X222886617Y-66197988D02*
X222934236Y-66293226D01*
X222934236Y-66293226D02*
X222981855Y-66340845D01*
X222981855Y-66340845D02*
X223077093Y-66388464D01*
X223077093Y-66388464D02*
X223124712Y-66388464D01*
X223124712Y-66388464D02*
X223219950Y-66340845D01*
X223219950Y-66340845D02*
X223267569Y-66293226D01*
X223267569Y-66293226D02*
X223315188Y-66197988D01*
X223315188Y-66197988D02*
X223315188Y-66007512D01*
X223315188Y-66007512D02*
X223362807Y-65912274D01*
X223362807Y-65912274D02*
X223410426Y-65864655D01*
X223410426Y-65864655D02*
X223505664Y-65817036D01*
X223505664Y-65817036D02*
X223696140Y-65817036D01*
X223696140Y-65817036D02*
X223791378Y-65864655D01*
X223791378Y-65864655D02*
X223838998Y-65912274D01*
X223838998Y-65912274D02*
X223886617Y-66007512D01*
X223886617Y-66007512D02*
X223886617Y-66197988D01*
X223886617Y-66197988D02*
X223838998Y-66293226D01*
X223838998Y-66293226D02*
X223791378Y-66340845D01*
X223791378Y-66340845D02*
X223696140Y-66388464D01*
X223696140Y-66388464D02*
X223505664Y-66388464D01*
X223505664Y-66388464D02*
X223410426Y-66340845D01*
X223410426Y-66340845D02*
X223362807Y-66293226D01*
X223362807Y-66293226D02*
X223315188Y-66197988D01*
%TO.C,D37*%
X276274117Y-102488464D02*
X275274117Y-102488464D01*
X275274117Y-102488464D02*
X275274117Y-102726559D01*
X275274117Y-102726559D02*
X275321736Y-102869416D01*
X275321736Y-102869416D02*
X275416974Y-102964654D01*
X275416974Y-102964654D02*
X275512212Y-103012273D01*
X275512212Y-103012273D02*
X275702688Y-103059892D01*
X275702688Y-103059892D02*
X275845545Y-103059892D01*
X275845545Y-103059892D02*
X276036021Y-103012273D01*
X276036021Y-103012273D02*
X276131259Y-102964654D01*
X276131259Y-102964654D02*
X276226498Y-102869416D01*
X276226498Y-102869416D02*
X276274117Y-102726559D01*
X276274117Y-102726559D02*
X276274117Y-102488464D01*
X275274117Y-103393226D02*
X275274117Y-104012273D01*
X275274117Y-104012273D02*
X275655069Y-103678940D01*
X275655069Y-103678940D02*
X275655069Y-103821797D01*
X275655069Y-103821797D02*
X275702688Y-103917035D01*
X275702688Y-103917035D02*
X275750307Y-103964654D01*
X275750307Y-103964654D02*
X275845545Y-104012273D01*
X275845545Y-104012273D02*
X276083640Y-104012273D01*
X276083640Y-104012273D02*
X276178878Y-103964654D01*
X276178878Y-103964654D02*
X276226498Y-103917035D01*
X276226498Y-103917035D02*
X276274117Y-103821797D01*
X276274117Y-103821797D02*
X276274117Y-103536083D01*
X276274117Y-103536083D02*
X276226498Y-103440845D01*
X276226498Y-103440845D02*
X276178878Y-103393226D01*
X275274117Y-104345607D02*
X275274117Y-105012273D01*
X275274117Y-105012273D02*
X276274117Y-104583702D01*
%TO.C,D44*%
X264367867Y-121475964D02*
X263367867Y-121475964D01*
X263367867Y-121475964D02*
X263367867Y-121714059D01*
X263367867Y-121714059D02*
X263415486Y-121856916D01*
X263415486Y-121856916D02*
X263510724Y-121952154D01*
X263510724Y-121952154D02*
X263605962Y-121999773D01*
X263605962Y-121999773D02*
X263796438Y-122047392D01*
X263796438Y-122047392D02*
X263939295Y-122047392D01*
X263939295Y-122047392D02*
X264129771Y-121999773D01*
X264129771Y-121999773D02*
X264225009Y-121952154D01*
X264225009Y-121952154D02*
X264320248Y-121856916D01*
X264320248Y-121856916D02*
X264367867Y-121714059D01*
X264367867Y-121714059D02*
X264367867Y-121475964D01*
X263701200Y-122904535D02*
X264367867Y-122904535D01*
X263320248Y-122666440D02*
X264034533Y-122428345D01*
X264034533Y-122428345D02*
X264034533Y-123047392D01*
X263701200Y-123856916D02*
X264367867Y-123856916D01*
X263320248Y-123618821D02*
X264034533Y-123380726D01*
X264034533Y-123380726D02*
X264034533Y-123999773D01*
%TO.C,D24*%
X266749117Y-83438464D02*
X265749117Y-83438464D01*
X265749117Y-83438464D02*
X265749117Y-83676559D01*
X265749117Y-83676559D02*
X265796736Y-83819416D01*
X265796736Y-83819416D02*
X265891974Y-83914654D01*
X265891974Y-83914654D02*
X265987212Y-83962273D01*
X265987212Y-83962273D02*
X266177688Y-84009892D01*
X266177688Y-84009892D02*
X266320545Y-84009892D01*
X266320545Y-84009892D02*
X266511021Y-83962273D01*
X266511021Y-83962273D02*
X266606259Y-83914654D01*
X266606259Y-83914654D02*
X266701498Y-83819416D01*
X266701498Y-83819416D02*
X266749117Y-83676559D01*
X266749117Y-83676559D02*
X266749117Y-83438464D01*
X265844355Y-84390845D02*
X265796736Y-84438464D01*
X265796736Y-84438464D02*
X265749117Y-84533702D01*
X265749117Y-84533702D02*
X265749117Y-84771797D01*
X265749117Y-84771797D02*
X265796736Y-84867035D01*
X265796736Y-84867035D02*
X265844355Y-84914654D01*
X265844355Y-84914654D02*
X265939593Y-84962273D01*
X265939593Y-84962273D02*
X266034831Y-84962273D01*
X266034831Y-84962273D02*
X266177688Y-84914654D01*
X266177688Y-84914654D02*
X266749117Y-84343226D01*
X266749117Y-84343226D02*
X266749117Y-84962273D01*
X266082450Y-85819416D02*
X266749117Y-85819416D01*
X265701498Y-85581321D02*
X266415783Y-85343226D01*
X266415783Y-85343226D02*
X266415783Y-85962273D01*
%TO.C,SW1*%
X242985000Y-116141667D02*
X243032619Y-116284524D01*
X243032619Y-116284524D02*
X243032619Y-116522619D01*
X243032619Y-116522619D02*
X242985000Y-116617857D01*
X242985000Y-116617857D02*
X242937380Y-116665476D01*
X242937380Y-116665476D02*
X242842142Y-116713095D01*
X242842142Y-116713095D02*
X242746904Y-116713095D01*
X242746904Y-116713095D02*
X242651666Y-116665476D01*
X242651666Y-116665476D02*
X242604047Y-116617857D01*
X242604047Y-116617857D02*
X242556428Y-116522619D01*
X242556428Y-116522619D02*
X242508809Y-116332143D01*
X242508809Y-116332143D02*
X242461190Y-116236905D01*
X242461190Y-116236905D02*
X242413571Y-116189286D01*
X242413571Y-116189286D02*
X242318333Y-116141667D01*
X242318333Y-116141667D02*
X242223095Y-116141667D01*
X242223095Y-116141667D02*
X242127857Y-116189286D01*
X242127857Y-116189286D02*
X242080238Y-116236905D01*
X242080238Y-116236905D02*
X242032619Y-116332143D01*
X242032619Y-116332143D02*
X242032619Y-116570238D01*
X242032619Y-116570238D02*
X242080238Y-116713095D01*
X242032619Y-117046429D02*
X243032619Y-117284524D01*
X243032619Y-117284524D02*
X242318333Y-117475000D01*
X242318333Y-117475000D02*
X243032619Y-117665476D01*
X243032619Y-117665476D02*
X242032619Y-117903572D01*
X243032619Y-118808333D02*
X243032619Y-118236905D01*
X243032619Y-118522619D02*
X242032619Y-118522619D01*
X242032619Y-118522619D02*
X242175476Y-118427381D01*
X242175476Y-118427381D02*
X242270714Y-118332143D01*
X242270714Y-118332143D02*
X242318333Y-118236905D01*
%TO.C,C7*%
X215558666Y-112225380D02*
X215606285Y-112273000D01*
X215606285Y-112273000D02*
X215749142Y-112320619D01*
X215749142Y-112320619D02*
X215844380Y-112320619D01*
X215844380Y-112320619D02*
X215987237Y-112273000D01*
X215987237Y-112273000D02*
X216082475Y-112177761D01*
X216082475Y-112177761D02*
X216130094Y-112082523D01*
X216130094Y-112082523D02*
X216177713Y-111892047D01*
X216177713Y-111892047D02*
X216177713Y-111749190D01*
X216177713Y-111749190D02*
X216130094Y-111558714D01*
X216130094Y-111558714D02*
X216082475Y-111463476D01*
X216082475Y-111463476D02*
X215987237Y-111368238D01*
X215987237Y-111368238D02*
X215844380Y-111320619D01*
X215844380Y-111320619D02*
X215749142Y-111320619D01*
X215749142Y-111320619D02*
X215606285Y-111368238D01*
X215606285Y-111368238D02*
X215558666Y-111415857D01*
X215225332Y-111320619D02*
X214558666Y-111320619D01*
X214558666Y-111320619D02*
X214987237Y-112320619D01*
%TO.C,D20*%
X190549117Y-83438464D02*
X189549117Y-83438464D01*
X189549117Y-83438464D02*
X189549117Y-83676559D01*
X189549117Y-83676559D02*
X189596736Y-83819416D01*
X189596736Y-83819416D02*
X189691974Y-83914654D01*
X189691974Y-83914654D02*
X189787212Y-83962273D01*
X189787212Y-83962273D02*
X189977688Y-84009892D01*
X189977688Y-84009892D02*
X190120545Y-84009892D01*
X190120545Y-84009892D02*
X190311021Y-83962273D01*
X190311021Y-83962273D02*
X190406259Y-83914654D01*
X190406259Y-83914654D02*
X190501498Y-83819416D01*
X190501498Y-83819416D02*
X190549117Y-83676559D01*
X190549117Y-83676559D02*
X190549117Y-83438464D01*
X189644355Y-84390845D02*
X189596736Y-84438464D01*
X189596736Y-84438464D02*
X189549117Y-84533702D01*
X189549117Y-84533702D02*
X189549117Y-84771797D01*
X189549117Y-84771797D02*
X189596736Y-84867035D01*
X189596736Y-84867035D02*
X189644355Y-84914654D01*
X189644355Y-84914654D02*
X189739593Y-84962273D01*
X189739593Y-84962273D02*
X189834831Y-84962273D01*
X189834831Y-84962273D02*
X189977688Y-84914654D01*
X189977688Y-84914654D02*
X190549117Y-84343226D01*
X190549117Y-84343226D02*
X190549117Y-84962273D01*
X189549117Y-85581321D02*
X189549117Y-85676559D01*
X189549117Y-85676559D02*
X189596736Y-85771797D01*
X189596736Y-85771797D02*
X189644355Y-85819416D01*
X189644355Y-85819416D02*
X189739593Y-85867035D01*
X189739593Y-85867035D02*
X189930069Y-85914654D01*
X189930069Y-85914654D02*
X190168164Y-85914654D01*
X190168164Y-85914654D02*
X190358640Y-85867035D01*
X190358640Y-85867035D02*
X190453878Y-85819416D01*
X190453878Y-85819416D02*
X190501498Y-85771797D01*
X190501498Y-85771797D02*
X190549117Y-85676559D01*
X190549117Y-85676559D02*
X190549117Y-85581321D01*
X190549117Y-85581321D02*
X190501498Y-85486083D01*
X190501498Y-85486083D02*
X190453878Y-85438464D01*
X190453878Y-85438464D02*
X190358640Y-85390845D01*
X190358640Y-85390845D02*
X190168164Y-85343226D01*
X190168164Y-85343226D02*
X189930069Y-85343226D01*
X189930069Y-85343226D02*
X189739593Y-85390845D01*
X189739593Y-85390845D02*
X189644355Y-85438464D01*
X189644355Y-85438464D02*
X189596736Y-85486083D01*
X189596736Y-85486083D02*
X189549117Y-85581321D01*
%TO.C,C1*%
X193648666Y-107047380D02*
X193696285Y-107095000D01*
X193696285Y-107095000D02*
X193839142Y-107142619D01*
X193839142Y-107142619D02*
X193934380Y-107142619D01*
X193934380Y-107142619D02*
X194077237Y-107095000D01*
X194077237Y-107095000D02*
X194172475Y-106999761D01*
X194172475Y-106999761D02*
X194220094Y-106904523D01*
X194220094Y-106904523D02*
X194267713Y-106714047D01*
X194267713Y-106714047D02*
X194267713Y-106571190D01*
X194267713Y-106571190D02*
X194220094Y-106380714D01*
X194220094Y-106380714D02*
X194172475Y-106285476D01*
X194172475Y-106285476D02*
X194077237Y-106190238D01*
X194077237Y-106190238D02*
X193934380Y-106142619D01*
X193934380Y-106142619D02*
X193839142Y-106142619D01*
X193839142Y-106142619D02*
X193696285Y-106190238D01*
X193696285Y-106190238D02*
X193648666Y-106237857D01*
X192696285Y-107142619D02*
X193267713Y-107142619D01*
X192981999Y-107142619D02*
X192981999Y-106142619D01*
X192981999Y-106142619D02*
X193077237Y-106285476D01*
X193077237Y-106285476D02*
X193172475Y-106380714D01*
X193172475Y-106380714D02*
X193267713Y-106428333D01*
%TO.C,R4*%
X233465666Y-116285619D02*
X233798999Y-115809428D01*
X234037094Y-116285619D02*
X234037094Y-115285619D01*
X234037094Y-115285619D02*
X233656142Y-115285619D01*
X233656142Y-115285619D02*
X233560904Y-115333238D01*
X233560904Y-115333238D02*
X233513285Y-115380857D01*
X233513285Y-115380857D02*
X233465666Y-115476095D01*
X233465666Y-115476095D02*
X233465666Y-115618952D01*
X233465666Y-115618952D02*
X233513285Y-115714190D01*
X233513285Y-115714190D02*
X233560904Y-115761809D01*
X233560904Y-115761809D02*
X233656142Y-115809428D01*
X233656142Y-115809428D02*
X234037094Y-115809428D01*
X232608523Y-115618952D02*
X232608523Y-116285619D01*
X232846618Y-115238000D02*
X233084713Y-115952285D01*
X233084713Y-115952285D02*
X232465666Y-115952285D01*
%TO.C,D23*%
X247699117Y-83438464D02*
X246699117Y-83438464D01*
X246699117Y-83438464D02*
X246699117Y-83676559D01*
X246699117Y-83676559D02*
X246746736Y-83819416D01*
X246746736Y-83819416D02*
X246841974Y-83914654D01*
X246841974Y-83914654D02*
X246937212Y-83962273D01*
X246937212Y-83962273D02*
X247127688Y-84009892D01*
X247127688Y-84009892D02*
X247270545Y-84009892D01*
X247270545Y-84009892D02*
X247461021Y-83962273D01*
X247461021Y-83962273D02*
X247556259Y-83914654D01*
X247556259Y-83914654D02*
X247651498Y-83819416D01*
X247651498Y-83819416D02*
X247699117Y-83676559D01*
X247699117Y-83676559D02*
X247699117Y-83438464D01*
X246794355Y-84390845D02*
X246746736Y-84438464D01*
X246746736Y-84438464D02*
X246699117Y-84533702D01*
X246699117Y-84533702D02*
X246699117Y-84771797D01*
X246699117Y-84771797D02*
X246746736Y-84867035D01*
X246746736Y-84867035D02*
X246794355Y-84914654D01*
X246794355Y-84914654D02*
X246889593Y-84962273D01*
X246889593Y-84962273D02*
X246984831Y-84962273D01*
X246984831Y-84962273D02*
X247127688Y-84914654D01*
X247127688Y-84914654D02*
X247699117Y-84343226D01*
X247699117Y-84343226D02*
X247699117Y-84962273D01*
X246699117Y-85295607D02*
X246699117Y-85914654D01*
X246699117Y-85914654D02*
X247080069Y-85581321D01*
X247080069Y-85581321D02*
X247080069Y-85724178D01*
X247080069Y-85724178D02*
X247127688Y-85819416D01*
X247127688Y-85819416D02*
X247175307Y-85867035D01*
X247175307Y-85867035D02*
X247270545Y-85914654D01*
X247270545Y-85914654D02*
X247508640Y-85914654D01*
X247508640Y-85914654D02*
X247603878Y-85867035D01*
X247603878Y-85867035D02*
X247651498Y-85819416D01*
X247651498Y-85819416D02*
X247699117Y-85724178D01*
X247699117Y-85724178D02*
X247699117Y-85438464D01*
X247699117Y-85438464D02*
X247651498Y-85343226D01*
X247651498Y-85343226D02*
X247603878Y-85295607D01*
%TO.C,C4*%
X197651666Y-127269380D02*
X197699285Y-127317000D01*
X197699285Y-127317000D02*
X197842142Y-127364619D01*
X197842142Y-127364619D02*
X197937380Y-127364619D01*
X197937380Y-127364619D02*
X198080237Y-127317000D01*
X198080237Y-127317000D02*
X198175475Y-127221761D01*
X198175475Y-127221761D02*
X198223094Y-127126523D01*
X198223094Y-127126523D02*
X198270713Y-126936047D01*
X198270713Y-126936047D02*
X198270713Y-126793190D01*
X198270713Y-126793190D02*
X198223094Y-126602714D01*
X198223094Y-126602714D02*
X198175475Y-126507476D01*
X198175475Y-126507476D02*
X198080237Y-126412238D01*
X198080237Y-126412238D02*
X197937380Y-126364619D01*
X197937380Y-126364619D02*
X197842142Y-126364619D01*
X197842142Y-126364619D02*
X197699285Y-126412238D01*
X197699285Y-126412238D02*
X197651666Y-126459857D01*
X196794523Y-126697952D02*
X196794523Y-127364619D01*
X197032618Y-126317000D02*
X197270713Y-127031285D01*
X197270713Y-127031285D02*
X196651666Y-127031285D01*
%TO.C,D7*%
X204836617Y-64864655D02*
X203836617Y-64864655D01*
X203836617Y-64864655D02*
X203836617Y-65102750D01*
X203836617Y-65102750D02*
X203884236Y-65245607D01*
X203884236Y-65245607D02*
X203979474Y-65340845D01*
X203979474Y-65340845D02*
X204074712Y-65388464D01*
X204074712Y-65388464D02*
X204265188Y-65436083D01*
X204265188Y-65436083D02*
X204408045Y-65436083D01*
X204408045Y-65436083D02*
X204598521Y-65388464D01*
X204598521Y-65388464D02*
X204693759Y-65340845D01*
X204693759Y-65340845D02*
X204788998Y-65245607D01*
X204788998Y-65245607D02*
X204836617Y-65102750D01*
X204836617Y-65102750D02*
X204836617Y-64864655D01*
X203836617Y-65769417D02*
X203836617Y-66436083D01*
X203836617Y-66436083D02*
X204836617Y-66007512D01*
%TO.C,R1*%
X188721166Y-123962619D02*
X189054499Y-123486428D01*
X189292594Y-123962619D02*
X189292594Y-122962619D01*
X189292594Y-122962619D02*
X188911642Y-122962619D01*
X188911642Y-122962619D02*
X188816404Y-123010238D01*
X188816404Y-123010238D02*
X188768785Y-123057857D01*
X188768785Y-123057857D02*
X188721166Y-123153095D01*
X188721166Y-123153095D02*
X188721166Y-123295952D01*
X188721166Y-123295952D02*
X188768785Y-123391190D01*
X188768785Y-123391190D02*
X188816404Y-123438809D01*
X188816404Y-123438809D02*
X188911642Y-123486428D01*
X188911642Y-123486428D02*
X189292594Y-123486428D01*
X187768785Y-123962619D02*
X188340213Y-123962619D01*
X188054499Y-123962619D02*
X188054499Y-122962619D01*
X188054499Y-122962619D02*
X188149737Y-123105476D01*
X188149737Y-123105476D02*
X188244975Y-123200714D01*
X188244975Y-123200714D02*
X188340213Y-123248333D01*
%TO.C,C2*%
X206205380Y-111278333D02*
X206253000Y-111230714D01*
X206253000Y-111230714D02*
X206300619Y-111087857D01*
X206300619Y-111087857D02*
X206300619Y-110992619D01*
X206300619Y-110992619D02*
X206253000Y-110849762D01*
X206253000Y-110849762D02*
X206157761Y-110754524D01*
X206157761Y-110754524D02*
X206062523Y-110706905D01*
X206062523Y-110706905D02*
X205872047Y-110659286D01*
X205872047Y-110659286D02*
X205729190Y-110659286D01*
X205729190Y-110659286D02*
X205538714Y-110706905D01*
X205538714Y-110706905D02*
X205443476Y-110754524D01*
X205443476Y-110754524D02*
X205348238Y-110849762D01*
X205348238Y-110849762D02*
X205300619Y-110992619D01*
X205300619Y-110992619D02*
X205300619Y-111087857D01*
X205300619Y-111087857D02*
X205348238Y-111230714D01*
X205348238Y-111230714D02*
X205395857Y-111278333D01*
X205395857Y-111659286D02*
X205348238Y-111706905D01*
X205348238Y-111706905D02*
X205300619Y-111802143D01*
X205300619Y-111802143D02*
X205300619Y-112040238D01*
X205300619Y-112040238D02*
X205348238Y-112135476D01*
X205348238Y-112135476D02*
X205395857Y-112183095D01*
X205395857Y-112183095D02*
X205491095Y-112230714D01*
X205491095Y-112230714D02*
X205586333Y-112230714D01*
X205586333Y-112230714D02*
X205729190Y-112183095D01*
X205729190Y-112183095D02*
X206300619Y-111611667D01*
X206300619Y-111611667D02*
X206300619Y-112230714D01*
%TO.C,D31*%
X161974117Y-102425964D02*
X160974117Y-102425964D01*
X160974117Y-102425964D02*
X160974117Y-102664059D01*
X160974117Y-102664059D02*
X161021736Y-102806916D01*
X161021736Y-102806916D02*
X161116974Y-102902154D01*
X161116974Y-102902154D02*
X161212212Y-102949773D01*
X161212212Y-102949773D02*
X161402688Y-102997392D01*
X161402688Y-102997392D02*
X161545545Y-102997392D01*
X161545545Y-102997392D02*
X161736021Y-102949773D01*
X161736021Y-102949773D02*
X161831259Y-102902154D01*
X161831259Y-102902154D02*
X161926498Y-102806916D01*
X161926498Y-102806916D02*
X161974117Y-102664059D01*
X161974117Y-102664059D02*
X161974117Y-102425964D01*
X160974117Y-103330726D02*
X160974117Y-103949773D01*
X160974117Y-103949773D02*
X161355069Y-103616440D01*
X161355069Y-103616440D02*
X161355069Y-103759297D01*
X161355069Y-103759297D02*
X161402688Y-103854535D01*
X161402688Y-103854535D02*
X161450307Y-103902154D01*
X161450307Y-103902154D02*
X161545545Y-103949773D01*
X161545545Y-103949773D02*
X161783640Y-103949773D01*
X161783640Y-103949773D02*
X161878878Y-103902154D01*
X161878878Y-103902154D02*
X161926498Y-103854535D01*
X161926498Y-103854535D02*
X161974117Y-103759297D01*
X161974117Y-103759297D02*
X161974117Y-103473583D01*
X161974117Y-103473583D02*
X161926498Y-103378345D01*
X161926498Y-103378345D02*
X161878878Y-103330726D01*
X161974117Y-104902154D02*
X161974117Y-104330726D01*
X161974117Y-104616440D02*
X160974117Y-104616440D01*
X160974117Y-104616440D02*
X161116974Y-104521202D01*
X161116974Y-104521202D02*
X161212212Y-104425964D01*
X161212212Y-104425964D02*
X161259831Y-104330726D01*
%TO.C,D10*%
X261986617Y-64388464D02*
X260986617Y-64388464D01*
X260986617Y-64388464D02*
X260986617Y-64626559D01*
X260986617Y-64626559D02*
X261034236Y-64769416D01*
X261034236Y-64769416D02*
X261129474Y-64864654D01*
X261129474Y-64864654D02*
X261224712Y-64912273D01*
X261224712Y-64912273D02*
X261415188Y-64959892D01*
X261415188Y-64959892D02*
X261558045Y-64959892D01*
X261558045Y-64959892D02*
X261748521Y-64912273D01*
X261748521Y-64912273D02*
X261843759Y-64864654D01*
X261843759Y-64864654D02*
X261938998Y-64769416D01*
X261938998Y-64769416D02*
X261986617Y-64626559D01*
X261986617Y-64626559D02*
X261986617Y-64388464D01*
X261986617Y-65912273D02*
X261986617Y-65340845D01*
X261986617Y-65626559D02*
X260986617Y-65626559D01*
X260986617Y-65626559D02*
X261129474Y-65531321D01*
X261129474Y-65531321D02*
X261224712Y-65436083D01*
X261224712Y-65436083D02*
X261272331Y-65340845D01*
X260986617Y-66531321D02*
X260986617Y-66626559D01*
X260986617Y-66626559D02*
X261034236Y-66721797D01*
X261034236Y-66721797D02*
X261081855Y-66769416D01*
X261081855Y-66769416D02*
X261177093Y-66817035D01*
X261177093Y-66817035D02*
X261367569Y-66864654D01*
X261367569Y-66864654D02*
X261605664Y-66864654D01*
X261605664Y-66864654D02*
X261796140Y-66817035D01*
X261796140Y-66817035D02*
X261891378Y-66769416D01*
X261891378Y-66769416D02*
X261938998Y-66721797D01*
X261938998Y-66721797D02*
X261986617Y-66626559D01*
X261986617Y-66626559D02*
X261986617Y-66531321D01*
X261986617Y-66531321D02*
X261938998Y-66436083D01*
X261938998Y-66436083D02*
X261891378Y-66388464D01*
X261891378Y-66388464D02*
X261796140Y-66340845D01*
X261796140Y-66340845D02*
X261605664Y-66293226D01*
X261605664Y-66293226D02*
X261367569Y-66293226D01*
X261367569Y-66293226D02*
X261177093Y-66340845D01*
X261177093Y-66340845D02*
X261081855Y-66388464D01*
X261081855Y-66388464D02*
X261034236Y-66436083D01*
X261034236Y-66436083D02*
X260986617Y-66531321D01*
%TO.C,D32*%
X181024117Y-102425964D02*
X180024117Y-102425964D01*
X180024117Y-102425964D02*
X180024117Y-102664059D01*
X180024117Y-102664059D02*
X180071736Y-102806916D01*
X180071736Y-102806916D02*
X180166974Y-102902154D01*
X180166974Y-102902154D02*
X180262212Y-102949773D01*
X180262212Y-102949773D02*
X180452688Y-102997392D01*
X180452688Y-102997392D02*
X180595545Y-102997392D01*
X180595545Y-102997392D02*
X180786021Y-102949773D01*
X180786021Y-102949773D02*
X180881259Y-102902154D01*
X180881259Y-102902154D02*
X180976498Y-102806916D01*
X180976498Y-102806916D02*
X181024117Y-102664059D01*
X181024117Y-102664059D02*
X181024117Y-102425964D01*
X180024117Y-103330726D02*
X180024117Y-103949773D01*
X180024117Y-103949773D02*
X180405069Y-103616440D01*
X180405069Y-103616440D02*
X180405069Y-103759297D01*
X180405069Y-103759297D02*
X180452688Y-103854535D01*
X180452688Y-103854535D02*
X180500307Y-103902154D01*
X180500307Y-103902154D02*
X180595545Y-103949773D01*
X180595545Y-103949773D02*
X180833640Y-103949773D01*
X180833640Y-103949773D02*
X180928878Y-103902154D01*
X180928878Y-103902154D02*
X180976498Y-103854535D01*
X180976498Y-103854535D02*
X181024117Y-103759297D01*
X181024117Y-103759297D02*
X181024117Y-103473583D01*
X181024117Y-103473583D02*
X180976498Y-103378345D01*
X180976498Y-103378345D02*
X180928878Y-103330726D01*
X180119355Y-104330726D02*
X180071736Y-104378345D01*
X180071736Y-104378345D02*
X180024117Y-104473583D01*
X180024117Y-104473583D02*
X180024117Y-104711678D01*
X180024117Y-104711678D02*
X180071736Y-104806916D01*
X180071736Y-104806916D02*
X180119355Y-104854535D01*
X180119355Y-104854535D02*
X180214593Y-104902154D01*
X180214593Y-104902154D02*
X180309831Y-104902154D01*
X180309831Y-104902154D02*
X180452688Y-104854535D01*
X180452688Y-104854535D02*
X181024117Y-104283107D01*
X181024117Y-104283107D02*
X181024117Y-104902154D01*
%TO.C,D6*%
X185786617Y-64864655D02*
X184786617Y-64864655D01*
X184786617Y-64864655D02*
X184786617Y-65102750D01*
X184786617Y-65102750D02*
X184834236Y-65245607D01*
X184834236Y-65245607D02*
X184929474Y-65340845D01*
X184929474Y-65340845D02*
X185024712Y-65388464D01*
X185024712Y-65388464D02*
X185215188Y-65436083D01*
X185215188Y-65436083D02*
X185358045Y-65436083D01*
X185358045Y-65436083D02*
X185548521Y-65388464D01*
X185548521Y-65388464D02*
X185643759Y-65340845D01*
X185643759Y-65340845D02*
X185738998Y-65245607D01*
X185738998Y-65245607D02*
X185786617Y-65102750D01*
X185786617Y-65102750D02*
X185786617Y-64864655D01*
X184786617Y-66293226D02*
X184786617Y-66102750D01*
X184786617Y-66102750D02*
X184834236Y-66007512D01*
X184834236Y-66007512D02*
X184881855Y-65959893D01*
X184881855Y-65959893D02*
X185024712Y-65864655D01*
X185024712Y-65864655D02*
X185215188Y-65817036D01*
X185215188Y-65817036D02*
X185596140Y-65817036D01*
X185596140Y-65817036D02*
X185691378Y-65864655D01*
X185691378Y-65864655D02*
X185738998Y-65912274D01*
X185738998Y-65912274D02*
X185786617Y-66007512D01*
X185786617Y-66007512D02*
X185786617Y-66197988D01*
X185786617Y-66197988D02*
X185738998Y-66293226D01*
X185738998Y-66293226D02*
X185691378Y-66340845D01*
X185691378Y-66340845D02*
X185596140Y-66388464D01*
X185596140Y-66388464D02*
X185358045Y-66388464D01*
X185358045Y-66388464D02*
X185262807Y-66340845D01*
X185262807Y-66340845D02*
X185215188Y-66293226D01*
X185215188Y-66293226D02*
X185167569Y-66197988D01*
X185167569Y-66197988D02*
X185167569Y-66007512D01*
X185167569Y-66007512D02*
X185215188Y-65912274D01*
X185215188Y-65912274D02*
X185262807Y-65864655D01*
X185262807Y-65864655D02*
X185358045Y-65817036D01*
%TO.C,D17*%
X133399117Y-83438464D02*
X132399117Y-83438464D01*
X132399117Y-83438464D02*
X132399117Y-83676559D01*
X132399117Y-83676559D02*
X132446736Y-83819416D01*
X132446736Y-83819416D02*
X132541974Y-83914654D01*
X132541974Y-83914654D02*
X132637212Y-83962273D01*
X132637212Y-83962273D02*
X132827688Y-84009892D01*
X132827688Y-84009892D02*
X132970545Y-84009892D01*
X132970545Y-84009892D02*
X133161021Y-83962273D01*
X133161021Y-83962273D02*
X133256259Y-83914654D01*
X133256259Y-83914654D02*
X133351498Y-83819416D01*
X133351498Y-83819416D02*
X133399117Y-83676559D01*
X133399117Y-83676559D02*
X133399117Y-83438464D01*
X133399117Y-84962273D02*
X133399117Y-84390845D01*
X133399117Y-84676559D02*
X132399117Y-84676559D01*
X132399117Y-84676559D02*
X132541974Y-84581321D01*
X132541974Y-84581321D02*
X132637212Y-84486083D01*
X132637212Y-84486083D02*
X132684831Y-84390845D01*
X132399117Y-85295607D02*
X132399117Y-85962273D01*
X132399117Y-85962273D02*
X133399117Y-85533702D01*
%TO.C,D42*%
X158863619Y-121468714D02*
X157863619Y-121468714D01*
X157863619Y-121468714D02*
X157863619Y-121706809D01*
X157863619Y-121706809D02*
X157911238Y-121849666D01*
X157911238Y-121849666D02*
X158006476Y-121944904D01*
X158006476Y-121944904D02*
X158101714Y-121992523D01*
X158101714Y-121992523D02*
X158292190Y-122040142D01*
X158292190Y-122040142D02*
X158435047Y-122040142D01*
X158435047Y-122040142D02*
X158625523Y-121992523D01*
X158625523Y-121992523D02*
X158720761Y-121944904D01*
X158720761Y-121944904D02*
X158816000Y-121849666D01*
X158816000Y-121849666D02*
X158863619Y-121706809D01*
X158863619Y-121706809D02*
X158863619Y-121468714D01*
X158196952Y-122897285D02*
X158863619Y-122897285D01*
X157816000Y-122659190D02*
X158530285Y-122421095D01*
X158530285Y-122421095D02*
X158530285Y-123040142D01*
X157958857Y-123373476D02*
X157911238Y-123421095D01*
X157911238Y-123421095D02*
X157863619Y-123516333D01*
X157863619Y-123516333D02*
X157863619Y-123754428D01*
X157863619Y-123754428D02*
X157911238Y-123849666D01*
X157911238Y-123849666D02*
X157958857Y-123897285D01*
X157958857Y-123897285D02*
X158054095Y-123944904D01*
X158054095Y-123944904D02*
X158149333Y-123944904D01*
X158149333Y-123944904D02*
X158292190Y-123897285D01*
X158292190Y-123897285D02*
X158863619Y-123325857D01*
X158863619Y-123325857D02*
X158863619Y-123944904D01*
%TO.C,D34*%
X219124117Y-102488464D02*
X218124117Y-102488464D01*
X218124117Y-102488464D02*
X218124117Y-102726559D01*
X218124117Y-102726559D02*
X218171736Y-102869416D01*
X218171736Y-102869416D02*
X218266974Y-102964654D01*
X218266974Y-102964654D02*
X218362212Y-103012273D01*
X218362212Y-103012273D02*
X218552688Y-103059892D01*
X218552688Y-103059892D02*
X218695545Y-103059892D01*
X218695545Y-103059892D02*
X218886021Y-103012273D01*
X218886021Y-103012273D02*
X218981259Y-102964654D01*
X218981259Y-102964654D02*
X219076498Y-102869416D01*
X219076498Y-102869416D02*
X219124117Y-102726559D01*
X219124117Y-102726559D02*
X219124117Y-102488464D01*
X218124117Y-103393226D02*
X218124117Y-104012273D01*
X218124117Y-104012273D02*
X218505069Y-103678940D01*
X218505069Y-103678940D02*
X218505069Y-103821797D01*
X218505069Y-103821797D02*
X218552688Y-103917035D01*
X218552688Y-103917035D02*
X218600307Y-103964654D01*
X218600307Y-103964654D02*
X218695545Y-104012273D01*
X218695545Y-104012273D02*
X218933640Y-104012273D01*
X218933640Y-104012273D02*
X219028878Y-103964654D01*
X219028878Y-103964654D02*
X219076498Y-103917035D01*
X219076498Y-103917035D02*
X219124117Y-103821797D01*
X219124117Y-103821797D02*
X219124117Y-103536083D01*
X219124117Y-103536083D02*
X219076498Y-103440845D01*
X219076498Y-103440845D02*
X219028878Y-103393226D01*
X218457450Y-104869416D02*
X219124117Y-104869416D01*
X218076498Y-104631321D02*
X218790783Y-104393226D01*
X218790783Y-104393226D02*
X218790783Y-105012273D01*
%TO.C,D26*%
X304849117Y-83438464D02*
X303849117Y-83438464D01*
X303849117Y-83438464D02*
X303849117Y-83676559D01*
X303849117Y-83676559D02*
X303896736Y-83819416D01*
X303896736Y-83819416D02*
X303991974Y-83914654D01*
X303991974Y-83914654D02*
X304087212Y-83962273D01*
X304087212Y-83962273D02*
X304277688Y-84009892D01*
X304277688Y-84009892D02*
X304420545Y-84009892D01*
X304420545Y-84009892D02*
X304611021Y-83962273D01*
X304611021Y-83962273D02*
X304706259Y-83914654D01*
X304706259Y-83914654D02*
X304801498Y-83819416D01*
X304801498Y-83819416D02*
X304849117Y-83676559D01*
X304849117Y-83676559D02*
X304849117Y-83438464D01*
X303944355Y-84390845D02*
X303896736Y-84438464D01*
X303896736Y-84438464D02*
X303849117Y-84533702D01*
X303849117Y-84533702D02*
X303849117Y-84771797D01*
X303849117Y-84771797D02*
X303896736Y-84867035D01*
X303896736Y-84867035D02*
X303944355Y-84914654D01*
X303944355Y-84914654D02*
X304039593Y-84962273D01*
X304039593Y-84962273D02*
X304134831Y-84962273D01*
X304134831Y-84962273D02*
X304277688Y-84914654D01*
X304277688Y-84914654D02*
X304849117Y-84343226D01*
X304849117Y-84343226D02*
X304849117Y-84962273D01*
X303849117Y-85819416D02*
X303849117Y-85628940D01*
X303849117Y-85628940D02*
X303896736Y-85533702D01*
X303896736Y-85533702D02*
X303944355Y-85486083D01*
X303944355Y-85486083D02*
X304087212Y-85390845D01*
X304087212Y-85390845D02*
X304277688Y-85343226D01*
X304277688Y-85343226D02*
X304658640Y-85343226D01*
X304658640Y-85343226D02*
X304753878Y-85390845D01*
X304753878Y-85390845D02*
X304801498Y-85438464D01*
X304801498Y-85438464D02*
X304849117Y-85533702D01*
X304849117Y-85533702D02*
X304849117Y-85724178D01*
X304849117Y-85724178D02*
X304801498Y-85819416D01*
X304801498Y-85819416D02*
X304753878Y-85867035D01*
X304753878Y-85867035D02*
X304658640Y-85914654D01*
X304658640Y-85914654D02*
X304420545Y-85914654D01*
X304420545Y-85914654D02*
X304325307Y-85867035D01*
X304325307Y-85867035D02*
X304277688Y-85819416D01*
X304277688Y-85819416D02*
X304230069Y-85724178D01*
X304230069Y-85724178D02*
X304230069Y-85533702D01*
X304230069Y-85533702D02*
X304277688Y-85438464D01*
X304277688Y-85438464D02*
X304325307Y-85390845D01*
X304325307Y-85390845D02*
X304420545Y-85343226D01*
%TO.C,C5*%
X184382666Y-119972380D02*
X184430285Y-120020000D01*
X184430285Y-120020000D02*
X184573142Y-120067619D01*
X184573142Y-120067619D02*
X184668380Y-120067619D01*
X184668380Y-120067619D02*
X184811237Y-120020000D01*
X184811237Y-120020000D02*
X184906475Y-119924761D01*
X184906475Y-119924761D02*
X184954094Y-119829523D01*
X184954094Y-119829523D02*
X185001713Y-119639047D01*
X185001713Y-119639047D02*
X185001713Y-119496190D01*
X185001713Y-119496190D02*
X184954094Y-119305714D01*
X184954094Y-119305714D02*
X184906475Y-119210476D01*
X184906475Y-119210476D02*
X184811237Y-119115238D01*
X184811237Y-119115238D02*
X184668380Y-119067619D01*
X184668380Y-119067619D02*
X184573142Y-119067619D01*
X184573142Y-119067619D02*
X184430285Y-119115238D01*
X184430285Y-119115238D02*
X184382666Y-119162857D01*
X183477904Y-119067619D02*
X183954094Y-119067619D01*
X183954094Y-119067619D02*
X184001713Y-119543809D01*
X184001713Y-119543809D02*
X183954094Y-119496190D01*
X183954094Y-119496190D02*
X183858856Y-119448571D01*
X183858856Y-119448571D02*
X183620761Y-119448571D01*
X183620761Y-119448571D02*
X183525523Y-119496190D01*
X183525523Y-119496190D02*
X183477904Y-119543809D01*
X183477904Y-119543809D02*
X183430285Y-119639047D01*
X183430285Y-119639047D02*
X183430285Y-119877142D01*
X183430285Y-119877142D02*
X183477904Y-119972380D01*
X183477904Y-119972380D02*
X183525523Y-120020000D01*
X183525523Y-120020000D02*
X183620761Y-120067619D01*
X183620761Y-120067619D02*
X183858856Y-120067619D01*
X183858856Y-120067619D02*
X183954094Y-120020000D01*
X183954094Y-120020000D02*
X184001713Y-119972380D01*
%TO.C,Y1*%
X213764428Y-116744809D02*
X214240619Y-116744809D01*
X213240619Y-116411476D02*
X213764428Y-116744809D01*
X213764428Y-116744809D02*
X213240619Y-117078142D01*
X214240619Y-117935285D02*
X214240619Y-117363857D01*
X214240619Y-117649571D02*
X213240619Y-117649571D01*
X213240619Y-117649571D02*
X213383476Y-117554333D01*
X213383476Y-117554333D02*
X213478714Y-117459095D01*
X213478714Y-117459095D02*
X213526333Y-117363857D01*
%TO.C,J1*%
X197158619Y-93138666D02*
X197872904Y-93138666D01*
X197872904Y-93138666D02*
X198015761Y-93091047D01*
X198015761Y-93091047D02*
X198111000Y-92995809D01*
X198111000Y-92995809D02*
X198158619Y-92852952D01*
X198158619Y-92852952D02*
X198158619Y-92757714D01*
X198158619Y-94138666D02*
X198158619Y-93567238D01*
X198158619Y-93852952D02*
X197158619Y-93852952D01*
X197158619Y-93852952D02*
X197301476Y-93757714D01*
X197301476Y-93757714D02*
X197396714Y-93662476D01*
X197396714Y-93662476D02*
X197444333Y-93567238D01*
%TO.C,D40*%
X121492867Y-121475964D02*
X120492867Y-121475964D01*
X120492867Y-121475964D02*
X120492867Y-121714059D01*
X120492867Y-121714059D02*
X120540486Y-121856916D01*
X120540486Y-121856916D02*
X120635724Y-121952154D01*
X120635724Y-121952154D02*
X120730962Y-121999773D01*
X120730962Y-121999773D02*
X120921438Y-122047392D01*
X120921438Y-122047392D02*
X121064295Y-122047392D01*
X121064295Y-122047392D02*
X121254771Y-121999773D01*
X121254771Y-121999773D02*
X121350009Y-121952154D01*
X121350009Y-121952154D02*
X121445248Y-121856916D01*
X121445248Y-121856916D02*
X121492867Y-121714059D01*
X121492867Y-121714059D02*
X121492867Y-121475964D01*
X120826200Y-122904535D02*
X121492867Y-122904535D01*
X120445248Y-122666440D02*
X121159533Y-122428345D01*
X121159533Y-122428345D02*
X121159533Y-123047392D01*
X120492867Y-123618821D02*
X120492867Y-123714059D01*
X120492867Y-123714059D02*
X120540486Y-123809297D01*
X120540486Y-123809297D02*
X120588105Y-123856916D01*
X120588105Y-123856916D02*
X120683343Y-123904535D01*
X120683343Y-123904535D02*
X120873819Y-123952154D01*
X120873819Y-123952154D02*
X121111914Y-123952154D01*
X121111914Y-123952154D02*
X121302390Y-123904535D01*
X121302390Y-123904535D02*
X121397628Y-123856916D01*
X121397628Y-123856916D02*
X121445248Y-123809297D01*
X121445248Y-123809297D02*
X121492867Y-123714059D01*
X121492867Y-123714059D02*
X121492867Y-123618821D01*
X121492867Y-123618821D02*
X121445248Y-123523583D01*
X121445248Y-123523583D02*
X121397628Y-123475964D01*
X121397628Y-123475964D02*
X121302390Y-123428345D01*
X121302390Y-123428345D02*
X121111914Y-123380726D01*
X121111914Y-123380726D02*
X120873819Y-123380726D01*
X120873819Y-123380726D02*
X120683343Y-123428345D01*
X120683343Y-123428345D02*
X120588105Y-123475964D01*
X120588105Y-123475964D02*
X120540486Y-123523583D01*
X120540486Y-123523583D02*
X120492867Y-123618821D01*
D11*
%TO.C,D3*%
X125173998Y-67837750D02*
X125173998Y-63827750D01*
X127173998Y-67837750D02*
X125173998Y-67837750D01*
X127173998Y-67837750D02*
X127173998Y-63827750D01*
%TO.C,D5*%
X163273998Y-67962750D02*
X163273998Y-63952750D01*
X165273998Y-67962750D02*
X163273998Y-67962750D01*
X165273998Y-67962750D02*
X165273998Y-63952750D01*
%TO.C,D1*%
X82311498Y-67900250D02*
X82311498Y-63890250D01*
X84311498Y-67900250D02*
X82311498Y-67900250D01*
X84311498Y-67900250D02*
X84311498Y-63890250D01*
%TO.C,D30*%
X139461498Y-106062750D02*
X139461498Y-102052750D01*
X141461498Y-106062750D02*
X139461498Y-106062750D01*
X141461498Y-106062750D02*
X141461498Y-102052750D01*
%TO.C,D29*%
X120411498Y-106062750D02*
X120411498Y-102052750D01*
X122411498Y-106062750D02*
X120411498Y-106062750D01*
X122411498Y-106062750D02*
X122411498Y-102052750D01*
%TO.C,D28*%
X89455248Y-106062750D02*
X89455248Y-102052750D01*
X91455248Y-106062750D02*
X89455248Y-106062750D01*
X91455248Y-106062750D02*
X91455248Y-102052750D01*
%TO.C,D36*%
X253761498Y-106062750D02*
X253761498Y-102052750D01*
X255761498Y-106062750D02*
X253761498Y-106062750D01*
X255761498Y-106062750D02*
X255761498Y-102052750D01*
%TO.C,D14*%
X339486498Y-68025250D02*
X339486498Y-64015250D01*
X341486498Y-68025250D02*
X339486498Y-68025250D01*
X341486498Y-68025250D02*
X341486498Y-64015250D01*
%TO.C,D13*%
X314880248Y-68025250D02*
X314880248Y-64015250D01*
X316880248Y-68025250D02*
X314880248Y-68025250D01*
X316880248Y-68025250D02*
X316880248Y-64015250D01*
%TO.C,D25*%
X282336498Y-87012750D02*
X282336498Y-83002750D01*
X284336498Y-87012750D02*
X282336498Y-87012750D01*
X284336498Y-87012750D02*
X284336498Y-83002750D01*
%TO.C,D4*%
X144223998Y-67900250D02*
X144223998Y-63890250D01*
X146223998Y-67900250D02*
X144223998Y-67900250D01*
X146223998Y-67900250D02*
X146223998Y-63890250D01*
%TO.C,D18*%
X148986498Y-87012750D02*
X148986498Y-83002750D01*
X150986498Y-87012750D02*
X148986498Y-87012750D01*
X150986498Y-87012750D02*
X150986498Y-83002750D01*
%TO.C,C6*%
X215653252Y-117575000D02*
X215130748Y-117575000D01*
X215653252Y-116105000D02*
X215130748Y-116105000D01*
%TO.C,D38*%
X291861498Y-106062750D02*
X291861498Y-102052750D01*
X293861498Y-106062750D02*
X291861498Y-106062750D01*
X293861498Y-106062750D02*
X293861498Y-102052750D01*
%TO.C,D45*%
X284717748Y-125112750D02*
X284717748Y-121102750D01*
X286717748Y-125112750D02*
X284717748Y-125112750D01*
X286717748Y-125112750D02*
X286717748Y-121102750D01*
%TO.C,D43*%
X209153000Y-120323000D02*
X209153000Y-124333000D01*
X207153000Y-120323000D02*
X209153000Y-120323000D01*
X207153000Y-120323000D02*
X207153000Y-124333000D01*
%TO.C,D35*%
X234711498Y-106000250D02*
X234711498Y-101990250D01*
X236711498Y-106000250D02*
X234711498Y-106000250D01*
X236711498Y-106000250D02*
X236711498Y-101990250D01*
%TO.C,D46*%
X308530248Y-125112750D02*
X308530248Y-121102750D01*
X310530248Y-125112750D02*
X308530248Y-125112750D01*
X310530248Y-125112750D02*
X310530248Y-121102750D01*
%TO.C,D21*%
X206136498Y-87012750D02*
X206136498Y-83002750D01*
X208136498Y-87012750D02*
X206136498Y-87012750D01*
X208136498Y-87012750D02*
X208136498Y-83002750D01*
%TO.C,D15*%
X84692748Y-86950250D02*
X84692748Y-82940250D01*
X86692748Y-86950250D02*
X84692748Y-86950250D01*
X86692748Y-86950250D02*
X86692748Y-82940250D01*
%TO.C,C3*%
X185774000Y-112768748D02*
X185774000Y-113291252D01*
X184304000Y-112768748D02*
X184304000Y-113291252D01*
%TO.C,D41*%
X141842748Y-125050250D02*
X141842748Y-121040250D01*
X143842748Y-125050250D02*
X141842748Y-125050250D01*
X143842748Y-125050250D02*
X143842748Y-121040250D01*
%TO.C,D39*%
X327580248Y-106000250D02*
X327580248Y-101990250D01*
X329580248Y-106000250D02*
X327580248Y-106000250D01*
X329580248Y-106000250D02*
X329580248Y-101990250D01*
%TO.C,D2*%
X106123998Y-67900250D02*
X106123998Y-63890250D01*
X108123998Y-67900250D02*
X106123998Y-67900250D01*
X108123998Y-67900250D02*
X108123998Y-63890250D01*
%TO.C,D9*%
X239473998Y-67962750D02*
X239473998Y-63952750D01*
X241473998Y-67962750D02*
X239473998Y-67962750D01*
X241473998Y-67962750D02*
X241473998Y-63952750D01*
%TO.C,D19*%
X168036498Y-87012750D02*
X168036498Y-83002750D01*
X170036498Y-87012750D02*
X168036498Y-87012750D01*
X170036498Y-87012750D02*
X170036498Y-83002750D01*
%TO.C,D11*%
X277573998Y-67962750D02*
X277573998Y-63952750D01*
X279573998Y-67962750D02*
X277573998Y-67962750D01*
X279573998Y-67962750D02*
X279573998Y-63952750D01*
%TO.C,D12*%
X296623998Y-67962750D02*
X296623998Y-63952750D01*
X298623998Y-67962750D02*
X296623998Y-67962750D01*
X298623998Y-67962750D02*
X298623998Y-63952750D01*
%TO.C,D27*%
X331994000Y-87006500D02*
X331994000Y-82996500D01*
X333994000Y-87006500D02*
X331994000Y-87006500D01*
X333994000Y-87006500D02*
X333994000Y-82996500D01*
%TO.C,D16*%
X110886498Y-87012750D02*
X110886498Y-83002750D01*
X112886498Y-87012750D02*
X110886498Y-87012750D01*
X112886498Y-87012750D02*
X112886498Y-83002750D01*
%TO.C,D33*%
X196611498Y-106062750D02*
X196611498Y-102052750D01*
X198611498Y-106062750D02*
X196611498Y-106062750D01*
X198611498Y-106062750D02*
X198611498Y-102052750D01*
%TO.C,D22*%
X225186498Y-87012750D02*
X225186498Y-83002750D01*
X227186498Y-87012750D02*
X225186498Y-87012750D01*
X227186498Y-87012750D02*
X227186498Y-83002750D01*
%TO.C,D8*%
X220423998Y-67962750D02*
X220423998Y-63952750D01*
X222423998Y-67962750D02*
X220423998Y-67962750D01*
X222423998Y-67962750D02*
X222423998Y-63952750D01*
%TO.C,D37*%
X272811498Y-106062750D02*
X272811498Y-102052750D01*
X274811498Y-106062750D02*
X272811498Y-106062750D01*
X274811498Y-106062750D02*
X274811498Y-102052750D01*
%TO.C,D44*%
X260905248Y-125050250D02*
X260905248Y-121040250D01*
X262905248Y-125050250D02*
X260905248Y-125050250D01*
X262905248Y-125050250D02*
X262905248Y-121040250D01*
%TO.C,D24*%
X263286498Y-87012750D02*
X263286498Y-83002750D01*
X265286498Y-87012750D02*
X263286498Y-87012750D01*
X265286498Y-87012750D02*
X265286498Y-83002750D01*
D10*
%TO.C,SW1*%
X241106000Y-114875000D02*
X235906000Y-114875000D01*
X235906000Y-114875000D02*
X235906000Y-120075000D01*
X241106000Y-120075000D02*
X241106000Y-114875000D01*
X235906000Y-120075000D02*
X241106000Y-120075000D01*
X239506000Y-117475000D02*
G75*
G03*
X239506000Y-117475000I-1000000J0D01*
G01*
D11*
%TO.C,C7*%
X215653252Y-114273000D02*
X215130748Y-114273000D01*
X215653252Y-112803000D02*
X215130748Y-112803000D01*
%TO.C,D20*%
X187086498Y-87012750D02*
X187086498Y-83002750D01*
X189086498Y-87012750D02*
X187086498Y-87012750D01*
X189086498Y-87012750D02*
X189086498Y-83002750D01*
%TO.C,C1*%
X193682252Y-109066000D02*
X193159748Y-109066000D01*
X193682252Y-107596000D02*
X193159748Y-107596000D01*
%TO.C,R4*%
X233071936Y-113438000D02*
X233526064Y-113438000D01*
X233071936Y-114908000D02*
X233526064Y-114908000D01*
%TO.C,R3*%
X195807000Y-95530936D02*
X195807000Y-95985064D01*
X194337000Y-95530936D02*
X194337000Y-95985064D01*
%TO.C,D23*%
X244236498Y-87012750D02*
X244236498Y-83002750D01*
X246236498Y-87012750D02*
X244236498Y-87012750D01*
X246236498Y-87012750D02*
X246236498Y-83002750D01*
%TO.C,C4*%
X197223748Y-124487000D02*
X197746252Y-124487000D01*
X197223748Y-125957000D02*
X197746252Y-125957000D01*
%TO.C,D7*%
X201373998Y-67962750D02*
X201373998Y-63952750D01*
X203373998Y-67962750D02*
X201373998Y-67962750D01*
X203373998Y-67962750D02*
X203373998Y-63952750D01*
%TO.C,R1*%
X188695064Y-125957000D02*
X188240936Y-125957000D01*
X188695064Y-124487000D02*
X188240936Y-124487000D01*
%TO.C,C2*%
X208253000Y-111183748D02*
X208253000Y-111706252D01*
X206783000Y-111183748D02*
X206783000Y-111706252D01*
%TO.C,D31*%
X158511498Y-106000250D02*
X158511498Y-101990250D01*
X160511498Y-106000250D02*
X158511498Y-106000250D01*
X160511498Y-106000250D02*
X160511498Y-101990250D01*
%TO.C,D10*%
X258523998Y-67962750D02*
X258523998Y-63952750D01*
X260523998Y-67962750D02*
X258523998Y-67962750D01*
X260523998Y-67962750D02*
X260523998Y-63952750D01*
%TO.C,D32*%
X177561498Y-106000250D02*
X177561498Y-101990250D01*
X179561498Y-106000250D02*
X177561498Y-106000250D01*
X179561498Y-106000250D02*
X179561498Y-101990250D01*
%TO.C,R2*%
X197966000Y-95554436D02*
X197966000Y-96008564D01*
X196496000Y-95554436D02*
X196496000Y-96008564D01*
%TO.C,D6*%
X182323998Y-67962750D02*
X182323998Y-63952750D01*
X184323998Y-67962750D02*
X182323998Y-67962750D01*
X184323998Y-67962750D02*
X184323998Y-63952750D01*
%TO.C,D17*%
X129936498Y-87012750D02*
X129936498Y-83002750D01*
X131936498Y-87012750D02*
X129936498Y-87012750D01*
X131936498Y-87012750D02*
X131936498Y-83002750D01*
%TO.C,D42*%
X161401000Y-120323000D02*
X161401000Y-124333000D01*
X159401000Y-120323000D02*
X161401000Y-120323000D01*
X159401000Y-120323000D02*
X159401000Y-124333000D01*
%TO.C,D34*%
X215661498Y-106062750D02*
X215661498Y-102052750D01*
X217661498Y-106062750D02*
X215661498Y-106062750D01*
X217661498Y-106062750D02*
X217661498Y-102052750D01*
%TO.C,D26*%
X301386498Y-87012750D02*
X301386498Y-83002750D01*
X303386498Y-87012750D02*
X301386498Y-87012750D01*
X303386498Y-87012750D02*
X303386498Y-83002750D01*
%TO.C,C5*%
X184477252Y-122020000D02*
X183954748Y-122020000D01*
X184477252Y-120550000D02*
X183954748Y-120550000D01*
%TO.C,Y1*%
X209678000Y-119221000D02*
X209678000Y-115221000D01*
X212978000Y-119221000D02*
X209678000Y-119221000D01*
%TO.C,J1*%
X202391000Y-90362000D02*
X199891000Y-90362000D01*
X199891000Y-90362000D02*
X199891000Y-91412000D01*
X199891000Y-91412000D02*
X198901000Y-91412000D01*
X204361000Y-91532000D02*
X204361000Y-95412000D01*
X202391000Y-96582000D02*
X199891000Y-96582000D01*
X199891000Y-96582000D02*
X199891000Y-95532000D01*
D10*
%TO.C,U1*%
X198469000Y-112077750D02*
X197794000Y-112077750D01*
X198469000Y-112077750D02*
X198469000Y-112752750D01*
X188694000Y-112077750D02*
X188694000Y-110802750D01*
X188119000Y-112077750D02*
X188694000Y-112077750D01*
X188119000Y-112077750D02*
X188119000Y-112752750D01*
X198469000Y-122427750D02*
X198469000Y-121752750D01*
X198469000Y-122427750D02*
X197794000Y-122427750D01*
X188119000Y-122427750D02*
X188119000Y-121752750D01*
X188119000Y-122427750D02*
X188794000Y-122427750D01*
D11*
%TO.C,D40*%
X118030248Y-125050250D02*
X118030248Y-121040250D01*
X120030248Y-125050250D02*
X118030248Y-125050250D01*
X120030248Y-125050250D02*
X120030248Y-121040250D01*
%TD*%
%LPC*%
D12*
%TO.C,MX14*%
X327468998Y-65602750D03*
D13*
X332548998Y-65602750D03*
D12*
X337628998Y-65602750D03*
D14*
X329393999Y-62332750D03*
D15*
X330048998Y-61602750D03*
D16*
X335068998Y-60812750D03*
D15*
X335088998Y-60522750D03*
%TD*%
D12*
%TO.C,MX12*%
X284606498Y-65602750D03*
D13*
X289686498Y-65602750D03*
D12*
X294766498Y-65602750D03*
D14*
X286531499Y-62332750D03*
D15*
X287186498Y-61602750D03*
D16*
X292206498Y-60812750D03*
D15*
X292226498Y-60522750D03*
%TD*%
D12*
%TO.C,MX4*%
X132206498Y-65602750D03*
D13*
X137286498Y-65602750D03*
D12*
X142366498Y-65602750D03*
D14*
X134131499Y-62332750D03*
D15*
X134786498Y-61602750D03*
D16*
X139806498Y-60812750D03*
D15*
X139826498Y-60522750D03*
%TD*%
D12*
%TO.C,MX44*%
X248887748Y-122752750D03*
D13*
X253967748Y-122752750D03*
D12*
X259047748Y-122752750D03*
D14*
X250812749Y-119482750D03*
D15*
X251467748Y-118752750D03*
D16*
X256487748Y-117962750D03*
D15*
X256507748Y-117672750D03*
%TD*%
D12*
%TO.C,MX5*%
X151256498Y-65602750D03*
D13*
X156336498Y-65602750D03*
D12*
X161416498Y-65602750D03*
D14*
X153181499Y-62332750D03*
D15*
X153836498Y-61602750D03*
D16*
X158856498Y-60812750D03*
D15*
X158876498Y-60522750D03*
%TD*%
D12*
%TO.C,MX17*%
X117918998Y-84652750D03*
D13*
X122998998Y-84652750D03*
D12*
X128078998Y-84652750D03*
D14*
X119843999Y-81382750D03*
D15*
X120498998Y-80652750D03*
D16*
X125518998Y-79862750D03*
D15*
X125538998Y-79572750D03*
%TD*%
D12*
%TO.C,MX10*%
X246506498Y-65602750D03*
D13*
X251586498Y-65602750D03*
D12*
X256666498Y-65602750D03*
D14*
X248431499Y-62332750D03*
D15*
X249086498Y-61602750D03*
D16*
X254106498Y-60812750D03*
D15*
X254126498Y-60522750D03*
%TD*%
D12*
%TO.C,MX7*%
X189356498Y-65602750D03*
D13*
X194436498Y-65602750D03*
D12*
X199516498Y-65602750D03*
D14*
X191281499Y-62332750D03*
D15*
X191936498Y-61602750D03*
D16*
X196956498Y-60812750D03*
D15*
X196976498Y-60522750D03*
%TD*%
D12*
%TO.C,MX34*%
X203643998Y-103702750D03*
D13*
X208723998Y-103702750D03*
D12*
X213803998Y-103702750D03*
D14*
X205568999Y-100432750D03*
D15*
X206223998Y-99702750D03*
D16*
X211243998Y-98912750D03*
D15*
X211263998Y-98622750D03*
%TD*%
D12*
%TO.C,MX45*%
X272700248Y-122752750D03*
D13*
X277780248Y-122752750D03*
D12*
X282860248Y-122752750D03*
D14*
X274625249Y-119482750D03*
D15*
X275280248Y-118752750D03*
D16*
X280300248Y-117962750D03*
D15*
X280320248Y-117672750D03*
%TD*%
D17*
%TO.C,MX28*%
X70579748Y-96717750D03*
D13*
X70579748Y-111957750D03*
D12*
X77437748Y-103702750D03*
D13*
X82517748Y-103702750D03*
D12*
X87597748Y-103702750D03*
D17*
X94455748Y-96717750D03*
D13*
X94455748Y-111957750D03*
D14*
X79362749Y-100432750D03*
D15*
X80017748Y-99702750D03*
D16*
X85037748Y-98912750D03*
D15*
X85057748Y-98622750D03*
%TD*%
D17*
%TO.C,MX43*%
X227805748Y-129737750D03*
D13*
X227805748Y-114497750D03*
D12*
X220947748Y-122752750D03*
D13*
X215867748Y-122752750D03*
D12*
X210787748Y-122752750D03*
D17*
X203929748Y-129737750D03*
D13*
X203929748Y-114497750D03*
D18*
X219022747Y-126022750D03*
D15*
X218367748Y-126752750D03*
D19*
X213347748Y-127542750D03*
D15*
X213327748Y-127832750D03*
%TD*%
D12*
%TO.C,MX16*%
X98868998Y-84652750D03*
D13*
X103948998Y-84652750D03*
D12*
X109028998Y-84652750D03*
D14*
X100793999Y-81382750D03*
D15*
X101448998Y-80652750D03*
D16*
X106468998Y-79862750D03*
D15*
X106488998Y-79572750D03*
%TD*%
D12*
%TO.C,MX2*%
X94106498Y-65602750D03*
D13*
X99186498Y-65602750D03*
D12*
X104266498Y-65602750D03*
D14*
X96031499Y-62332750D03*
D15*
X96686498Y-61602750D03*
D16*
X101706498Y-60812750D03*
D15*
X101726498Y-60522750D03*
%TD*%
D12*
%TO.C,MX23*%
X232218998Y-84652750D03*
D13*
X237298998Y-84652750D03*
D12*
X242378998Y-84652750D03*
D14*
X234143999Y-81382750D03*
D15*
X234798998Y-80652750D03*
D16*
X239818998Y-79862750D03*
D15*
X239838998Y-79572750D03*
%TD*%
D12*
%TO.C,MX38*%
X279843998Y-103702750D03*
D13*
X284923998Y-103702750D03*
D12*
X290003998Y-103702750D03*
D14*
X281768999Y-100432750D03*
D15*
X282423998Y-99702750D03*
D16*
X287443998Y-98912750D03*
D15*
X287463998Y-98622750D03*
%TD*%
D12*
%TO.C,MX22*%
X213168998Y-84652750D03*
D13*
X218248998Y-84652750D03*
D12*
X223328998Y-84652750D03*
D14*
X215093999Y-81382750D03*
D15*
X215748998Y-80652750D03*
D16*
X220768998Y-79862750D03*
D15*
X220788998Y-79572750D03*
%TD*%
D12*
%TO.C,MX31*%
X146493998Y-103702750D03*
D13*
X151573998Y-103702750D03*
D12*
X156653998Y-103702750D03*
D14*
X148418999Y-100432750D03*
D15*
X149073998Y-99702750D03*
D16*
X154093998Y-98912750D03*
D15*
X154113998Y-98622750D03*
%TD*%
D12*
%TO.C,MX35*%
X222693998Y-103702750D03*
D13*
X227773998Y-103702750D03*
D12*
X232853998Y-103702750D03*
D14*
X224618999Y-100432750D03*
D15*
X225273998Y-99702750D03*
D16*
X230293998Y-98912750D03*
D15*
X230313998Y-98622750D03*
%TD*%
D12*
%TO.C,MX15*%
X72675248Y-84652750D03*
D13*
X77755248Y-84652750D03*
D12*
X82835248Y-84652750D03*
D14*
X74600249Y-81382750D03*
D15*
X75255248Y-80652750D03*
D16*
X80275248Y-79862750D03*
D15*
X80295248Y-79572750D03*
%TD*%
D12*
%TO.C,MX20*%
X175068998Y-84652750D03*
D13*
X180148998Y-84652750D03*
D12*
X185228998Y-84652750D03*
D14*
X176993999Y-81382750D03*
D15*
X177648998Y-80652750D03*
D16*
X182668998Y-79862750D03*
D15*
X182688998Y-79572750D03*
%TD*%
D12*
%TO.C,MX46*%
X296512748Y-122752750D03*
D13*
X301592748Y-122752750D03*
D12*
X306672748Y-122752750D03*
D14*
X298437749Y-119482750D03*
D15*
X299092748Y-118752750D03*
D16*
X304112748Y-117962750D03*
D15*
X304132748Y-117672750D03*
%TD*%
D12*
%TO.C,MX21*%
X194118998Y-84652750D03*
D13*
X199198998Y-84652750D03*
D12*
X204278998Y-84652750D03*
D14*
X196043999Y-81382750D03*
D15*
X196698998Y-80652750D03*
D16*
X201718998Y-79862750D03*
D15*
X201738998Y-79572750D03*
%TD*%
D12*
%TO.C,MX6*%
X170306498Y-65602750D03*
D13*
X175386498Y-65602750D03*
D12*
X180466498Y-65602750D03*
D14*
X172231499Y-62332750D03*
D15*
X172886498Y-61602750D03*
D16*
X177906498Y-60812750D03*
D15*
X177926498Y-60522750D03*
%TD*%
D12*
%TO.C,MX18*%
X136968998Y-84652750D03*
D13*
X142048998Y-84652750D03*
D12*
X147128998Y-84652750D03*
D14*
X138893999Y-81382750D03*
D15*
X139548998Y-80652750D03*
D16*
X144568998Y-79862750D03*
D15*
X144588998Y-79572750D03*
%TD*%
D12*
%TO.C,MX29*%
X108393998Y-103702750D03*
D13*
X113473998Y-103702750D03*
D12*
X118553998Y-103702750D03*
D14*
X110318999Y-100432750D03*
D15*
X110973998Y-99702750D03*
D16*
X115993998Y-98912750D03*
D15*
X116013998Y-98622750D03*
%TD*%
D12*
%TO.C,MX32*%
X165543998Y-103702750D03*
D13*
X170623998Y-103702750D03*
D12*
X175703998Y-103702750D03*
D14*
X167468999Y-100432750D03*
D15*
X168123998Y-99702750D03*
D16*
X173143998Y-98912750D03*
D15*
X173163998Y-98622750D03*
%TD*%
D17*
%TO.C,MX42*%
X180180748Y-129737750D03*
D13*
X180180748Y-114497750D03*
D12*
X173322748Y-122752750D03*
D13*
X168242748Y-122752750D03*
D12*
X163162748Y-122752750D03*
D17*
X156304748Y-129737750D03*
D13*
X156304748Y-114497750D03*
D18*
X171397747Y-126022750D03*
D15*
X170742748Y-126752750D03*
D19*
X165722748Y-127542750D03*
D15*
X165702748Y-127832750D03*
%TD*%
D17*
%TO.C,MX27*%
X313467248Y-77667750D03*
D13*
X313467248Y-92907750D03*
D12*
X320325248Y-84652750D03*
D13*
X325405248Y-84652750D03*
D12*
X330485248Y-84652750D03*
D17*
X337343248Y-77667750D03*
D13*
X337343248Y-92907750D03*
D14*
X322250249Y-81382750D03*
D15*
X322905248Y-80652750D03*
D16*
X327925248Y-79862750D03*
D15*
X327945248Y-79572750D03*
%TD*%
D12*
%TO.C,MX25*%
X270318998Y-84652750D03*
D13*
X275398998Y-84652750D03*
D12*
X280478998Y-84652750D03*
D14*
X272243999Y-81382750D03*
D15*
X272898998Y-80652750D03*
D16*
X277918998Y-79862750D03*
D15*
X277938998Y-79572750D03*
%TD*%
D12*
%TO.C,MX41*%
X129825248Y-122752750D03*
D13*
X134905248Y-122752750D03*
D12*
X139985248Y-122752750D03*
D14*
X131750249Y-119482750D03*
D15*
X132405248Y-118752750D03*
D16*
X137425248Y-117962750D03*
D15*
X137445248Y-117672750D03*
%TD*%
D12*
%TO.C,MX19*%
X156018998Y-84652750D03*
D13*
X161098998Y-84652750D03*
D12*
X166178998Y-84652750D03*
D14*
X157943999Y-81382750D03*
D15*
X158598998Y-80652750D03*
D16*
X163618998Y-79862750D03*
D15*
X163638998Y-79572750D03*
%TD*%
D12*
%TO.C,MX40*%
X106012748Y-122752750D03*
D13*
X111092748Y-122752750D03*
D12*
X116172748Y-122752750D03*
D14*
X107937749Y-119482750D03*
D15*
X108592748Y-118752750D03*
D16*
X113612748Y-117962750D03*
D15*
X113632748Y-117672750D03*
%TD*%
D12*
%TO.C,MX9*%
X227456498Y-65602750D03*
D13*
X232536498Y-65602750D03*
D12*
X237616498Y-65602750D03*
D14*
X229381499Y-62332750D03*
D15*
X230036498Y-61602750D03*
D16*
X235056498Y-60812750D03*
D15*
X235076498Y-60522750D03*
%TD*%
D12*
%TO.C,MX24*%
X251268998Y-84652750D03*
D13*
X256348998Y-84652750D03*
D12*
X261428998Y-84652750D03*
D14*
X253193999Y-81382750D03*
D15*
X253848998Y-80652750D03*
D16*
X258868998Y-79862750D03*
D15*
X258888998Y-79572750D03*
%TD*%
D12*
%TO.C,MX33*%
X184593998Y-103702750D03*
D13*
X189673998Y-103702750D03*
D12*
X194753998Y-103702750D03*
D14*
X186518999Y-100432750D03*
D15*
X187173998Y-99702750D03*
D16*
X192193998Y-98912750D03*
D15*
X192213998Y-98622750D03*
%TD*%
D12*
%TO.C,MX13*%
X303656498Y-65602750D03*
D13*
X308736498Y-65602750D03*
D12*
X313816498Y-65602750D03*
D14*
X305581499Y-62332750D03*
D15*
X306236498Y-61602750D03*
D16*
X311256498Y-60812750D03*
D15*
X311276498Y-60522750D03*
%TD*%
D12*
%TO.C,MX30*%
X127443998Y-103702750D03*
D13*
X132523998Y-103702750D03*
D12*
X137603998Y-103702750D03*
D14*
X129368999Y-100432750D03*
D15*
X130023998Y-99702750D03*
D16*
X135043998Y-98912750D03*
D15*
X135063998Y-98622750D03*
%TD*%
D12*
%TO.C,MX1*%
X70293998Y-65602750D03*
D13*
X75373998Y-65602750D03*
D12*
X80453998Y-65602750D03*
D14*
X72218999Y-62332750D03*
D15*
X72873998Y-61602750D03*
D16*
X77893998Y-60812750D03*
D15*
X77913998Y-60522750D03*
%TD*%
D12*
%TO.C,MX3*%
X113156498Y-65602750D03*
D13*
X118236498Y-65602750D03*
D12*
X123316498Y-65602750D03*
D14*
X115081499Y-62332750D03*
D15*
X115736498Y-61602750D03*
D16*
X120756498Y-60812750D03*
D15*
X120776498Y-60522750D03*
%TD*%
D12*
%TO.C,MX37*%
X260793998Y-103702750D03*
D13*
X265873998Y-103702750D03*
D12*
X270953998Y-103702750D03*
D14*
X262718999Y-100432750D03*
D15*
X263373998Y-99702750D03*
D16*
X268393998Y-98912750D03*
D15*
X268413998Y-98622750D03*
%TD*%
D12*
%TO.C,MX26*%
X289368998Y-84652750D03*
D13*
X294448998Y-84652750D03*
D12*
X299528998Y-84652750D03*
D14*
X291293999Y-81382750D03*
D15*
X291948998Y-80652750D03*
D16*
X296968998Y-79862750D03*
D15*
X296988998Y-79572750D03*
%TD*%
D12*
%TO.C,MX8*%
X208406498Y-65602750D03*
D13*
X213486498Y-65602750D03*
D12*
X218566498Y-65602750D03*
D14*
X210331499Y-62332750D03*
D15*
X210986498Y-61602750D03*
D16*
X216006498Y-60812750D03*
D15*
X216026498Y-60522750D03*
%TD*%
D12*
%TO.C,MX11*%
X265556498Y-65602750D03*
D13*
X270636498Y-65602750D03*
D12*
X275716498Y-65602750D03*
D14*
X267481499Y-62332750D03*
D15*
X268136498Y-61602750D03*
D16*
X273156498Y-60812750D03*
D15*
X273176498Y-60522750D03*
%TD*%
D17*
%TO.C,MX39*%
X308704748Y-96717750D03*
D13*
X308704748Y-111957750D03*
D12*
X315562748Y-103702750D03*
D13*
X320642748Y-103702750D03*
D12*
X325722748Y-103702750D03*
D17*
X332580748Y-96717750D03*
D13*
X332580748Y-111957750D03*
D14*
X317487749Y-100432750D03*
D15*
X318142748Y-99702750D03*
D16*
X323162748Y-98912750D03*
D15*
X323182748Y-98622750D03*
%TD*%
D12*
%TO.C,MX36*%
X241743998Y-103702750D03*
D13*
X246823998Y-103702750D03*
D12*
X251903998Y-103702750D03*
D14*
X243668999Y-100432750D03*
D15*
X244323998Y-99702750D03*
D16*
X249343998Y-98912750D03*
D15*
X249363998Y-98622750D03*
%TD*%
D20*
%TO.C,D3*%
X126173998Y-67127750D03*
X126173998Y-63827750D03*
%TD*%
%TO.C,D5*%
X164273998Y-67252750D03*
X164273998Y-63952750D03*
%TD*%
%TO.C,D1*%
X83311498Y-67190250D03*
X83311498Y-63890250D03*
%TD*%
%TO.C,D30*%
X140461498Y-105352750D03*
X140461498Y-102052750D03*
%TD*%
%TO.C,D29*%
X121411498Y-105352750D03*
X121411498Y-102052750D03*
%TD*%
%TO.C,D28*%
X90455248Y-105352750D03*
X90455248Y-102052750D03*
%TD*%
%TO.C,D36*%
X254761498Y-105352750D03*
X254761498Y-102052750D03*
%TD*%
%TO.C,D14*%
X340486498Y-67315250D03*
X340486498Y-64015250D03*
%TD*%
%TO.C,D13*%
X315880248Y-67315250D03*
X315880248Y-64015250D03*
%TD*%
%TO.C,D25*%
X283336498Y-86302750D03*
X283336498Y-83002750D03*
%TD*%
%TO.C,D4*%
X145223998Y-67190250D03*
X145223998Y-63890250D03*
%TD*%
%TO.C,D18*%
X149986498Y-86302750D03*
X149986498Y-83002750D03*
%TD*%
D21*
%TO.C,C6*%
X216342000Y-116840000D03*
X214442000Y-116840000D03*
%TD*%
D20*
%TO.C,D38*%
X292861498Y-105352750D03*
X292861498Y-102052750D03*
%TD*%
%TO.C,D45*%
X285717748Y-124402750D03*
X285717748Y-121102750D03*
%TD*%
D22*
%TO.C,D43*%
X208153000Y-121033000D03*
X208153000Y-124333000D03*
%TD*%
D20*
%TO.C,D35*%
X235711498Y-105290250D03*
X235711498Y-101990250D03*
%TD*%
%TO.C,D46*%
X309530248Y-124402750D03*
X309530248Y-121102750D03*
%TD*%
%TO.C,D21*%
X207136498Y-86302750D03*
X207136498Y-83002750D03*
%TD*%
%TO.C,D15*%
X85692748Y-86240250D03*
X85692748Y-82940250D03*
%TD*%
D23*
%TO.C,C3*%
X185039000Y-112080000D03*
X185039000Y-113980000D03*
%TD*%
D20*
%TO.C,D41*%
X142842748Y-124340250D03*
X142842748Y-121040250D03*
%TD*%
%TO.C,D39*%
X328580248Y-105290250D03*
X328580248Y-101990250D03*
%TD*%
%TO.C,D2*%
X107123998Y-67190250D03*
X107123998Y-63890250D03*
%TD*%
%TO.C,D9*%
X240473998Y-67252750D03*
X240473998Y-63952750D03*
%TD*%
%TO.C,D19*%
X169036498Y-86302750D03*
X169036498Y-83002750D03*
%TD*%
%TO.C,D11*%
X278573998Y-67252750D03*
X278573998Y-63952750D03*
%TD*%
%TO.C,D12*%
X297623998Y-67252750D03*
X297623998Y-63952750D03*
%TD*%
%TO.C,D27*%
X332994000Y-86296500D03*
X332994000Y-82996500D03*
%TD*%
%TO.C,D16*%
X111886498Y-86302750D03*
X111886498Y-83002750D03*
%TD*%
%TO.C,D33*%
X197611498Y-105352750D03*
X197611498Y-102052750D03*
%TD*%
%TO.C,D22*%
X226186498Y-86302750D03*
X226186498Y-83002750D03*
%TD*%
%TO.C,D8*%
X221423998Y-67252750D03*
X221423998Y-63952750D03*
%TD*%
%TO.C,D37*%
X273811498Y-105352750D03*
X273811498Y-102052750D03*
%TD*%
%TO.C,D44*%
X261905248Y-124340250D03*
X261905248Y-121040250D03*
%TD*%
%TO.C,D24*%
X264286498Y-86302750D03*
X264286498Y-83002750D03*
%TD*%
D24*
%TO.C,SW1*%
X240356000Y-120575000D03*
X236656000Y-114375000D03*
X236656000Y-120575000D03*
X240356000Y-114375000D03*
%TD*%
D21*
%TO.C,C7*%
X216342000Y-113538000D03*
X214442000Y-113538000D03*
%TD*%
D20*
%TO.C,D20*%
X188086498Y-86302750D03*
X188086498Y-83002750D03*
%TD*%
D21*
%TO.C,C1*%
X194371000Y-108331000D03*
X192471000Y-108331000D03*
%TD*%
D25*
%TO.C,R4*%
X232386500Y-114173000D03*
X234211500Y-114173000D03*
%TD*%
D26*
%TO.C,R3*%
X195072000Y-94845500D03*
X195072000Y-96670500D03*
%TD*%
D20*
%TO.C,D23*%
X245236498Y-86302750D03*
X245236498Y-83002750D03*
%TD*%
D27*
%TO.C,C4*%
X196535000Y-125222000D03*
X198435000Y-125222000D03*
%TD*%
D20*
%TO.C,D7*%
X202373998Y-67252750D03*
X202373998Y-63952750D03*
%TD*%
D28*
%TO.C,R1*%
X189380500Y-125222000D03*
X187555500Y-125222000D03*
%TD*%
D23*
%TO.C,C2*%
X207518000Y-110495000D03*
X207518000Y-112395000D03*
%TD*%
D20*
%TO.C,D31*%
X159511498Y-105290250D03*
X159511498Y-101990250D03*
%TD*%
%TO.C,D10*%
X259523998Y-67252750D03*
X259523998Y-63952750D03*
%TD*%
%TO.C,D32*%
X178561498Y-105290250D03*
X178561498Y-101990250D03*
%TD*%
D26*
%TO.C,R2*%
X197231000Y-94869000D03*
X197231000Y-96694000D03*
%TD*%
D20*
%TO.C,D6*%
X183323998Y-67252750D03*
X183323998Y-63952750D03*
%TD*%
%TO.C,D17*%
X130936498Y-86302750D03*
X130936498Y-83002750D03*
%TD*%
D22*
%TO.C,D42*%
X160401000Y-121033000D03*
X160401000Y-124333000D03*
%TD*%
D20*
%TO.C,D34*%
X216661498Y-105352750D03*
X216661498Y-102052750D03*
%TD*%
%TO.C,D26*%
X302386498Y-86302750D03*
X302386498Y-83002750D03*
%TD*%
D21*
%TO.C,C5*%
X185166000Y-121285000D03*
X183266000Y-121285000D03*
%TD*%
D29*
%TO.C,Y1*%
X210478000Y-118321000D03*
X210478000Y-116121000D03*
X212178000Y-116121000D03*
X212178000Y-118321000D03*
%TD*%
D30*
%TO.C,J1*%
X199676000Y-91972000D03*
X199676000Y-92972000D03*
X199676000Y-93972000D03*
X199676000Y-94972000D03*
D31*
X203551000Y-90672000D03*
X203551000Y-96272000D03*
%TD*%
D32*
%TO.C,U1*%
X189294000Y-111552750D03*
X190094000Y-111552750D03*
X190894000Y-111552750D03*
X191694000Y-111552750D03*
X192494000Y-111552750D03*
X193294000Y-111552750D03*
X194094000Y-111552750D03*
X194894000Y-111552750D03*
X195694000Y-111552750D03*
X196494000Y-111552750D03*
X197294000Y-111552750D03*
D33*
X198994000Y-113252750D03*
X198994000Y-114052750D03*
X198994000Y-114852750D03*
X198994000Y-115652750D03*
X198994000Y-116452750D03*
X198994000Y-117252750D03*
X198994000Y-118052750D03*
X198994000Y-118852750D03*
X198994000Y-119652750D03*
X198994000Y-120452750D03*
X198994000Y-121252750D03*
D32*
X197294000Y-122952750D03*
X196494000Y-122952750D03*
X195694000Y-122952750D03*
X194894000Y-122952750D03*
X194094000Y-122952750D03*
X193294000Y-122952750D03*
X192494000Y-122952750D03*
X191694000Y-122952750D03*
X190894000Y-122952750D03*
X190094000Y-122952750D03*
X189294000Y-122952750D03*
D33*
X187594000Y-121252750D03*
X187594000Y-120452750D03*
X187594000Y-119652750D03*
X187594000Y-118852750D03*
X187594000Y-118052750D03*
X187594000Y-117252750D03*
X187594000Y-116452750D03*
X187594000Y-115652750D03*
X187594000Y-114852750D03*
X187594000Y-114052750D03*
X187594000Y-113252750D03*
%TD*%
D20*
%TO.C,D40*%
X119030248Y-124340250D03*
X119030248Y-121040250D03*
%TD*%
D34*
X201422000Y-102108000D03*
X207137000Y-114935000D03*
X197505546Y-98638026D03*
X184277000Y-124841000D03*
X195580000Y-107950000D03*
X188722000Y-109855000D03*
X195326000Y-127000000D03*
X183261000Y-112014000D03*
X193802000Y-106426000D03*
X187452000Y-106426000D03*
X194310000Y-99314000D03*
X197358000Y-100838000D03*
X109663998Y-108331000D03*
X128713998Y-108204000D03*
X147828000Y-108331000D03*
X190500000Y-127381000D03*
X201295000Y-124730497D03*
X201295000Y-125730000D03*
X197612000Y-128592494D03*
X195251993Y-129591997D03*
X194840774Y-130565945D03*
X194182752Y-131318283D03*
X200787000Y-111760000D03*
X222504000Y-118872000D03*
X204851000Y-119634000D03*
X225044000Y-118872000D03*
X234188000Y-117221000D03*
X208280000Y-119634000D03*
%LPD*%
M02*
