M48
; DRILL file {KiCad 7.0.2} date Tue Jun  6 03:33:49 2023
; FORMAT={-:-/ absolute / inch / decimal}
; #@! TF.CreationDate,2023-06-06T03:33:49+01:00
; #@! TF.GenerationSoftware,Kicad,Pcbnew,7.0.2
; #@! TF.FileFunction,Plated,1,2,PTH
FMAT,2
INCH
; #@! TA.AperFunction,Plated,PTH,ViaDrill
T1C0.0157
; #@! TA.AperFunction,Plated,PTH,ComponentDrill
T2C0.0579
%
G90
G05
T1
X4.3175Y-4.265
X5.0675Y-4.26
X5.82Y-4.265
X7.215Y-4.41
X7.255Y-4.915
X7.38Y-4.19
X7.43Y-4.325
X7.5Y-5.015
X7.63Y-4.19
X7.645Y-5.17
X7.65Y-3.91
X7.6709Y-5.1404
X7.6871Y-5.102
X7.69Y-5.0
X7.7Y-4.25
X7.77Y-3.97
X7.7758Y-3.8834
X7.78Y-5.0627
X7.905Y-4.4
X7.925Y-4.9106
X7.925Y-4.95
X7.93Y-4.02
X8.065Y-4.71
X8.155Y-4.525
X8.2Y-4.71
X8.76Y-4.68
X8.86Y-4.68
X9.22Y-4.615
T2
X2.8175Y-2.4828
X2.8691Y-2.4253
X2.9112Y-3.2328
X2.9628Y-3.1753
X3.0659Y-2.4056
X3.0675Y-2.3828
X3.0987Y-3.9828
X3.1503Y-3.9253
X3.1597Y-3.1556
X3.1612Y-3.1328
X3.3472Y-3.9056
X3.3487Y-3.8828
X3.755Y-2.4828
X3.8066Y-2.4253
X3.9425Y-3.2328
X3.9941Y-3.1753
X4.0034Y-2.4056
X4.005Y-2.3828
X4.1909Y-3.1556
X4.1925Y-3.1328
X4.2237Y-4.7328
X4.2753Y-4.6753
X4.3175Y-3.9828
X4.3691Y-3.9253
X4.4722Y-4.6556
X4.4737Y-4.6328
X4.505Y-2.4828
X4.5566Y-2.4253
X4.5659Y-3.9056
X4.5675Y-3.8828
X4.6925Y-3.2328
X4.7441Y-3.1753
X4.7534Y-2.4056
X4.755Y-2.3828
X4.9409Y-3.1556
X4.9425Y-3.1328
X5.0675Y-3.9828
X5.1191Y-3.9253
X5.1612Y-4.7328
X5.2128Y-4.6753
X5.255Y-2.4828
X5.3066Y-2.4253
X5.3159Y-3.9056
X5.3175Y-3.8828
X5.4097Y-4.6556
X5.4112Y-4.6328
X5.4425Y-3.2328
X5.4941Y-3.1753
X5.5034Y-2.4056
X5.505Y-2.3828
X5.6909Y-3.1556
X5.6925Y-3.1328
X5.8175Y-3.9828
X5.8691Y-3.9253
X6.005Y-2.4828
X6.0566Y-2.4253
X6.0659Y-3.9056
X6.0675Y-3.8828
X6.1925Y-3.2328
X6.2441Y-3.1753
X6.2534Y-2.4056
X6.255Y-2.3828
X6.4409Y-3.1556
X6.4425Y-3.1328
X6.5237Y-5.0328
X6.5253Y-5.01
X6.5675Y-3.9828
X6.6191Y-3.9253
X6.7222Y-4.9903
X6.755Y-2.4828
X6.7737Y-4.9328
X6.8066Y-2.4253
X6.8159Y-3.9056
X6.8175Y-3.8828
X6.9425Y-3.2328
X6.9941Y-3.1753
X7.0034Y-2.4056
X7.005Y-2.3828
X7.1909Y-3.1556
X7.1925Y-3.1328
X7.3175Y-3.9828
X7.3691Y-3.9253
X7.505Y-2.4828
X7.5566Y-2.4253
X7.5659Y-3.9056
X7.5675Y-3.8828
X7.6925Y-3.2328
X7.7441Y-3.1753
X7.7534Y-2.4056
X7.755Y-2.3828
X7.9409Y-3.1556
X7.9425Y-3.1328
X8.0675Y-3.9828
X8.1191Y-3.9253
X8.255Y-2.4828
X8.3066Y-2.4253
X8.3159Y-3.9056
X8.3175Y-3.8828
X8.3987Y-5.0328
X8.4003Y-5.01
X8.4425Y-3.2328
X8.4941Y-3.1753
X8.5034Y-2.4056
X8.505Y-2.3828
X8.5972Y-4.9903
X8.6487Y-4.9328
X8.6909Y-3.1556
X8.6925Y-3.1328
X8.8175Y-3.9828
X8.8691Y-3.9253
X9.005Y-2.4828
X9.0566Y-2.4253
X9.0659Y-3.9056
X9.0675Y-3.8828
X9.1925Y-3.2328
X9.2441Y-3.1753
X9.2534Y-2.4056
X9.255Y-2.3828
X9.4409Y-3.1556
X9.4425Y-3.1328
X9.5675Y-3.9828
X9.6191Y-3.9253
X9.755Y-2.4828
X9.8066Y-2.4253
X9.8159Y-3.9056
X9.8175Y-3.8828
X9.8487Y-4.7328
X9.9003Y-4.6753
X9.9425Y-3.2328
X9.9941Y-3.1753
X10.0034Y-2.4056
X10.005Y-2.3828
X10.0972Y-4.6556
X10.0987Y-4.6328
X10.1909Y-3.1556
X10.1925Y-3.1328
X10.3175Y-3.9828
X10.3691Y-3.9253
X10.505Y-2.4828
X10.5566Y-2.4253
X10.5659Y-3.9056
X10.5675Y-3.8828
X10.6925Y-3.2328
X10.7441Y-3.1753
X10.7534Y-2.4056
X10.755Y-2.3828
X10.7862Y-4.7328
X10.8378Y-4.6753
X10.9409Y-3.1556
X10.9425Y-3.1328
X11.0347Y-4.6556
X11.0362Y-4.6328
X11.0675Y-3.9828
X11.1191Y-3.9253
X11.255Y-2.4828
X11.3066Y-2.4253
X11.3159Y-3.9056
X11.3175Y-3.8828
X11.4425Y-3.2328
X11.4941Y-3.1753
X11.5034Y-2.4056
X11.505Y-2.3828
X11.6909Y-3.1556
X11.6925Y-3.1328
X11.7237Y-4.7328
X11.7753Y-4.6753
X11.9722Y-4.6556
X11.9737Y-4.6328
X12.005Y-2.4828
X12.0566Y-2.4253
X12.2534Y-2.4056
X12.255Y-2.3828
X12.4737Y-3.9828
X12.5253Y-3.9253
X12.6612Y-3.2328
X12.7128Y-3.1753
X12.7222Y-3.9056
X12.7237Y-3.8828
X12.9097Y-3.1556
X12.9112Y-3.1328
X12.9425Y-2.4828
X12.9941Y-2.4253
X13.1909Y-2.4056
X13.1925Y-2.3828
T0
M30
