M48
; DRILL file {KiCad 7.0.2} date Tue Jun  6 03:33:49 2023
; FORMAT={-:-/ absolute / inch / decimal}
; #@! TF.CreationDate,2023-06-06T03:33:49+01:00
; #@! TF.GenerationSoftware,Kicad,Pcbnew,7.0.2
; #@! TF.FileFunction,NonPlated,1,2,NPTH
FMAT,2
INCH
; #@! TA.AperFunction,NonPlated,NPTH,ComponentDrill
T1C0.0689
; #@! TA.AperFunction,NonPlated,NPTH,ComponentDrill
T2C0.1200
; #@! TA.AperFunction,NonPlated,NPTH,ComponentDrill
T3C0.1570
%
G90
G05
T1
X2.7675Y-2.5828
X2.8612Y-3.3328
X3.0487Y-4.0828
X3.1675Y-2.5828
X3.2612Y-3.3328
X3.4487Y-4.0828
X3.705Y-2.5828
X3.8925Y-3.3328
X4.105Y-2.5828
X4.1737Y-4.8328
X4.2675Y-4.0828
X4.2925Y-3.3328
X4.455Y-2.5828
X4.5737Y-4.8328
X4.6425Y-3.3328
X4.6675Y-4.0828
X4.855Y-2.5828
X5.0175Y-4.0828
X5.0425Y-3.3328
X5.1112Y-4.8328
X5.205Y-2.5828
X5.3925Y-3.3328
X5.4175Y-4.0828
X5.5112Y-4.8328
X5.605Y-2.5828
X5.7675Y-4.0828
X5.7925Y-3.3328
X5.955Y-2.5828
X6.1425Y-3.3328
X6.1675Y-4.0828
X6.355Y-2.5828
X6.4237Y-4.8328
X6.5175Y-4.0828
X6.5425Y-3.3328
X6.705Y-2.5828
X6.8237Y-4.8328
X6.8925Y-3.3328
X6.9175Y-4.0828
X7.105Y-2.5828
X7.2675Y-4.0828
X7.2925Y-3.3328
X7.455Y-2.5828
X7.6425Y-3.3328
X7.6675Y-4.0828
X7.855Y-2.5828
X8.0175Y-4.0828
X8.0425Y-3.3328
X8.205Y-2.5828
X8.2987Y-4.8328
X8.3925Y-3.3328
X8.4175Y-4.0828
X8.605Y-2.5828
X8.6987Y-4.8328
X8.7675Y-4.0828
X8.7925Y-3.3328
X8.955Y-2.5828
X9.1425Y-3.3328
X9.1675Y-4.0828
X9.355Y-2.5828
X9.5175Y-4.0828
X9.5425Y-3.3328
X9.705Y-2.5828
X9.7987Y-4.8328
X9.8925Y-3.3328
X9.9175Y-4.0828
X10.105Y-2.5828
X10.1987Y-4.8328
X10.2675Y-4.0828
X10.2925Y-3.3328
X10.455Y-2.5828
X10.6425Y-3.3328
X10.6675Y-4.0828
X10.7362Y-4.8328
X10.855Y-2.5828
X11.0175Y-4.0828
X11.0425Y-3.3328
X11.1362Y-4.8328
X11.205Y-2.5828
X11.3925Y-3.3328
X11.4175Y-4.0828
X11.605Y-2.5828
X11.6737Y-4.8328
X11.7925Y-3.3328
X11.955Y-2.5828
X12.0737Y-4.8328
X12.355Y-2.5828
X12.4237Y-4.0828
X12.6112Y-3.3328
X12.8237Y-4.0828
X12.8925Y-2.5828
X13.0112Y-3.3328
X13.2925Y-2.5828
T2
X2.7787Y-3.8078
X3.7187Y-3.8078
X6.1537Y-5.1078
X7.0937Y-5.1078
X8.0287Y-5.1078
X8.9687Y-5.1078
X12.1537Y-3.8078
X12.3412Y-3.0578
X13.0937Y-3.8078
X13.2812Y-3.0578
T3
X2.7787Y-4.4078
X2.9675Y-2.5828
X3.0612Y-3.3328
X3.2487Y-4.0828
X3.7187Y-4.4078
X3.905Y-2.5828
X4.0925Y-3.3328
X4.3737Y-4.8328
X4.4675Y-4.0828
X4.655Y-2.5828
X4.8425Y-3.3328
X5.2175Y-4.0828
X5.3112Y-4.8328
X5.405Y-2.5828
X5.5925Y-3.3328
X5.9675Y-4.0828
X6.1537Y-4.5078
X6.155Y-2.5828
X6.3425Y-3.3328
X6.6237Y-4.8328
X6.7175Y-4.0828
X6.905Y-2.5828
X7.0925Y-3.3328
X7.0937Y-4.5078
X7.4675Y-4.0828
X7.655Y-2.5828
X7.8425Y-3.3328
X8.0287Y-4.5078
X8.2175Y-4.0828
X8.405Y-2.5828
X8.4987Y-4.8328
X8.5925Y-3.3328
X8.9675Y-4.0828
X8.9687Y-4.5078
X9.155Y-2.5828
X9.3425Y-3.3328
X9.7175Y-4.0828
X9.905Y-2.5828
X9.9987Y-4.8328
X10.0925Y-3.3328
X10.4675Y-4.0828
X10.655Y-2.5828
X10.8425Y-3.3328
X10.9362Y-4.8328
X11.2175Y-4.0828
X11.405Y-2.5828
X11.5925Y-3.3328
X11.8737Y-4.8328
X12.1537Y-4.4078
X12.155Y-2.5828
X12.3412Y-3.6578
X12.6237Y-4.0828
X12.8112Y-3.3328
X13.0925Y-2.5828
X13.0937Y-4.4078
X13.2812Y-3.6578
T0
M30
